<svg width="80" height="80" viewBox="0 0 80 80" fill="none" xmlns="http://www.w3.org/2000/svg">
<path fill-rule="evenodd" clip-rule="evenodd" d="M36.0188 68.6065V2.09668H41.8229V68.6065H36.0188Z" fill="black"/>
<path d="M74.8167 11.7701H2.16187V56.3434H74.8167V11.7701Z" fill="#FFCA0E"/>
<path d="M74.8167 11.7701H2.16187V56.3434H74.8167V11.7701Z" fill="white" fill-opacity="0.4"/>
<path fill-rule="evenodd" clip-rule="evenodd" d="M13.6987 21.6466L62.7179 48.6618L62.2527 49.5094L13.2334 22.4942L13.6987 21.6466Z" fill="black"/>
<path fill-rule="evenodd" clip-rule="evenodd" d="M43.8211 36.5869L41.7005 40.2598L39.1873 38.8088L41.3079 35.1359L43.8211 36.5869Z" fill="white"/>
<path d="M17.9573 33.0865L28.995 13.9686L34.5721 17.1885L23.5344 36.3065L17.9573 33.0865Z" fill="white"/>
<path d="M42.7888 50.1283L53.8265 31.0103L59.4036 34.2303L48.3659 53.3482L42.7888 50.1283Z" fill="white"/>
<path fill-rule="evenodd" clip-rule="evenodd" d="M0 75.6596L12.0775 51.1891L17.2822 53.7579L5.20463 78.2283L0 75.6596Z" fill="black"/>
<path fill-rule="evenodd" clip-rule="evenodd" d="M80 75.6596L67.9225 51.1891L62.7178 53.7579L74.7954 78.2283L80 75.6596Z" fill="black"/>
<path d="M23.9431 40.6357L32.873 25.1375L38.439 28.3574L29.509 43.8555L23.9431 40.6357Z" fill="black"/>
<path d="M53.2971 47.4368L59.7283 36.2977L62.584 37.9464L56.1528 49.0856L53.2971 47.4368Z" fill="black"/>
<path d="M34.6753 37.5028L43.6052 22.0046L45.9953 23.3873L37.0653 38.8855L34.6753 37.5028Z" fill="black"/>
</svg>
