<svg width="80" height="80" viewBox="0 0 80 80" fill="none" xmlns="http://www.w3.org/2000/svg">
<g clip-path="url(#clip0_52_1011)">
<path d="M73.5918 6.18652H-0.199951V45.8358H27.9136V39.5317H73.5918V6.18652Z" fill="#E4437A"/>
<path d="M73.5918 6.18652H-0.199951V45.8358H27.9136V39.5317H73.5918V6.18652Z" fill="white" fill-opacity="0.4"/>
<path d="M30.9137 42.5317H80.2V68.9646H30.9137V42.5317Z" fill="#E4437A"/>
<path d="M30.9137 42.5317H80.2V68.9646H30.9137V42.5317Z" fill="white" fill-opacity="0.4"/>
<path d="M51.8396 54.3716H33.9424V51.3682H51.8396V54.3716Z" fill="white"/>
<path d="M54.3179 54.3716H75.7946V51.3682H54.3179V54.3716Z" fill="white"/>
<path d="M75.7946 58.5016H54.3179V55.4982H75.7946V58.5016Z" fill="white"/>
<path d="M35.2514 46.7382L33.5076 47.9772L34.3774 49.2014L36.1212 47.9623C36.905 47.4054 37.9553 47.4054 38.7391 47.9623C40.0437 48.8893 41.7919 48.8893 43.0965 47.9623C43.8803 47.4054 44.9306 47.4054 45.7144 47.9623C47.019 48.8893 48.7673 48.8893 50.0719 47.9623C50.8557 47.4054 51.906 47.4054 52.6898 47.9623C53.9944 48.8893 55.7427 48.8893 57.0473 47.9623C57.3289 47.7622 57.645 47.634 57.9708 47.5777C58.3249 47.5165 58.6904 47.5403 59.0356 47.6491C59.2566 47.7187 59.4692 47.8231 59.6652 47.9623C60.9698 48.8893 62.718 48.8893 64.0226 47.9623C64.8064 47.4054 65.8567 47.4054 66.6405 47.9623C67.9451 48.8893 69.6934 48.8893 70.998 47.9623C71.7817 47.4054 72.8321 47.4054 73.6158 47.9623L75.3597 49.2014L76.2295 47.9772L74.4856 46.7382C73.181 45.8112 71.4328 45.8112 70.1282 46.7382C69.3444 47.2951 68.2941 47.2951 67.5103 46.7382C66.2057 45.8112 64.4574 45.8112 63.1528 46.7382C62.3691 47.2951 61.3187 47.2951 60.535 46.7382C59.9706 46.3372 59.3231 46.1096 58.6645 46.0556C57.8007 45.9847 56.9176 46.2122 56.1774 46.7382C55.3937 47.2951 54.3433 47.2951 53.5596 46.7382C52.255 45.8112 50.5067 45.8112 49.2021 46.7382C48.4183 47.2951 47.368 47.2951 46.5842 46.7382C45.2796 45.8112 43.5313 45.8112 42.2267 46.7382C41.443 47.2951 40.3926 47.2951 39.6089 46.7382C38.3043 45.8112 36.556 45.8112 35.2514 46.7382Z" fill="white"/>
<path d="M68.2225 17.283H47.8472V33.2529H68.2225V17.283Z" fill="white"/>
<path d="M46 20.3119C46 15.4457 38.339 11.5009 28.8887 11.5009C19.4383 11.5009 11.7773 15.4457 11.7773 20.3119" stroke="white" stroke-width="2.68877"/>
<path d="M15.5286 32.0012H17.0616L20.0856 24.1472V32.0012H23.0676V21.0182H19.3296L16.7676 27.7802L14.2686 21.0182H10.2576V32.0012H12.5466V24.1472L15.5286 32.0012Z" fill="black"/>
<path d="M30.9259 32.2322C34.2229 32.2322 36.7219 30.0272 36.7219 26.5622V26.3942C36.7219 22.9712 34.2439 20.7662 30.9469 20.7662C27.6499 20.7662 25.1509 23.0132 25.1509 26.4572V26.6252C25.1509 30.0482 27.6499 32.2322 30.9259 32.2322ZM30.9469 29.9222C29.2249 29.9222 28.2589 28.6622 28.2589 26.5622V26.3942C28.2589 24.2942 29.2669 23.0762 30.9469 23.0762C32.6479 23.0762 33.6349 24.3362 33.6349 26.4362V26.5832C33.6349 28.6622 32.6479 29.9222 30.9469 29.9222Z" fill="black"/>
<path d="M38.7639 32.0012H43.8879C46.6599 32.0012 48.1089 30.8042 48.1089 28.7462V28.7252C48.1089 27.2762 47.1639 26.4992 45.5679 26.2262C46.9959 25.8902 47.6679 25.0292 47.6679 23.7692V23.7272C47.6679 21.8162 46.0089 21.0182 43.5519 21.0182H38.7639V32.0012ZM42.8379 22.9292C43.9509 22.9292 44.5599 23.1812 44.5599 24.1052V24.1262C44.5599 25.0292 44.0559 25.4282 42.9639 25.4282H41.7669V22.9292H42.8379ZM43.3629 27.3182C44.4969 27.3182 45.0219 27.7802 45.0219 28.7042V28.7252C45.0219 29.7122 44.4129 30.1112 43.2159 30.1112H41.7669V27.3182H43.3629Z" fill="black"/>
<path d="M54.1322 30.1112C53.0192 30.1112 52.5362 29.5862 52.5362 28.7882C52.5362 27.6122 53.5652 27.2342 55.3292 27.2342H56.5052V28.1582C56.5052 29.3762 55.4762 30.1112 54.1322 30.1112ZM53.2292 32.2322C54.9512 32.2322 55.9172 31.5602 56.5472 30.6782V32.0012H59.5082V24.8402C59.5082 21.8582 57.5972 20.7662 54.9092 20.7662C52.2212 20.7662 50.1632 21.9212 49.9742 24.5252H52.8512C52.9772 23.5802 53.5232 22.9712 54.7202 22.9712C56.1062 22.9712 56.5052 23.6852 56.5052 24.9872V25.4282H55.2662C51.9062 25.4282 49.5542 26.3942 49.5542 28.9562C49.5542 31.2662 51.2342 32.2322 53.2292 32.2322Z" fill="black"/>
<path d="M-0.199951 45.8359L12.4658 56.5742V45.8359H-0.199951Z" fill="black"/>
<path d="M39.4494 68.9646L30.9138 76.1235V68.9646H39.4494Z" fill="black"/>
<path d="M35.2502 62.9071H33.9424V60.444H35.2502V62.9071Z" fill="black"/>
<path d="M40.4818 62.9071H37.866V60.444H40.4818V62.9071Z" fill="black"/>
<path d="M45.7132 62.9071H43.0974V60.444H45.7132V62.9071Z" fill="black"/>
<path d="M50.9449 62.9071H48.3291V60.444H50.9449V62.9071Z" fill="black"/>
<path d="M56.1763 62.9071H53.5605V60.444H56.1763V62.9071Z" fill="black"/>
<path d="M61.4078 62.9071H58.792V60.444H61.4078V62.9071Z" fill="black"/>
<path d="M66.6392 62.9071H64.0234V60.444H66.6392V62.9071Z" fill="black"/>
<path d="M71.8707 62.9071H69.2549V60.444H71.8707V62.9071Z" fill="black"/>
<path d="M75.7945 62.9071H74.4866V60.444H75.7945V62.9071Z" fill="black"/>
</g>
<defs>
<clipPath id="clip0_52_1011">
<path d="M0 12C0 5.37258 5.37258 0 12 0H68C74.6274 0 80 5.37258 80 12V68C80 74.6274 74.6274 80 68 80H12C5.37258 80 0 74.6274 0 68V12Z" fill="white"/>
</clipPath>
</defs>
</svg>
