<svg width="80" height="80" viewBox="0 0 80 80" fill="none" xmlns="http://www.w3.org/2000/svg">
<path fill-rule="evenodd" clip-rule="evenodd" d="M13.2722 66.6342L67.2556 12.6509L67.9627 13.358L13.9793 67.3413L13.2722 66.6342Z" fill="black"/>
<path fill-rule="evenodd" clip-rule="evenodd" d="M3.39258 49.5222L77.1352 29.7629L77.6528 31.6948L3.91022 51.454L3.39258 49.5222Z" fill="black"/>
<path fill-rule="evenodd" clip-rule="evenodd" d="M4.36501 26.8457L78.1077 46.605L75.7783 55.2983L2.03564 35.539L4.36501 26.8457Z" fill="black"/>
<path fill-rule="evenodd" clip-rule="evenodd" d="M66.2175 65.5965L67.2556 66.6346L64.4272 69.463L63.389 68.4249L66.2175 65.5965ZM62.0649 61.4439L64.1412 63.5202L61.3127 66.3486L59.2365 64.2723L62.0649 61.4439ZM57.9123 57.2913L59.9886 59.3676L57.1602 62.196L55.0839 60.1198L57.9123 57.2913ZM53.7598 53.1388L55.836 55.215L53.0076 58.0435L50.9313 55.9672L53.7598 53.1388ZM49.6072 48.9862L51.6835 51.0625L48.855 53.8909L46.7788 51.8146L49.6072 48.9862ZM45.4546 44.8336L47.5309 46.9099L44.7025 49.7383L42.6262 47.662L45.4546 44.8336ZM41.3021 40.6811L43.3783 42.7573L40.5499 45.5858L38.4736 43.5095L41.3021 40.6811ZM37.1495 36.5285L39.2258 38.6048L36.3973 41.4332L34.3211 39.3569L37.1495 36.5285ZM32.9969 32.3759L35.0732 34.4522L32.2448 37.2806L30.1685 35.2043L32.9969 32.3759ZM28.8444 28.2233L30.9206 30.2996L28.0922 33.1281L26.0159 31.0518L28.8444 28.2233ZM24.6918 24.0708L26.7681 26.1471L23.9396 28.9755L21.8634 26.8992L24.6918 24.0708ZM20.5392 19.9182L22.6155 21.9945L19.7871 24.8229L17.7108 22.7466L20.5392 19.9182ZM16.3866 15.7656L18.4629 17.8419L15.6345 20.6704L13.5582 18.5941L16.3866 15.7656ZM13.2722 12.6512L14.3104 13.6894L11.4819 16.5178L10.4438 15.4797L13.2722 12.6512Z" fill="black"/>
<path fill-rule="evenodd" clip-rule="evenodd" d="M30.3846 2.77173L50.1439 76.5143L49.178 76.7732L29.4187 3.03055L30.3846 2.77173Z" fill="black"/>
<path d="M69.9931 68.5159C69.9931 70.3957 68.4693 71.9196 66.5895 71.9196C64.7097 71.9196 63.1858 70.3957 63.1858 68.5159C63.1858 66.6361 64.7097 65.1123 66.5895 65.1123C68.4693 65.1123 69.9931 66.6361 69.9931 68.5159Z" fill="black"/>
<path d="M35.164 76.5963C35.164 78.4761 33.6402 79.9999 31.7604 79.9999C29.8806 79.9999 28.3567 78.4761 28.3567 76.5963C28.3567 74.7165 29.8806 73.1926 31.7604 73.1926C33.6402 73.1926 35.164 74.7165 35.164 76.5963Z" fill="black"/>
<path d="M53.5473 3.74362C53.5473 5.6234 52.0234 7.14727 50.1436 7.14727C48.2639 7.14727 46.74 5.6234 46.74 3.74362C46.74 1.86383 48.2639 0.339966 50.1436 0.339966C52.0234 0.339966 53.5473 1.86383 53.5473 3.74362Z" fill="black"/>
<path d="M40.2645 68.3151C56.2426 68.3151 69.1955 55.3623 69.1955 39.3841C69.1955 23.406 56.2426 10.4531 40.2645 10.4531C24.2863 10.4531 11.3335 23.406 11.3335 39.3841C11.3335 55.3623 24.2863 68.3151 40.2645 68.3151Z" fill="#4CC05E"/>
<g style="mix-blend-mode:soft-light" opacity="0.4">
<path d="M40.2645 68.3151C56.2426 68.3151 69.1955 55.3623 69.1955 39.3841C69.1955 23.406 56.2426 10.4531 40.2645 10.4531C24.2863 10.4531 11.3335 23.406 11.3335 39.3841C11.3335 55.3623 24.2863 68.3151 40.2645 68.3151Z" fill="white"/>
</g>
<path d="M60.0111 25.4785C65.0492 34.2048 51.8984 32.2098 39.3739 39.4408C26.8494 46.6718 22.1315 58.7959 17.5993 45.4774C14.362 35.9639 17.5993 24.5975 27.9144 18.6421C40.4389 11.4111 53.7637 14.6576 60.0111 25.4785Z" fill="white"/>
<path d="M35.1644 53.0589C40.2437 53.0589 44.3612 48.9413 44.3612 43.862C44.3612 38.7827 40.2437 34.6652 35.1644 34.6652C30.0851 34.6652 25.9675 38.7827 25.9675 43.862C25.9675 48.9413 30.0851 53.0589 35.1644 53.0589Z" fill="black"/>
<path d="M59.1521 48.1898C59.1521 49.8221 57.8289 51.1453 56.1966 51.1453C54.5644 51.1453 53.2412 49.8221 53.2412 48.1898C53.2412 46.5576 54.5644 45.2344 56.1966 45.2344C57.8289 45.2344 59.1521 46.5576 59.1521 48.1898Z" fill="black"/>
<path d="M30.3436 7.14727C32.2234 7.14727 33.7472 5.6234 33.7472 3.74362C33.7472 1.86383 32.2234 0.339966 30.3436 0.339966C28.4638 0.339966 26.9399 1.86383 26.9399 3.74362C26.9399 5.6234 28.4638 7.14727 30.3436 7.14727Z" fill="#8BD789"/>
<path d="M4.36508 53.5765C6.24486 53.5765 7.76873 52.0526 7.76873 50.1728C7.76873 48.293 6.24486 46.7692 4.36508 46.7692C2.48529 46.7692 0.961426 48.293 0.961426 50.1728C0.961426 52.0526 2.48529 53.5765 4.36508 53.5765Z" fill="#8BD789"/>
</svg>
