<svg width="80" height="80" viewBox="0 0 80 80" fill="none" xmlns="http://www.w3.org/2000/svg">
<path fill-rule="evenodd" clip-rule="evenodd" d="M22 12H12V22H22V12ZM6 6V28H28V6H6Z" fill="black"/>
<path fill-rule="evenodd" clip-rule="evenodd" d="M68 12H58V22H68V12ZM52 6V28H74V6H52Z" fill="black"/>
<path fill-rule="evenodd" clip-rule="evenodd" d="M22 58H12V68H22V58ZM6 52V74H28V52H6Z" fill="black"/>
<path d="M74 33H33V74H74V33Z" fill="#6820EA"/>
<path d="M74 33H33V74H74V33Z" fill="white" fill-opacity="0.4"/>
<path fill-rule="evenodd" clip-rule="evenodd" d="M19 28V52H15V28H19Z" fill="black"/>
<path fill-rule="evenodd" clip-rule="evenodd" d="M52 19H28V15H52V19Z" fill="black"/>
<path fill-rule="evenodd" clip-rule="evenodd" d="M65 17V64H61V17H65Z" fill="white"/>
<path fill-rule="evenodd" clip-rule="evenodd" d="M65 65H17V61H65V65Z" fill="white"/>
</svg>
