<svg width="80" height="80" viewBox="0 0 80 80" fill="none" xmlns="http://www.w3.org/2000/svg">
<path fill-rule="evenodd" clip-rule="evenodd" d="M71 11H0V57H52.535C54.9182 52.2557 59.8289 49 65.5 49C67.4468 49 69.3039 49.3837 71 50.0795V11Z" fill="#FFCA0E"/>
<path fill-rule="evenodd" clip-rule="evenodd" d="M71 11H0V57H52.535C54.9182 52.2557 59.8289 49 65.5 49C67.4468 49 69.3039 49.3837 71 50.0795V11Z" fill="white" fill-opacity="0.4"/>
<path fill-rule="evenodd" clip-rule="evenodd" d="M38.8661 25.7253L52.3169 37.4948L49.6829 40.5052L39.1338 31.2747L25.5852 45.6571L31.3628 51.0362L28.6371 53.9638L15.5495 41.7788L3.41412 53.9142L0.585693 51.0858L15.4503 36.2212L22.6575 42.9313L38.8661 25.7253Z" fill="black"/>
<path d="M15.5 32C19.0899 32 22 29.0899 22 25.5C22 21.9101 19.0899 19 15.5 19C11.9101 19 9 21.9101 9 25.5C9 29.0899 11.9101 32 15.5 32Z" fill="white"/>
<path fill-rule="evenodd" clip-rule="evenodd" d="M1.53571 68.845H0V61.155H1.53571V68.845ZM7.67857 68.845H4.60714V61.155H7.67857V68.845ZM13.8214 68.845H10.75V61.155H13.8214V68.845ZM19.9643 68.845H16.8929V61.155H19.9643V68.845ZM26.1071 68.845H23.0357V61.155H26.1071V68.845ZM32.25 68.845H29.1786V61.155H32.25V68.845ZM38.3929 68.845H35.3214V61.155H38.3929V68.845ZM43 68.845H41.4643V61.155H43V68.845Z" fill="black"/>
<path fill-rule="evenodd" clip-rule="evenodd" d="M65.5 78C73.5081 78 80 71.5081 80 63.5C80 55.4919 73.5081 49 65.5 49C57.4919 49 51 55.4919 51 63.5C51 71.5081 57.4919 78 65.5 78Z" fill="white"/>
<path fill-rule="evenodd" clip-rule="evenodd" d="M65.5 77C72.9558 77 79 70.9558 79 63.5C79 56.0442 72.9558 50 65.5 50C58.0442 50 52 56.0442 52 63.5C52 70.9558 58.0442 77 65.5 77ZM65.5 78C73.5081 78 80 71.5081 80 63.5C80 55.4919 73.5081 49 65.5 49C57.4919 49 51 55.4919 51 63.5C51 71.5081 57.4919 78 65.5 78Z" fill="black"/>
<path fill-rule="evenodd" clip-rule="evenodd" d="M68.971 61.029L66 53L63.029 61.029L55 64L63.029 66.971L66 75L68.971 66.971L77 64L68.971 61.029ZM69.0758 64L66.8307 63.1693L66 60.9242L65.1693 63.1693L62.9242 64L65.1693 64.8307L66 67.0758L66.8307 64.8307L69.0758 64Z" fill="black"/>
<path fill-rule="evenodd" clip-rule="evenodd" d="M8 8H74V47.5H73V9H8V8Z" fill="black"/>
</svg>
