<svg width="80" height="80" viewBox="0 0 80 80" fill="none" xmlns="http://www.w3.org/2000/svg">
<path d="M40 5C30.7174 5 21.8152 8.6876 15.2513 15.2513C8.68761 21.8155 5 30.717 5 40C5 49.283 8.68761 58.1848 15.2513 64.7487C21.8155 71.3124 30.7169 75 40 75C49.283 75 58.1848 71.3124 64.7487 64.7487C71.3124 58.1845 75 49.283 75 40C74.9896 30.7206 71.2987 21.8236 64.7373 15.2624C58.1758 8.70096 49.2788 5.0103 40 5Z" fill="#6820EA"/>
<path d="M40 5C30.7174 5 21.8152 8.6876 15.2513 15.2513C8.68761 21.8155 5 30.717 5 40C5 49.283 8.68761 58.1848 15.2513 64.7487C21.8155 71.3124 30.7169 75 40 75C49.283 75 58.1848 71.3124 64.7487 64.7487C71.3124 58.1845 75 49.283 75 40C74.9896 30.7206 71.2987 21.8236 64.7373 15.2624C58.1758 8.70096 49.2788 5.0103 40 5Z" fill="white" fill-opacity="0.4"/>
<path d="M56.7944 28.6099L41.3639 19.4337C40.5688 18.9611 39.5895 18.9611 38.7944 19.4337L23.3639 28.6099C22.5688 29.0826 22.0791 29.957 22.0791 30.9031V49.2554C22.0791 50.2015 22.5688 51.0759 23.3639 51.5486L38.7944 60.7247C39.5895 61.1974 40.5688 61.1974 41.3639 60.7247L56.7944 51.5486C57.5895 51.0759 58.0791 50.2015 58.0791 49.2554V30.9031C58.0791 29.957 57.5895 29.0826 56.7944 28.6099Z" fill="white"/>
<path fill-rule="evenodd" clip-rule="evenodd" d="M53.0799 31.3407L41.0784 24.3493C40.46 23.9892 39.6983 23.9892 39.0799 24.3493L27.0784 31.3407C26.46 31.7008 26.0791 32.367 26.0791 33.0879V47.0706C26.0791 47.7914 26.46 48.4576 27.0784 48.8178L39.0799 55.8091C39.6983 56.1693 40.46 56.1693 41.0784 55.8091L53.0799 48.8178C53.6983 48.4576 54.0791 47.7914 54.0791 47.0706V33.0879C54.0791 32.3671 53.6983 31.7008 53.0799 31.3407ZM40.0791 49.4474L48.0791 44.7871V35.3714L40.0791 30.7111L32.0791 35.3714V44.7871L40.0791 49.4474Z" fill="black"/>
<path fill-rule="evenodd" clip-rule="evenodd" d="M65.4026 45.972C68.6571 31.9863 59.9577 18.0103 45.972 14.7558L46.8786 10.8599C63.016 14.6151 73.0537 30.7412 69.2985 46.8786L65.4026 45.972ZM14.7558 34.1863C11.5012 48.1721 20.2006 62.148 34.1863 65.4026L33.2797 69.2985C17.1423 65.5432 7.10465 49.4171 10.8599 33.2797L14.7558 34.1863Z" fill="black"/>
<path fill-rule="evenodd" clip-rule="evenodd" d="M65.4023 45.9721C68.6568 31.9863 59.9574 18.0104 45.9717 14.7558L46.8783 10.8599C63.0157 14.6151 73.0534 30.7413 69.2982 46.8787L65.4023 45.9721Z" fill="white"/>
<path fill-rule="evenodd" clip-rule="evenodd" d="M36.7042 78.0832C57.6933 79.9471 76.2194 64.4431 78.0833 43.4539L79.0794 43.5424C77.1666 65.0816 58.155 80.9921 36.6158 79.0793L36.7042 78.0832ZM43.454 2.07482C22.4649 0.21093 3.93884 15.715 2.07494 36.7042L1.07886 36.6157C2.99161 15.0765 22.0032 -0.834003 43.5424 1.07874L43.454 2.07482Z" fill="black"/>
<path fill-rule="evenodd" clip-rule="evenodd" d="M17.3428 25.124C17.0873 25.5116 16.8412 25.9067 16.6048 26.3092L9.97388 22.4147C10.2777 21.8975 10.594 21.3897 10.9223 20.8916L17.3428 25.124ZM20.8758 20.8089C20.2164 21.4636 19.5892 22.1533 18.9974 22.876L13.0476 18.0041C13.8073 17.0763 14.6121 16.1913 15.4577 15.3517L20.8758 20.8089ZM25.2195 17.3006C24.4385 17.8092 23.6833 18.3577 22.9574 18.944L18.1258 12.9614C19.0558 12.2103 20.0229 11.5078 21.023 10.8566L25.2195 17.3006ZM30.1852 14.7462C29.316 15.0862 28.4656 15.4702 27.6374 15.8963L24.1195 9.05814C25.1802 8.51244 26.2698 8.02034 27.384 7.58454L30.1852 14.7462ZM35.5613 13.2577C34.6399 13.413 33.7303 13.6155 32.8359 13.8632L30.7836 6.45216C31.9314 6.13429 33.0993 5.87427 34.283 5.67473L35.5613 13.2577ZM39.7288 12.8841C39.2618 12.8896 38.7965 12.9072 38.3335 12.9367L37.8452 5.26224C38.4403 5.22438 39.0382 5.20177 39.6382 5.1947L39.7288 12.8841ZM44.3341 74.7563C43.7774 74.8248 43.2177 74.88 42.6554 74.9215L42.0889 67.2524C42.5264 67.2201 42.9619 67.1772 43.3951 67.1239L44.3341 74.7563ZM50.9053 73.2904C49.8405 73.6389 48.7563 73.9371 47.656 74.1826L45.981 66.6773C46.8379 66.486 47.6828 66.2537 48.513 65.982L50.9053 73.2904ZM57.068 70.5924C56.0883 71.1388 55.0818 71.6386 54.0522 72.0895L50.9677 65.0452C51.7713 64.6933 52.557 64.3032 53.3221 63.8764L57.068 70.5924ZM62.6009 66.7682C61.7418 67.4931 60.849 68.1755 59.9261 68.8133L55.5539 62.4872C56.2746 61.9891 56.9716 61.4563 57.6421 60.8906L62.6009 66.7682ZM67.3029 61.9534C66.5968 62.8322 65.8506 63.6734 65.0677 64.4749L59.5664 59.1017C60.1767 58.4768 60.7582 57.8212 61.3081 57.1368L67.3029 61.9534ZM70.1736 57.7929C69.8881 58.2791 69.5915 58.7569 69.2842 59.2262L62.8506 55.0137C63.0897 54.6485 63.3205 54.2767 63.5427 53.8984L70.1736 57.7929Z" fill="black"/>
</svg>
