<svg width="166" height="120" viewBox="0 0 166 120" fill="none" xmlns="http://www.w3.org/2000/svg">
<path d="M45.4769 113.984L45.0177 112.822L45.477 113.984C47.0636 113.358 48.6315 112.738 50.2062 112.177C56.013 110.107 62.1097 112.357 68.5115 114.719L68.7423 114.804C73.0309 116.387 77.666 117.25 82.5 117.25C87.6012 117.25 92.4808 116.288 96.9653 114.536C97.1621 114.459 97.3586 114.382 97.5548 114.305C100.341 113.214 103.073 112.144 105.806 111.527C108.711 110.872 111.52 110.754 114.254 111.649C116.343 112.334 118.416 113.152 120.523 113.984L120.53 113.987C121.86 114.513 123.204 115.043 124.551 115.538C127.566 116.646 130.822 117.25 134.217 117.25C149.699 117.25 162.25 104.699 162.25 89.2174C162.25 85.8225 161.646 82.5659 160.538 79.551C160.043 78.2032 159.512 76.8595 158.987 75.5297L158.984 75.5231C156.912 70.2781 154.946 65.259 154.946 60C154.946 54.741 156.912 49.7225 158.984 44.4775L158.987 44.471C159.512 43.1412 160.043 41.7969 160.538 40.449C161.646 37.4341 162.25 34.1775 162.25 30.7826C162.25 15.3006 149.699 2.75 134.217 2.75C130.822 2.75 127.566 3.35405 124.551 4.4616C123.203 4.95679 121.859 5.48768 120.529 6.0131L120.522 6.01577C118.416 6.84811 116.343 7.66648 114.254 8.35054C111.52 9.24584 108.711 9.12821 105.806 8.47304C103.073 7.85639 100.341 6.78624 97.555 5.69516C97.3587 5.61829 97.1622 5.54131 96.9654 5.46438C92.4808 3.71153 87.6012 2.75 82.5 2.75C77.666 2.75 73.0309 3.61344 68.7423 5.19559L68.5115 5.28074C62.1097 7.64307 56.013 9.89285 50.2062 7.82298C48.6315 7.26167 47.0642 6.6426 45.4775 6.01577L45.4708 6.01312C44.1408 5.48769 42.797 4.95679 41.449 4.4616C38.4341 3.35404 35.1775 2.75 31.7826 2.75C16.3006 2.75 3.75 15.3006 3.75 30.7826C3.75 34.1775 4.35405 37.4341 5.4616 40.4491L6.63009 40.0198L5.4616 40.4491C5.95675 41.7969 6.4876 43.1406 7.01299 44.4705L7.01576 44.4775C9.08787 49.7225 11.0543 54.741 11.0543 60C11.0543 65.259 9.08788 70.2775 7.01577 75.5225L7.01292 75.5297C6.48755 76.8595 5.95673 78.2031 5.4616 79.5509C4.35405 82.5659 3.75 85.8225 3.75 89.2174C3.75 104.699 16.3006 117.25 31.7826 117.25C35.1775 117.25 38.4341 116.646 41.449 115.538C42.7969 115.043 44.1407 114.512 45.4706 113.987L45.4769 113.984Z" fill="#FD6247" stroke="#0A0E16" stroke-width="2.5"/>
<g clip-path="url(#clip0_93_1597)">
<path d="M53.4684 27.478H112.588V59.289H53.4684V27.478Z" fill="white" fill-opacity="0.6"/>
<path d="M123 63H103V89H123V63Z" fill="white"/>
<path fill-rule="evenodd" clip-rule="evenodd" d="M93.0578 82.9142H71.5898V79.5647L93.0578 79.5648V82.9142Z" fill="white"/>
<path fill-rule="evenodd" clip-rule="evenodd" d="M68.8339 73.9352L66.7422 75.4263L67.7143 76.79L69.8061 75.2989C70.7669 74.6139 72.0566 74.6139 73.0174 75.2989C74.5601 76.3985 76.6304 76.3985 78.1731 75.2989C79.134 74.6139 80.4236 74.6139 81.3844 75.2989C82.9271 76.3985 84.9975 76.3985 86.5401 75.2989C87.501 74.6139 88.7906 74.6139 89.7515 75.2989C91.2941 76.3985 93.3645 76.3985 94.9071 75.2989C95.868 74.6139 97.1576 74.6139 98.1185 75.2989L99.0906 73.9352C97.548 72.8355 95.4776 72.8355 93.935 73.9352C92.9741 74.6201 91.6845 74.6201 90.7236 73.9352C89.181 72.8355 87.1106 72.8355 85.568 73.9352C84.6071 74.6201 83.3175 74.6201 82.3566 73.9352C80.814 72.8355 78.7436 72.8355 77.2009 73.9352C76.2401 74.6201 74.9505 74.6201 73.9896 73.9352C72.4469 72.8355 70.3766 72.8355 68.8339 73.9352Z" fill="white"/>
<path d="M57.1927 75.6517L42 62.7285H57.1927V75.6517Z" fill="white"/>
<path d="M80.3213 97.2652L90.5599 88.6497H80.3213V97.2652Z" fill="black"/>
<path fill-rule="evenodd" clip-rule="evenodd" d="M123 38.8832H102.992V35.5338H123V38.8832Z" fill="black"/>
<path fill-rule="evenodd" clip-rule="evenodd" d="M123 46.6893H102.992V43.3398H123V46.6893Z" fill="black"/>
<path d="M75.0001 66.5C81.3513 66.5 86.5 61.3514 86.5 55C86.5 48.6486 81.3513 43.5 75.0001 43.5C68.6488 43.5 63.5 48.6486 63.5 55C63.5 61.3514 68.6488 66.5 75.0001 66.5Z" fill="#0A0E16" stroke="white" stroke-width="3"/>
</g>
<defs>
<clipPath id="clip0_93_1597">
<path d="M43 32C43 25.3726 48.3726 20 55 20H111C117.627 20 123 25.3726 123 32V88C123 94.6274 117.627 100 111 100H55C48.3726 100 43 94.6274 43 88V32Z" fill="white"/>
</clipPath>
</defs>
</svg>
