<svg width="80" height="80" viewBox="0 0 80 80" fill="none" xmlns="http://www.w3.org/2000/svg">
<path d="M10.4681 7.47803H69.5876V39.289H10.4681V7.47803Z" fill="#FFCA0E"/>
<path d="M10.4681 7.47803H69.5876V39.289H10.4681V7.47803Z" fill="white" fill-opacity="0.4"/>
<path d="M78.9059 34.6569H55.2341V68.8495H78.9059V34.6569Z" fill="#ECECEC"/>
<path fill-rule="evenodd" clip-rule="evenodd" d="M50.0576 57.9142H28.5896V54.5647L50.0576 54.5648V57.9142Z" fill="#ECECEC"/>
<path fill-rule="evenodd" clip-rule="evenodd" d="M16.2019 65.7205H14.6331V62.9736H16.2019V65.7205ZM22.4772 65.7205H19.3395V62.9736H22.4772V65.7205ZM28.7524 65.7205H25.6148V62.9736H28.7524V65.7205ZM35.0277 65.7205H31.89V62.9736H35.0277V65.7205ZM41.3029 65.7205H38.1653V62.9736H41.3029V65.7205ZM47.5782 65.7205H44.4406V62.9736H47.5782V65.7205ZM53.8534 65.7205H50.7158V62.9736H53.8534V65.7205ZM60.1287 65.7205H56.9911V62.9736H60.1287V65.7205ZM64.8351 65.7205H63.2663V62.9736H64.8351V65.7205Z" fill="#ECECEC"/>
<path fill-rule="evenodd" clip-rule="evenodd" d="M25.8336 47.9352L23.7419 49.4263L24.714 50.79L26.8058 49.2989C27.7666 48.6139 29.0563 48.6139 30.0171 49.2989C31.5598 50.3985 33.6301 50.3985 35.1728 49.2989C36.1337 48.6139 37.4233 48.6139 38.3841 49.2989C39.9268 50.3985 41.9972 50.3985 43.5398 49.2989C44.5007 48.6139 45.7903 48.6139 46.7512 49.2989C48.2938 50.3985 50.3642 50.3985 51.9068 49.2989C52.8677 48.6139 54.1573 48.6139 55.1182 49.2989L56.0903 47.9352C54.5477 46.8355 52.4773 46.8355 50.9347 47.9352C49.9738 48.6201 48.6842 48.6201 47.7233 47.9352C46.1807 46.8355 44.1103 46.8355 42.5677 47.9352C41.6068 48.6201 40.3172 48.6201 39.3563 47.9352C37.8137 46.8355 35.7433 46.8355 34.2006 47.9352C33.2398 48.6201 31.9502 48.6201 30.9893 47.9352C29.4466 46.8355 27.3763 46.8355 25.8336 47.9352Z" fill="#ECECEC"/>
<path d="M15.1927 54.6517L0 41.7285H15.1927V54.6517Z" fill="black"/>
<path d="M37.3213 77.2652L47.5599 68.6497H37.3213V77.2652Z" fill="black"/>
<path fill-rule="evenodd" clip-rule="evenodd" d="M79.9999 18.8832H59.9922V15.5338H79.9999V18.8832Z" fill="black"/>
<path fill-rule="evenodd" clip-rule="evenodd" d="M79.9999 26.6893H59.9922V23.3398H79.9999V26.6893Z" fill="black"/>
<path d="M37.6994 36.8487C37.6994 40.9645 34.3629 44.3009 30.2472 44.3009C26.1314 44.3009 22.7949 40.9645 22.7949 36.8487C22.7949 32.7329 26.1314 29.3965 30.2472 29.3965C34.3629 29.3965 37.6994 32.7329 37.6994 36.8487Z" fill="black"/>
</svg>
