<svg width="182" height="132" viewBox="0 0 182 132" fill="none" xmlns="http://www.w3.org/2000/svg">
<path d="M92.1788 5.45987L91.0547 3.11167L89.925 5.45819C85.9694 13.6747 77.5779 19.8615 67.3271 23.0254C57.0902 26.1851 45.1392 26.2802 34.2646 22.4534L30.8351 21.2465L32.7967 24.3073C37.8272 32.1567 37.6941 40.7167 33.5423 48.0904C29.3701 55.5004 21.0834 61.7879 9.7076 64.7902L5.11993 66.001L9.70761 67.2077C21.104 70.2054 29.3698 76.4925 33.5117 83.9095C37.6334 91.2903 37.7295 99.8714 32.6722 107.758L30.7076 110.822L34.1396 109.611C45.0263 105.772 56.9771 105.854 67.204 109.002C77.4449 112.154 85.8166 118.33 89.7471 126.54L90.8712 128.888L92.0008 126.542C95.9672 118.302 104.372 112.115 114.642 108.957C124.899 105.803 136.877 105.718 147.789 109.547L151.206 110.746L149.256 107.694C144.224 99.8153 144.344 91.2342 148.488 83.8468C152.653 76.4234 160.939 70.1262 172.345 67.1154L176.932 65.9044L172.345 64.6979C160.978 61.7087 152.712 55.4313 148.562 48.0277C144.433 40.6607 144.324 32.1006 149.379 24.2434L151.35 21.18L147.914 22.3883C136.99 26.2295 125.012 26.1587 114.765 23.0163C104.505 19.8698 96.12 13.693 92.1788 5.45987Z" fill="#6820EA" stroke="#0A0E16" stroke-width="2.5"/>
<g clip-path="url(#clip0_93_1643)">
<path d="M63.4684 33.478H122.588V65.289H63.4684V33.478Z" fill="white" fill-opacity="0.6"/>
<path d="M133 69H113V95H133V69Z" fill="white"/>
<path fill-rule="evenodd" clip-rule="evenodd" d="M103.058 88.9142H81.5898V85.5647L103.058 85.5648V88.9142Z" fill="white"/>
<path fill-rule="evenodd" clip-rule="evenodd" d="M78.8339 79.9352L76.7422 81.4263L77.7143 82.79L79.8061 81.2989C80.7669 80.6139 82.0566 80.6139 83.0174 81.2989C84.5601 82.3985 86.6304 82.3985 88.1731 81.2989C89.134 80.6139 90.4236 80.6139 91.3844 81.2989C92.9271 82.3985 94.9975 82.3985 96.5401 81.2989C97.501 80.6139 98.7906 80.6139 99.7515 81.2989C101.294 82.3985 103.364 82.3985 104.907 81.2989C105.868 80.6139 107.158 80.6139 108.118 81.2989L109.091 79.9352C107.548 78.8355 105.478 78.8355 103.935 79.9352C102.974 80.6201 101.684 80.6201 100.724 79.9352C99.181 78.8355 97.1106 78.8355 95.568 79.9352C94.6071 80.6201 93.3175 80.6201 92.3566 79.9352C90.814 78.8355 88.7436 78.8355 87.2009 79.9352C86.2401 80.6201 84.9505 80.6201 83.9896 79.9352C82.4469 78.8355 80.3766 78.8355 78.8339 79.9352Z" fill="white"/>
<path d="M67.1927 81.6517L52 68.7285H67.1927V81.6517Z" fill="white"/>
<path d="M90.3213 103.265L100.56 94.6497H90.3213V103.265Z" fill="black"/>
<path fill-rule="evenodd" clip-rule="evenodd" d="M133 44.8832H112.992V41.5338H133V44.8832Z" fill="black"/>
<path fill-rule="evenodd" clip-rule="evenodd" d="M133 52.6893H112.992V49.3398H133V52.6893Z" fill="black"/>
<path d="M85.0001 72.5C91.3513 72.5 96.5 67.3514 96.5 61C96.5 54.6486 91.3513 49.5 85.0001 49.5C78.6488 49.5 73.5 54.6486 73.5 61C73.5 67.3514 78.6488 72.5 85.0001 72.5Z" fill="#0A0E16" stroke="white" stroke-width="3"/>
</g>
<defs>
<clipPath id="clip0_93_1643">
<path d="M53 38C53 31.3726 58.3726 26 65 26H121C127.627 26 133 31.3726 133 38V94C133 100.627 127.627 106 121 106H65C58.3726 106 53 100.627 53 94V38Z" fill="white"/>
</clipPath>
</defs>
</svg>
