<svg width="166" height="120" viewBox="0 0 166 120" fill="none" xmlns="http://www.w3.org/2000/svg">
<mask id="path-1-outside-1_93_1533" maskUnits="userSpaceOnUse" x="2" y="0.614502" width="162" height="119" fill="black">
<rect fill="white" x="2" y="0.614502" width="162" height="119"/>
<path fill-rule="evenodd" clip-rule="evenodd" d="M161 19.2394C161 26.3602 137.221 32.3685 104.702 34.2516C137.221 36.544 161 43.8584 161 52.5273C161 60.1546 142.591 66.7334 116.018 69.7656C142.591 73.6641 161 82.1226 161 91.9292C161 105.436 126.078 116.386 83 116.386C39.9218 116.386 5 105.436 5 91.9292C5 82.1226 23.4087 73.6641 49.9822 69.7656C23.4087 66.7334 5 60.1546 5 52.5273C5 43.8584 28.779 36.544 61.2981 34.2516C28.779 32.3685 5 26.3602 5 19.2394C5 10.61 39.9218 3.6145 83 3.6145C126.078 3.6145 161 10.61 161 19.2394Z"/>
</mask>
<path fill-rule="evenodd" clip-rule="evenodd" d="M161 19.2394C161 26.3602 137.221 32.3685 104.702 34.2516C137.221 36.544 161 43.8584 161 52.5273C161 60.1546 142.591 66.7334 116.018 69.7656C142.591 73.6641 161 82.1226 161 91.9292C161 105.436 126.078 116.386 83 116.386C39.9218 116.386 5 105.436 5 91.9292C5 82.1226 23.4087 73.6641 49.9822 69.7656C23.4087 66.7334 5 60.1546 5 52.5273C5 43.8584 28.779 36.544 61.2981 34.2516C28.779 32.3685 5 26.3602 5 19.2394C5 10.61 39.9218 3.6145 83 3.6145C126.078 3.6145 161 10.61 161 19.2394Z" fill="#4CC05E"/>
<path d="M104.702 34.2516L104.557 31.7558L104.526 36.7454L104.702 34.2516ZM116.018 69.7656L115.734 67.2817L115.655 72.2391L116.018 69.7656ZM49.9822 69.7656L50.3451 72.2391L50.2657 67.2817L49.9822 69.7656ZM61.2981 34.2516L61.4739 36.7454L61.4426 31.7558L61.2981 34.2516ZM104.846 36.7474C121.198 35.8005 135.452 33.8127 145.68 31.1277C150.775 29.7904 155.013 28.2441 158.034 26.4847C160.865 24.8363 163.5 22.4821 163.5 19.2394H158.5C158.5 19.5571 158.162 20.6243 155.518 22.164C153.065 23.5927 149.326 25.0014 144.411 26.2916C134.62 28.8617 120.725 30.8195 104.557 31.7558L104.846 36.7474ZM163.5 52.5273C163.5 49.1326 161.185 46.398 158.222 44.2974C155.186 42.1452 150.924 40.2522 145.807 38.6169C135.54 35.336 121.251 32.912 104.878 31.7578L104.526 36.7454C120.672 37.8836 134.532 40.2631 144.285 43.3796C149.177 44.9432 152.892 46.6475 155.331 48.3764C157.842 50.1571 158.5 51.5875 158.5 52.5273H163.5ZM116.301 72.2495C129.692 70.7215 141.162 68.2874 149.353 65.2099C153.436 63.6759 156.847 61.9299 159.283 59.9537C161.692 58 163.5 55.5188 163.5 52.5273H158.5C158.5 53.3494 158.007 54.5508 156.133 56.0706C154.288 57.5679 151.436 59.0862 147.595 60.5294C139.938 63.4061 128.917 65.7776 115.734 67.2817L116.301 72.2495ZM115.655 72.2391C128.803 74.1681 139.776 77.2064 147.387 80.883C151.196 82.7233 154.042 84.666 155.904 86.6074C157.755 88.5375 158.5 90.3171 158.5 91.9292H163.5C163.5 88.638 161.944 85.6828 159.513 83.147C157.092 80.6226 153.676 78.3682 149.561 76.3808C141.325 72.4018 129.806 69.2616 116.381 67.2921L115.655 72.2391ZM158.5 91.9292C158.5 94.1441 157.064 96.7105 153.382 99.4404C149.747 102.135 144.328 104.667 137.406 106.837C123.594 111.168 104.358 113.886 83 113.886V118.886C104.721 118.886 124.485 116.129 138.902 111.608C146.096 109.352 152.1 106.614 156.359 103.457C160.571 100.335 163.5 96.4678 163.5 91.9292H158.5ZM83 113.886C61.6425 113.886 42.4064 111.168 28.5936 106.837C21.6724 104.667 16.2532 102.135 12.6184 99.4404C8.9359 96.7105 7.5 94.1441 7.5 91.9292H2.5C2.5 96.4678 5.42932 100.335 9.64083 103.457C13.9001 106.614 19.9037 109.352 27.0977 111.608C41.5153 116.129 61.2793 118.886 83 118.886V113.886ZM7.5 91.9292C7.5 90.3171 8.24549 88.5375 10.0961 86.6074C11.9576 84.666 14.8039 82.7233 18.6135 80.883C26.2244 77.2064 37.1967 74.1681 50.3451 72.2391L49.6194 67.2921C36.1942 69.2616 24.6754 72.4018 16.4386 76.3808C12.3243 78.3682 8.90755 80.6226 6.48705 83.147C4.05559 85.6828 2.5 88.638 2.5 91.9292H7.5ZM2.5 52.5273C2.5 55.5188 4.30822 58 6.71664 59.9537C9.1529 61.9299 12.5639 63.6759 16.6468 65.2099C24.8378 68.2874 36.3076 70.7215 49.6988 72.2495L50.2657 67.2817C37.0833 65.7776 26.062 63.4061 18.4053 60.5294C14.5643 59.0862 11.7123 57.5679 9.8665 56.0706C7.99286 54.5508 7.5 53.3494 7.5 52.5273H2.5ZM61.1223 31.7578C44.7495 32.912 30.4602 35.336 20.1934 38.6169C15.0763 40.2522 10.8137 42.1452 7.77774 44.2974C4.81473 46.398 2.5 49.1326 2.5 52.5273H7.5C7.5 51.5875 8.15765 50.1571 10.6694 48.3764C13.1082 46.6475 16.8228 44.9432 21.7154 43.3796C31.4679 40.2631 45.3277 37.8836 61.4739 36.7454L61.1223 31.7578ZM2.5 19.2394C2.5 22.4821 5.13472 24.8363 7.96553 26.4847C10.9868 28.2441 15.225 29.7904 20.3196 31.1277C30.5481 33.8127 44.8022 35.8005 61.1535 36.7474L61.4426 31.7558C45.2749 30.8195 31.3799 28.8617 21.5891 26.2916C16.6741 25.0014 12.9351 23.5927 10.4816 22.164C7.83766 20.6243 7.5 19.5571 7.5 19.2394H2.5ZM83 1.1145C61.3475 1.1145 41.6752 2.87095 27.3546 5.73963C20.2149 7.16985 14.2749 8.90164 10.0596 10.8981C7.95815 11.8933 6.15156 13.016 4.83583 14.304C3.51575 15.5962 2.5 17.2531 2.5 19.2394H7.5C7.5 19.0684 7.57555 18.6189 8.33353 17.8769C9.09587 17.1307 10.3541 16.291 12.1997 15.4169C15.8783 13.6747 21.3612 12.0396 28.3367 10.6422C42.2466 7.85581 61.5743 6.1145 83 6.1145V1.1145ZM163.5 19.2394C163.5 17.2531 162.484 15.5962 161.164 14.304C159.848 13.016 158.042 11.8933 155.94 10.8981C151.725 8.90164 145.785 7.16985 138.645 5.73963C124.325 2.87095 104.653 1.1145 83 1.1145V6.1145C104.426 6.1145 123.753 7.85581 137.663 10.6422C144.639 12.0396 150.122 13.6747 153.8 15.4169C155.646 16.291 156.904 17.1307 157.666 17.8769C158.424 18.6189 158.5 19.0684 158.5 19.2394H163.5Z" fill="#0A0E16" mask="url(#path-1-outside-1_93_1533)"/>
<g clip-path="url(#clip0_93_1533)">
<path d="M53.4684 27.478H112.588V59.289H53.4684V27.478Z" fill="white" fill-opacity="0.6"/>
<path d="M123 63H103V89H123V63Z" fill="white"/>
<path fill-rule="evenodd" clip-rule="evenodd" d="M93.0578 82.9142H71.5898V79.5647L93.0578 79.5648V82.9142Z" fill="white"/>
<path fill-rule="evenodd" clip-rule="evenodd" d="M68.8339 73.9352L66.7422 75.4263L67.7143 76.79L69.8061 75.2989C70.7669 74.6139 72.0566 74.6139 73.0174 75.2989C74.5601 76.3985 76.6304 76.3985 78.1731 75.2989C79.134 74.6139 80.4236 74.6139 81.3844 75.2989C82.9271 76.3985 84.9975 76.3985 86.5401 75.2989C87.501 74.6139 88.7906 74.6139 89.7515 75.2989C91.2941 76.3985 93.3645 76.3985 94.9071 75.2989C95.868 74.6139 97.1576 74.6139 98.1185 75.2989L99.0906 73.9352C97.548 72.8355 95.4776 72.8355 93.935 73.9352C92.9741 74.6201 91.6845 74.6201 90.7236 73.9352C89.181 72.8355 87.1106 72.8355 85.568 73.9352C84.6071 74.6201 83.3175 74.6201 82.3566 73.9352C80.814 72.8355 78.7436 72.8355 77.2009 73.9352C76.2401 74.6201 74.9505 74.6201 73.9896 73.9352C72.4469 72.8355 70.3766 72.8355 68.8339 73.9352Z" fill="white"/>
<path d="M57.1927 75.6517L42 62.7285H57.1927V75.6517Z" fill="white"/>
<path d="M80.3213 97.2652L90.5599 88.6497H80.3213V97.2652Z" fill="black"/>
<path fill-rule="evenodd" clip-rule="evenodd" d="M123 38.8832H102.992V35.5338H123V38.8832Z" fill="black"/>
<path fill-rule="evenodd" clip-rule="evenodd" d="M123 46.6893H102.992V43.3398H123V46.6893Z" fill="black"/>
<path d="M75.0001 66.5C81.3513 66.5 86.5 61.3514 86.5 55C86.5 48.6486 81.3513 43.5 75.0001 43.5C68.6488 43.5 63.5 48.6486 63.5 55C63.5 61.3514 68.6488 66.5 75.0001 66.5Z" fill="#0A0E16" stroke="white" stroke-width="3"/>
</g>
<defs>
<clipPath id="clip0_93_1533">
<path d="M43 32C43 25.3726 48.3726 20 55 20H111C117.627 20 123 25.3726 123 32V88C123 94.6274 117.627 100 111 100H55C48.3726 100 43 94.6274 43 88V32Z" fill="white"/>
</clipPath>
</defs>
</svg>
