<svg width="166" height="120" viewBox="0 0 166 120" fill="none" xmlns="http://www.w3.org/2000/svg">
<path d="M159.75 60C159.75 74.6721 151.318 88.0794 137.434 97.8693C123.554 107.657 104.312 113.75 83 113.75C61.6879 113.75 42.4465 107.657 28.566 97.8693C14.6822 88.0794 6.25 74.6721 6.25 60C6.25 45.3279 14.6822 31.9206 28.566 22.1307C42.4465 12.3432 61.6879 6.25 83 6.25C104.312 6.25 123.554 12.3432 137.434 22.1307C151.318 31.9206 159.75 45.3279 159.75 60Z" fill="#F6C000" stroke="#0A0E16" stroke-width="2.5"/>
<g clip-path="url(#clip0_93_1626)">
<path d="M53.4684 27.478H112.588V59.289H53.4684V27.478Z" fill="white" fill-opacity="0.6"/>
<path d="M123 63H103V89H123V63Z" fill="white"/>
<path fill-rule="evenodd" clip-rule="evenodd" d="M93.0578 82.9142H71.5898V79.5647L93.0578 79.5648V82.9142Z" fill="white"/>
<path fill-rule="evenodd" clip-rule="evenodd" d="M68.8339 73.9352L66.7422 75.4263L67.7143 76.79L69.8061 75.2989C70.7669 74.6139 72.0566 74.6139 73.0174 75.2989C74.5601 76.3985 76.6304 76.3985 78.1731 75.2989C79.134 74.6139 80.4236 74.6139 81.3844 75.2989C82.9271 76.3985 84.9975 76.3985 86.5401 75.2989C87.501 74.6139 88.7906 74.6139 89.7515 75.2989C91.2941 76.3985 93.3645 76.3985 94.9071 75.2989C95.868 74.6139 97.1576 74.6139 98.1185 75.2989L99.0906 73.9352C97.548 72.8355 95.4776 72.8355 93.935 73.9352C92.9741 74.6201 91.6845 74.6201 90.7236 73.9352C89.181 72.8355 87.1106 72.8355 85.568 73.9352C84.6071 74.6201 83.3175 74.6201 82.3566 73.9352C80.814 72.8355 78.7436 72.8355 77.2009 73.9352C76.2401 74.6201 74.9505 74.6201 73.9896 73.9352C72.4469 72.8355 70.3766 72.8355 68.8339 73.9352Z" fill="white"/>
<path d="M57.1927 75.6517L42 62.7285H57.1927V75.6517Z" fill="white"/>
<path d="M80.3213 97.2652L90.5599 88.6497H80.3213V97.2652Z" fill="black"/>
<path fill-rule="evenodd" clip-rule="evenodd" d="M123 38.8832H102.992V35.5338H123V38.8832Z" fill="black"/>
<path fill-rule="evenodd" clip-rule="evenodd" d="M123 46.6893H102.992V43.3398H123V46.6893Z" fill="black"/>
<path d="M75.0001 66.5C81.3513 66.5 86.5 61.3514 86.5 55C86.5 48.6486 81.3513 43.5 75.0001 43.5C68.6488 43.5 63.5 48.6486 63.5 55C63.5 61.3514 68.6488 66.5 75.0001 66.5Z" fill="#0A0E16" stroke="white" stroke-width="3"/>
</g>
<defs>
<clipPath id="clip0_93_1626">
<path d="M43 32C43 25.3726 48.3726 20 55 20H111C117.627 20 123 25.3726 123 32V88C123 94.6274 117.627 100 111 100H55C48.3726 100 43 94.6274 43 88V32Z" fill="white"/>
</clipPath>
</defs>
</svg>
