<svg width="166" height="120" viewBox="0 0 166 120" fill="none" xmlns="http://www.w3.org/2000/svg">
<mask id="path-1-outside-1_93_1532" maskUnits="userSpaceOnUse" x="2" y="0.614502" width="162" height="119" fill="black">
<rect fill="white" x="2" y="0.614502" width="162" height="119"/>
<path fill-rule="evenodd" clip-rule="evenodd" d="M5 116.093V3.90745C8.28775 3.71374 11.6238 3.6145 15 3.6145C41.4475 3.6145 65.4355 9.7043 83 19.5915C100.565 9.70431 124.553 3.6145 151 3.6145C154.376 3.6145 157.712 3.71374 161 3.90745V116.093C157.712 116.287 154.376 116.386 151 116.386C124.552 116.386 100.565 110.296 83 100.409C65.4354 110.296 41.4475 116.386 15 116.386C11.6238 116.386 8.28775 116.287 5 116.093Z"/>
</mask>
<path fill-rule="evenodd" clip-rule="evenodd" d="M5 116.093V3.90745C8.28775 3.71374 11.6238 3.6145 15 3.6145C41.4475 3.6145 65.4355 9.7043 83 19.5915C100.565 9.70431 124.553 3.6145 151 3.6145C154.376 3.6145 157.712 3.71374 161 3.90745V116.093C157.712 116.287 154.376 116.386 151 116.386C124.552 116.386 100.565 110.296 83 100.409C65.4354 110.296 41.4475 116.386 15 116.386C11.6238 116.386 8.28775 116.287 5 116.093Z" fill="#E4437A"/>
<path d="M5 116.093H2.5V118.45L4.85296 118.588L5 116.093ZM5 3.90745L4.85296 1.41178L2.5 1.55041V3.90745H5ZM15 3.6145V1.1145V3.6145ZM83 19.5915L81.7737 21.77L83 22.4603L84.2263 21.77L83 19.5915ZM151 3.6145V1.1145V3.6145ZM161 3.90745H163.5V1.55041L161.147 1.41178L161 3.90745ZM161 116.093L161.147 118.588L163.5 118.45V116.093H161ZM151 116.386V113.886V116.386ZM83 100.409L84.2263 98.2302L83 97.5399L81.7737 98.2302L83 100.409ZM7.5 116.093V3.90745H2.5V116.093H7.5ZM15 1.1145C11.5749 1.1145 8.18976 1.21518 4.85296 1.41178L5.14704 6.40312C8.38575 6.2123 11.6728 6.1145 15 6.1145V1.1145ZM84.2263 17.4129C66.2271 7.28108 41.8021 1.1145 15 1.1145V6.1145C41.0928 6.1145 64.6438 12.1275 81.7737 21.77L84.2263 17.4129ZM151 1.1145C124.198 1.1145 99.7728 7.28108 81.7737 17.4129L84.2263 21.77C101.356 12.1275 124.907 6.1145 151 6.1145V1.1145ZM161.147 1.41178C157.81 1.21518 154.425 1.1145 151 1.1145V6.1145C154.327 6.1145 157.614 6.2123 160.853 6.40312L161.147 1.41178ZM158.5 3.90745V116.093H163.5V3.90745H158.5ZM151 118.886C154.425 118.886 157.81 118.785 161.147 118.588L160.853 113.597C157.614 113.788 154.327 113.886 151 113.886V118.886ZM81.7737 102.587C99.7728 112.719 124.198 118.886 151 118.886V113.886C124.907 113.886 101.356 107.873 84.2263 98.2302L81.7737 102.587ZM15 118.886C41.8021 118.886 66.2271 112.719 84.2263 102.587L81.7737 98.2302C64.6438 107.873 41.0928 113.886 15 113.886V118.886ZM4.85296 118.588C8.18976 118.785 11.5749 118.886 15 118.886V113.886C11.6728 113.886 8.38575 113.788 5.14704 113.597L4.85296 118.588Z" fill="#0A0E16" mask="url(#path-1-outside-1_93_1532)"/>
<g clip-path="url(#clip0_93_1532)">
<path d="M53.4684 27.478H112.588V59.289H53.4684V27.478Z" fill="white" fill-opacity="0.6"/>
<path d="M123 63H103V89H123V63Z" fill="white"/>
<path fill-rule="evenodd" clip-rule="evenodd" d="M93.0578 82.9142H71.5898V79.5647L93.0578 79.5648V82.9142Z" fill="white"/>
<path fill-rule="evenodd" clip-rule="evenodd" d="M68.8339 73.9352L66.7422 75.4263L67.7143 76.79L69.8061 75.2989C70.7669 74.6139 72.0566 74.6139 73.0174 75.2989C74.5601 76.3985 76.6304 76.3985 78.1731 75.2989C79.134 74.6139 80.4236 74.6139 81.3844 75.2989C82.9271 76.3985 84.9975 76.3985 86.5401 75.2989C87.501 74.6139 88.7906 74.6139 89.7515 75.2989C91.2941 76.3985 93.3645 76.3985 94.9071 75.2989C95.868 74.6139 97.1576 74.6139 98.1185 75.2989L99.0906 73.9352C97.548 72.8355 95.4776 72.8355 93.935 73.9352C92.9741 74.6201 91.6845 74.6201 90.7236 73.9352C89.181 72.8355 87.1106 72.8355 85.568 73.9352C84.6071 74.6201 83.3175 74.6201 82.3566 73.9352C80.814 72.8355 78.7436 72.8355 77.2009 73.9352C76.2401 74.6201 74.9505 74.6201 73.9896 73.9352C72.4469 72.8355 70.3766 72.8355 68.8339 73.9352Z" fill="white"/>
<path d="M57.1927 75.6517L42 62.7285H57.1927V75.6517Z" fill="white"/>
<path d="M80.3213 97.2652L90.5599 88.6497H80.3213V97.2652Z" fill="black"/>
<path fill-rule="evenodd" clip-rule="evenodd" d="M123 38.8832H102.992V35.5338H123V38.8832Z" fill="black"/>
<path fill-rule="evenodd" clip-rule="evenodd" d="M123 46.6893H102.992V43.3398H123V46.6893Z" fill="black"/>
<path d="M75.0001 66.5C81.3513 66.5 86.5 61.3514 86.5 55C86.5 48.6486 81.3513 43.5 75.0001 43.5C68.6488 43.5 63.5 48.6486 63.5 55C63.5 61.3514 68.6488 66.5 75.0001 66.5Z" fill="#0A0E16" stroke="white" stroke-width="3"/>
</g>
<defs>
<clipPath id="clip0_93_1532">
<path d="M43 32C43 25.3726 48.3726 20 55 20H111C117.627 20 123 25.3726 123 32V88C123 94.6274 117.627 100 111 100H55C48.3726 100 43 94.6274 43 88V32Z" fill="white"/>
</clipPath>
</defs>
</svg>
