<svg width="80" height="80" viewBox="0 0 80 80" fill="none" xmlns="http://www.w3.org/2000/svg">
<path d="M73.709 5.25317V74.8998H1.41748L73.709 5.25317Z" fill="#01C4FF"/>
<path d="M73.709 5.25317V74.8998H1.41748L73.709 5.25317Z" fill="white" fill-opacity="0.4"/>
<path d="M72.9709 17.6905C74.2154 17.9411 75.7584 17.9507 79.4178 17.9507V21.8298H79.1437C75.8392 21.83 73.8786 21.8302 72.2052 21.4932C65.4525 20.1335 60.1746 14.8555 58.8148 8.10287C58.4779 6.42953 58.478 4.46891 58.4783 1.16439V0.890259H62.3574C62.3574 4.54966 62.367 6.09265 62.6176 7.33714C63.6689 12.5583 67.7498 16.6392 72.9709 17.6905Z" fill="white"/>
<path d="M1 62.8368V58.9563C2.98923 58.9728 4.38888 59.0373 5.63034 59.2872C12.383 60.647 17.661 65.9249 19.0207 72.6776C19.3362 74.2442 19.3562 76.0626 19.3573 79H15.4779C15.4748 75.9701 15.4473 74.5818 15.218 73.4433C14.1666 68.2222 10.0857 64.1413 4.8646 63.09C3.96324 62.9085 2.90528 62.8534 1 62.8368Z" fill="white"/>
<path d="M18.4177 53.8902L23.3675 58.84L25.4888 56.7186L20.5391 51.7689L18.4177 53.8902Z" fill="white"/>
<path d="M56.3675 27.84L51.4177 22.8902L53.5391 20.7689L58.4888 25.7186L56.3675 27.84Z" fill="white"/>
<path d="M51.4177 57.8902L56.3675 52.9405L54.2461 50.8191L49.2964 55.7689L51.4177 57.8902Z" fill="white"/>
<path fill-rule="evenodd" clip-rule="evenodd" d="M73.4175 56.8297C63.443 56.8297 55.357 64.9157 55.357 74.8902H51.478C51.478 62.7733 61.3006 52.9507 73.4175 52.9507V56.8297Z" fill="black"/>
<path fill-rule="evenodd" clip-rule="evenodd" d="M73.4175 62.8297C66.7567 62.8297 61.357 68.2294 61.357 74.8902H57.478C57.478 66.087 64.6143 58.9507 73.4175 58.9507V62.8297Z" fill="black"/>
<path fill-rule="evenodd" clip-rule="evenodd" d="M23.2711 23.7437L73.4175 73.8902L72.7104 74.5973L22.564 24.4508L23.2711 23.7437Z" fill="black"/>
<path fill-rule="evenodd" clip-rule="evenodd" d="M76.4175 39.8903H70.4175V36.8903H76.4175V39.8903Z" fill="black"/>
<path fill-rule="evenodd" clip-rule="evenodd" d="M76.4175 44.8903H70.4175V41.8903H76.4175V44.8903Z" fill="black"/>
<path fill-rule="evenodd" clip-rule="evenodd" d="M22.4175 40.8903C30.7018 40.8903 37.4175 34.1746 37.4175 25.8903C37.4175 17.606 30.7018 10.8903 22.4175 10.8903C14.1332 10.8903 7.41748 17.606 7.41748 25.8903C7.41748 34.1746 14.1332 40.8903 22.4175 40.8903ZM22.4175 46.8903C34.0155 46.8903 43.4175 37.4883 43.4175 25.8903C43.4175 14.2923 34.0155 4.89026 22.4175 4.89026C10.8195 4.89026 1.41748 14.2923 1.41748 25.8903C1.41748 37.4883 10.8195 46.8903 22.4175 46.8903Z" fill="black"/>
<path fill-rule="evenodd" clip-rule="evenodd" d="M34.4175 71.8901V77.8901H31.4175V71.8901H34.4175Z" fill="black"/>
<path fill-rule="evenodd" clip-rule="evenodd" d="M39.4175 71.8901V77.8901H36.4175V71.8901H39.4175Z" fill="black"/>
</svg>
