<svg width="80" height="80" viewBox="0 0 80 80" fill="none" xmlns="http://www.w3.org/2000/svg">
<path d="M80 10.7778H0.23877V55.3014H80V10.7778Z" fill="#01C4FF"/>
<path d="M80 10.7778H0.23877V55.3014H80V10.7778Z" fill="white" fill-opacity="0.4"/>
<path fill-rule="evenodd" clip-rule="evenodd" d="M76.6197 17.6577H77.409V13.0533H76.6197V17.6577ZM73.4624 17.6577H75.0411V13.0533H73.4624V17.6577ZM70.3052 17.6577H71.8838V13.0533H70.3052V17.6577ZM67.1479 17.6577H68.7265V13.0533H67.1479V17.6577ZM63.9906 17.6577H65.5692V13.0533H63.9906V17.6577ZM60.8333 17.6577H62.412V13.0533H60.8333V17.6577ZM57.6761 17.6577H59.2547V13.0533H57.6761V17.6577ZM54.5188 17.6577H56.0974V13.0533H54.5188V17.6577ZM51.3615 17.6577H52.9401V13.0533H51.3615V17.6577ZM48.2042 17.6577H49.7829V13.0533H48.2042V17.6577ZM45.047 17.6577H46.6256V13.0533H45.047V17.6577ZM41.8897 17.6577H43.4683V13.0533H41.8897V17.6577ZM38.7324 17.6577H40.311V13.0533H38.7324V17.6577ZM35.5751 17.6577H37.1538V13.0533H35.5751V17.6577ZM32.4178 17.6577H33.9965V13.0533H32.4178V17.6577ZM29.2606 17.6577H30.8392V13.0533H29.2606V17.6577ZM26.1033 17.6577H27.6819V13.0533H26.1033V17.6577ZM22.946 17.6577H24.5246V13.0533H22.946V17.6577ZM19.7887 17.6577H21.3674V13.0533H19.7887V17.6577ZM16.6314 17.6577H18.2101V13.0533H16.6314V17.6577ZM13.4742 17.6577H15.0528V13.0533H13.4742V17.6577ZM10.3169 17.6577H11.8955V13.0533H10.3169V17.6577ZM7.15961 17.6577H8.73825V13.0533H7.15961V17.6577ZM4.79167 17.6577H5.58097V16.1267H7.09385V15.3555H5.58097V13.0533H2.4895V16.1267H4.79167V17.6577ZM7.09385 19.2113V17.669H2.4895V19.2113H7.09385ZM7.09385 22.296V20.7537H2.4895V22.296H7.09385ZM7.09385 25.3807V23.8384H2.4895V25.3807H7.09385ZM7.09385 28.4654V26.9231H2.4895V28.4654H7.09385ZM7.09385 31.5501V30.0077H2.4895V31.5501H7.09385ZM7.09385 34.6348V33.0924H2.4895V34.6348H7.09385ZM7.09385 37.7195V36.1771H2.4895V37.7195H7.09385ZM7.09385 40.8041V39.2618H2.4895V40.8041H7.09385ZM7.09385 43.8888V42.3465H2.4895V43.8888H7.09385ZM7.09385 46.2024V45.4312H2.4895V46.2024H7.09385Z" fill="black"/>
<path fill-rule="evenodd" clip-rule="evenodd" d="M19.8141 26.9311C18.967 28.3984 19.4697 30.2746 20.937 31.1217C22.4043 31.9689 24.2805 31.4661 25.1276 29.9989C25.9748 28.5316 25.472 26.6554 24.0048 25.8082C22.5375 24.9611 20.6613 25.4638 19.8141 26.9311ZM16.626 25.0904C14.7623 28.3185 15.8683 32.4461 19.0963 34.3098C22.3244 36.1735 26.452 35.0675 28.3157 31.8395C30.1794 28.6115 29.0734 24.4838 25.8454 22.6201C22.6174 20.7564 18.4897 21.8624 16.626 25.0904Z" fill="white"/>
<path fill-rule="evenodd" clip-rule="evenodd" d="M53.0983 26.9311C52.2511 28.3984 52.7539 30.2746 54.2211 31.1217C55.6884 31.9689 57.5646 31.4661 58.4118 29.9989C59.2589 28.5316 58.7562 26.6554 57.2889 25.8082C55.8216 24.9611 53.9454 25.4638 53.0983 26.9311ZM49.9102 25.0904C48.0465 28.3185 49.1525 32.4461 52.3805 34.3098C55.6085 36.1735 59.7362 35.0675 61.5999 31.8395C63.4636 28.6115 62.3576 24.4838 59.1296 22.6201C55.9015 20.7564 51.7739 21.8624 49.9102 25.0904Z" fill="white"/>
<path fill-rule="evenodd" clip-rule="evenodd" d="M38.0917 42.7088C37.2446 44.1761 37.7473 46.0523 39.2146 46.8994C40.6819 47.7466 42.5581 47.2438 43.4052 45.7765C44.2524 44.3093 43.7496 42.433 42.2823 41.5859C40.8151 40.7388 38.9388 41.2415 38.0917 42.7088ZM34.9036 40.8681C33.0399 44.0962 34.1459 48.2238 37.3739 50.0875C40.602 51.9512 44.7296 50.8452 46.5933 47.6172C48.457 44.3892 47.351 40.2615 44.123 38.3978C40.895 36.5341 36.7673 37.6401 34.9036 40.8681Z" fill="white"/>
<path fill-rule="evenodd" clip-rule="evenodd" d="M69.0827 26.9311C68.2356 28.3984 68.7383 30.2746 70.2056 31.1217C71.6729 31.9689 73.5491 31.4661 74.3962 29.9989C75.2433 28.5316 74.7406 26.6554 73.2733 25.8082C71.806 24.9611 69.9298 25.4638 69.0827 26.9311ZM65.8946 25.0904C64.0309 28.3185 65.1369 32.4461 68.3649 34.3098C71.5929 36.1735 75.7206 35.0675 77.5843 31.8395C79.448 28.6115 78.342 24.4838 75.114 22.6201C71.886 20.7564 67.7583 21.8624 65.8946 25.0904Z" fill="white"/>
<path fill-rule="evenodd" clip-rule="evenodd" d="M38.3394 35.0234V21.9854H42.0207V35.0234H38.3394Z" fill="white"/>
<path fill-rule="evenodd" clip-rule="evenodd" d="M25.1263 42.7088C25.9734 44.1761 25.4707 46.0523 24.0034 46.8995C22.5361 47.7466 20.6599 47.2439 19.8128 45.7766C18.9656 44.3093 19.4683 42.4331 20.9356 41.586C22.4029 40.7388 24.2791 41.2415 25.1263 42.7088ZM28.3144 40.8682C30.1781 44.0962 29.0721 48.2239 25.844 50.0876C22.616 51.9513 18.4883 50.8453 16.6246 47.6172C14.7609 44.3892 15.8669 40.2616 19.095 38.3979C22.323 36.5341 26.4507 37.6402 28.3144 40.8682Z" fill="white"/>
<path fill-rule="evenodd" clip-rule="evenodd" d="M72.7394 50.8011V37.7632H69.0581V50.8011H72.7394Z" fill="white"/>
<path fill-rule="evenodd" clip-rule="evenodd" d="M57.7545 50.8011V37.7632H54.0732V50.8011H57.7545Z" fill="white"/>
<path d="M22.7214 55.4236H44.5025V71.2225H22.7214V55.4236Z" fill="black"/>
<path d="M12.8757 70.3948H61.3466V75.9289H12.8757V70.3948Z" fill="black"/>
</svg>
