<svg width="80" height="80" viewBox="0 0 80 80" fill="none" xmlns="http://www.w3.org/2000/svg">
<path d="M50.812 70.882V62.1295L49.9847 62.437C49.8067 62.5032 49.628 62.5677 49.4484 62.6307L49.038 62.7747V70.882H50.812Z" fill="white"/>
<path d="M28.5729 62.5131L27.75 62.2143V70.882H29.5239V62.8445L29.1092 62.7024C28.9299 62.641 28.7511 62.5778 28.5729 62.5131Z" fill="white"/>
<path d="M47.264 70.882V63.3171L46.5058 63.501C46.3276 63.5442 46.1488 63.5859 45.9696 63.626L45.49 63.7333V70.882H47.264Z" fill="white"/>
<path d="M32.0519 63.5505L31.298 63.3733V70.882H33.072V63.7763L32.5883 63.6716C32.409 63.6328 32.2302 63.5924 32.0519 63.5505Z" fill="white"/>
<path d="M43.716 70.882V64.0506L43.0268 64.1363C42.8485 64.1584 42.6699 64.179 42.4908 64.198L41.942 64.2563V70.882H43.716Z" fill="white"/>
<path d="M35.5309 64.1612L34.846 64.081V70.882H36.62V64.2744L36.0672 64.2194C35.8881 64.2016 35.7093 64.1822 35.5309 64.1612Z" fill="white"/>
<path d="M40.168 70.882V64.364L39.5472 64.3713C39.4236 64.3728 39.2996 64.3735 39.1753 64.3735C39.12 64.3735 39.0653 64.3734 39.0108 64.3731L38.394 64.3698V70.882H40.168Z" fill="white"/>
<path d="M11.749 78H12.5156V71H11.749V78Z" fill="white"/>
<path d="M14.0488 78H15.582V71H14.0488V78Z" fill="white"/>
<path d="M17.1151 78H18.6483V71H17.1151V78Z" fill="white"/>
<path d="M20.1815 78H21.7147V71H20.1815V78Z" fill="white"/>
<path d="M23.2479 78H24.781V71H23.2479V78Z" fill="white"/>
<path d="M26.3142 78H27.8474V71H26.3142V78Z" fill="white"/>
<path d="M29.3806 78H30.9137V71H29.3806V78Z" fill="white"/>
<path d="M32.4469 78H33.9801V71H32.4469V78Z" fill="white"/>
<path d="M35.5133 78H37.0464V71H35.5133V78Z" fill="white"/>
<path d="M38.5796 78H40.1128V71H38.5796V78Z" fill="white"/>
<path d="M41.646 78H43.1791V71H41.646V78Z" fill="white"/>
<path d="M44.7123 78H46.2455V71H44.7123V78Z" fill="white"/>
<path d="M47.7787 78H49.3119V71H47.7787V78Z" fill="white"/>
<path d="M50.845 78H52.3782V71H50.845V78Z" fill="white"/>
<path d="M53.9114 78H55.4446V71H53.9114V78Z" fill="white"/>
<path d="M56.9777 78H58.5109V71H56.9777V78Z" fill="white"/>
<path d="M60.0441 78H61.5773V71H60.0441V78Z" fill="white"/>
<path d="M63.1104 78H64.6436V71H63.1104V78Z" fill="white"/>
<path d="M66.1768 78H67.71V71H66.1768V78Z" fill="white"/>
<path d="M69.2431 78H70.0098V71H69.2431V78Z" fill="white"/>
<path fill-rule="evenodd" clip-rule="evenodd" d="M39.2647 54.7413C51.9469 54.7413 62.2279 44.4604 62.2279 31.7781C62.2279 19.0959 51.9469 8.81494 39.2647 8.81494C26.5824 8.81494 16.3015 19.0959 16.3015 31.7781C16.3015 44.4604 26.5824 54.7413 39.2647 54.7413ZM39.2647 60.7413C55.2606 60.7413 68.2279 47.7741 68.2279 31.7781C68.2279 15.7822 55.2606 2.81494 39.2647 2.81494C23.2687 2.81494 10.3015 15.7822 10.3015 31.7781C10.3015 47.7741 23.2687 60.7413 39.2647 60.7413Z" fill="white"/>
<path d="M39.2642 47.6141C48.0102 47.6141 55.1002 40.5241 55.1002 31.7781C55.1002 23.0322 48.0102 15.9421 39.2642 15.9421C30.5182 15.9421 23.4282 23.0322 23.4282 31.7781C23.4282 40.5241 30.5182 47.6141 39.2642 47.6141Z" fill="#01C4FF"/>
<path d="M39.2642 47.6141C48.0102 47.6141 55.1002 40.5241 55.1002 31.7781C55.1002 23.0322 48.0102 15.9421 39.2642 15.9421C30.5182 15.9421 23.4282 23.0322 23.4282 31.7781C23.4282 40.5241 30.5182 47.6141 39.2642 47.6141Z" fill="white" fill-opacity="0.4"/>
<path fill-rule="evenodd" clip-rule="evenodd" d="M5.97363 29.9932C5.97363 48.3793 20.8786 63.2842 39.2647 63.2842C57.6508 63.2842 72.5557 48.3793 72.5557 29.9932H76.5557C76.5557 50.5885 59.8599 67.2842 39.2647 67.2842C18.6694 67.2842 1.97363 50.5885 1.97363 29.9932H5.97363Z" fill="black"/>
<path fill-rule="evenodd" clip-rule="evenodd" d="M39.2636 16.4414C30.7934 16.4414 23.927 23.3078 23.927 31.778C23.927 40.2481 30.7934 47.1145 39.2636 47.1145C47.7337 47.1145 54.6001 40.2481 54.6001 31.778C54.6001 23.3078 47.7337 16.4414 39.2636 16.4414ZM22.927 31.778C22.927 22.7555 30.2411 15.4414 39.2636 15.4414C48.286 15.4414 55.6001 22.7555 55.6001 31.778C55.6001 40.8004 48.286 48.1145 39.2636 48.1145C30.2411 48.1145 22.927 40.8004 22.927 31.778Z" fill="black"/>
<path d="M39.2642 36.8255C42.0518 36.8255 44.3116 34.5657 44.3116 31.7781C44.3116 28.9905 42.0518 26.7307 39.2642 26.7307C36.4766 26.7307 34.2168 28.9905 34.2168 31.7781C34.2168 34.5657 36.4766 36.8255 39.2642 36.8255Z" fill="black"/>
<path fill-rule="evenodd" clip-rule="evenodd" d="M11.6903 3.0575L62.2217 53.5889L61.5146 54.296L10.9832 3.76461L11.6903 3.0575Z" fill="black"/>
<path fill-rule="evenodd" clip-rule="evenodd" d="M51.2076 20.8511L14.3638 57.6949L13.6567 56.9878L50.5005 20.144L51.2076 20.8511Z" fill="black"/>
<path fill-rule="evenodd" clip-rule="evenodd" d="M39.3735 59.9402V60.7413H38.3735V59.9402H39.3735ZM39.3735 56.7355V58.3378H38.3735V56.7355H39.3735ZM39.3735 53.5308V55.1332H38.3735V53.5308H39.3735ZM39.3735 50.3262V51.9285H38.3735V50.3262H39.3735ZM39.3735 47.1215V48.7239H38.3735V47.1215H39.3735ZM39.3735 43.9169V45.5192H38.3735V43.9169H39.3735ZM39.3735 40.7122V42.3145H38.3735V40.7122H39.3735ZM39.3735 37.5075V39.1099H38.3735V37.5075H39.3735ZM39.3735 34.3029V35.9052H38.3735V34.3029H39.3735ZM39.3735 31.0982V32.7006H38.3735V31.0982H39.3735ZM39.3735 27.8936V29.4959H38.3735V27.8936H39.3735ZM39.3735 24.6889V26.2912H38.3735V24.6889H39.3735ZM39.3735 21.4843V23.0866H38.3735V21.4843H39.3735ZM39.3735 18.2796V19.8819H38.3735V18.2796H39.3735ZM39.3735 15.0749V16.6773H38.3735V15.0749H39.3735ZM39.3735 11.8703V13.4726H38.3735V11.8703H39.3735ZM39.3735 8.66566V10.268H38.3735V8.66566H39.3735ZM39.3735 5.461V7.06334H38.3735V5.461H39.3735ZM39.3735 3.0575V3.85868H38.3735V3.0575H39.3735Z" fill="black"/>
<path fill-rule="evenodd" clip-rule="evenodd" d="M11.3329 31.8994H10.5317V30.8994H11.3329V31.8994ZM14.5376 31.8994H12.9352V30.8994H14.5376V31.8994ZM17.7422 31.8994H16.1399V30.8994H17.7422V31.8994ZM20.9469 31.8994H19.3446V30.8994H20.9469V31.8994ZM24.1515 31.8994H22.5492V30.8994H24.1515V31.8994ZM27.3562 31.8994H25.7539V30.8994H27.3562V31.8994ZM30.5609 31.8994H28.9585V30.8994H30.5609V31.8994ZM33.7655 31.8994H32.1632V30.8994H33.7655V31.8994ZM36.9702 31.8994H35.3679V30.8994H36.9702V31.8994ZM40.1748 31.8994H38.5725V30.8994H40.1748V31.8994ZM43.3795 31.8994H41.7772V30.8994H43.3795V31.8994ZM46.5842 31.8994H44.9818V30.8994H46.5842V31.8994ZM49.7888 31.8994H48.1865V30.8994H49.7888V31.8994ZM52.9935 31.8994H51.3911V30.8994H52.9935V31.8994ZM56.1981 31.8994H54.5958V30.8994H56.1981V31.8994ZM59.4028 31.8994H57.8005V30.8994H59.4028V31.8994ZM62.6074 31.8994H61.0051V30.8994H62.6074V31.8994ZM65.8121 31.8994H64.2098V30.8994H65.8121V31.8994ZM68.2156 31.8994H67.4144V30.8994H68.2156V31.8994Z" fill="black"/>
<path d="M0 3.5H12" stroke="black"/>
<path fill-rule="evenodd" clip-rule="evenodd" d="M12 10H2.28125e-07L0 6H12V10Z" fill="black"/>
<path fill-rule="evenodd" clip-rule="evenodd" d="M80 27H72V23H80V27Z" fill="black"/>
</svg>
