<svg width="80" height="80" viewBox="0 0 80 80" fill="none" xmlns="http://www.w3.org/2000/svg">
<path d="M57 1H0V75H57V1Z" fill="#FFCA0E"/>
<path d="M57 1H0V75H57V1Z" fill="white" fill-opacity="0.4"/>
<path d="M47.1279 49.1279C47.1279 59.4159 38.7879 67.7559 28.5 67.7559C18.2121 67.7559 9.87207 59.4159 9.87207 49.1279C9.87207 38.84 18.2121 30.5 28.5 30.5C38.7879 30.5 47.1279 38.84 47.1279 49.1279Z" fill="white"/>
<path fill-rule="evenodd" clip-rule="evenodd" d="M26.9329 29.2177C27.4502 29.1775 27.9728 29.157 28.4999 29.157C29.027 29.157 29.5496 29.1775 30.0669 29.2177L29.8589 31.8955C29.4107 31.8607 28.9575 31.843 28.4999 31.843C28.0423 31.843 27.5891 31.8607 27.141 31.8955L26.9329 29.2177ZM33.1629 29.7047C34.19 29.9504 35.1863 30.2755 36.1449 30.673L35.1161 33.154C34.2872 32.8103 33.4259 32.5293 32.5379 32.3169L33.1629 29.7047ZM20.855 30.673C21.8136 30.2755 22.8099 29.9504 23.837 29.7047L24.4619 32.3169C23.574 32.5293 22.7126 32.8103 21.8838 33.154L20.855 30.673ZM38.9369 32.0982C39.8306 32.647 40.6775 33.264 41.4706 33.942L39.7253 35.9836C39.0383 35.3963 38.3049 34.862 37.5314 34.387L38.9369 32.0982ZM15.5293 33.942C16.3223 33.264 17.1693 32.647 18.063 32.0982L19.4685 34.387C18.695 34.862 17.9616 35.3963 17.2746 35.9836L15.5293 33.942ZM43.6859 36.1573C44.3638 36.9503 44.9809 37.7973 45.5297 38.691L43.2409 40.0965C42.7659 39.323 42.2316 38.5896 41.6443 37.9026L43.6859 36.1573ZM11.4702 38.691C12.019 37.7973 12.636 36.9503 13.314 36.1573L15.3556 37.9026C14.7683 38.5896 14.234 39.323 13.759 40.0965L11.4702 38.691ZM46.9549 41.483C47.3524 42.4415 47.6775 43.4379 47.9232 44.465L45.311 45.0899C45.0986 44.202 44.8175 43.3406 44.4738 42.5118L46.9549 41.483ZM9.07667 44.465C9.32241 43.4379 9.64747 42.4416 10.045 41.483L12.526 42.5118C12.1823 43.3406 11.9013 44.202 11.6889 45.0899L9.07667 44.465ZM48.4102 47.5609C48.4504 48.0782 48.4708 48.6008 48.4708 49.1279C48.4708 49.655 48.4504 50.1776 48.4102 50.6949L45.7323 50.4869C45.7672 50.0387 45.7849 49.5855 45.7849 49.1279C45.7849 48.6703 45.7672 48.2171 45.7323 47.769L48.4102 47.5609ZM8.52905 49.1279C8.52905 48.6008 8.5495 48.0782 8.58969 47.5609L11.2675 47.769C11.2327 48.2171 11.215 48.6703 11.215 49.1279C11.215 49.5855 11.2327 50.0387 11.2675 50.4869L8.58969 50.6949C8.5495 50.1776 8.52905 49.655 8.52905 49.1279ZM47.9232 53.7909C47.6775 54.818 47.3524 55.8143 46.9549 56.7729L44.4738 55.744C44.8175 54.9152 45.0986 54.0539 45.311 53.1659L47.9232 53.7909ZM10.045 56.7729C9.64747 55.8143 9.32241 54.818 9.07667 53.7909L11.6889 53.1659C11.9013 54.0539 12.1823 54.9152 12.526 55.744L10.045 56.7729ZM45.5297 59.5649C44.9809 60.4585 44.3638 61.3055 43.6859 62.0986L41.6443 60.3533C42.2316 59.6663 42.7659 58.9329 43.2409 58.1594L45.5297 59.5649ZM13.314 62.0986C12.636 61.3055 12.019 60.4585 11.4702 59.5649L13.759 58.1594C14.234 58.9329 14.7683 59.6663 15.3556 60.3533L13.314 62.0986ZM41.4706 64.3139C40.6775 64.9918 39.8306 65.6089 38.9369 66.1577L37.5314 63.8688C38.3049 63.3938 39.0383 62.8596 39.7253 62.2723L41.4706 64.3139ZM18.063 66.1577C17.1693 65.6089 16.3224 64.9918 15.5293 64.3139L17.2746 62.2723C17.9616 62.8596 18.695 63.3939 19.4685 63.8689L18.063 66.1577ZM23.837 68.5512C22.8099 68.3055 21.8136 67.9804 20.855 67.5829L21.8838 65.1018C22.7127 65.4455 23.574 65.7266 24.4619 65.939L23.837 68.5512ZM36.1449 67.5829C35.1863 67.9804 34.19 68.3055 33.1629 68.5512L32.5379 65.939C33.4259 65.7266 34.2872 65.4455 35.1161 65.1018L36.1449 67.5829ZM28.4999 69.0988C27.9728 69.0988 27.4503 69.0784 26.933 69.0382L27.141 66.3603C27.5891 66.3951 28.0423 66.4129 28.4999 66.4129C28.9575 66.4129 29.4107 66.3951 29.8589 66.3603L30.0669 69.0382C29.5496 69.0784 29.027 69.0988 28.4999 69.0988Z" fill="black"/>
<path fill-rule="evenodd" clip-rule="evenodd" d="M61 48.8779C61 42.9409 56.1871 38.1279 50.25 38.1279V32.1279C59.5008 32.1279 67 39.6272 67 48.8779C67 58.1287 59.5008 65.6279 50.25 65.6279V59.6279C56.1871 59.6279 61 54.815 61 48.8779Z" fill="black"/>
<path fill-rule="evenodd" clip-rule="evenodd" d="M73.5 48.8779C73.5 35.7612 62.8668 25.1279 49.75 25.1279V19.1279C66.1805 19.1279 79.5 32.4475 79.5 48.8779C79.5 65.3084 66.1805 78.6279 49.75 78.6279V72.6279C62.8668 72.6279 73.5 61.9947 73.5 48.8779Z" fill="black"/>
<path fill-rule="evenodd" clip-rule="evenodd" d="M28.4998 20.3202C30.8151 20.3202 32.6921 18.4433 32.6921 16.1279C32.6921 13.8126 30.8151 11.9357 28.4998 11.9357C26.1845 11.9357 24.3076 13.8126 24.3076 16.1279C24.3076 18.4433 26.1845 20.3202 28.4998 20.3202ZM28.4998 26.3202C34.1288 26.3202 38.6921 21.757 38.6921 16.1279C38.6921 10.4989 34.1288 5.93567 28.4998 5.93567C22.8708 5.93567 18.3076 10.4989 18.3076 16.1279C18.3076 21.757 22.8708 26.3202 28.4998 26.3202Z" fill="black"/>
<path fill-rule="evenodd" clip-rule="evenodd" d="M28.5 50.6279C29.3285 50.6279 30 49.9564 30 49.1279C30 48.2995 29.3285 47.6279 28.5 47.6279C27.6716 47.6279 27 48.2995 27 49.1279C27 49.9564 27.6716 50.6279 28.5 50.6279ZM28.5 56.6279C32.6422 56.6279 36 53.2701 36 49.1279C36 44.9858 32.6422 41.6279 28.5 41.6279C24.3579 41.6279 21 44.9858 21 49.1279C21 53.2701 24.3579 56.6279 28.5 56.6279Z" fill="black"/>
</svg>
