<svg width="80" height="80" viewBox="0 0 80 80" fill="none" xmlns="http://www.w3.org/2000/svg">
<g clip-path="url(#clip0_52_1018)">
<path d="M40.4868 -0.0797119L5.97388 19.9704V60.0293L40.4868 80.0795L74.9999 60.0293V19.9704L40.4868 -0.0797119Z" fill="#6820EA"/>
<path d="M40.4868 -0.0797119L5.97388 19.9704V60.0293L40.4868 80.0795L74.9999 60.0293V19.9704L40.4868 -0.0797119Z" fill="white" fill-opacity="0.4"/>
<path d="M40.4867 8.61829L13.842 24.169V55.2385L40.4867 70.7892L67.1313 55.2385V24.169L40.4867 8.61829Z" fill="white"/>
<path d="M40.4864 15.3162L61.7446 27.6471V52.309L40.4864 64.6398L19.2284 52.309V27.6471L40.4864 15.3162ZM40.4864 11.2351L15.7363 25.6285V54.3714L40.4864 68.7207L65.2366 54.3714V25.6285L40.4864 11.2351Z" fill="black"/>
<path d="M27.7569 54.5063L30.7531 56.3899V23.6097L27.261 25.6283V40.5483L24.1618 27.4275L21.499 28.9633V50.9923L24.6419 52.8353V42.6645L27.7569 54.5063Z" fill="black"/>
<path d="M50.4693 24.0242L59.4757 29.4901H59.4319V33.5712L56.4639 31.772V52.7475L52.9716 54.7661V29.6656L48.6709 27.0535L50.4693 24.0242Z" fill="black"/>
<path d="M48.4438 22.7953L40.5307 17.9928L38.9593 18.8266L32.8918 22.3372V57.6624L36.3838 59.681V41.9526H47.2967V38.4418H36.3838V24.1363L40.3998 22.03L46.6462 25.8238L48.4438 22.7953Z" fill="black"/>
</g>
<defs>
<clipPath id="clip0_52_1018">
<path d="M0 12C0 5.37258 5.37258 0 12 0H68C74.6274 0 80 5.37258 80 12V68C80 74.6274 74.6274 80 68 80H12C5.37258 80 0 74.6274 0 68V12Z" fill="white"/>
</clipPath>
</defs>
</svg>
