<svg width="80" height="80" viewBox="0 0 80 80" fill="none" xmlns="http://www.w3.org/2000/svg">
<path d="M30.3878 56.6809C21.6323 51.6259 18.6325 40.4303 23.6874 31.6748C28.7424 22.9193 39.938 19.9195 48.6935 24.9745C57.4489 30.0295 60.4488 41.225 55.3938 49.9805C50.3388 58.736 39.1432 61.7358 30.3878 56.6809Z" fill="#8BD789"/>
<path d="M35.2453 46.3433C26.4898 41.2884 18.6325 40.4303 23.6874 31.6748C28.7424 22.9193 39.938 19.9195 48.6935 24.9745C55.6969 29.0179 59.0179 36.9903 57.4794 44.5C57.0946 46.3787 50.3938 46.9805 49.5347 47C48.6756 47.0195 44.0007 51.3983 35.2453 46.3433Z" fill="#8BD789"/>
<path d="M45.2714 75.1504C42.6408 73.6316 41.7395 70.2679 43.2583 67.6373C44.7771 65.0067 48.1408 64.1054 50.7714 65.6241C53.402 67.1429 54.3034 70.5067 52.7846 73.1373C51.2658 75.7679 47.902 76.6692 45.2714 75.1504Z" fill="black"/>
<path fill-rule="evenodd" clip-rule="evenodd" d="M74.7829 22.7447C74.6015 22.1493 74.3554 21.5778 74.0421 21.035C73.7287 20.4923 73.3568 19.9934 72.9318 19.5386L70.9694 21.3724C71.2581 21.6814 71.5072 22.0163 71.716 22.378C71.9248 22.7397 72.0903 23.1228 72.2136 23.5274L74.7829 22.7447ZM74.4366 29.6896C74.8123 28.545 75.0535 27.4186 75.1382 26.3255L72.4602 26.1182C72.3948 26.9632 72.2047 27.8769 71.8846 28.8519L74.4366 29.6896ZM70.0085 17.4406C69.0195 16.9673 67.9233 16.613 66.7443 16.3661L66.1937 18.995C67.1981 19.2053 68.0845 19.4975 68.849 19.8633L70.0085 17.4406ZM71.49 35.574C72.1147 34.6247 72.6677 33.6824 73.1429 32.7527L70.7514 31.5302C70.3253 32.3636 69.8229 33.2213 69.2462 34.0977L71.49 35.574ZM63.4447 15.9549C62.4019 15.9016 61.3094 15.9094 60.1749 15.9757L60.3315 18.657C61.3789 18.5958 62.3728 18.5895 63.3076 18.6373L63.4447 15.9549ZM67.5351 40.6503C68.2714 39.8296 68.9611 39.0093 69.6011 38.1926L67.487 36.5359C66.886 37.3028 66.235 38.0774 65.536 38.8565L67.5351 40.6503ZM56.9627 16.3023C55.9354 16.4482 54.8801 16.6353 53.8013 16.8626L54.3552 19.4908C55.3794 19.275 56.3758 19.0985 57.3404 18.9615L56.9627 16.3023ZM63.0191 45.1591C63.8248 44.4317 64.5966 43.7003 65.3326 42.9673L63.4373 41.0642C62.7334 41.7652 61.9935 42.4664 61.2192 43.1655L63.0191 45.1591ZM50.6935 17.6115C49.6906 17.8824 48.6713 18.1851 47.6385 18.5192L48.4651 21.0747C49.4576 20.7537 50.4349 20.4635 51.3939 20.2045L50.6935 17.6115ZM58.1201 49.2102C58.977 48.559 59.8079 47.9008 60.6111 47.2374L58.9007 45.1665C58.126 45.8063 57.3236 46.442 56.495 47.0717L58.1201 49.2102ZM44.6347 19.5655C43.6586 19.9294 42.6731 20.3198 41.6807 20.7363L42.7202 23.2129C43.6798 22.8101 44.6315 22.4331 45.5729 22.0822L44.6347 19.5655ZM52.9317 52.8532C53.8283 52.2713 54.704 51.68 55.5577 51.081L54.015 48.8824C53.188 49.4626 52.3391 50.0358 51.4695 50.6002L52.9317 52.8532ZM38.7793 22.02C37.8337 22.4598 36.8838 22.9226 35.9316 23.4081L37.1516 25.8009C38.0752 25.33 38.996 24.8814 39.912 24.4553L38.7793 22.02ZM33.1336 24.8971C32.6737 25.1522 32.2136 25.4126 31.7537 25.6781C31.2938 25.9436 30.8383 26.2119 30.3874 26.4826L31.7701 28.7853C32.2078 28.5225 32.6501 28.262 33.0967 28.0042C33.5433 27.7463 33.99 27.4935 34.4365 27.2459L33.1336 24.8971ZM48.8769 55.3363C49.3368 55.0707 49.7923 54.8025 50.2432 54.5318L48.8605 52.2291C48.4228 52.4919 47.9805 52.7523 47.5339 53.0102C47.0873 53.2681 46.6406 53.5208 46.1942 53.7685L47.497 56.1173C47.9569 55.8621 48.417 55.6018 48.8769 55.3363ZM41.8514 58.9944C42.7969 58.5546 43.7468 58.0918 44.699 57.6063L43.479 55.2135C42.5554 55.6844 41.6346 56.133 40.7186 56.559L41.8514 58.9944ZM27.6989 28.1612C26.8023 28.7431 25.9266 29.3343 25.0729 29.9333L26.6157 32.132C27.4426 31.5517 28.2915 30.9786 29.1611 30.4142L27.6989 28.1612ZM35.9959 61.4489C36.9721 61.085 37.9575 60.6946 38.9499 60.2781L37.9104 57.8015C36.9508 58.2042 35.9991 58.5812 35.0577 58.9322L35.9959 61.4489ZM22.5105 31.8042C21.6536 32.4554 20.8228 33.1136 20.0196 33.777L21.7299 35.8479C22.5046 35.2081 23.307 34.5724 24.1356 33.9427L22.5105 31.8042ZM29.9371 63.4029C30.94 63.132 31.9594 62.8293 32.9921 62.4952L32.1656 59.9396C31.173 60.2607 30.1957 60.5509 29.2367 60.8099L29.9371 63.4029ZM17.6115 35.8552C16.8058 36.5826 16.034 37.314 15.298 38.0471L17.1934 39.9502C17.8972 39.2492 18.6371 38.5479 19.4114 37.8489L17.6115 35.8552ZM23.6679 64.7121C24.6952 64.5662 25.7505 64.3791 26.8293 64.1517L26.2755 61.5236C25.2513 61.7394 24.2548 61.9159 23.2902 62.0529L23.6679 64.7121ZM13.0955 40.3641C12.3592 41.1847 11.6696 42.0051 11.0295 42.8218L13.1437 44.4785C13.7446 43.7116 14.3956 42.9369 15.0947 42.1579L13.0955 40.3641ZM17.186 65.0595C18.2287 65.1128 19.3212 65.105 20.4557 65.0387L20.2991 62.3574C19.2518 62.4185 18.2578 62.4248 17.323 62.3771L17.186 65.0595ZM9.14055 45.4403C8.51593 46.3897 7.9629 47.332 7.48767 48.2617L9.87923 49.4842C10.3053 48.6507 10.8077 47.7931 11.3844 46.9166L9.14055 45.4403ZM10.6221 63.5738C11.6111 64.0471 12.7073 64.4013 13.8863 64.6483L14.4369 62.0194C13.4325 61.809 12.5461 61.5169 11.7816 61.151L10.6221 63.5738ZM6.19399 51.3248C5.8183 52.4693 5.57703 53.5958 5.49243 54.6889L8.17033 54.8962C8.23574 54.0511 8.42592 53.1374 8.74595 52.1624L6.19399 51.3248ZM5.84766 58.2696C6.02904 58.8651 6.27516 59.4366 6.5885 59.9793C6.90185 60.5221 7.27376 61.021 7.69873 61.4758L9.66121 59.642C9.37245 59.3329 9.12342 58.9981 8.91457 58.6364C8.70573 58.2747 8.54027 57.8916 8.41702 57.487L5.84766 58.2696Z" fill="black"/>
<path fill-rule="evenodd" clip-rule="evenodd" d="M21.1165 22.8328C27.4717 23.6283 35.7347 26.4559 44.203 31.345C52.6714 36.2342 59.2516 41.9765 63.1181 47.0824C65.0593 49.6458 66.1324 51.8061 66.5657 53.4135C66.9905 54.9894 66.6983 55.5644 66.6359 55.6724C66.5736 55.7804 66.2217 56.321 64.6445 56.741C63.0358 57.1695 60.6284 57.3204 57.4379 56.9209C51.0827 56.1254 42.8197 53.2978 34.3514 48.4087C25.883 43.5195 19.3028 37.7772 15.4363 32.6713C13.4951 30.1079 12.4221 27.9476 11.9887 26.3402C11.5639 24.7643 11.8561 24.1893 11.9185 24.0813C11.9808 23.9733 12.3327 23.4327 13.9099 23.0127C15.5186 22.5842 17.926 22.4334 21.1165 22.8328ZM6.72236 21.0813C11.0996 13.4995 29.2235 15.7684 47.2031 26.1489C65.1826 36.5294 76.2094 51.0907 71.8321 58.6724C67.4548 66.2542 49.3309 63.9853 31.3514 53.6048C13.3718 43.2243 2.34504 28.663 6.72236 21.0813Z" fill="black"/>
<path fill-rule="evenodd" clip-rule="evenodd" d="M50.3885 65.8203C53.2516 59.1098 55.0347 49.8045 55.0347 39.5C55.0347 29.1955 53.2516 19.8902 50.3885 13.1797C48.9565 9.82355 47.2642 7.1396 45.4106 5.30203C43.559 3.46652 41.5739 2.5 39.5347 2.5C37.4954 2.5 35.5103 3.46652 33.6588 5.30202C31.8051 7.1396 30.1128 9.82355 28.6808 13.1797C25.8177 19.8902 24.0347 29.1955 24.0347 39.5C24.0347 49.8045 25.8177 59.1098 28.6808 65.8203C30.1128 69.1765 31.8051 71.8604 33.6587 73.698C35.5103 75.5335 37.4954 76.5 39.5347 76.5C41.5739 76.5 43.559 75.5335 45.4106 73.698C47.2642 71.8604 48.9565 69.1765 50.3885 65.8203ZM46.1146 74.4082C44.1377 76.3679 41.9137 77.5 39.5347 77.5C37.1556 77.5 34.9316 76.3679 32.9547 74.4082C30.98 72.4505 29.2245 69.6427 27.7611 66.2127C24.8333 59.3509 23.0347 49.9062 23.0347 39.5C23.0347 29.0938 24.8334 19.6491 27.7611 12.7873C29.2245 9.35728 30.98 6.54948 32.9547 4.59184C34.9316 2.63214 37.1557 1.5 39.5347 1.5C41.9137 1.5 44.1377 2.63214 46.1146 4.59184C48.0894 6.54948 49.8448 9.35728 51.3083 12.7873C54.236 19.6491 56.0347 29.0938 56.0347 39.5C56.0347 49.9062 54.236 59.3509 51.3083 66.2127C49.8448 69.6427 48.0894 72.4505 46.1146 74.4082Z" fill="black"/>
<path d="M59.9821 21.2691C57.5259 19.8509 56.6843 16.7102 58.1024 14.2539C59.5205 11.7977 62.6613 10.9561 65.1175 12.3742C67.5738 13.7924 68.4153 16.9331 66.9972 19.3894C65.5791 21.8456 62.4384 22.6872 59.9821 21.2691Z" fill="black"/>
<path d="M32.9732 43.5633C24.3749 33.7501 21.4337 30.2298 30.1476 25.1036C38.8616 19.9774 50.0812 22.8858 55.2075 31.5998C59.3079 38.57 58.2675 47.1434 53.2272 52.9191C51.9663 54.364 51.3124 55.8126 47.7499 54.6251C44.1874 53.4376 38.0994 52.2772 32.9732 43.5633Z" fill="#4CC05E"/>
<path d="M32.9732 43.5633C24.3749 33.7501 21.4337 30.2298 30.1476 25.1036C38.8616 19.9774 50.0812 22.8858 55.2075 31.5998C59.3079 38.57 58.2675 47.1434 53.2272 52.9191C51.9663 54.364 51.3124 55.8126 47.7499 54.6251C44.1874 53.4376 38.0994 52.2772 32.9732 43.5633Z" fill="white" fill-opacity="0.4"/>
<path d="M9.06813 38.5939C5.51901 36.5448 4.30299 32.0066 6.35207 28.4574C8.40116 24.9083 12.9394 23.6923 16.4885 25.7414C20.0377 27.7905 21.2537 32.3287 19.2046 35.8778C17.1555 39.427 12.6173 40.643 9.06813 38.5939Z" fill="#4CC05E"/>
<path d="M9.06813 38.5939C5.51901 36.5448 4.30299 32.0066 6.35207 28.4574C8.40116 24.9083 12.9394 23.6923 16.4885 25.7414C20.0377 27.7905 21.2537 32.3287 19.2046 35.8778C17.1555 39.427 12.6173 40.643 9.06813 38.5939Z" fill="white" fill-opacity="0.4"/>
</svg>
