<svg width="80" height="80" viewBox="0 0 80 80" fill="none" xmlns="http://www.w3.org/2000/svg">
<g clip-path="url(#clip0_52_1012)">
<path d="M73.5919 6.18652H-0.199951V45.8359H27.9137V39.5318H73.5919V6.18652Z" fill="#E4437A"/>
<path d="M73.5919 6.18652H-0.199951V45.8359H27.9137V39.5318H73.5919V6.18652Z" fill="white" fill-opacity="0.4"/>
<path d="M30.9137 42.5317H80.2V68.9646H30.9137V42.5317Z" fill="#E4437A"/>
<path d="M30.9137 42.5317H80.2V68.9646H30.9137V42.5317Z" fill="white" fill-opacity="0.4"/>
<path d="M51.8397 54.3714H33.9424V51.368H51.8397V54.3714Z" fill="white"/>
<path d="M54.3179 54.3714H75.7946V51.368H54.3179V54.3714Z" fill="white"/>
<path d="M75.7946 58.5016H54.3179V55.4982H75.7946V58.5016Z" fill="white"/>
<path d="M35.2514 46.7382L33.5076 47.9772L34.3774 49.2014L36.1212 47.9623C36.905 47.4054 37.9553 47.4054 38.7391 47.9623C40.0437 48.8893 41.792 48.8893 43.0966 47.9623C43.8803 47.4054 44.9307 47.4054 45.7145 47.9623C47.0191 48.8893 48.7673 48.8893 50.0719 47.9623C50.8557 47.4054 51.906 47.4054 52.6898 47.9623C53.9944 48.8893 55.7427 48.8893 57.0473 47.9623C57.329 47.7622 57.6451 47.634 57.9708 47.5777C58.3249 47.5165 58.6905 47.5403 59.0357 47.6491C59.2566 47.7187 59.4693 47.8231 59.6652 47.9623C60.9698 48.8893 62.7181 48.8893 64.0227 47.9623C64.8064 47.4055 65.8568 47.4055 66.6405 47.9623C67.9451 48.8893 69.6934 48.8893 70.998 47.9623C71.7818 47.4055 72.8321 47.4055 73.6159 47.9623L75.3597 49.2014L76.2295 47.9772L74.4857 46.7382C73.1811 45.8113 71.4328 45.8113 70.1282 46.7382C69.3444 47.2951 68.2941 47.2951 67.5103 46.7382C66.2057 45.8113 64.4575 45.8113 63.1529 46.7382C62.3691 47.2951 61.3188 47.2951 60.535 46.7382C59.9706 46.3372 59.3232 46.1097 58.6645 46.0556C57.8007 45.9847 56.9177 46.2123 56.1775 46.7382C55.3937 47.2951 54.3434 47.2951 53.5596 46.7382C52.255 45.8112 50.5067 45.8112 49.2021 46.7382C48.4184 47.2951 47.368 47.2951 46.5842 46.7382C45.2796 45.8112 43.5314 45.8112 42.2268 46.7382C41.443 47.2951 40.3927 47.2951 39.6089 46.7382C38.3043 45.8112 36.556 45.8112 35.2514 46.7382Z" fill="white"/>
<path d="M-0.199951 45.8359L12.4658 56.5742V45.8359H-0.199951Z" fill="black"/>
<path d="M39.4494 68.9646L30.9138 76.1235V68.9646H39.4494Z" fill="black"/>
<path d="M35.2502 62.9071H33.9424V60.444H35.2502V62.9071Z" fill="black"/>
<path d="M40.4818 62.9071H37.866V60.444H40.4818V62.9071Z" fill="black"/>
<path d="M45.7135 62.9071H43.0977V60.444H45.7135V62.9071Z" fill="black"/>
<path d="M50.9449 62.9071H48.3291V60.444H50.9449V62.9071Z" fill="black"/>
<path d="M56.1763 62.9071H53.5605V60.444H56.1763V62.9071Z" fill="black"/>
<path d="M61.4078 62.9071H58.792V60.444H61.4078V62.9071Z" fill="black"/>
<path d="M66.6392 62.9071H64.0234V60.444H66.6392V62.9071Z" fill="black"/>
<path d="M71.8709 62.9071H69.2551V60.444H71.8709V62.9071Z" fill="black"/>
<path d="M75.7945 62.9071H74.4866V60.444H75.7945V62.9071Z" fill="black"/>
<path d="M16.0745 23.1602V26.1422H14.8355C13.5545 26.1422 12.9875 25.6802 12.9875 24.6722V24.6092C12.9875 23.6642 13.5965 23.1602 14.8355 23.1602H16.0745ZM14.7935 28.1582H16.0745V32.0012H19.0985V21.0182H14.2475C11.4965 21.0182 9.92152 22.3412 9.92152 24.5672V24.6302C9.92152 26.2052 10.7825 27.0872 12.0005 27.5282L9.18652 32.0012H12.4835L14.7935 28.1582Z" fill="black"/>
<path d="M30.208 23.7272C30.208 21.8792 28.318 20.7662 25.735 20.7662C23.446 20.7662 21.388 21.9002 21.094 24.5252H23.803C24.055 23.5802 24.706 23.0972 25.651 23.0972C26.722 23.0972 27.1 23.5592 27.1 24.2102V24.2522C27.1 25.0292 26.638 25.4282 25.672 25.4282H24.433V27.3182H25.861C26.974 27.3182 27.478 27.7382 27.478 28.5572V28.6202C27.478 29.5022 26.932 30.0062 25.84 30.0062C24.496 30.0062 23.845 29.3972 23.572 28.2632H20.863C21.157 30.7202 22.795 32.2322 25.882 32.2322C28.717 32.2322 30.586 30.7412 30.586 28.7462V28.6832C30.586 27.2972 29.683 26.4782 28.108 26.2262C29.515 25.9322 30.208 25.0292 30.208 23.7692V23.7272Z" fill="black"/>
<path d="M42.7536 32.0012H45.7566V21.0182H42.7536V32.0012ZM32.6526 32.0012H37.3986C40.1496 32.0012 41.7456 30.6992 41.7456 28.3052V28.2422C41.7456 25.8272 40.0446 24.5042 37.5036 24.5042H35.6556V21.0182H32.6526V32.0012ZM35.6556 29.8592V26.6252H36.8526C38.1126 26.6252 38.6796 27.1712 38.6796 28.2212V28.2842C38.6796 29.4182 38.0706 29.8592 36.8526 29.8592H35.6556Z" fill="black"/>
<path d="M55.1416 32.0012H58.5856L54.2596 26.0372L58.2706 21.0182H55.0366L51.4876 25.7222V21.0182H48.4636V32.0012H51.4876V26.8142L55.1416 32.0012Z" fill="black"/>
<path d="M56.25 20.3117C56.25 15.4455 46.2945 11.5007 34.0137 11.5007C21.7329 11.5007 11.7773 15.4455 11.7773 20.3117" stroke="white" stroke-width="2.68877"/>
</g>
<defs>
<clipPath id="clip0_52_1012">
<path d="M0 12C0 5.37258 5.37258 0 12 0H68C74.6274 0 80 5.37258 80 12V68C80 74.6274 74.6274 80 68 80H12C5.37258 80 0 74.6274 0 68V12Z" fill="white"/>
</clipPath>
</defs>
</svg>
