<svg width="80" height="80" viewBox="0 0 80 80" fill="none" xmlns="http://www.w3.org/2000/svg">
<path d="M39.9534 0.342773L5.79248 20.1816V59.8184L39.9534 79.6573L74.1144 59.8184V20.1816L39.9534 0.342773Z" fill="#6820EA"/>
<path d="M39.9534 0.342773L5.79248 20.1816V59.8184L39.9534 79.6573L74.1144 59.8184V20.1816L39.9534 0.342773Z" fill="white" fill-opacity="0.4"/>
<path d="M55.5351 10.9315L22.704 11.0523L6.20093 39.6268L22.5118 68.1099L55.3428 67.9892L71.846 39.4147L55.5351 10.9315Z" fill="black"/>
<path d="M39.4882 63.2336C52.332 63.2336 62.744 52.8251 62.744 39.9857C62.744 27.1462 52.332 16.7378 39.4882 16.7378C26.6444 16.7378 16.2324 27.1462 16.2324 39.9857C16.2324 52.8251 26.6444 63.2336 39.4882 63.2336Z" fill="white"/>
<path fill-rule="evenodd" clip-rule="evenodd" d="M37.9826 29.4638C38.4798 29.4463 38.9819 29.4374 39.4883 29.4374C39.9946 29.4374 40.4967 29.4463 40.994 29.4638L40.906 31.9608C40.4381 31.9443 39.9653 31.9359 39.4883 31.9359C39.0112 31.9359 38.5384 31.9443 38.0705 31.9608L37.9826 29.4638ZM43.9983 29.6788C45.0243 29.7906 46.0223 29.9397 46.9856 30.1235L46.5174 32.5778C45.6214 32.4068 44.6894 32.2674 43.7278 32.1626L43.9983 29.6788ZM31.9909 30.1235C32.9543 29.9397 33.9522 29.7906 34.9782 29.6788L35.2488 32.1626C34.2871 32.2674 33.3552 32.4068 32.4592 32.5778L31.9909 30.1235ZM49.9366 30.8247C50.9576 31.1189 51.9258 31.4563 52.8301 31.8331L51.869 34.1394C51.0597 33.8022 50.182 33.4956 49.2447 33.2255L49.9366 30.8247ZM26.1464 31.8331C27.0507 31.4563 28.0189 31.1189 29.04 30.8247L29.7318 33.2255C28.7945 33.4956 27.9168 33.8022 27.1075 34.1394L26.1464 31.8331ZM55.6083 33.2399C56.5787 33.8374 57.4357 34.5037 58.1426 35.2352L56.3461 36.9715C55.8105 36.4174 55.1259 35.8771 54.2981 35.3674L55.6083 33.2399ZM20.8339 35.2352C21.5409 34.5037 22.3979 33.8375 23.3682 33.2399L24.6784 35.3674C23.8506 35.8771 23.1661 36.4174 22.6305 36.9715L20.8339 35.2352ZM59.9794 38.1627C60.1708 38.7503 60.2724 39.3604 60.2724 39.9858C60.2724 40.6112 60.1708 41.2213 59.9794 41.8089L57.6037 41.0352C57.7173 40.6866 57.7739 40.3373 57.7739 39.9858C57.7739 39.6343 57.7173 39.285 57.6037 38.9364L59.9794 38.1627ZM18.7041 39.9858C18.7041 39.3604 18.8057 38.7503 18.9971 38.1627L21.3728 38.9364C21.2593 39.285 21.2027 39.6343 21.2027 39.9858C21.2027 40.3373 21.2593 40.6866 21.3728 41.0352L18.9971 41.8089C18.8057 41.2213 18.7041 40.6112 18.7041 39.9858ZM58.1426 44.7364C57.4357 45.4679 56.5787 46.1341 55.6083 46.7317L54.2981 44.6042C55.1259 44.0945 55.8105 43.5542 56.3461 43L58.1426 44.7364ZM23.3682 46.7317C22.3979 46.1341 21.5409 45.4679 20.8339 44.7364L22.6305 43C23.1661 43.5542 23.8506 44.0945 24.6784 44.6042L23.3682 46.7317ZM29.04 49.1469C28.0189 48.8527 27.0507 48.5153 26.1464 48.1385L27.1075 45.8322C27.9168 46.1694 28.7945 46.476 29.7318 46.7461L29.04 49.1469ZM52.8301 48.1385C51.9258 48.5153 50.9576 48.8527 49.9366 49.1469L49.2447 46.7461C50.182 46.476 51.0597 46.1694 51.869 45.8322L52.8301 48.1385ZM34.9782 50.2928C33.9522 50.181 32.9543 50.0319 31.9909 49.8481L32.4592 47.3938C33.3552 47.5647 34.2871 47.7042 35.2488 47.8089L34.9782 50.2928ZM46.9856 49.8481C46.0223 50.0319 45.0243 50.181 43.9983 50.2928L43.7278 47.8089C44.6894 47.7042 45.6214 47.5647 46.5174 47.3938L46.9856 49.8481ZM39.4883 50.5342C38.9819 50.5342 38.4798 50.5253 37.9826 50.5078L38.0705 48.0108C38.5384 48.0273 39.0112 48.0357 39.4883 48.0357C39.9653 48.0357 40.4381 48.0273 40.906 48.0108L40.994 50.5078C40.4967 50.5253 39.9946 50.5342 39.4883 50.5342Z" fill="black"/>
<path fill-rule="evenodd" clip-rule="evenodd" d="M39.4883 20.9226C28.9562 20.9226 20.4185 29.4576 20.4185 39.9857C20.4185 50.5138 28.9562 59.0488 39.4883 59.0488C50.0204 59.0488 58.558 50.5138 58.558 39.9857C58.558 29.4576 50.0204 20.9226 39.4883 20.9226ZM19.4883 39.9857C19.4883 28.9435 28.4427 19.9924 39.4883 19.9924C50.5338 19.9924 59.4883 28.9435 59.4883 39.9857C59.4883 51.0279 50.5338 59.979 39.4883 59.979C28.4427 59.979 19.4883 51.0279 19.4883 39.9857Z" fill="black"/>
<path fill-rule="evenodd" clip-rule="evenodd" d="M41.3488 20.4575V59.5139H37.6279V20.4575H41.3488Z" fill="black"/>
</svg>
