<svg width="349" height="333" viewBox="0 0 349 333" fill="none" xmlns="http://www.w3.org/2000/svg">
<path d="M61.0126 4.94479C61.5344 4.38584 61.5042 3.50974 60.9453 2.98797C60.3863 2.4662 59.5102 2.49634 58.9885 3.05529L61.0126 4.94479ZM38.8749 109.67L38.4363 110.983L38.8749 109.67ZM49.5716 190.507C50.3237 190.369 50.822 189.648 50.6844 188.896L48.4429 176.639C48.3054 175.887 47.5841 175.388 46.8319 175.526C46.0798 175.663 45.5815 176.385 45.7191 177.137L47.7115 188.032L36.8162 190.025C36.0641 190.162 35.5658 190.883 35.7034 191.636C35.8409 192.388 36.5622 192.886 37.3143 192.748L49.5716 190.507ZM47.4837 186.059C46.885 185.583 46.014 185.683 45.5384 186.282C45.0627 186.88 45.1625 187.751 45.7612 188.227L47.4837 186.059ZM41.6281 184.576C42.1743 185.111 43.0509 185.102 43.586 184.555C44.1211 184.009 44.112 183.133 43.5658 182.597L41.6281 184.576ZM39.1839 177.739C38.7069 177.142 37.8357 177.044 37.2381 177.521C36.6405 177.998 36.5428 178.869 37.0198 179.467L39.1839 177.739ZM33.7898 175.016C34.2107 175.654 35.0694 175.831 35.7078 175.41C36.3462 174.989 36.5225 174.13 36.1016 173.492L33.7898 175.016ZM32.7826 167.823C32.4309 167.144 31.5954 166.879 30.9164 167.231C30.2375 167.582 29.9723 168.418 30.324 169.097L32.7826 167.823ZM27.9958 164.134C28.2936 164.838 29.106 165.168 29.8102 164.87C30.5145 164.572 30.844 163.76 30.5462 163.056L27.9958 164.134ZM28.2635 156.874C28.0314 156.145 27.2527 155.743 26.5241 155.975C25.7955 156.207 25.393 156.986 25.6251 157.714L28.2635 156.874ZM24.1507 152.449C24.3309 153.192 25.0794 153.648 25.8225 153.468C26.5656 153.288 27.0219 152.539 26.8416 151.796L24.1507 152.449ZM25.5668 145.322C25.452 144.566 24.746 144.047 23.99 144.162C23.2341 144.276 22.7144 144.982 22.8292 145.738L25.5668 145.322ZM22.1999 140.3C22.2603 141.062 22.9272 141.631 23.6894 141.571C24.4517 141.51 25.0206 140.843 24.9602 140.081L22.1999 140.3ZM24.7539 133.502C24.7681 132.737 24.1598 132.106 23.3953 132.092C22.6308 132.078 21.9996 132.686 21.9854 133.45L24.7539 133.502ZM22.3296 127.971C22.2459 128.731 22.7943 129.415 23.5543 129.498C24.3144 129.582 24.9983 129.034 25.082 128.274L22.3296 127.971ZM26.2472 121.861C26.4434 121.122 26.0033 120.363 25.2642 120.167C24.5252 119.971 23.7671 120.411 23.5709 121.15L26.2472 121.861ZM25.465 115.862C25.1379 116.553 25.4331 117.378 26.1242 117.705C26.8154 118.033 27.6408 117.737 27.9679 117.046L25.465 115.862ZM31.5278 112.163C32.1196 111.678 32.2069 110.806 31.7227 110.214C31.2386 109.622 30.3663 109.535 29.7745 110.019L31.5278 112.163ZM35.509 107.775C34.7449 107.803 34.1487 108.446 34.1774 109.21C34.206 109.974 34.8487 110.57 35.6128 110.542L35.509 107.775ZM41.3998 112.216C42.0766 112.571 42.9137 112.311 43.2694 111.634C43.6251 110.957 43.3647 110.12 42.6879 109.765L41.3998 112.216ZM47.1441 114.416C46.9422 113.679 46.1807 113.245 45.4432 113.447C44.7057 113.649 44.2715 114.41 44.4734 115.148L47.1441 114.416ZM41.825 119.106C41.1763 119.511 40.9784 120.365 41.3831 121.014C41.7878 121.663 42.6418 121.861 43.2905 121.456L41.825 119.106ZM37.8618 123.71C38.6011 123.515 39.0424 122.757 38.8475 122.018C38.6525 121.278 37.8951 120.837 37.1557 121.032L37.8618 123.71ZM30.7091 121.871C29.9445 121.879 29.3315 122.506 29.3399 123.27C29.3482 124.035 29.9749 124.648 30.7395 124.639L30.7091 121.871ZM25.0355 124.196C25.7898 124.322 26.5031 123.813 26.6288 123.058C26.7545 122.304 26.2449 121.591 25.4907 121.465L25.0355 124.196ZM19.1916 119.691C18.4828 119.404 17.6756 119.746 17.3888 120.454C17.1019 121.163 17.4439 121.97 18.1527 122.257L19.1916 119.691ZM13.0644 119.655C13.7119 120.061 14.5665 119.866 14.9732 119.219C15.3798 118.571 15.1845 117.716 14.537 117.31L13.0644 119.655ZM9.68789 113.304C9.19886 112.717 8.32591 112.637 7.73809 113.126C7.15028 113.615 7.0702 114.488 7.55923 115.075L9.68789 113.304ZM4.66567 110.154C4.94728 110.864 5.75186 111.212 6.46275 110.931C7.17365 110.649 7.52165 109.845 7.24003 109.134L4.66567 110.154ZM5.88891 103.089C5.82395 102.327 5.15367 101.762 4.3918 101.827C3.62993 101.892 3.06496 102.562 3.12992 103.324L5.88891 103.089ZM3.11494 97.8103C3.06093 98.573 3.63546 99.2351 4.39819 99.2891C5.16092 99.3431 5.82301 98.7686 5.87702 98.0059L3.11494 97.8103ZM6.78643 91.6387C6.94143 90.8899 6.46008 90.1573 5.71132 90.0023C4.96256 89.8473 4.22991 90.3286 4.07492 91.0774L6.78643 91.6387ZM5.38419 85.8254C5.17201 86.56 5.59551 87.3276 6.33012 87.5397C7.06473 87.7519 7.83225 87.3284 8.04444 86.5938L5.38419 85.8254ZM10.091 80.4093C10.3565 79.6922 9.99035 78.8957 9.27327 78.6303C8.55619 78.3648 7.75969 78.7309 7.49423 79.448L10.091 80.4093ZM9.48296 74.4494C9.18426 75.1533 9.51272 75.966 10.2166 76.2647C10.9205 76.5634 11.7332 76.235 12.0319 75.5311L9.48296 74.4494ZM14.737 69.5722C15.0691 68.8835 14.7801 68.0559 14.0913 67.7238C13.4026 67.3916 12.575 67.6807 12.2429 68.3694L14.737 69.5722ZM14.6464 63.5909C14.292 64.2684 14.5539 65.105 15.2314 65.4594C15.9089 65.8139 16.7455 65.552 17.1 64.8745L14.6464 63.5909ZM20.2568 59.0983C20.6351 58.4338 20.403 57.5884 19.7385 57.2102C19.074 56.8319 18.2286 57.064 17.8504 57.7285L20.2568 59.0983ZM20.5467 53.1293C20.1518 53.7841 20.3626 54.635 21.0174 55.0298C21.6722 55.4246 22.5231 55.2139 22.918 54.5591L20.5467 53.1293ZM26.3985 48.9706C26.8117 48.3272 26.6251 47.4707 25.9818 47.0575C25.3384 46.6443 24.4819 46.8308 24.0686 47.4742L26.3985 48.9706ZM26.9962 43.0198C26.5697 43.6544 26.7385 44.5146 27.3731 44.9411C28.0078 45.3676 28.868 45.1989 29.2945 44.5642L26.9962 43.0198ZM33.0424 39.1315C33.4841 38.5073 33.3362 37.6433 32.712 37.2016C32.0878 36.7599 31.2238 36.9079 30.7821 37.5321L33.0424 39.1315ZM33.8977 33.2131C33.4448 33.8292 33.5771 34.6957 34.1932 35.1486C34.8093 35.6015 35.6759 35.4692 36.1288 34.8531L33.8977 33.2131ZM40.091 29.5835C40.557 28.9773 40.4433 28.1081 39.8371 27.6421C39.2309 27.1761 38.3617 27.2897 37.8957 27.896L40.091 29.5835ZM41.1751 23.702C40.6992 24.3004 40.7986 25.1714 41.397 25.6473C41.9955 26.1232 42.8665 26.0239 43.3424 25.4254L41.1751 23.702ZM47.4989 20.3046C47.9866 19.7157 47.9046 18.843 47.3157 18.3552C46.7268 17.8675 45.8541 17.9495 45.3663 18.5384L47.4989 20.3046ZM48.7935 14.4656C48.2966 15.0468 48.3651 15.9207 48.9463 16.4176C49.5275 16.9144 50.4015 16.846 50.8983 16.2648L48.7935 14.4656ZM55.2338 11.2901C55.7417 10.7184 55.69 9.84334 55.1183 9.33549C54.5467 8.82764 53.6716 8.87934 53.1638 9.45096L55.2338 11.2901ZM56.7287 5.49916C56.2122 6.06303 56.2507 6.9388 56.8145 7.45526C57.3784 7.97172 58.2542 7.93329 58.7706 7.36943L56.7287 5.49916ZM50.1094 188.006C49.2077 187.383 48.3326 186.733 47.4837 186.059L45.7612 188.227C46.6578 188.939 47.5824 189.626 48.5356 190.284L50.1094 188.006ZM43.5658 182.597C42 181.064 40.5405 179.439 39.1839 177.739L37.0198 179.467C38.4436 181.25 39.9784 182.96 41.6281 184.576L43.5658 182.597ZM36.1016 173.492C34.893 171.659 33.7878 169.763 32.7826 167.823L30.324 169.097C31.3716 171.119 32.5255 173.098 33.7898 175.016L36.1016 173.492ZM30.5462 163.056C29.6852 161.019 28.9255 158.953 28.2635 156.874L25.6251 157.714C26.3119 159.871 27.1007 162.017 27.9958 164.134L30.5462 163.056ZM26.8416 151.796C26.3152 149.626 25.8917 147.461 25.5668 145.322L22.8292 145.738C23.1661 147.955 23.6051 150.199 24.1507 152.449L26.8416 151.796ZM24.9602 140.081C24.7814 137.824 24.7147 135.621 24.7539 133.502L21.9854 133.45C21.9444 135.663 22.0142 137.956 22.1999 140.3L24.9602 140.081ZM25.082 128.274C25.3358 125.967 25.7285 123.815 26.2472 121.861L23.5709 121.15C23.0124 123.254 22.5966 125.544 22.3296 127.971L25.082 128.274ZM27.9679 117.046C28.9858 114.895 30.1937 113.254 31.5278 112.163L29.7745 110.019C28.034 111.443 26.6021 113.459 25.465 115.862L27.9679 117.046ZM35.6128 110.542C36.4778 110.509 37.4177 110.643 38.4363 110.983L39.3135 108.357C38.0132 107.923 36.741 107.728 35.509 107.775L35.6128 110.542ZM38.4363 110.983C39.6086 111.375 40.5899 111.79 41.3998 112.216L42.6879 109.765C41.7225 109.257 40.5997 108.787 39.3135 108.357L38.4363 110.983ZM44.4734 115.148C44.7564 116.181 44.1731 117.642 41.825 119.106L43.2905 121.456C45.9253 119.812 47.9354 117.307 47.1441 114.416L44.4734 115.148ZM37.1557 121.032C35.2391 121.538 33.0532 121.845 30.7091 121.871L30.7395 124.639C33.3025 124.611 35.7158 124.275 37.8618 123.71L37.1557 121.032ZM25.4907 121.465C23.4171 121.12 21.2966 120.543 19.1916 119.691L18.1527 122.257C20.4542 123.189 22.7712 123.819 25.0355 124.196L25.4907 121.465ZM14.537 117.31C13.6295 116.74 12.7335 116.109 11.8544 115.414L10.1367 117.586C11.095 118.344 12.0729 119.032 13.0644 119.655L14.537 117.31ZM11.8544 115.414C11.0456 114.774 10.3249 114.07 9.68789 113.304L7.55923 115.075C8.32006 115.99 9.17872 116.828 10.1367 117.586L11.8544 115.414ZM7.24003 109.134C6.52849 107.338 6.07902 105.319 5.88891 103.089L3.12992 103.324C3.33921 105.779 3.83956 108.068 4.66567 110.154L7.24003 109.134ZM5.87702 98.0059C6.01926 95.9969 6.32436 93.8709 6.78643 91.6387L4.07492 91.0774C3.59147 93.4129 3.26705 95.662 3.11494 97.8103L5.87702 98.0059ZM8.04444 86.5938C8.62184 84.5948 9.30565 82.5308 10.091 80.4093L7.49423 79.448C6.68772 81.6267 5.98218 83.7551 5.38419 85.8254L8.04444 86.5938ZM12.0319 75.5311C12.8589 73.5824 13.7618 71.5944 14.737 69.5722L12.2429 68.3694C11.2498 70.4286 10.3284 72.4571 9.48296 74.4494L12.0319 75.5311ZM17.1 64.8745C18.095 62.9725 19.1482 61.0458 20.2568 59.0983L17.8504 57.7285C16.7264 59.703 15.6574 61.6585 14.6464 63.5909L17.1 64.8745ZM22.918 54.5591C24.0327 52.7102 25.1937 50.8463 26.3985 48.9706L24.0686 47.4742C22.8503 49.3711 21.6755 51.2572 20.5467 53.1293L22.918 54.5591ZM29.2945 44.5642C30.5066 42.7605 31.7566 40.9486 33.0424 39.1315L30.7821 37.5321C29.4838 39.3669 28.2211 41.1971 26.9962 43.0198L29.2945 44.5642ZM36.1288 34.8531C37.4187 33.0984 38.7401 31.341 40.091 29.5835L37.8957 27.896C36.5328 29.6689 35.1995 31.4421 33.8977 33.2131L36.1288 34.8531ZM43.3424 25.4254C44.7019 23.7158 46.088 22.008 47.4989 20.3046L45.3663 18.5384C43.9439 20.2558 42.5462 21.9778 41.1751 23.702L43.3424 25.4254ZM50.8983 16.2648C52.3216 14.5997 53.7673 12.9407 55.2338 11.2901L53.1638 9.45096C51.6856 11.1148 50.2282 12.7871 48.7935 14.4656L50.8983 16.2648ZM58.7706 7.36943C59.5132 6.55863 60.2606 5.75033 61.0126 4.94479L58.9885 3.05529C58.2305 3.86722 57.4772 4.68194 56.7287 5.49916L58.7706 7.36943Z" fill="#E4E4E4"/>
<path d="M152.655 327.341C153.396 327.531 154.151 327.085 154.341 326.345L157.442 314.276C157.632 313.535 157.186 312.781 156.445 312.59C155.705 312.4 154.95 312.846 154.76 313.587L152.004 324.315L141.276 321.558C140.535 321.368 139.781 321.814 139.59 322.555C139.4 323.295 139.846 324.05 140.587 324.24L152.655 327.341ZM250.312 119.212C258.348 132.625 262.076 144.579 262.619 155.376C263.162 166.164 260.529 175.888 255.703 184.86C246.011 202.877 227.515 217.806 208.18 232.009C188.974 246.119 168.886 259.54 156.634 274.417C150.48 281.89 146.209 289.831 145.032 298.523C143.852 307.239 145.805 316.55 151.808 326.705L154.192 325.295C148.445 315.575 146.694 306.886 147.776 298.895C148.861 290.88 152.817 283.407 158.772 276.177C170.739 261.647 190.401 248.506 209.82 234.241C229.11 220.069 248.114 204.811 258.141 186.172C263.174 176.815 265.956 166.594 265.385 155.237C264.814 143.89 260.902 131.5 252.688 117.788L250.312 119.212Z" fill="#242938"/>
<path d="M320.5 153L319.787 151.813L320.5 153ZM320.5 191.5L321.865 191.731L320.5 191.5ZM292.397 204.437L291.591 205.563L292.397 204.437ZM258.546 221.552C257.936 222.012 257.068 221.89 256.607 221.28L249.108 211.329C248.648 210.718 248.77 209.85 249.38 209.39C249.991 208.929 250.859 209.051 251.319 209.662L257.986 218.507L266.831 211.841C267.442 211.381 268.31 211.503 268.77 212.114C269.23 212.724 269.108 213.592 268.497 214.053L258.546 221.552ZM309.795 63.6335C308.842 64.3022 308.01 65.0035 307.287 65.7329L305.32 63.7847C306.166 62.9299 307.126 62.1232 308.205 61.3665L309.795 63.6335ZM304.39 69.9096C303.532 71.8199 303.124 73.9106 303.097 76.1712L300.329 76.1387C300.359 73.5615 300.826 71.0857 301.864 68.775L304.39 69.9096ZM303.636 81.4511C304.054 83.543 304.702 85.7267 305.527 87.985L302.927 88.9358C302.065 86.5794 301.373 84.2568 300.921 81.9943L303.636 81.4511ZM307.618 93.0812C308.54 95.1334 309.564 97.2204 310.65 99.3296L308.188 100.598C307.086 98.458 306.04 96.3254 305.092 94.2165L307.618 93.0812ZM313.268 104.261C314.379 106.306 315.516 108.354 316.648 110.4L314.225 111.741C313.096 109.7 311.952 107.64 310.835 105.583L313.268 104.261ZM319.352 115.33C320.492 117.438 321.594 119.532 322.616 121.593L320.136 122.823C319.133 120.801 318.047 118.739 316.916 116.647L319.352 115.33ZM325.022 126.762C326.011 129.066 326.855 131.324 327.482 133.51L324.821 134.274C324.234 132.23 323.435 130.084 322.477 127.855L325.022 126.762ZM328.607 139.27C328.841 141.915 328.611 144.449 327.724 146.782L325.136 145.797C325.839 143.947 326.056 141.851 325.849 139.514L328.607 139.27ZM324.272 151.895C323.39 152.727 322.372 153.491 321.213 154.187L319.787 151.813C320.792 151.21 321.648 150.563 322.371 149.881L324.272 151.895ZM321.213 154.187C320.043 154.889 319.185 155.593 318.561 156.293L316.494 154.451C317.342 153.498 318.434 152.625 319.787 151.813L321.213 154.187ZM316.974 160.924C317.049 162.895 317.728 165.153 318.653 167.931L316.026 168.806C315.119 166.083 314.299 163.457 314.207 161.029L316.974 160.924ZM320.537 173.788C321.213 176.129 321.811 178.683 322.13 181.466L319.379 181.781C319.083 179.197 318.524 176.8 317.876 174.556L320.537 173.788ZM322.313 187.795C322.238 189.068 322.093 190.379 321.865 191.731L319.135 191.269C319.346 190.019 319.48 188.807 319.549 187.633L322.313 187.795ZM321.865 191.731C321.668 192.899 321.301 194.088 320.797 195.261L318.253 194.168C318.683 193.167 318.979 192.19 319.135 191.269L321.865 191.731ZM317.826 200.175C316.391 201.99 314.641 203.677 312.667 205.072L311.068 202.811C312.818 201.574 314.377 200.073 315.655 198.457L317.826 200.175ZM307.594 207.763C305.334 208.591 302.906 209.011 300.408 208.841L300.596 206.078C302.659 206.219 304.699 205.875 306.641 205.163L307.594 207.763ZM294.736 207.393C293.675 206.91 292.624 206.303 291.591 205.563L293.202 203.311C294.096 203.951 294.992 204.467 295.883 204.873L294.736 207.393ZM291.591 205.563C290.683 204.913 289.775 204.323 288.869 203.792L290.271 201.403C291.252 201.979 292.23 202.615 293.202 203.311L291.591 205.563ZM284.224 201.567C282.105 200.781 280.036 200.33 278.059 200.206L278.233 197.442C280.507 197.585 282.841 198.101 285.187 198.971L284.224 201.567ZM273.116 200.617C271.129 201.101 269.271 201.979 267.589 203.263L265.909 201.062C267.895 199.546 270.103 198.501 272.46 197.927L273.116 200.617ZM264.122 206.841C262.972 208.411 261.961 210.274 261.126 212.445L258.542 211.452C259.454 209.078 260.578 206.993 261.888 205.205L264.122 206.841ZM259.659 217.413C259.434 218.44 259.242 219.515 259.084 220.639L256.342 220.254C256.509 219.064 256.714 217.92 256.954 216.822L259.659 217.413Z" fill="#E4E4E4"/>
</svg>
