<svg width="484" height="379" viewBox="0 0 484 379" fill="none" xmlns="http://www.w3.org/2000/svg">
<path d="M23.7955 202.567C10.9923 199.137 3.39433 185.976 6.82494 173.173L45.583 28.5262C49.5007 13.905 65.8102 6.51739 79.3847 13.2151L443.311 192.779C453.577 197.844 458.836 209.455 455.873 220.513L437.628 288.607C434.197 301.41 421.037 309.008 408.234 305.577L23.7955 202.567Z" fill="#89CBD7" style="mix-blend-mode:multiply"/>
<path d="M96.6953 318.531H83.6094L68.375 300.123L63.7852 304.81V318.531H53.6777L53.6777 273.023H63.7852V292.31L81.998 273.023H95.8652L74.8691 293.921L96.6953 318.531Z" fill="#242938"/>
<path d="M150.992 273.023L131.363 327.417C129.898 331.356 127.766 334.074 124.967 335.572C122.167 337.069 118.831 337.818 114.957 337.818C113.622 337.818 112.19 337.688 110.66 337.427C109.13 337.167 107.535 336.727 105.875 336.109L107.975 326.832C109.374 327.352 110.66 327.71 111.832 327.906C113.004 328.134 114.046 328.248 114.957 328.248C117.984 328.248 120.051 326.88 121.158 324.146L122.965 319.751L105.582 273.023H116.08L128.58 307.447L140.152 273.023H150.992Z" fill="#242938"/>
<path d="M162.857 273.023H172.965V277.125C174.885 275.399 176.822 274.113 178.775 273.267C180.761 272.388 183.023 271.949 185.562 271.949C188.492 271.949 191.21 272.551 193.717 273.755C196.223 274.927 198.372 276.571 200.162 278.687C201.952 280.77 203.368 283.293 204.41 286.255C205.452 289.185 205.973 292.375 205.973 295.826C205.973 299.309 205.452 302.515 204.41 305.445C203.368 308.375 201.952 310.897 200.162 313.013C198.372 315.097 196.223 316.724 193.717 317.896C191.21 319.068 188.492 319.654 185.562 319.654C183.023 319.654 180.761 319.198 178.775 318.287C176.822 317.375 174.885 316.057 172.965 314.332V336.744H162.857V273.023ZM172.965 306.324C174.169 307.658 175.699 308.7 177.555 309.449C179.443 310.165 181.249 310.523 182.975 310.523C186.783 310.523 189.876 309.172 192.252 306.47C194.661 303.768 195.865 300.22 195.865 295.826C195.865 291.431 194.661 287.867 192.252 285.132C189.876 282.398 186.783 281.031 182.975 281.031C181.249 281.031 179.443 281.389 177.555 282.105C175.699 282.789 174.169 283.798 172.965 285.132V306.324Z" fill="#242938"/>
<path d="M258.854 312.037C255.924 314.966 252.831 316.968 249.576 318.042C246.354 319.117 242.854 319.654 239.078 319.654C235.27 319.654 231.803 319.084 228.678 317.945C225.585 316.806 222.949 315.21 220.768 313.16C218.619 311.076 216.959 308.57 215.787 305.64C214.648 302.71 214.078 299.439 214.078 295.826C214.078 292.375 214.648 289.185 215.787 286.255C216.959 283.293 218.521 280.77 220.475 278.687C222.46 276.571 224.788 274.927 227.457 273.755C230.126 272.551 232.958 271.949 235.953 271.949C239.078 271.949 241.796 272.6 244.107 273.902C246.419 275.204 248.095 277.108 249.137 279.615V273.023H258.17V294.214H249.137C249.137 290.21 248.03 287.02 245.816 284.644C243.635 282.235 240.787 281.031 237.271 281.031C235.872 281.031 234.391 281.324 232.828 281.91C231.298 282.463 229.882 283.342 228.58 284.546C227.311 285.751 226.253 287.281 225.406 289.136C224.56 290.992 224.137 293.222 224.137 295.826C224.137 298.365 224.544 300.562 225.357 302.417C226.171 304.24 227.229 305.754 228.531 306.958C229.866 308.13 231.428 309.026 233.219 309.644C235.042 310.23 236.913 310.523 238.834 310.523C242.122 310.523 244.97 310.018 247.379 309.009C249.82 307.968 251.92 306.6 253.678 304.908L258.854 312.037Z" fill="#242938"/>
<path d="M300.553 304.517C300.553 309.139 299.088 312.639 296.158 315.015C293.229 317.359 289.127 318.531 283.854 318.531H268.668V273.023H278.727V290.65H283.951C289.16 290.65 293.229 291.806 296.158 294.117C299.088 296.395 300.553 299.862 300.553 304.517ZM290.445 304.615C290.445 302.955 289.859 301.734 288.688 300.953C287.516 300.139 285.937 299.732 283.951 299.732H278.727V309.449H283.951C285.937 309.449 287.516 309.042 288.688 308.228C289.859 307.414 290.445 306.21 290.445 304.615ZM306.021 273.023H316.129V318.531H306.021V273.023Z" fill="#242938"/>
<path d="M370.914 290.943C370.393 293.319 369.645 295.761 368.668 298.267C367.724 300.774 366.487 303.199 364.957 305.542L372.623 312.623L366.324 319.849L359.049 312.72C356.705 314.869 354.133 316.561 351.334 317.798C348.535 319.035 345.442 319.654 342.057 319.654C339.387 319.654 336.881 319.198 334.537 318.287C332.193 317.375 330.175 316.138 328.482 314.576C326.79 313.013 325.455 311.19 324.479 309.107C323.502 306.991 323.014 304.696 323.014 302.222C323.014 297.958 323.795 294.475 325.357 291.773C326.952 289.071 328.84 286.76 331.021 284.839C329.166 282.496 327.734 280.152 326.725 277.808C325.715 275.432 325.211 272.876 325.211 270.142C325.211 267.668 325.65 265.422 326.529 263.404C327.408 261.353 328.564 259.611 329.996 258.179C331.428 256.747 333.105 255.656 335.025 254.908C336.979 254.126 339.046 253.736 341.227 253.736C343.44 253.736 345.507 254.078 347.428 254.761C349.381 255.412 351.074 256.356 352.506 257.593C353.938 258.83 355.045 260.328 355.826 262.085C356.64 263.843 357.047 265.861 357.047 268.14C357.047 270.321 356.656 272.291 355.875 274.048C355.126 275.774 354.133 277.336 352.896 278.736C351.66 280.136 350.276 281.421 348.746 282.593C347.216 283.765 345.686 284.872 344.156 285.914L358.023 299.048C358.837 297.421 359.537 295.728 360.123 293.97C360.742 292.212 361.279 290.438 361.734 288.648L370.914 290.943ZM342.74 310.523C344.661 310.523 346.435 310.165 348.062 309.449C349.723 308.7 351.253 307.691 352.652 306.421L337.32 291.529H337.223C336.018 292.798 335.025 294.214 334.244 295.777C333.495 297.339 333.121 299.097 333.121 301.05C333.121 303.85 334.033 306.128 335.855 307.886C337.711 309.644 340.006 310.523 342.74 310.523ZM335.318 270.142C335.318 271.932 335.481 273.544 335.807 274.976C336.165 276.408 336.946 277.955 338.15 279.615C339.355 278.833 340.478 278.052 341.52 277.271C342.594 276.457 343.521 275.578 344.303 274.634C345.117 273.69 345.751 272.681 346.207 271.607C346.695 270.5 346.939 269.279 346.939 267.945C346.939 266.415 346.419 265.178 345.377 264.234C344.335 263.29 343.082 262.818 341.617 262.818C339.697 262.818 338.167 263.518 337.027 264.917C335.888 266.317 335.318 268.059 335.318 270.142Z" fill="#242938"/>
<path d="M96.6953 378.531H83.6094L68.375 360.123L63.7852 364.81V378.531H53.6777V333.023H63.7852L63.7852 352.31L81.998 333.023H95.8652L74.8691 353.921L96.6953 378.531Z" fill="#242938"/>
<path d="M148.99 378.531H138.883V359.732H118.375V378.531H108.268V333.023H118.375V350.65H138.883V333.023H148.99V378.531Z" fill="#242938"/>
<path d="M162.857 333.023H172.965V364.322L190.885 333.023H203.58V378.531H193.473V345.425L174.576 378.531H162.857V333.023Z" fill="#242938"/>
<path d="M217.447 333.023H260.562V341.519H227.555V378.531H217.447V333.023Z" fill="#242938"/>
<path d="M272.037 333.023H282.145V364.322L300.064 333.023H312.76V378.531H302.652V345.425L283.756 378.531H272.037V333.023Z" fill="#242938"/>
</svg>
