<svg width="570" height="616" viewBox="0 0 570 616" fill="none" xmlns="http://www.w3.org/2000/svg">
<path d="M318.782 3.98773C318.299 3.31489 318.452 2.37765 319.125 1.89435C319.798 1.41105 320.735 1.56469 321.218 2.23753L318.782 3.98773ZM386 205.53L385.729 204.055L386 205.53ZM347 169.113L346.71 167.641L347 169.113ZM316.908 282.479C316.119 282.227 315.684 281.383 315.936 280.594L320.041 267.734C320.293 266.944 321.137 266.509 321.926 266.761C322.715 267.013 323.151 267.857 322.899 268.646L319.25 280.078L330.681 283.726C331.471 283.978 331.906 284.822 331.654 285.612C331.402 286.401 330.558 286.836 329.769 286.584L316.908 282.479ZM320.827 277.396C321.536 276.968 322.458 277.196 322.887 277.905C323.315 278.614 323.087 279.536 322.378 279.964L320.827 277.396ZM328.93 275.525C328.269 276.024 327.329 275.893 326.829 275.232C326.33 274.571 326.461 273.63 327.122 273.131L328.93 275.525ZM334.343 266.939C334.938 266.363 335.888 266.379 336.464 266.974C337.04 267.569 337.025 268.519 336.429 269.095L334.343 266.939ZM341.847 263.347C341.307 263.975 340.36 264.046 339.732 263.505C339.104 262.965 339.034 262.017 339.574 261.39L341.847 263.347ZM345.407 253.839C345.879 253.158 346.814 252.989 347.495 253.461C348.176 253.933 348.345 254.867 347.873 255.548L345.407 253.839ZM352.104 248.9C351.686 249.616 350.768 249.857 350.052 249.44C349.337 249.022 349.095 248.104 349.512 247.388L352.104 248.9ZM353.945 238.913C354.295 238.162 355.188 237.837 355.939 238.187C356.689 238.537 357.014 239.43 356.664 240.181L353.945 238.913ZM359.734 232.941C359.438 233.715 358.57 234.101 357.797 233.805C357.023 233.508 356.636 232.641 356.933 231.867L359.734 232.941ZM359.968 222.786C360.196 221.99 361.027 221.529 361.823 221.757C362.619 221.985 363.08 222.816 362.852 223.612L359.968 222.786ZM364.749 215.971C364.578 216.782 363.783 217.301 362.972 217.13C362.162 216.96 361.643 216.165 361.813 215.354L364.749 215.971ZM363.33 205.917C363.421 205.094 364.162 204.5 364.985 204.59C365.809 204.681 366.403 205.422 366.312 206.245L363.33 205.917ZM366.828 198.376C366.812 199.205 366.128 199.864 365.3 199.848C364.472 199.833 363.813 199.149 363.828 198.321L366.828 198.376ZM363.338 188.843C363.229 188.022 363.807 187.268 364.629 187.16C365.45 187.051 366.204 187.629 366.312 188.45L363.338 188.843ZM364.595 180.613C364.85 181.401 364.419 182.247 363.631 182.503C362.843 182.758 361.997 182.327 361.741 181.539L364.595 180.613ZM357.43 173.696C356.861 173.094 356.888 172.144 357.49 171.575C358.092 171.006 359.042 171.033 359.61 171.636L357.43 173.696ZM352.09 167.511C352.907 167.648 353.459 168.421 353.322 169.238C353.185 170.055 352.412 170.607 351.595 170.47L352.09 167.511ZM343.042 171.771C342.268 172.065 341.402 171.676 341.108 170.901C340.814 170.127 341.203 169.26 341.978 168.966L343.042 171.771ZM335.218 173.35C335.773 172.735 336.721 172.685 337.337 173.24C337.952 173.794 338.002 174.742 337.447 175.358L335.218 173.35ZM335.255 182.751C335.367 183.572 334.792 184.328 333.971 184.44C333.15 184.551 332.394 183.977 332.283 183.156L335.255 182.751ZM335.205 190.623C334.757 189.926 334.958 188.998 335.654 188.549C336.35 188.101 337.279 188.302 337.727 188.998L335.205 190.623ZM343.677 195.442C344.322 195.962 344.424 196.906 343.904 197.551C343.385 198.196 342.441 198.298 341.795 197.779L343.677 195.442ZM348.233 202.014C347.503 201.622 347.228 200.713 347.619 199.983C348.011 199.253 348.92 198.978 349.65 199.369L348.233 202.014ZM357.947 202.801C358.739 203.043 359.185 203.882 358.942 204.674C358.699 205.466 357.86 205.912 357.068 205.669L357.947 202.801ZM364.496 207.388C363.678 207.256 363.121 206.487 363.253 205.669C363.384 204.851 364.154 204.294 364.971 204.426L364.496 207.388ZM373.995 205.14C374.823 205.141 375.494 205.814 375.493 206.642C375.492 207.471 374.819 208.141 373.991 208.14L373.995 205.14ZM381.571 207.707C380.748 207.801 380.004 207.21 379.91 206.387C379.816 205.564 380.406 204.821 381.229 204.726L381.571 207.707ZM390.061 202.704C390.812 202.354 391.705 202.679 392.055 203.429C392.405 204.18 392.08 205.073 391.329 205.423L390.061 202.704ZM397.912 200.095C397.413 200.757 396.473 200.888 395.811 200.389C395.15 199.89 395.019 198.949 395.518 198.288L397.912 200.095ZM399.088 189.92C399.262 189.11 400.059 188.594 400.869 188.767C401.679 188.941 402.195 189.738 402.022 190.548L399.088 189.92ZM402.908 182.519C402.887 183.347 402.199 184.002 401.371 183.982C400.543 183.962 399.888 183.274 399.908 182.446L402.908 182.519ZM399.42 172.866C399.326 172.043 399.917 171.299 400.74 171.205C401.563 171.111 402.307 171.702 402.401 172.525L399.42 172.866ZM401.194 164.653C401.348 165.468 400.812 166.252 399.998 166.405C399.184 166.559 398.4 166.023 398.246 165.209L401.194 164.653ZM396.118 155.725C395.912 154.922 396.396 154.105 397.198 153.899C398.001 153.693 398.818 154.176 399.024 154.978L396.118 155.725ZM396.904 147.371C397.142 148.165 396.691 149.001 395.897 149.238C395.103 149.476 394.268 149.025 394.03 148.231L396.904 147.371ZM391.046 138.955C390.777 138.171 391.194 137.318 391.978 137.049C392.762 136.781 393.615 137.198 393.883 137.982L391.046 138.955ZM391.226 130.556C391.515 131.332 391.12 132.196 390.344 132.485C389.567 132.774 388.704 132.378 388.415 131.602L391.226 130.556ZM384.874 122.488C384.563 121.72 384.934 120.846 385.703 120.536C386.471 120.225 387.345 120.596 387.655 121.364L384.874 122.488ZM384.634 114.095C384.959 114.857 384.605 115.738 383.843 116.063C383.081 116.388 382.2 116.034 381.874 115.272L384.634 114.095ZM377.935 106.317C377.593 105.562 377.928 104.673 378.683 104.332C379.438 103.99 380.326 104.325 380.668 105.08L377.935 106.317ZM377.368 97.9398C377.722 98.6891 377.401 99.5829 376.651 99.9362C375.902 100.289 375.008 99.9684 374.655 99.2191L377.368 97.9398ZM370.402 90.4064C370.035 89.6636 370.34 88.7641 371.083 88.3975C371.826 88.0308 372.725 88.3357 373.092 89.0786L370.402 90.4064ZM369.563 82.0498C369.94 82.7876 369.647 83.6911 368.909 84.0677C368.171 84.4443 367.267 84.1514 366.891 83.4136L369.563 82.0498ZM362.372 74.7323C361.984 74.0005 362.262 73.0925 362.994 72.7042C363.726 72.316 364.634 72.5944 365.022 73.3262L362.372 74.7323ZM361.293 66.4003C361.69 67.1273 361.422 68.0387 360.695 68.4358C359.968 68.833 359.057 68.5656 358.66 67.8386L361.293 66.4003ZM353.903 59.284C353.495 58.5629 353.749 57.6477 354.47 57.2398C355.191 56.8319 356.106 57.0857 356.514 57.8067L353.903 59.284ZM352.601 50.9826C353.017 51.6988 352.774 52.617 352.058 53.0333C351.341 53.4497 350.423 53.2066 350.007 52.4904L352.601 50.9826ZM345.026 44.0639C344.599 43.3539 344.828 42.4323 345.539 42.0055C346.249 41.5787 347.17 41.8084 347.597 42.5184L345.026 44.0639ZM343.505 35.8005C343.94 36.5054 343.721 37.4296 343.016 37.8648C342.311 38.3 341.387 38.0813 340.952 37.3764L343.505 35.8005ZM335.747 29.0866C335.301 28.3885 335.505 27.461 336.204 27.0151C336.902 26.5692 337.829 26.7737 338.275 27.4719L335.747 29.0866ZM333.999 20.8692C334.454 21.5616 334.261 22.4916 333.569 22.9464C332.876 23.4012 331.946 23.2086 331.492 22.5161L333.999 20.8692ZM326.05 14.3813C325.583 13.6967 325.76 12.7636 326.445 12.297C327.129 11.8305 328.063 12.0073 328.529 12.6918L326.05 14.3813ZM324.049 6.22065C324.526 6.89823 324.363 7.8339 323.686 8.31052C323.008 8.78714 322.072 8.62423 321.596 7.94664L324.049 6.22065ZM316.677 279.717C318.094 278.986 319.477 278.211 320.827 277.396L322.378 279.964C320.971 280.814 319.53 281.621 318.052 282.383L316.677 279.717ZM327.122 273.131C329.665 271.21 332.072 269.137 334.343 266.939L336.429 269.095C334.074 271.374 331.575 273.527 328.93 275.525L327.122 273.131ZM339.574 261.39C341.656 258.973 343.6 256.447 345.407 253.839L347.873 255.548C346.008 258.238 344.001 260.847 341.847 263.347L339.574 261.39ZM349.512 247.388C351.13 244.616 352.607 241.782 353.945 238.913L356.664 240.181C355.288 243.13 353.769 246.046 352.104 248.9L349.512 247.388ZM356.933 231.867C358.093 228.841 359.104 225.804 359.968 222.786L362.852 223.612C361.964 226.712 360.926 229.833 359.734 232.941L356.933 231.867ZM361.813 215.354C362.489 212.138 362.994 208.978 363.33 205.917L366.312 206.245C365.965 209.407 365.444 212.662 364.749 215.971L361.813 215.354ZM363.828 198.321C363.891 194.948 363.724 191.767 363.338 188.843L366.312 188.45C366.72 191.54 366.892 194.872 366.828 198.376L363.828 198.321ZM361.741 181.539C360.664 178.221 359.205 175.575 357.43 173.696L359.61 171.636C361.776 173.928 363.424 177.008 364.595 180.613L361.741 181.539ZM351.595 170.47C350.297 170.253 348.864 170.275 347.289 170.584L346.71 167.641C348.601 167.269 350.399 167.228 352.09 167.511L351.595 170.47ZM347.289 170.584C345.702 170.897 344.289 171.298 343.042 171.771L341.978 168.966C343.4 168.427 344.977 167.982 346.71 167.641L347.289 170.584ZM337.447 175.358C335.567 177.445 334.878 179.984 335.255 182.751L332.283 183.156C331.797 179.589 332.699 176.147 335.218 173.35L337.447 175.358ZM337.727 188.998C339.151 191.208 341.15 193.407 343.677 195.442L341.795 197.779C339.054 195.571 336.827 193.139 335.205 190.623L337.727 188.998ZM349.65 199.369C352.143 200.705 354.919 201.872 357.947 202.801L357.068 205.669C353.858 204.685 350.902 203.443 348.233 202.014L349.65 199.369ZM364.971 204.426C367.823 204.884 370.837 205.136 373.995 205.14L373.991 208.14C370.676 208.136 367.504 207.871 364.496 207.388L364.971 204.426ZM381.229 204.726C382.705 204.557 384.205 204.335 385.729 204.055L386.271 207.005C384.681 207.297 383.114 207.53 381.571 207.707L381.229 204.726ZM385.729 204.055C387.335 203.76 388.775 203.304 390.061 202.704L391.329 205.423C389.791 206.14 388.105 206.668 386.271 207.005L385.729 204.055ZM395.518 198.288C397.178 196.088 398.367 193.291 399.088 189.92L402.022 190.548C401.232 194.237 399.896 197.466 397.912 200.095L395.518 198.288ZM399.908 182.446C399.981 179.497 399.813 176.295 399.42 172.866L402.401 172.525C402.806 176.065 402.984 179.408 402.908 182.519L399.908 182.446ZM398.246 165.209C397.674 162.173 396.961 159.006 396.118 155.725L399.024 154.978C399.881 158.315 400.608 161.545 401.194 164.653L398.246 165.209ZM394.03 148.231C393.126 145.212 392.129 142.116 391.046 138.955L393.883 137.982C394.979 141.178 395.988 144.311 396.904 147.371L394.03 148.231ZM388.415 131.602C387.301 128.609 386.119 125.568 384.874 122.488L387.655 121.364C388.91 124.468 390.102 127.535 391.226 130.556L388.415 131.602ZM381.874 115.272C380.611 112.313 379.296 109.326 377.935 106.317L380.668 105.08C382.038 108.107 383.362 111.115 384.634 114.095L381.874 115.272ZM374.655 99.2191C373.276 96.2935 371.856 93.3538 370.402 90.4064L373.092 89.0786C374.554 92.0415 375.981 94.9974 377.368 97.9398L374.655 99.2191ZM366.891 83.4136C365.414 80.52 363.906 77.6242 362.372 74.7323L365.022 73.3262C366.564 76.2318 368.079 79.1417 369.563 82.0498L366.891 83.4136ZM358.66 67.8386C357.096 64.9763 355.509 62.1227 353.903 59.284L356.514 57.8067C358.128 60.6583 359.722 63.5248 361.293 66.4003L358.66 67.8386ZM350.007 52.4904C348.361 49.6595 346.7 46.8487 345.026 44.0639L347.597 42.5184C349.278 45.3157 350.948 48.1392 352.601 50.9826L350.007 52.4904ZM340.952 37.3764C339.225 34.5785 337.488 31.813 335.747 29.0866L338.275 27.4719C340.025 30.2113 341.769 32.9897 343.505 35.8005L340.952 37.3764ZM331.492 22.5161C329.677 19.754 327.862 17.04 326.05 14.3813L328.529 12.6918C330.351 15.365 332.176 18.0932 333.999 20.8692L331.492 22.5161ZM321.596 7.94664C320.655 6.60991 319.717 5.28992 318.782 3.98773L321.218 2.23753C322.16 3.54794 323.104 4.87599 324.049 6.22065L321.596 7.94664Z" fill="#E4E4E4"/>
<path d="M569.031 148.555C569.57 149.519 569.225 150.737 568.261 151.276L552.55 160.06C551.586 160.599 550.367 160.254 549.828 159.29C549.289 158.326 549.634 157.107 550.598 156.568L564.564 148.761L556.756 134.795C556.217 133.831 556.562 132.612 557.526 132.073C558.49 131.534 559.708 131.879 560.247 132.843L569.031 148.555ZM319.285 1.53046C321.043 0.575438 321.042 0.574582 321.042 0.574077C321.042 0.574375 321.042 0.574219 321.042 0.574814C321.043 0.576004 321.044 0.578589 321.046 0.582563C321.051 0.590509 321.058 0.604006 321.069 0.622994C321.09 0.66097 321.124 0.720908 321.17 0.80232C321.264 0.965144 321.408 1.21387 321.608 1.5446C322.007 2.20605 322.624 3.19553 323.483 4.48186C325.202 7.05447 327.89 10.8147 331.739 15.5132C339.435 24.9095 351.775 38.0616 370.29 52.9729C407.315 82.7916 469.069 119.674 567.83 147.606L566.741 151.455C467.502 123.387 405.256 86.2695 367.781 56.0882C349.046 40.9994 336.511 27.6515 328.644 18.0478C324.711 13.2462 321.946 9.38147 320.157 6.70408C319.263 5.36541 318.613 4.32364 318.182 3.61009C317.967 3.25331 317.807 2.9786 317.699 2.78986C317.645 2.69549 317.604 2.62261 317.576 2.57172C317.561 2.54628 317.55 2.52633 317.543 2.51194C317.539 2.50474 317.535 2.49893 317.533 2.49452C317.532 2.49232 317.531 2.49006 317.53 2.48896C317.529 2.48705 317.528 2.48549 319.285 1.53046Z" fill="black"/>
<path d="M305.512 150.681C304.729 150.95 304.312 151.804 304.581 152.587C304.851 153.371 305.704 153.787 306.488 153.518L305.512 150.681ZM456.389 160.627L457.393 159.512L456.389 160.627ZM422.333 321.766L422.592 320.289L422.333 321.766ZM417.5 292.096L416.476 291L417.5 292.096ZM418.389 393.312L418.518 394.807L418.389 393.312ZM6.47434 514.577C5.68843 514.315 4.83895 514.74 4.57698 515.526L0.3079 528.333C0.0459285 529.119 0.470668 529.968 1.25658 530.23C2.0425 530.492 2.89198 530.067 3.15395 529.282L6.94868 517.897L18.3329 521.692C19.1188 521.954 19.9683 521.529 20.2302 520.743C20.4922 519.958 20.0675 519.108 19.2816 518.846L6.47434 514.577ZM7.27854 521.308C7.72519 522.006 8.65287 522.209 9.35058 521.762C10.0483 521.316 10.2518 520.388 9.80517 519.69L7.27854 521.308ZM14.7423 525.82C14.1475 525.243 13.1979 525.258 12.6212 525.853C12.0445 526.447 12.059 527.397 12.6537 527.974L14.7423 525.82ZM21.6062 533.961C22.3673 534.288 23.2494 533.937 23.5765 533.175C23.9035 532.414 23.5516 531.532 22.7905 531.205L21.6062 533.961ZM30.3353 533.339C29.5175 533.206 28.7472 533.761 28.6146 534.579C28.482 535.397 29.0375 536.167 29.8552 536.3L30.3353 533.339ZM40.3807 536.942C41.209 536.928 41.8688 536.245 41.8545 535.416C41.8402 534.588 41.1572 533.928 40.3289 533.942L40.3807 536.942ZM48.4564 533.507C47.6307 533.573 47.0153 534.297 47.082 535.122C47.1486 535.948 47.872 536.564 48.6978 536.497L48.4564 533.507ZM58.9825 535.533C59.8071 535.453 60.4105 534.719 60.3303 533.895C60.2502 533.07 59.5168 532.467 58.6922 532.547L58.9825 535.533ZM66.9235 531.819C66.0974 531.881 65.4782 532.601 65.5404 533.427C65.6027 534.254 66.3228 534.873 67.1489 534.811L66.9235 531.819ZM77.3484 534.319C78.1768 534.307 78.8377 533.624 78.8247 532.796C78.8117 531.968 78.1297 531.307 77.3014 531.32L77.3484 534.319ZM85.6267 531.461C84.7994 531.418 84.0937 532.053 84.0506 532.881C84.0074 533.708 84.643 534.414 85.4703 534.457L85.6267 531.461ZM95.5506 535.493C96.369 535.622 97.1366 535.063 97.2651 534.244C97.3935 533.426 96.8342 532.658 96.0158 532.53L95.5506 535.493ZM104.217 534.204C103.414 534 102.598 534.487 102.395 535.29C102.192 536.093 102.678 536.909 103.481 537.112L104.217 534.204ZM113.126 540.172C113.899 540.469 114.767 540.083 115.064 539.31C115.361 538.537 114.975 537.669 114.201 537.372L113.126 540.172ZM121.846 540.722C121.103 540.356 120.203 540.66 119.837 541.403C119.47 542.146 119.774 543.045 120.517 543.412L121.846 540.722ZM129.36 548.397C130.06 548.841 130.987 548.635 131.431 547.935C131.875 547.236 131.668 546.309 130.969 545.865L129.36 548.397ZM137.814 550.597C137.151 550.101 136.211 550.236 135.715 550.9C135.218 551.563 135.354 552.503 136.017 552.999L137.814 550.597ZM143.882 559.47C144.494 560.028 145.443 559.984 146.001 559.372C146.559 558.76 146.516 557.811 145.904 557.253L143.882 559.47ZM151.683 563.075C151.133 562.456 150.184 562.4 149.566 562.951C148.947 563.502 148.891 564.45 149.442 565.069L151.683 563.075ZM155.336 572.991C155.761 573.703 156.682 573.935 157.393 573.51C158.104 573.086 158.337 572.165 157.912 571.454L155.336 572.991ZM161.453 579.118C161.196 578.33 160.35 577.899 159.562 578.156C158.774 578.412 158.344 579.259 158.6 580.046L161.453 579.118ZM159.811 589.435C159.745 590.261 160.361 590.983 161.187 591.049C162.012 591.115 162.735 590.499 162.801 589.674L159.811 589.435ZM160.569 597.988C160.925 597.24 160.607 596.345 159.859 595.989C159.112 595.633 158.216 595.95 157.86 596.698L160.569 597.988ZM152.103 604.225C151.483 604.774 151.427 605.723 151.977 606.342C152.527 606.962 153.475 607.018 154.095 606.468L152.103 604.225ZM147.058 611.211C147.797 610.838 148.095 609.936 147.722 609.196C147.349 608.456 146.447 608.159 145.707 608.532L147.058 611.211ZM136.525 611.589C135.709 611.736 135.167 612.516 135.314 613.331C135.461 614.146 136.241 614.688 137.056 614.541L136.525 611.589ZM128.615 615.052C129.442 615.102 130.154 614.473 130.204 613.646C130.255 612.819 129.625 612.108 128.799 612.058L128.615 615.052ZM119.48 609.878C118.72 609.546 117.836 609.894 117.505 610.653C117.174 611.412 117.522 612.296 118.281 612.628L119.48 609.878ZM111.084 607.998C111.698 608.554 112.647 608.507 113.203 607.894C113.759 607.28 113.713 606.331 113.099 605.775L111.084 607.998ZM107.494 598.112C107.142 597.362 106.248 597.041 105.498 597.394C104.749 597.747 104.427 598.64 104.78 599.39L107.494 598.112ZM102.189 591.32C102.348 592.133 103.135 592.663 103.949 592.505C104.762 592.346 105.292 591.558 105.133 590.745L102.189 591.32ZM104.114 580.664C104.054 579.838 103.335 579.217 102.509 579.277C101.683 579.337 101.062 580.056 101.122 580.882L104.114 580.664ZM100.527 572.524C100.583 573.351 101.299 573.975 102.126 573.918C102.952 573.861 103.576 573.145 103.52 572.319L100.527 572.524ZM102.862 561.873C102.816 561.046 102.108 560.413 101.28 560.46C100.453 560.506 99.8204 561.214 99.8668 562.041L102.862 561.873ZM99.4552 553.637C99.4893 554.464 100.188 555.108 101.016 555.074C101.843 555.04 102.487 554.341 102.453 553.513L99.4552 553.637ZM102.146 543.075C102.132 542.246 101.449 541.586 100.621 541.6C99.7927 541.614 99.1324 542.296 99.1461 543.124L102.146 543.075ZM99.1059 534.7C99.0995 535.528 99.7658 536.205 100.594 536.212C101.423 536.218 102.099 535.552 102.106 534.723L99.1059 534.7ZM102.371 524.299C102.408 523.471 101.767 522.771 100.939 522.734C100.111 522.697 99.4108 523.339 99.374 524.166L102.371 524.299ZM99.8899 515.744C99.8247 516.57 100.441 517.292 101.267 517.358C102.093 517.423 102.815 516.806 102.881 515.981L99.8899 515.744ZM103.954 505.63C104.061 504.809 103.481 504.056 102.66 503.949C101.838 503.843 101.086 504.422 100.979 505.244L103.954 505.63ZM102.259 496.885C102.114 497.7 102.658 498.479 103.474 498.624C104.289 498.769 105.068 498.225 105.213 497.409L102.259 496.885ZM107.36 487.254C107.559 486.449 107.068 485.636 106.264 485.437C105.46 485.238 104.647 485.729 104.448 486.533L107.36 487.254ZM106.728 478.37C106.48 479.161 106.921 480.002 107.711 480.25C108.502 480.497 109.343 480.057 109.591 479.266L106.728 478.37ZM113.093 469.526C113.407 468.759 113.04 467.883 112.273 467.57C111.506 467.256 110.63 467.623 110.316 468.389L113.093 469.526ZM113.827 460.651C113.456 461.392 113.756 462.293 114.497 462.664C115.237 463.035 116.139 462.735 116.509 461.994L113.827 460.651ZM121.59 453.009C122.035 452.31 121.829 451.382 121.13 450.938C120.43 450.493 119.503 450.7 119.059 451.399L121.59 453.009ZM123.929 444.42C123.426 445.078 123.551 446.02 124.21 446.523C124.868 447.026 125.809 446.9 126.312 446.242L123.929 444.42ZM133.021 438.403C133.593 437.804 133.572 436.854 132.973 436.282C132.375 435.709 131.425 435.73 130.852 436.329L133.021 438.403ZM136.991 430.45C136.368 430.996 136.306 431.944 136.853 432.567C137.399 433.19 138.347 433.251 138.97 432.705L136.991 430.45ZM147.091 426.312C147.767 425.834 147.929 424.898 147.451 424.221C146.973 423.545 146.037 423.383 145.361 423.861L147.091 426.312ZM152.48 419.249C151.768 419.672 151.533 420.592 151.956 421.305C152.379 422.017 153.3 422.252 154.012 421.829L152.48 419.249ZM162.835 417.101C163.58 416.74 163.892 415.843 163.531 415.097C163.17 414.352 162.273 414.04 161.527 414.401L162.835 417.101ZM168.734 411.162C167.969 411.48 167.608 412.358 167.926 413.123C168.245 413.888 169.123 414.249 169.888 413.931L168.734 411.162ZM178.935 410.498C179.718 410.228 180.134 409.374 179.864 408.591C179.594 407.808 178.74 407.392 177.957 407.662L178.935 410.498ZM185.463 405.263C184.668 405.498 184.215 406.332 184.45 407.127C184.685 407.921 185.519 408.374 186.314 408.139L185.463 405.263ZM195.673 405.624C196.478 405.428 196.971 404.616 196.775 403.811C196.579 403.007 195.768 402.513 194.963 402.709L195.673 405.624ZM202.639 400.982C201.828 401.15 201.307 401.944 201.475 402.755C201.643 403.567 202.437 404.088 203.248 403.92L202.639 400.982ZM212.801 402.131C213.618 401.993 214.169 401.219 214.031 400.402C213.894 399.585 213.12 399.035 212.303 399.172L212.801 402.131ZM220.066 397.972C219.246 398.088 218.675 398.847 218.791 399.667C218.907 400.488 219.666 401.059 220.486 400.943L220.066 397.972ZM230.146 399.722C230.969 399.63 231.562 398.888 231.47 398.065C231.377 397.241 230.635 396.649 229.812 396.741L230.146 399.722ZM237.616 395.947C236.791 396.023 236.183 396.753 236.259 397.578C236.335 398.403 237.065 399.01 237.89 398.935L237.616 395.947ZM247.595 398.153C248.422 398.095 249.045 397.378 248.987 396.552C248.929 395.725 248.212 395.102 247.386 395.16L247.595 398.153ZM255.213 394.673C254.385 394.718 253.752 395.426 253.797 396.253C253.842 397.08 254.55 397.714 255.377 397.669L255.213 394.673ZM265.108 397.216C265.936 397.184 266.581 396.487 266.549 395.659C266.517 394.831 265.82 394.186 264.992 394.218L265.108 397.216ZM272.824 393.959C271.996 393.982 271.343 394.672 271.366 395.5C271.389 396.328 272.079 396.981 272.907 396.958L272.824 393.959ZM282.656 396.745C283.484 396.731 284.145 396.049 284.131 395.221C284.118 394.392 283.435 393.732 282.607 393.745L282.656 396.745ZM290.436 393.647C289.608 393.655 288.942 394.332 288.95 395.161C288.957 395.989 289.634 396.655 290.463 396.647L290.436 393.647ZM300.222 396.598C301.05 396.596 301.721 395.924 301.719 395.095C301.718 394.267 301.045 393.596 300.217 393.598L300.222 396.598ZM308.041 393.602C307.213 393.6 306.54 394.27 306.537 395.098C306.535 395.927 307.205 396.6 308.033 396.602L308.041 393.602ZM317.799 396.647C318.627 396.653 319.303 395.985 319.308 395.157C319.313 394.328 318.646 393.653 317.817 393.647L317.799 396.647ZM325.637 393.702C324.808 393.696 324.131 394.362 324.125 395.191C324.119 396.019 324.785 396.696 325.614 396.702L325.637 393.702ZM335.385 396.778C336.214 396.784 336.89 396.118 336.897 395.289C336.903 394.461 336.236 393.784 335.408 393.778L335.385 396.778ZM343.222 393.832C342.393 393.827 341.718 394.494 341.713 395.323C341.708 396.151 342.375 396.827 343.204 396.832L343.222 393.832ZM352.982 396.875C353.81 396.877 354.483 396.207 354.485 395.378C354.487 394.55 353.817 393.877 352.989 393.875L352.982 396.875ZM360.798 393.876C359.969 393.878 359.299 394.551 359.301 395.38C359.303 396.208 359.976 396.878 360.804 396.876L360.798 393.876ZM370.589 396.82C371.417 396.812 372.082 396.134 372.074 395.305C372.066 394.477 371.388 393.812 370.56 393.82L370.589 396.82ZM378.363 393.715C377.535 393.729 376.875 394.412 376.889 395.241C376.904 396.069 377.587 396.729 378.416 396.714L378.363 393.715ZM388.205 396.485C389.033 396.461 389.685 395.77 389.66 394.941C389.636 394.113 388.945 393.462 388.116 393.487L388.205 396.485ZM395.91 393.211C395.082 393.246 394.439 393.944 394.473 394.772C394.508 395.6 395.206 396.243 396.034 396.209L395.91 393.211ZM405.822 395.722C406.649 395.674 407.28 394.964 407.231 394.137C407.183 393.31 406.473 392.679 405.646 392.727L405.822 395.722ZM413.421 392.209C412.595 392.271 411.976 392.991 412.038 393.817C412.1 394.643 412.82 395.262 413.646 395.2L413.421 392.209ZM423.278 394.255C424.098 394.135 424.666 393.374 424.546 392.554C424.426 391.734 423.665 391.167 422.845 391.286L423.278 394.255ZM430.076 389.869C429.272 390.068 428.782 390.882 428.981 391.686C429.181 392.49 429.995 392.98 430.799 392.781L430.076 389.869ZM439.937 389.871C440.708 389.567 441.087 388.696 440.784 387.925C440.48 387.155 439.61 386.776 438.839 387.079L439.937 389.871ZM445.517 384.013C444.785 384.401 444.505 385.309 444.893 386.041C445.281 386.773 446.188 387.052 446.92 386.665L445.517 384.013ZM455.066 381.56C455.733 381.07 455.876 380.131 455.385 379.463C454.895 378.796 453.956 378.653 453.288 379.143L455.066 381.56ZM458.921 374.449C458.318 375.017 458.29 375.967 458.859 376.569C459.427 377.172 460.376 377.2 460.979 376.632L458.921 374.449ZM467.449 369.508C467.957 368.853 467.838 367.911 467.184 367.403C466.529 366.895 465.587 367.014 465.079 367.668L467.449 369.508ZM469.207 361.613C468.783 362.324 469.017 363.245 469.728 363.669C470.44 364.093 471.361 363.86 471.785 363.148L469.207 361.613ZM476.074 354.545C476.388 353.779 476.022 352.903 475.255 352.588C474.489 352.274 473.612 352.641 473.298 353.407L476.074 354.545ZM475.699 346.46C475.472 347.257 475.934 348.086 476.73 348.313C477.527 348.54 478.357 348.078 478.584 347.281L475.699 346.46ZM480.6 337.912C480.722 337.093 480.157 336.329 479.338 336.207C478.519 336.084 477.755 336.649 477.633 337.468L480.6 337.912ZM478.375 330.128C478.33 330.956 478.964 331.663 479.791 331.708C480.618 331.753 481.325 331.119 481.371 330.292L478.375 330.128ZM481.224 320.289C481.136 319.465 480.397 318.868 479.574 318.956C478.75 319.044 478.153 319.783 478.241 320.606L481.224 320.289ZM476.747 312.924C476.975 313.721 477.805 314.182 478.602 313.954C479.398 313.726 479.86 312.896 479.632 312.1L476.747 312.924ZM475.691 302.445C475.296 301.717 474.385 301.448 473.657 301.843C472.929 302.238 472.659 303.149 473.055 303.877L475.691 302.445ZM468.725 297.371C469.245 298.016 470.189 298.118 470.834 297.598C471.479 297.078 471.581 296.134 471.062 295.489L468.725 297.371ZM463.589 288.177C462.931 287.674 461.99 287.8 461.486 288.458C460.983 289.116 461.109 290.057 461.767 290.561L463.589 288.177ZM455.143 286.511C455.892 286.864 456.786 286.544 457.14 285.795C457.493 285.045 457.173 284.151 456.424 283.798L455.143 286.511ZM446.355 280.731C445.535 280.611 444.774 281.179 444.654 281.999C444.535 282.819 445.103 283.58 445.922 283.699L446.355 280.731ZM438.233 283.564C439.057 283.473 439.65 282.731 439.558 281.908C439.466 281.084 438.724 280.491 437.901 280.583L438.233 283.564ZM427.738 283.381C426.982 283.72 426.644 284.608 426.983 285.364C427.322 286.12 428.21 286.458 428.966 286.119L427.738 283.381ZM422.288 290.052C422.954 289.56 423.095 288.62 422.603 287.954C422.11 287.288 421.171 287.147 420.505 287.639L422.288 290.052ZM413.12 295.333C412.714 296.056 412.971 296.97 413.693 297.376C414.415 297.782 415.33 297.525 415.736 296.803L413.12 295.333ZM413.4 303.894C413.515 303.073 412.942 302.316 412.122 302.201C411.301 302.087 410.543 302.66 410.429 303.48L413.4 303.894ZM411.458 314.153C411.749 314.928 412.614 315.321 413.389 315.03C414.165 314.738 414.557 313.874 414.266 313.098L411.458 314.153ZM418.504 318.688C417.815 318.228 416.884 318.414 416.424 319.103C415.964 319.792 416.149 320.723 416.838 321.183L418.504 318.688ZM427.326 323.914C428.152 323.979 428.874 323.362 428.939 322.536C429.003 321.71 428.387 320.988 427.561 320.923L427.326 323.914ZM435.435 320.866C434.611 320.947 434.009 321.682 434.09 322.506C434.172 323.33 434.906 323.933 435.731 323.851L435.435 320.866ZM446.038 321.491C446.814 321.202 447.21 320.339 446.921 319.562C446.632 318.786 445.769 318.39 444.992 318.679L446.038 321.491ZM452.009 315.183C451.311 315.628 451.104 316.555 451.549 317.254C451.994 317.953 452.921 318.159 453.62 317.714L452.009 315.183ZM461.765 311.025C462.342 310.43 462.327 309.481 461.732 308.904C461.137 308.328 460.187 308.343 459.611 308.938L461.765 311.025ZM464.662 302.82C464.183 303.496 464.343 304.432 465.019 304.911C465.695 305.389 466.632 305.229 467.11 304.553L464.662 302.82ZM472.443 295.587C472.814 294.846 472.513 293.945 471.772 293.574C471.031 293.204 470.13 293.504 469.76 294.245L472.443 295.587ZM472.983 286.891C472.686 287.665 473.073 288.532 473.847 288.829C474.621 289.125 475.488 288.738 475.784 287.964L472.983 286.891ZM478.985 278.103C479.202 277.304 478.73 276.48 477.931 276.262C477.132 276.045 476.307 276.517 476.09 277.317L478.985 278.103ZM477.934 269.461C477.772 270.273 478.299 271.063 479.111 271.226C479.923 271.388 480.714 270.861 480.876 270.049L477.934 269.461ZM482.516 259.838C482.617 259.016 482.033 258.267 481.211 258.166C480.388 258.064 479.64 258.649 479.538 259.471L482.516 259.838ZM480.31 251.416C480.253 252.242 480.876 252.958 481.703 253.015C482.529 253.072 483.245 252.449 483.302 251.622L480.31 251.416ZM483.684 241.32C483.689 240.491 483.022 239.816 482.193 239.811C481.365 239.806 480.689 240.474 480.685 241.302L483.684 241.32ZM480.535 233.2C480.57 234.027 481.27 234.67 482.097 234.634C482.925 234.599 483.567 233.899 483.532 233.071L480.535 233.2ZM482.781 222.792C482.695 221.968 481.958 221.369 481.134 221.454C480.31 221.54 479.711 222.277 479.797 223.101L482.781 222.792ZM478.762 215.063C478.888 215.882 479.654 216.443 480.473 216.316C481.292 216.19 481.853 215.424 481.727 214.605L478.762 215.063ZM479.817 204.461C479.636 203.653 478.834 203.144 478.026 203.325C477.217 203.506 476.709 204.307 476.889 205.116L479.817 204.461ZM474.899 197.287C475.127 198.084 475.958 198.544 476.754 198.316C477.551 198.088 478.011 197.257 477.783 196.461L474.899 197.287ZM474.517 186.628C474.222 185.854 473.355 185.466 472.581 185.762C471.807 186.058 471.419 186.925 471.715 187.698L474.517 186.628ZM468.545 180.307C468.904 181.053 469.8 181.368 470.547 181.009C471.294 180.65 471.608 179.754 471.249 179.007L468.545 180.307ZM466.15 169.919C465.695 169.227 464.765 169.034 464.073 169.489C463.38 169.944 463.188 170.874 463.643 171.567L466.15 169.919ZM458.853 165.256C459.402 165.876 460.35 165.935 460.971 165.386C461.591 164.837 461.65 163.889 461.101 163.268L458.853 165.256ZM453.615 156.299C452.968 155.781 452.024 155.884 451.506 156.53C450.988 157.177 451.091 158.121 451.738 158.639L453.615 156.299ZM445.547 154.126C446.238 154.582 447.169 154.392 447.625 153.701C448.082 153.01 447.892 152.08 447.201 151.623L445.547 154.126ZM438.64 146.637C437.902 146.261 436.999 146.554 436.622 147.292C436.246 148.03 436.539 148.934 437.277 149.31L438.64 146.637ZM430.305 146.127C431.073 146.439 431.948 146.07 432.259 145.302C432.571 144.534 432.202 143.66 431.434 143.348L430.305 146.127ZM422.093 140.094C421.299 139.861 420.465 140.315 420.231 141.11C419.997 141.905 420.452 142.739 421.247 142.972L422.093 140.094ZM413.799 141.077C414.608 141.252 415.407 140.738 415.582 139.929C415.758 139.119 415.244 138.32 414.434 138.145L413.799 141.077ZM404.713 136.461C403.891 136.353 403.138 136.931 403.029 137.752C402.921 138.573 403.499 139.327 404.32 139.436L404.713 136.461ZM396.652 138.656C397.479 138.716 398.197 138.095 398.257 137.268C398.317 136.442 397.696 135.724 396.869 135.664L396.652 138.656ZM387.033 135.282C386.205 135.276 385.529 135.943 385.524 136.772C385.518 137.6 386.185 138.276 387.014 138.282L387.033 135.282ZM379.288 138.415C380.116 138.381 380.76 137.683 380.726 136.856C380.693 136.028 379.995 135.384 379.167 135.417L379.288 138.415ZM369.365 136.077C368.54 136.154 367.934 136.885 368.011 137.71C368.088 138.534 368.819 139.141 369.644 139.064L369.365 136.077ZM361.952 139.93C362.774 139.822 363.352 139.069 363.244 138.247C363.136 137.426 362.382 136.848 361.561 136.956L361.952 139.93ZM351.865 138.446C351.049 138.589 350.503 139.367 350.646 140.183C350.789 140.999 351.567 141.544 352.383 141.401L351.865 138.446ZM344.77 142.859C345.581 142.691 346.103 141.897 345.935 141.086C345.766 140.274 344.972 139.753 344.161 139.921L344.77 142.859ZM334.603 142.083C333.798 142.28 333.305 143.092 333.502 143.896C333.699 144.701 334.51 145.194 335.315 144.997L334.603 142.083ZM327.803 146.939C328.602 146.721 329.074 145.897 328.856 145.097C328.639 144.298 327.814 143.826 327.015 144.044L327.803 146.939ZM317.607 146.758C316.814 147 316.368 147.838 316.609 148.63C316.85 149.423 317.688 149.87 318.481 149.628L317.607 146.758ZM311.085 151.972C311.872 151.713 312.3 150.865 312.042 150.078C311.783 149.291 310.935 148.863 310.148 149.122L311.085 151.972ZM4.65836 516.671C5.49277 518.34 6.36617 519.883 7.27854 521.308L9.80517 519.69C8.95413 518.361 8.13243 516.911 7.34164 515.329L4.65836 516.671ZM12.6537 527.974C15.4034 530.64 18.3956 532.582 21.6062 533.961L22.7905 531.205C19.9085 529.967 17.2243 528.227 14.7423 525.82L12.6537 527.974ZM29.8552 536.3C33.2125 536.844 36.7306 537.005 40.3807 536.942L40.3289 533.942C36.7934 534.003 33.4635 533.846 30.3353 533.339L29.8552 536.3ZM48.6978 536.497C52.0182 536.229 55.4608 535.875 58.9825 535.533L58.6922 532.547C55.1474 532.892 51.7445 533.241 48.4564 533.507L48.6978 536.497ZM67.1489 534.811C70.4743 534.56 73.8749 534.374 77.3484 534.319L77.3014 531.32C73.7523 531.376 70.2898 531.565 66.9235 531.819L67.1489 534.811ZM85.4703 534.457C88.7733 534.629 92.1345 534.957 95.5506 535.493L96.0158 532.53C92.4869 531.976 89.0219 531.638 85.6267 531.461L85.4703 534.457ZM103.481 537.112C106.652 537.914 109.868 538.921 113.126 540.172L114.201 537.372C110.829 536.077 107.5 535.034 104.217 534.204L103.481 537.112ZM120.517 543.412C123.433 544.852 126.382 546.505 129.36 548.397L130.969 545.865C127.901 543.916 124.859 542.211 121.846 540.722L120.517 543.412ZM136.017 552.999C137.355 554.001 138.699 555.054 140.049 556.16L141.951 553.84C140.568 552.706 139.189 551.626 137.814 550.597L136.017 552.999ZM140.049 556.16C141.406 557.272 142.682 558.376 143.882 559.47L145.904 557.253C144.663 556.122 143.346 554.984 141.951 553.84L140.049 556.16ZM149.442 565.069C151.866 567.792 153.812 570.438 155.336 572.991L157.912 571.454C156.28 568.719 154.217 565.922 151.683 563.075L149.442 565.069ZM158.6 580.046C159.691 583.397 160.042 586.537 159.811 589.435L162.801 589.674C163.066 586.355 162.657 582.819 161.453 579.118L158.6 580.046ZM157.86 596.698C156.508 599.539 154.53 602.07 152.103 604.225L154.095 606.468C156.787 604.078 159.025 601.231 160.569 597.988L157.86 596.698ZM145.707 608.532C142.845 609.975 139.726 611.013 136.525 611.589L137.056 614.541C140.537 613.915 143.933 612.786 147.058 611.211L145.707 608.532ZM128.799 612.058C125.556 611.859 122.392 611.147 119.48 609.878L118.281 612.628C121.545 614.051 125.057 614.834 128.615 615.052L128.799 612.058ZM113.099 605.775C110.877 603.761 108.961 601.226 107.494 598.112L104.78 599.39C106.412 602.855 108.563 605.713 111.084 607.998L113.099 605.775ZM105.133 590.745C104.836 589.222 104.621 587.606 104.496 585.891L101.504 586.109C101.637 587.937 101.868 589.673 102.189 591.32L105.133 590.745ZM104.496 585.891C104.371 584.171 104.243 582.426 104.114 580.664L101.122 580.882C101.251 582.647 101.379 584.388 101.504 586.109L104.496 585.891ZM103.52 572.319C103.285 568.892 103.06 565.406 102.862 561.873L99.8668 562.041C100.066 565.59 100.291 569.089 100.527 572.524L103.52 572.319ZM102.453 553.513C102.311 550.063 102.204 546.579 102.146 543.075L99.1461 543.124C99.2047 546.657 99.3124 550.165 99.4552 553.637L102.453 553.513ZM102.106 534.723C102.133 531.256 102.217 527.777 102.371 524.299L99.374 524.166C99.218 527.684 99.133 531.2 99.1059 534.7L102.106 534.723ZM102.881 515.981C103.154 512.517 103.508 509.063 103.954 505.63L100.979 505.244C100.526 508.731 100.167 512.235 99.8899 515.744L102.881 515.981ZM105.213 497.409C105.82 493.99 106.532 490.601 107.36 487.254L104.448 486.533C103.602 489.95 102.877 493.404 102.259 496.885L105.213 497.409ZM109.591 479.266C110.624 475.964 111.787 472.714 113.093 469.526L110.316 468.389C108.977 471.66 107.785 474.991 106.728 478.37L109.591 479.266ZM116.509 461.994C118.047 458.924 119.736 455.925 121.59 453.009L119.059 451.399C117.147 454.405 115.408 457.493 113.827 460.651L116.509 461.994ZM126.312 446.242C128.378 443.54 130.61 440.923 133.021 438.403L130.852 436.329C128.364 438.931 126.06 441.632 123.929 444.42L126.312 446.242ZM138.97 432.705C141.506 430.48 144.209 428.346 147.091 426.312L145.361 423.861C142.393 425.956 139.607 428.155 136.991 430.45L138.97 432.705ZM154.012 421.829C155.48 420.957 156.988 420.108 158.538 419.283L157.129 416.635C155.538 417.482 153.989 418.353 152.48 419.249L154.012 421.829ZM158.538 419.283C159.95 418.532 161.383 417.805 162.835 417.101L161.527 414.401C160.041 415.121 158.575 415.865 157.129 416.635L158.538 419.283ZM169.888 413.931C172.833 412.704 175.851 411.561 178.935 410.498L177.957 407.662C174.817 408.744 171.741 409.909 168.734 411.162L169.888 413.931ZM186.314 408.139C189.377 407.233 192.498 406.396 195.673 405.624L194.963 402.709C191.744 403.492 188.576 404.342 185.463 405.263L186.314 408.139ZM203.248 403.92C206.387 403.269 209.573 402.674 212.801 402.131L212.303 399.172C209.04 399.721 205.817 400.323 202.639 400.982L203.248 403.92ZM220.486 400.943C223.671 400.493 226.892 400.087 230.146 399.722L229.812 396.741C226.531 397.109 223.281 397.518 220.066 397.972L220.486 400.943ZM237.89 398.935C241.098 398.64 244.334 398.381 247.595 398.153L247.386 395.16C244.105 395.389 240.847 395.65 237.616 395.947L237.89 398.935ZM255.377 397.669C258.6 397.492 261.845 397.342 265.108 397.216L264.992 394.218C261.714 394.345 258.454 394.495 255.213 394.673L255.377 397.669ZM272.907 396.958C276.142 396.868 279.393 396.798 282.656 396.745L282.607 393.745C279.334 393.799 276.072 393.869 272.824 393.959L272.907 396.958ZM290.463 396.647C293.707 396.618 296.961 396.603 300.222 396.598L300.217 393.598C296.95 393.603 293.689 393.618 290.436 393.647L290.463 396.647ZM308.033 396.602C311.285 396.611 314.541 396.627 317.799 396.647L317.817 393.647C314.557 393.627 311.297 393.611 308.041 393.602L308.033 396.602ZM325.614 396.702C328.87 396.727 332.133 396.753 335.385 396.778L335.408 393.778C332.152 393.753 328.898 393.727 325.637 393.702L325.614 396.702ZM343.204 396.832C346.469 396.852 349.73 396.867 352.982 396.875L352.989 393.875C349.741 393.867 346.485 393.852 343.222 393.832L343.204 396.832ZM360.804 396.876C364.077 396.869 367.34 396.852 370.589 396.82L370.56 393.82C367.319 393.852 364.065 393.869 360.798 393.876L360.804 396.876ZM378.416 396.714C381.696 396.657 384.961 396.581 388.205 396.485L388.116 393.487C384.885 393.582 381.633 393.657 378.363 393.715L378.416 396.714ZM396.034 396.209C399.321 396.073 402.584 395.912 405.822 395.722L405.646 392.727C402.427 392.916 399.181 393.076 395.91 393.211L396.034 396.209ZM413.646 395.2C415.278 395.078 416.902 394.947 418.518 394.807L418.259 391.818C416.655 391.957 415.042 392.087 413.421 392.209L413.646 395.2ZM418.518 394.807C420.123 394.668 421.71 394.484 423.278 394.255L422.845 391.286C421.335 391.507 419.806 391.684 418.259 391.818L418.518 394.807ZM430.799 392.781C433.945 392 436.996 391.028 439.937 389.871L438.839 387.079C436.023 388.187 433.097 389.119 430.076 389.869L430.799 392.781ZM446.92 386.665C449.774 385.155 452.494 383.451 455.066 381.56L453.288 379.143C450.838 380.945 448.242 382.571 445.517 384.013L446.92 386.665ZM460.979 376.632C463.307 374.436 465.47 372.059 467.449 369.508L465.079 367.668C463.195 370.097 461.137 372.359 458.921 374.449L460.979 376.632ZM471.785 363.148C473.402 360.432 474.837 357.562 476.074 354.545L473.298 353.407C472.117 356.289 470.748 359.026 469.207 361.613L471.785 363.148ZM478.584 347.281C479.439 344.277 480.115 341.152 480.6 337.912L477.633 337.468C477.167 340.584 476.518 343.583 475.699 346.46L478.584 347.281ZM481.371 330.292C481.457 328.719 481.5 327.123 481.5 325.504H478.5C478.5 327.069 478.458 328.611 478.375 330.128L481.371 330.292ZM481.5 325.504C481.5 323.739 481.406 321.999 481.224 320.289L478.241 320.606C478.412 322.212 478.5 323.846 478.5 325.504H481.5ZM479.632 312.1C478.657 308.688 477.324 305.452 475.691 302.445L473.055 303.877C474.584 306.693 475.833 309.725 476.747 312.924L479.632 312.1ZM471.062 295.489C468.837 292.726 466.323 290.268 463.589 288.177L461.767 290.561C464.305 292.501 466.646 294.789 468.725 297.371L471.062 295.489ZM456.424 283.798C453.223 282.287 449.84 281.239 446.355 280.731L445.922 283.699C449.098 284.162 452.196 285.12 455.143 286.511L456.424 283.798ZM437.901 280.583C434.508 280.961 431.097 281.875 427.738 283.381L428.966 286.119C432.043 284.739 435.153 283.908 438.233 283.564L437.901 280.583ZM420.505 287.639C419.14 288.648 417.796 289.767 416.476 291L418.524 293.192C419.763 292.035 421.019 290.99 422.288 290.052L420.505 287.639ZM416.476 291C415.147 292.242 414.027 293.719 413.12 295.333L415.736 296.803C416.511 295.423 417.447 294.199 418.524 293.192L416.476 291ZM410.429 303.48C409.925 307.101 410.223 310.865 411.458 314.153L414.266 313.098C413.234 310.348 412.954 307.099 413.4 303.894L410.429 303.48ZM416.838 321.183C418.339 322.185 420.086 322.895 422.074 323.244L422.592 320.289C421.001 320.01 419.646 319.451 418.504 318.688L416.838 321.183ZM422.074 323.244C423.864 323.557 425.614 323.78 427.326 323.914L427.561 320.923C425.948 320.797 424.292 320.586 422.592 320.289L422.074 323.244ZM435.731 323.851C439.38 323.491 442.815 322.689 446.038 321.491L444.992 318.679C442.016 319.786 438.833 320.53 435.435 320.866L435.731 323.851ZM453.62 317.714C456.568 315.838 459.281 313.589 461.765 311.025L459.611 308.938C457.276 311.347 454.744 313.443 452.009 315.183L453.62 317.714ZM467.11 304.553C469.072 301.782 470.848 298.779 472.443 295.587L469.76 294.245C468.226 297.315 466.527 300.185 464.662 302.82L467.11 304.553ZM475.784 287.964C476.995 284.803 478.061 281.505 478.985 278.103L476.09 277.317C475.19 280.63 474.155 283.831 472.983 286.891L475.784 287.964ZM480.876 270.049C481.543 266.712 482.089 263.3 482.516 259.838L479.538 259.471C479.12 262.862 478.586 266.2 477.934 269.461L480.876 270.049ZM483.302 251.622C483.538 248.21 483.664 244.769 483.684 241.32L480.685 241.302C480.665 244.69 480.54 248.068 480.31 251.416L483.302 251.622ZM483.532 233.071C483.385 229.628 483.134 226.194 482.781 222.792L479.797 223.101C480.143 226.443 480.39 229.817 480.535 233.2L483.532 233.071ZM481.727 214.605C481.195 211.165 480.558 207.775 479.817 204.461L476.889 205.116C477.615 208.363 478.24 211.686 478.762 215.063L481.727 214.605ZM477.783 196.461C476.81 193.066 475.721 189.778 474.517 186.628L471.715 187.698C472.886 190.763 473.948 193.969 474.899 197.287L477.783 196.461ZM471.249 179.007C469.691 175.764 467.99 172.72 466.15 169.919L463.643 171.567C465.401 174.244 467.038 177.17 468.545 180.307L471.249 179.007ZM461.101 163.268C459.911 161.923 458.675 160.668 457.393 159.512L455.385 161.741C456.577 162.815 457.733 163.989 458.853 165.256L461.101 163.268ZM457.393 159.512C456.155 158.397 454.895 157.326 453.615 156.299L451.738 158.639C452.974 159.631 454.19 160.664 455.385 161.741L457.393 159.512ZM447.201 151.623C444.424 149.787 441.566 148.129 438.64 146.637L437.277 149.31C440.106 150.752 442.866 152.354 445.547 154.126L447.201 151.623ZM431.434 143.348C428.378 142.107 425.261 141.026 422.093 140.094L421.247 142.972C424.323 143.877 427.346 144.926 430.305 146.127L431.434 143.348ZM414.434 138.145C411.231 137.451 407.987 136.894 404.713 136.461L404.32 139.436C407.518 139.858 410.68 140.401 413.799 141.077L414.434 138.145ZM396.869 135.664C393.61 135.427 390.328 135.303 387.033 135.282L387.014 138.282C390.246 138.303 393.462 138.425 396.652 138.656L396.869 135.664ZM379.167 135.417C375.902 135.549 372.632 135.772 369.365 136.077L369.644 139.064C372.861 138.764 376.079 138.544 379.288 138.415L379.167 135.417ZM361.561 136.956C358.315 137.383 355.08 137.883 351.865 138.446L352.383 141.401C355.558 140.845 358.751 140.351 361.952 139.93L361.561 136.956ZM344.161 139.921C340.945 140.588 337.756 141.312 334.603 142.083L335.315 144.997C338.436 144.234 341.59 143.518 344.77 142.859L344.161 139.921ZM327.015 144.044C323.829 144.911 320.69 145.819 317.607 146.758L318.481 149.628C321.537 148.698 324.647 147.797 327.803 146.939L327.015 144.044ZM310.148 149.122C308.584 149.636 307.039 150.156 305.512 150.681L306.488 153.518C308.002 152.998 309.535 152.482 311.085 151.972L310.148 149.122Z" fill="#E4E4E4"/>
</svg>
