<svg width="572" height="577" viewBox="0 0 572 577" fill="none" xmlns="http://www.w3.org/2000/svg">
<path d="M320.375 4.27972C319.731 3.38261 319.936 2.13296 320.833 1.48855C321.73 0.844149 322.98 1.04901 323.624 1.94613L320.375 4.27972ZM387.999 205.53L387.638 203.563L387.999 205.53ZM349 169.113L348.613 167.151L349 169.113ZM318.756 282.956C317.704 282.62 317.123 281.495 317.459 280.442L322.932 263.295C323.268 262.243 324.394 261.662 325.446 261.998C326.498 262.334 327.079 263.459 326.743 264.511L321.878 279.754L337.12 284.619C338.172 284.955 338.753 286.08 338.417 287.132C338.081 288.185 336.956 288.765 335.904 288.429L318.756 282.956ZM322.568 276.968C323.514 276.397 324.743 276.701 325.314 277.647C325.885 278.592 325.582 279.821 324.636 280.392L322.568 276.968ZM331.231 275.924C330.35 276.59 329.096 276.415 328.43 275.534C327.764 274.652 327.939 273.398 328.82 272.732L331.231 275.924ZM335.995 266.58C336.789 265.812 338.055 265.833 338.823 266.627C339.591 267.42 339.57 268.687 338.777 269.455L335.995 266.58ZM344.226 263.674C343.505 264.511 342.242 264.605 341.405 263.884C340.568 263.163 340.474 261.901 341.195 261.064L344.226 263.674ZM346.996 253.555C347.625 252.647 348.871 252.421 349.779 253.05C350.687 253.679 350.913 254.925 350.284 255.833L346.996 253.555ZM354.535 249.152C353.979 250.107 352.754 250.429 351.8 249.872C350.846 249.315 350.524 248.091 351.08 247.137L354.535 249.152ZM355.492 238.701C355.958 237.7 357.148 237.267 358.15 237.734C359.151 238.201 359.584 239.391 359.117 240.392L355.492 238.701ZM362.201 233.12C361.805 234.152 360.649 234.667 359.617 234.272C358.586 233.876 358.07 232.72 358.466 231.689L362.201 233.12ZM361.487 222.649C361.791 221.587 362.898 220.973 363.96 221.277C365.022 221.581 365.636 222.688 365.332 223.75L361.487 222.649ZM367.238 216.074C367.011 217.155 365.95 217.847 364.869 217.62C363.788 217.393 363.096 216.332 363.323 215.251L367.238 216.074ZM364.833 205.863C364.954 204.765 365.942 203.973 367.04 204.094C368.138 204.214 368.93 205.202 368.809 206.3L364.833 205.863ZM369.327 198.386C369.307 199.49 368.395 200.369 367.291 200.348C366.186 200.328 365.307 199.416 365.328 198.312L369.327 198.386ZM364.842 188.909C364.697 187.814 365.468 186.809 366.563 186.664C367.658 186.52 368.663 187.29 368.807 188.385L364.842 188.909ZM367.07 180.459C367.411 181.509 366.836 182.637 365.785 182.978C364.734 183.319 363.606 182.744 363.265 181.694L367.07 180.459ZM359.066 174.04C358.307 173.237 358.343 171.971 359.146 171.212C359.949 170.454 361.215 170.49 361.974 171.292L359.066 174.04ZM354.172 167.018C355.261 167.2 355.997 168.231 355.815 169.32C355.633 170.41 354.602 171.146 353.512 170.963L354.172 167.018ZM345.22 172.239C344.187 172.631 343.032 172.112 342.64 171.079C342.248 170.046 342.767 168.891 343.8 168.499L345.22 172.239ZM336.846 173.016C337.586 172.195 338.85 172.129 339.671 172.868C340.492 173.608 340.558 174.872 339.818 175.693L336.846 173.016ZM337.75 182.684C337.899 183.778 337.133 184.786 336.038 184.935C334.944 185.084 333.936 184.318 333.787 183.223L337.75 182.684ZM336.785 190.894C336.187 189.965 336.454 188.728 337.383 188.129C338.311 187.531 339.549 187.799 340.147 188.727L336.785 190.894ZM345.99 195.053C346.85 195.746 346.986 197.005 346.294 197.865C345.601 198.725 344.342 198.861 343.481 198.168L345.99 195.053ZM349.997 202.455C349.023 201.933 348.657 200.721 349.178 199.747C349.7 198.773 350.912 198.407 351.886 198.929L349.997 202.455ZM360.094 202.323C361.15 202.647 361.743 203.765 361.419 204.821C361.096 205.877 359.977 206.471 358.921 206.147L360.094 202.323ZM366.416 207.882C365.325 207.706 364.583 206.68 364.758 205.59C364.934 204.499 365.96 203.757 367.05 203.932L366.416 207.882ZM375.995 204.64C377.1 204.642 377.994 205.539 377.992 206.643C377.991 207.748 377.094 208.642 375.99 208.64L375.995 204.64ZM383.627 208.204C382.53 208.33 381.538 207.542 381.413 206.444C381.287 205.347 382.075 204.356 383.172 204.23L383.627 208.204ZM391.85 202.251C392.851 201.784 394.041 202.217 394.508 203.218C394.974 204.22 394.541 205.409 393.54 205.876L391.85 202.251ZM400.311 200.397C399.646 201.278 398.392 201.454 397.51 200.788C396.628 200.123 396.453 198.869 397.118 197.987L400.311 200.397ZM400.599 189.816C400.83 188.735 401.893 188.047 402.973 188.279C404.054 188.51 404.742 189.573 404.51 190.653L400.599 189.816ZM405.407 182.531C405.38 183.636 404.463 184.509 403.359 184.482C402.254 184.455 401.381 183.538 401.408 182.434L405.407 182.531ZM400.923 172.923C400.798 171.826 401.586 170.834 402.683 170.708C403.78 170.583 404.772 171.371 404.897 172.468L400.923 172.923ZM403.685 164.561C403.89 165.647 403.176 166.692 402.091 166.897C401.005 167.102 399.959 166.388 399.755 165.302L403.685 164.561ZM397.634 155.849C397.359 154.779 398.004 153.689 399.073 153.415C400.143 153.14 401.233 153.785 401.508 154.854L397.634 155.849ZM399.383 147.228C399.699 148.286 399.098 149.401 398.04 149.717C396.982 150.034 395.867 149.433 395.551 148.375L399.383 147.228ZM392.572 139.117C392.214 138.072 392.771 136.935 393.816 136.577C394.861 136.219 395.998 136.775 396.356 137.82L392.572 139.117ZM393.695 130.381C394.08 131.417 393.553 132.568 392.518 132.953C391.483 133.339 390.331 132.812 389.946 131.777L393.695 130.381ZM386.41 122.676C385.996 121.652 386.491 120.486 387.515 120.072C388.539 119.658 389.705 120.153 390.119 121.177L386.41 122.676ZM387.093 113.899C387.527 114.915 387.055 116.09 386.039 116.523C385.023 116.957 383.848 116.485 383.414 115.469L387.093 113.899ZM379.479 106.523C379.024 105.517 379.47 104.332 380.476 103.877C381.483 103.421 382.668 103.868 383.123 104.874L379.479 106.523ZM379.82 97.7268C380.291 98.7259 379.863 99.9177 378.864 100.389C377.865 100.86 376.673 100.432 376.202 99.4326L379.82 97.7268ZM371.953 90.6281C371.464 89.6376 371.871 88.4383 372.861 87.9494C373.851 87.4605 375.051 87.8671 375.54 88.8576L371.953 90.6281ZM372.008 81.8228C372.51 82.8066 372.12 84.0112 371.136 84.5133C370.152 85.0155 368.947 84.625 368.445 83.6412L372.008 81.8228ZM363.93 74.967C363.412 73.9912 363.784 72.7806 364.759 72.2629C365.735 71.7452 366.946 72.1165 367.463 73.0922L363.93 74.967ZM363.731 66.1609C364.261 67.1302 363.904 68.3453 362.935 68.8749C361.965 69.4045 360.75 69.048 360.221 68.0786L363.731 66.1609ZM355.468 59.5305C354.924 58.5691 355.262 57.3488 356.224 56.8049C357.185 56.261 358.405 56.5994 358.949 57.5608L355.468 59.5305ZM355.032 50.7317C355.588 51.6866 355.263 52.9107 354.309 53.4659C353.354 54.021 352.129 53.6969 351.574 52.742L355.032 50.7317ZM346.597 44.3218C346.028 43.3751 346.334 42.1463 347.281 41.5773C348.227 41.0082 349.456 41.3144 350.025 42.2611L346.597 44.3218ZM345.93 35.5381C346.51 36.478 346.218 37.7103 345.279 38.2906C344.339 38.8708 343.106 38.5793 342.526 37.6394L345.93 35.5381ZM337.325 29.3561C336.731 28.4252 337.003 27.1885 337.934 26.594C338.865 25.9994 340.102 26.2721 340.696 27.203L337.325 29.3561ZM336.417 20.595C337.023 21.5182 336.766 22.7582 335.843 23.3646C334.92 23.971 333.68 23.7142 333.073 22.7909L336.417 20.595ZM327.636 14.6632C327.014 13.7504 327.25 12.5062 328.163 11.8842C329.076 11.2621 330.32 11.4978 330.942 12.4106L327.636 14.6632ZM326.458 5.93328C327.094 6.83673 326.876 8.08429 325.973 8.71978C325.069 9.35527 323.822 9.13805 323.186 8.2346L326.458 5.93328ZM318.447 279.273C319.854 278.547 321.227 277.778 322.568 276.968L324.636 280.392C323.22 281.248 321.769 282.06 320.281 282.828L318.447 279.273ZM328.82 272.732C331.347 270.824 333.738 268.765 335.995 266.58L338.777 269.455C336.408 271.748 333.893 273.913 331.231 275.924L328.82 272.732ZM341.195 261.064C343.265 258.66 345.198 256.149 346.996 253.555L350.284 255.833C348.41 258.537 346.391 261.16 344.226 263.674L341.195 261.064ZM351.08 247.137C352.69 244.378 354.159 241.557 355.492 238.701L359.117 240.392C357.735 243.355 356.208 246.285 354.535 249.152L351.08 247.137ZM358.466 231.689C359.621 228.676 360.627 225.652 361.487 222.649L365.332 223.75C364.441 226.864 363.398 229.998 362.201 233.12L358.466 231.689ZM363.323 215.251C363.996 212.05 364.498 208.907 364.833 205.863L368.809 206.3C368.459 209.478 367.936 212.75 367.238 216.074L363.323 215.251ZM365.328 198.312C365.39 194.961 365.224 191.805 364.842 188.909L368.807 188.385C369.219 191.503 369.392 194.86 369.327 198.386L365.328 198.312ZM363.265 181.694C362.204 178.424 360.776 175.849 359.066 174.04L361.974 171.292C364.204 173.654 365.884 176.806 367.07 180.459L363.265 181.694ZM353.512 170.963C352.279 170.757 350.908 170.776 349.386 171.075L348.613 167.151C350.557 166.768 352.415 166.725 354.172 167.018L353.512 170.963ZM349.386 171.075C347.822 171.383 346.437 171.777 345.22 172.239L343.8 168.499C345.252 167.948 346.856 167.496 348.613 167.151L349.386 171.075ZM339.818 175.693C338.045 177.661 337.392 180.05 337.75 182.684L333.787 183.223C333.283 179.524 334.22 175.931 336.846 173.016L339.818 175.693ZM340.147 188.727C341.539 190.887 343.499 193.047 345.99 195.053L343.481 198.168C340.704 195.932 338.439 193.461 336.785 190.894L340.147 188.727ZM351.886 198.929C354.35 200.249 357.096 201.404 360.094 202.323L358.921 206.147C355.681 205.154 352.695 203.9 349.997 202.455L351.886 198.929ZM367.05 203.932C369.876 204.386 372.864 204.636 375.995 204.64L375.99 208.64C372.649 208.636 369.45 208.369 366.416 207.882L367.05 203.932ZM383.172 204.23C384.636 204.062 386.125 203.841 387.638 203.563L388.361 207.497C386.76 207.792 385.181 208.026 383.627 208.204L383.172 204.23ZM387.638 203.563C389.207 203.275 390.605 202.831 391.85 202.251L393.54 205.876C391.961 206.613 390.233 207.153 388.361 207.497L387.638 203.563ZM397.118 197.987C398.725 195.858 399.889 193.133 400.599 189.816L404.51 190.653C403.709 194.395 402.349 197.696 400.311 200.397L397.118 197.987ZM401.408 182.434C401.48 179.513 401.314 176.334 400.923 172.923L404.897 172.468C405.305 176.026 405.484 179.393 405.407 182.531L401.408 182.434ZM399.755 165.302C399.184 162.277 398.474 159.121 397.634 155.849L401.508 154.854C402.367 158.2 403.097 161.441 403.685 164.561L399.755 165.302ZM395.551 148.375C394.649 145.363 393.654 142.273 392.572 139.117L396.356 137.82C397.453 141.021 398.465 144.161 399.383 147.228L395.551 148.375ZM389.946 131.777C388.834 128.788 387.653 125.752 386.41 122.676L390.119 121.177C391.375 124.285 392.569 127.356 393.695 130.381L389.946 131.777ZM383.414 115.469C382.153 112.513 380.839 109.529 379.479 106.523L383.123 104.874C384.495 107.905 385.82 110.915 387.093 113.899L383.414 115.469ZM376.202 99.4326C374.824 96.5099 373.406 93.5728 371.953 90.6281L375.54 88.8576C377.003 91.8231 378.432 94.7817 379.82 97.7268L376.202 99.4326ZM368.445 83.6412C366.969 80.75 365.463 77.8566 363.93 74.967L367.463 73.0922C369.006 76.0001 370.522 78.9123 372.008 81.8228L368.445 83.6412ZM360.221 68.0786C358.658 65.2185 357.073 62.3671 355.468 59.5305L358.949 57.5608C360.564 60.4145 362.159 63.2832 363.731 66.1609L360.221 68.0786ZM351.574 52.742C349.93 49.9132 348.269 47.1045 346.597 44.3218L350.025 42.2611C351.708 45.0605 353.378 47.8861 355.032 50.7317L351.574 52.742ZM342.526 37.6394C340.8 34.8436 339.065 32.0803 337.325 29.3561L340.696 27.203C342.447 29.9446 344.193 32.7252 345.93 35.5381L342.526 37.6394ZM333.073 22.7909C331.261 20.0311 329.447 17.3194 327.636 14.6632L330.942 12.4106C332.765 15.0861 334.592 17.8167 336.417 20.595L333.073 22.7909ZM323.186 8.2346C322.247 6.89919 321.31 5.58055 320.375 4.27972L323.624 1.94613C324.566 3.25791 325.511 4.58731 326.458 5.93328L323.186 8.2346Z" fill="#E4E4E4"/>
<path d="M571.031 148.555C571.57 149.519 571.225 150.738 570.261 151.277L554.55 160.06C553.586 160.599 552.367 160.255 551.828 159.29C551.289 158.326 551.634 157.108 552.598 156.569L566.563 148.761L558.756 134.795C558.217 133.831 558.562 132.613 559.526 132.074C560.49 131.535 561.708 131.879 562.247 132.844L571.031 148.555ZM321.285 1.53076C323.042 0.575736 323.042 0.57488 323.042 0.574374C323.042 0.574673 323.042 0.574517 323.042 0.575112C323.043 0.576302 323.044 0.578887 323.046 0.58286C323.051 0.590806 323.058 0.604304 323.069 0.623292C323.09 0.661268 323.124 0.721206 323.17 0.802618C323.263 0.965442 323.408 1.21417 323.608 1.54489C324.007 2.20634 324.624 3.19582 325.483 4.48215C327.202 7.05477 329.89 10.815 333.739 15.5135C341.435 24.9098 353.775 38.0619 372.29 52.9732C409.315 82.7919 471.069 119.674 569.829 147.606L568.741 151.455C469.502 123.388 407.256 86.2698 369.781 56.0885C351.045 40.9997 338.51 27.6518 330.644 18.0481C326.711 13.2465 323.946 9.38177 322.157 6.70438C321.263 5.36571 320.613 4.32393 320.182 3.61038C319.967 3.25361 319.807 2.9789 319.699 2.79016C319.645 2.69579 319.604 2.62291 319.576 2.57202C319.561 2.54658 319.55 2.52663 319.542 2.51223C319.538 2.50504 319.535 2.49923 319.533 2.49482C319.532 2.49261 319.53 2.49036 319.53 2.48925C319.529 2.48735 319.528 2.48579 321.285 1.53076Z" fill="#242938"/>
<path d="M307.35 150.208C306.305 150.567 305.75 151.705 306.109 152.75C306.468 153.794 307.605 154.35 308.65 153.991L307.35 150.208ZM458.389 160.627L459.728 159.141L458.389 160.627ZM424.333 321.766L424.679 319.796L424.333 321.766ZM419.5 292.097L418.134 290.635L419.5 292.097ZM420.389 393.313L420.561 395.305L420.389 393.313ZM159.833 417.96L158.981 416.15L159.833 417.96ZM8.63246 461.103C7.58457 460.754 6.45193 461.32 6.10263 462.368L0.410533 479.444C0.0612383 480.492 0.627558 481.625 1.67544 481.974C2.72333 482.323 3.85597 481.757 4.20527 480.709L9.26491 465.53L24.4438 470.59C25.4917 470.939 26.6244 470.373 26.9737 469.325C27.323 468.277 26.7566 467.144 25.7088 466.795L8.63246 461.103ZM8.86869 468.647C9.4548 469.583 10.6889 469.867 11.6252 469.281C12.5614 468.695 12.8452 467.461 12.2591 466.525L8.86869 468.647ZM17.0989 472.857C16.342 472.053 15.0762 472.014 14.2718 472.771C13.4673 473.528 13.4288 474.794 14.1857 475.598L17.0989 472.857ZM22.8079 482.441C23.7645 482.993 24.9877 482.665 25.5399 481.709C26.0921 480.752 25.7643 479.529 24.8077 478.977L22.8079 482.441ZM32.077 482.179C31.0271 481.836 29.8977 482.409 29.5544 483.459C29.2111 484.509 29.7838 485.638 30.8337 485.981L32.077 482.179ZM41.3607 488.372C42.4532 488.535 43.4705 487.78 43.6329 486.688C43.7952 485.595 43.0411 484.578 41.9485 484.416L41.3607 488.372ZM50.135 485.314C49.0339 485.226 48.0702 486.047 47.9824 487.148C47.8947 488.249 48.7162 489.213 49.8172 489.301L50.135 485.314ZM60.3233 489.953C61.4263 490.013 62.3684 489.166 62.4276 488.063C62.4868 486.96 61.6406 486.018 60.5376 485.959L60.3233 489.953ZM68.9228 486.445C67.8206 486.372 66.8678 487.206 66.7945 488.308C66.7212 489.41 67.5553 490.363 68.6574 490.437L68.9228 486.445ZM79.0047 491.339C80.1023 491.462 81.0925 490.673 81.2163 489.575C81.3402 488.478 80.5508 487.488 79.4532 487.364L79.0047 491.339ZM87.8462 488.534C86.757 488.35 85.7253 489.085 85.542 490.174C85.3586 491.263 86.093 492.295 87.1822 492.478L87.8462 488.534ZM97.2621 494.598C98.3323 494.871 99.4215 494.225 99.6948 493.155C99.9681 492.085 99.3221 490.995 98.2518 490.722L97.2621 494.598ZM106.428 493.132C105.38 492.78 104.247 493.344 103.895 494.391C103.543 495.438 104.107 496.572 105.154 496.924L106.428 493.132ZM114.738 500.66C115.747 501.11 116.929 500.657 117.379 499.648C117.829 498.639 117.376 497.457 116.367 497.007L114.738 500.66ZM123.994 500.759C123.022 500.235 121.809 500.598 121.285 501.57C120.761 502.543 121.124 503.756 122.096 504.28L123.994 500.759ZM130.945 509.578C131.867 510.187 133.107 509.933 133.716 509.011C134.324 508.089 134.07 506.848 133.148 506.24L130.945 509.578ZM140.068 511.142C139.187 510.474 137.933 510.647 137.266 511.528C136.599 512.408 136.772 513.663 137.652 514.33L140.068 511.142ZM145.545 520.839C146.361 521.584 147.626 521.526 148.371 520.709C149.115 519.893 149.057 518.628 148.241 517.884L145.545 520.839ZM154.057 523.742C153.322 522.917 152.058 522.844 151.233 523.578C150.408 524.312 150.334 525.576 151.069 526.402L154.057 523.742ZM156.907 534.248C157.473 535.196 158.701 535.506 159.649 534.94C160.598 534.374 160.907 533.146 160.341 532.197L156.907 534.248ZM163.928 539.963C163.586 538.913 162.458 538.339 161.407 538.681C160.357 539.022 159.783 540.151 160.125 541.201L163.928 539.963ZM161.312 550.395C161.225 551.496 162.046 552.46 163.147 552.548C164.248 552.636 165.212 551.815 165.3 550.714L161.312 550.395ZM163.02 559.203C163.495 558.206 163.072 557.012 162.074 556.538C161.077 556.063 159.884 556.486 159.409 557.483L163.02 559.203ZM153.771 564.851C152.945 565.584 152.87 566.848 153.603 567.674C154.336 568.5 155.6 568.576 156.426 567.842L153.771 564.851ZM149.283 572.657C150.269 572.16 150.666 570.958 150.168 569.971C149.671 568.985 148.469 568.588 147.482 569.086L149.283 572.657ZM138.436 572.097C137.349 572.293 136.626 573.333 136.822 574.42C137.018 575.507 138.058 576.229 139.145 576.034L138.436 572.097ZM130.585 576.551C131.687 576.619 132.636 575.78 132.703 574.677C132.771 573.575 131.932 572.626 130.829 572.559L130.585 576.551ZM121.68 570.419C120.667 569.978 119.489 570.441 119.047 571.453C118.606 572.466 119.069 573.645 120.081 574.086L121.68 570.419ZM112.749 569.368C113.567 570.11 114.832 570.048 115.574 569.23C116.315 568.411 116.253 567.146 115.435 566.405L112.749 569.368ZM109.947 558.899C109.476 557.899 108.285 557.471 107.285 557.942C106.286 558.412 105.857 559.604 106.328 560.603L109.947 558.899ZM103.698 552.416C103.91 553.5 104.96 554.207 106.044 553.996C107.128 553.784 107.836 552.734 107.624 551.65L103.698 552.416ZM106.709 541.812C106.665 540.708 105.734 539.85 104.63 539.894C103.526 539.939 102.668 540.87 102.713 541.974L106.709 541.812ZM102.584 533.69C102.574 534.795 103.461 535.698 104.566 535.709C105.67 535.719 106.574 534.831 106.584 533.727L102.584 533.69ZM106.981 523.623C107.057 522.521 106.225 521.566 105.124 521.49C104.022 521.414 103.067 522.245 102.99 523.347L106.981 523.623ZM103.755 515.105C103.627 516.202 104.413 517.195 105.51 517.322C106.607 517.45 107.6 516.664 107.728 515.566L103.755 515.105ZM109.185 505.556C109.375 504.468 108.647 503.432 107.559 503.241C106.471 503.051 105.435 503.778 105.245 504.866L109.185 505.556ZM106.859 496.747C106.618 497.825 107.298 498.894 108.376 499.134C109.454 499.374 110.523 498.695 110.763 497.617L106.859 496.747ZM113.248 487.813C113.551 486.751 112.935 485.644 111.873 485.341C110.81 485.039 109.704 485.655 109.401 486.717L113.248 487.813ZM111.861 478.807C111.507 479.853 112.069 480.988 113.116 481.342C114.162 481.695 115.297 481.133 115.65 480.086L111.861 478.807ZM119.18 470.617C119.598 469.595 119.109 468.427 118.087 468.009C117.065 467.59 115.897 468.079 115.478 469.102L119.18 470.617ZM118.824 461.515C118.351 462.513 118.776 463.706 119.775 464.179C120.773 464.652 121.965 464.226 122.438 463.228L118.824 461.515ZM127.085 454.277C127.63 453.317 127.294 452.096 126.333 451.551C125.373 451.005 124.152 451.342 123.607 452.302L127.085 454.277ZM127.946 445.208C127.338 446.13 127.593 447.371 128.515 447.978C129.438 448.586 130.678 448.331 131.286 447.409L127.946 445.208ZM137.189 439.29C137.881 438.429 137.745 437.17 136.884 436.478C136.024 435.785 134.765 435.922 134.072 436.782L137.189 439.29ZM139.594 430.502C138.827 431.297 138.85 432.563 139.645 433.33C140.441 434.096 141.707 434.073 142.473 433.278L139.594 430.502ZM149.834 426.575C150.701 425.89 150.848 424.632 150.164 423.766C149.479 422.899 148.221 422.751 147.354 423.436L149.834 426.575ZM154.304 418.638C153.354 419.202 153.042 420.43 153.606 421.379C154.17 422.329 155.397 422.642 156.347 422.077L154.304 418.638ZM165.094 417.757C166.104 417.311 166.561 416.13 166.115 415.119C165.668 414.109 164.487 413.652 163.477 414.098L165.094 417.757ZM170.754 411.046C169.728 411.454 169.226 412.617 169.634 413.643C170.042 414.67 171.205 415.171 172.232 414.763L170.754 411.046ZM181.304 411.395C182.348 411.034 182.902 409.895 182.541 408.851C182.18 407.807 181.041 407.254 179.997 407.615L181.304 411.395ZM187.495 405.169C186.439 405.493 185.846 406.612 186.17 407.668C186.494 408.724 187.613 409.317 188.669 408.993L187.495 405.169ZM197.986 406.343C199.055 406.063 199.694 404.969 199.413 403.901C199.133 402.832 198.04 402.194 196.971 402.474L197.986 406.343ZM204.623 400.594C203.546 400.841 202.874 401.914 203.121 402.991C203.368 404.067 204.441 404.74 205.517 404.493L204.623 400.594ZM215.008 402.499C216.093 402.291 216.804 401.244 216.597 400.159C216.389 399.074 215.341 398.363 214.256 398.57L215.008 402.499ZM222.007 397.196C220.917 397.374 220.178 398.403 220.356 399.493C220.534 400.583 221.563 401.322 222.653 401.143L222.007 397.196ZM232.257 399.726C233.352 399.582 234.123 398.577 233.978 397.482C233.834 396.387 232.829 395.616 231.734 395.761L232.257 399.726ZM239.54 394.821C238.442 394.941 237.649 395.928 237.769 397.026C237.888 398.124 238.876 398.917 239.974 398.797L239.54 394.821ZM249.649 397.868C250.75 397.776 251.567 396.809 251.476 395.709C251.384 394.608 250.417 393.79 249.316 393.882L249.649 397.868ZM257.149 393.301C256.046 393.373 255.211 394.325 255.283 395.427C255.355 396.529 256.306 397.365 257.409 397.293L257.149 393.301ZM267.125 396.761C268.228 396.711 269.083 395.776 269.033 394.673C268.984 393.569 268.049 392.715 266.945 392.765L267.125 396.761ZM274.785 392.469C273.681 392.503 272.814 393.425 272.848 394.529C272.882 395.633 273.805 396.501 274.909 396.467L274.785 392.469ZM284.648 396.241C285.753 396.224 286.634 395.314 286.616 394.21C286.599 393.106 285.689 392.224 284.585 392.242L284.648 396.241ZM292.422 392.158C291.317 392.165 290.427 393.065 290.434 394.17C290.44 395.274 291.341 396.165 292.445 396.158L292.422 392.158ZM302.197 396.153C303.302 396.158 304.201 395.266 304.206 394.162C304.211 393.057 303.319 392.158 302.215 392.153L302.197 396.153ZM310.044 392.212C308.94 392.201 308.035 393.087 308.023 394.191C308.012 395.296 308.898 396.201 310.002 396.212L310.044 392.212ZM319.763 396.343C320.867 396.361 321.777 395.48 321.794 394.375C321.812 393.271 320.931 392.361 319.826 392.344L319.763 396.343ZM327.648 392.479C326.543 392.459 325.632 393.337 325.611 394.442C325.591 395.546 326.47 396.458 327.574 396.478L327.648 392.479ZM337.343 396.663C338.447 396.684 339.36 395.805 339.381 394.701C339.402 393.597 338.523 392.684 337.419 392.663L337.343 396.663ZM345.233 392.808C344.129 392.788 343.217 393.668 343.198 394.772C343.178 395.877 344.058 396.788 345.162 396.807L345.233 392.808ZM354.94 396.963C356.044 396.978 356.952 396.095 356.967 394.991C356.982 393.886 356.099 392.979 354.995 392.963L354.94 396.963ZM362.801 393.051C361.697 393.042 360.794 393.93 360.784 395.034C360.775 396.139 361.663 397.042 362.767 397.051L362.801 393.051ZM372.558 397.094C373.662 397.093 374.557 396.198 374.557 395.093C374.557 393.988 373.661 393.093 372.556 393.094L372.558 397.094ZM380.355 393.057C379.25 393.067 378.364 393.971 378.374 395.076C378.384 396.18 379.288 397.067 380.393 397.057L380.355 393.057ZM390.193 396.898C391.297 396.872 392.172 395.955 392.146 394.851C392.12 393.747 391.204 392.873 390.099 392.899L390.193 396.898ZM397.886 392.665C396.782 392.706 395.921 393.634 395.961 394.737C396.002 395.841 396.93 396.703 398.033 396.662L397.886 392.665ZM407.835 396.208C408.938 396.146 409.781 395.202 409.719 394.099C409.657 392.996 408.713 392.153 407.61 392.215L407.835 396.208ZM415.375 391.709C414.273 391.791 413.447 392.75 413.529 393.852C413.61 394.953 414.57 395.78 415.671 395.698L415.375 391.709ZM425.351 394.75C426.444 394.59 427.2 393.575 427.041 392.482C426.881 391.389 425.866 390.632 424.773 390.792L425.351 394.75ZM431.956 389.384C430.884 389.65 430.23 390.735 430.496 391.807C430.762 392.879 431.847 393.532 432.919 393.266L431.956 389.384ZM442.12 390.336C443.148 389.932 443.653 388.771 443.249 387.743C442.845 386.715 441.684 386.209 440.656 386.614L442.12 390.336ZM447.283 383.572C446.307 384.088 445.934 385.299 446.451 386.275C446.968 387.251 448.178 387.624 449.154 387.107L447.283 383.572ZM457.362 381.963C458.252 381.309 458.443 380.057 457.788 379.167C457.134 378.277 455.882 378.087 454.992 378.741L457.362 381.963ZM460.578 374.085C459.774 374.843 459.737 376.109 460.495 376.913C461.253 377.716 462.519 377.753 463.322 376.996L460.578 374.085ZM469.844 369.814C470.521 368.942 470.363 367.685 469.49 367.008C468.618 366.331 467.361 366.49 466.684 367.362L469.844 369.814ZM470.778 361.357C470.212 362.306 470.524 363.533 471.473 364.099C472.422 364.664 473.649 364.353 474.214 363.404L470.778 361.357ZM478.537 354.735C478.956 353.713 478.467 352.545 477.445 352.126C476.423 351.707 475.255 352.196 474.836 353.218L478.537 354.735ZM477.218 346.323C476.915 347.386 477.531 348.492 478.594 348.794C479.656 349.097 480.762 348.481 481.065 347.419L477.218 346.323ZM483.094 337.986C483.258 336.894 482.504 335.876 481.412 335.712C480.32 335.549 479.302 336.302 479.138 337.394L483.094 337.986ZM479.876 330.101C479.816 331.204 480.661 332.147 481.764 332.207C482.867 332.268 483.81 331.422 483.87 330.319L479.876 330.101ZM483.721 320.236C483.604 319.138 482.619 318.342 481.521 318.459C480.422 318.576 479.627 319.561 479.744 320.66L483.721 320.236ZM478.267 313.062C478.57 314.124 479.677 314.739 480.739 314.435C481.801 314.132 482.416 313.025 482.113 311.962L478.267 313.062ZM478.13 302.207C477.603 301.236 476.389 300.877 475.418 301.404C474.448 301.931 474.088 303.145 474.615 304.116L478.13 302.207ZM470.336 297.684C471.028 298.545 472.288 298.68 473.148 297.988C474.008 297.295 474.144 296.036 473.451 295.175L470.336 297.684ZM465.893 287.78C465.015 287.109 463.76 287.277 463.089 288.154C462.418 289.032 462.586 290.287 463.463 290.958L465.893 287.78ZM456.929 286.963C457.928 287.435 459.12 287.007 459.592 286.008C460.063 285.009 459.636 283.817 458.637 283.346L456.929 286.963ZM448.427 280.236C447.334 280.077 446.319 280.834 446.16 281.927C446 283.02 446.757 284.035 447.85 284.194L448.427 280.236ZM440.289 284.062C441.386 283.939 442.177 282.95 442.055 281.852C441.932 280.755 440.943 279.964 439.846 280.086L440.289 284.062ZM429.533 282.925C428.526 283.377 428.075 284.561 428.527 285.569C428.979 286.576 430.162 287.027 431.17 286.575L429.533 282.925ZM424.585 290.454C425.473 289.798 425.661 288.545 425.005 287.657C424.348 286.769 423.096 286.581 422.207 287.238L424.585 290.454ZM414.684 295.089C414.143 296.052 414.485 297.271 415.448 297.812C416.411 298.353 417.63 298.011 418.172 297.048L414.684 295.089ZM415.896 303.963C416.048 302.869 415.284 301.859 414.19 301.706C413.096 301.554 412.086 302.317 411.934 303.411L415.896 303.963ZM412.99 314.329C413.378 315.363 414.531 315.886 415.565 315.498C416.599 315.11 417.123 313.957 416.734 312.923L412.99 314.329ZM420.782 318.273C419.863 317.659 418.621 317.907 418.008 318.826C417.395 319.744 417.642 320.986 418.561 321.599L420.782 318.273ZM429.287 324.413C430.388 324.499 431.351 323.677 431.437 322.576C431.524 321.474 430.701 320.512 429.6 320.425L429.287 324.413ZM437.386 320.368C436.287 320.477 435.484 321.456 435.593 322.555C435.701 323.655 436.681 324.458 437.78 324.349L437.386 320.368ZM448.212 321.96C449.247 321.575 449.774 320.423 449.389 319.388C449.004 318.353 447.853 317.826 446.818 318.211L448.212 321.96ZM453.741 314.761C452.809 315.354 452.534 316.591 453.127 317.522C453.72 318.454 454.957 318.729 455.888 318.136L453.741 314.761ZM464.124 311.374C464.893 310.58 464.873 309.314 464.079 308.545C463.286 307.777 462.02 307.797 461.251 308.59L464.124 311.374ZM466.254 302.531C465.615 303.433 465.829 304.681 466.73 305.319C467.632 305.957 468.88 305.744 469.518 304.842L466.254 302.531ZM474.891 295.81C475.384 294.822 474.984 293.621 473.996 293.127C473.008 292.633 471.806 293.034 471.313 294.022L474.891 295.81ZM474.516 286.713C474.121 287.744 474.637 288.901 475.668 289.296C476.7 289.691 477.856 289.175 478.251 288.143L474.516 286.713ZM481.468 278.235C481.757 277.169 481.128 276.07 480.062 275.78C478.996 275.491 477.897 276.12 477.608 277.186L481.468 278.235ZM479.444 269.363C479.227 270.446 479.93 271.5 481.013 271.716C482.096 271.933 483.15 271.23 483.366 270.147L479.444 269.363ZM485.012 259.9C485.147 258.803 484.368 257.805 483.272 257.67C482.176 257.535 481.177 258.314 481.042 259.41L485.012 259.9ZM481.811 251.382C481.735 252.484 482.566 253.438 483.668 253.514C484.77 253.59 485.725 252.759 485.801 251.657L481.811 251.382ZM486.184 241.323C486.191 240.218 485.301 239.318 484.196 239.311C483.092 239.305 482.191 240.195 482.185 241.299L486.184 241.323ZM482.035 233.221C482.082 234.325 483.015 235.181 484.119 235.134C485.222 235.087 486.079 234.154 486.031 233.05L482.035 233.221ZM485.278 222.74C485.164 221.642 484.181 220.843 483.083 220.957C481.984 221.071 481.186 222.054 481.299 223.153L485.278 222.74ZM480.268 215.139C480.436 216.231 481.458 216.979 482.549 216.811C483.641 216.642 484.389 215.621 484.221 214.529L480.268 215.139ZM482.305 204.353C482.064 203.275 480.995 202.596 479.917 202.837C478.839 203.078 478.16 204.147 478.401 205.225L482.305 204.353ZM476.418 197.425C476.723 198.487 477.83 199.101 478.892 198.797C479.954 198.493 480.568 197.385 480.264 196.324L476.418 197.425ZM476.984 186.45C476.59 185.418 475.434 184.901 474.402 185.295C473.371 185.689 472.854 186.845 473.248 187.877L476.984 186.45ZM470.095 180.524C470.573 181.519 471.768 181.938 472.764 181.46C473.759 180.981 474.178 179.787 473.7 178.791L470.095 180.524ZM468.568 169.645C467.961 168.722 466.721 168.465 465.798 169.072C464.875 169.678 464.618 170.918 465.225 171.841L468.568 169.645ZM460.479 165.587C461.21 166.414 462.474 166.492 463.302 165.761C464.129 165.029 464.207 163.765 463.476 162.938L460.479 165.587ZM455.928 155.909C455.066 155.218 453.807 155.356 453.116 156.218C452.425 157.079 452.563 158.338 453.425 159.029L455.928 155.909ZM447.271 154.543C448.193 155.152 449.434 154.899 450.043 153.977C450.652 153.056 450.398 151.815 449.477 151.206L447.271 154.543ZM440.867 146.192C439.883 145.69 438.679 146.081 438.177 147.065C437.675 148.049 438.066 149.254 439.05 149.755L440.867 146.192ZM432.117 146.591C433.141 147.006 434.307 146.514 434.723 145.49C435.138 144.467 434.646 143.3 433.622 142.885L432.117 146.591ZM424.235 139.615C423.175 139.303 422.063 139.909 421.751 140.969C421.44 142.029 422.046 143.141 423.106 143.452L424.235 139.615ZM415.693 141.566C416.772 141.8 417.837 141.114 418.071 140.035C418.305 138.955 417.619 137.89 416.54 137.657L415.693 141.566ZM406.778 135.966C405.683 135.821 404.678 136.592 404.533 137.687C404.389 138.782 405.159 139.787 406.255 139.931L406.778 135.966ZM398.616 139.155C399.718 139.235 400.676 138.406 400.756 137.305C400.836 136.203 400.007 135.245 398.906 135.165L398.616 139.155ZM389.037 134.782C387.932 134.775 387.031 135.664 387.024 136.769C387.016 137.873 387.906 138.774 389.01 138.782L389.037 134.782ZM381.308 138.915C382.412 138.87 383.271 137.939 383.226 136.836C383.182 135.732 382.251 134.873 381.147 134.918L381.308 138.915ZM371.319 135.579C370.219 135.682 369.411 136.656 369.513 137.756C369.616 138.856 370.59 139.664 371.69 139.562L371.319 135.579ZM364.017 140.426C365.113 140.282 365.884 139.278 365.739 138.182C365.595 137.087 364.591 136.316 363.496 136.46L364.017 140.426ZM353.778 137.954C352.69 138.145 351.963 139.181 352.154 140.269C352.344 141.357 353.381 142.085 354.469 141.894L353.778 137.954ZM346.872 143.349C347.953 143.124 348.648 142.066 348.424 140.984C348.2 139.903 347.141 139.208 346.06 139.432L346.872 143.349ZM336.484 141.597C335.411 141.86 334.754 142.942 335.016 144.015C335.278 145.088 336.361 145.745 337.434 145.483L336.484 141.597ZM329.934 147.421C331 147.131 331.629 146.032 331.339 144.966C331.049 143.9 329.95 143.272 328.884 143.562L329.934 147.421ZM319.461 146.28C318.405 146.602 317.809 147.72 318.131 148.776C318.452 149.833 319.57 150.429 320.627 150.107L319.461 146.28ZM313.242 152.447C314.291 152.102 314.862 150.971 314.516 149.922C314.171 148.873 313.041 148.302 311.992 148.647L313.242 152.447ZM6.21115 463.895C7.05729 465.587 7.94319 467.169 8.86869 468.647L12.2591 466.525C11.4054 465.161 10.5814 463.691 9.78885 462.106L6.21115 463.895ZM14.1857 475.598C16.8413 478.421 19.7219 480.66 22.8079 482.441L24.8077 478.977C22.0534 477.387 19.4819 475.39 17.0989 472.857L14.1857 475.598ZM30.8337 485.981C34.1898 487.079 37.7088 487.83 41.3607 488.372L41.9485 484.416C38.4528 483.896 35.1639 483.189 32.077 482.179L30.8337 485.981ZM49.8172 489.301C53.2108 489.571 56.7247 489.76 60.3233 489.953L60.5376 485.959C56.9293 485.766 53.4679 485.579 50.135 485.314L49.8172 489.301ZM68.6574 490.437C72.0313 490.661 75.4806 490.941 79.0047 491.339L79.4532 487.364C75.8493 486.957 72.3353 486.672 68.9228 486.445L68.6574 490.437ZM87.1822 492.478C90.4852 493.034 93.8462 493.725 97.2621 494.598L98.2518 490.722C94.7171 489.819 91.2465 489.106 87.8462 488.534L87.1822 492.478ZM105.154 496.924C108.306 497.982 111.501 499.216 114.738 500.66L116.367 497.007C113.01 495.509 109.695 494.229 106.428 493.132L105.154 496.924ZM122.096 504.28C125.014 505.853 127.964 507.611 130.945 509.578L133.148 506.24C130.069 504.208 127.017 502.389 123.994 500.759L122.096 504.28ZM137.652 514.33C139.006 515.356 140.366 516.428 141.732 517.547L144.268 514.453C142.863 513.302 141.463 512.199 140.068 511.142L137.652 514.33ZM141.732 517.547C143.082 518.654 144.352 519.751 145.545 520.839L148.241 517.884C146.993 516.746 145.67 515.603 144.268 514.453L141.732 517.547ZM151.069 526.402C153.474 529.104 155.4 531.725 156.907 534.248L160.341 532.197C158.691 529.433 156.609 526.61 154.057 523.742L151.069 526.402ZM160.125 541.201C161.196 544.493 161.538 547.568 161.312 550.395L165.3 550.714C165.571 547.325 165.152 543.722 163.928 539.963L160.125 541.201ZM159.409 557.483C158.088 560.257 156.153 562.736 153.771 564.851L156.426 567.842C159.163 565.413 161.444 562.513 163.02 559.203L159.409 557.483ZM147.482 569.086C144.664 570.506 141.59 571.529 138.436 572.097L139.145 576.034C142.672 575.399 146.114 574.255 149.283 572.657L147.482 569.086ZM130.829 572.559C127.639 572.364 124.533 571.663 121.68 570.419L120.081 574.086C123.404 575.535 126.974 576.33 130.585 576.551L130.829 572.559ZM115.435 566.405C113.263 564.436 111.386 561.954 109.947 558.899L106.328 560.603C107.987 564.126 110.178 567.038 112.749 569.368L115.435 566.405ZM107.624 551.65C107.331 550.148 107.118 548.551 106.995 546.855L103.005 547.145C103.14 548.992 103.373 550.748 103.698 552.416L107.624 551.65ZM106.995 546.855C106.873 545.177 106.778 543.495 106.709 541.812L102.713 541.974C102.783 543.699 102.88 545.424 103.005 547.145L106.995 546.855ZM106.584 533.727C106.615 530.354 106.748 526.983 106.981 523.623L102.99 523.347C102.753 526.785 102.616 530.236 102.584 533.69L106.584 533.727ZM107.728 515.566C108.119 512.205 108.606 508.864 109.185 505.556L105.245 504.866C104.652 508.25 104.154 511.666 103.755 515.105L107.728 515.566ZM110.763 497.617C111.502 494.302 112.332 491.03 113.248 487.813L109.401 486.717C108.463 490.009 107.614 493.356 106.859 496.747L110.763 497.617ZM115.65 480.086C116.741 476.856 117.919 473.696 119.18 470.617L115.478 469.102C114.185 472.259 112.977 475.499 111.861 478.807L115.65 480.086ZM122.438 463.228C123.904 460.136 125.455 457.147 127.085 454.277L123.607 452.302C121.926 455.261 120.33 458.337 118.824 461.515L122.438 463.228ZM131.286 447.409C133.173 444.544 135.144 441.832 137.189 439.29L134.072 436.782C131.943 439.429 129.898 442.244 127.946 445.208L131.286 447.409ZM142.473 433.278C144.852 430.81 147.309 428.569 149.834 426.575L147.354 423.436C144.677 425.55 142.087 427.915 139.594 430.502L142.473 433.278ZM156.347 422.077C157.777 421.228 159.224 420.457 160.686 419.769L158.981 416.15C157.399 416.895 155.84 417.726 154.304 418.638L156.347 422.077ZM160.686 419.769C162.15 419.079 163.62 418.408 165.094 417.757L163.477 414.098C161.974 414.763 160.475 415.446 158.981 416.15L160.686 419.769ZM172.232 414.763C175.238 413.568 178.263 412.447 181.304 411.395L179.997 407.615C176.9 408.685 173.819 409.828 170.754 411.046L172.232 414.763ZM188.669 408.993C191.759 408.044 194.865 407.162 197.986 406.343L196.971 402.474C193.798 403.307 190.639 404.203 187.495 405.169L188.669 408.993ZM205.517 404.493C208.667 403.77 211.831 403.107 215.008 402.499L214.256 398.57C211.033 399.187 207.822 399.86 204.623 400.594L205.517 404.493ZM222.653 401.143C225.842 400.622 229.044 400.151 232.257 399.726L231.734 395.761C228.482 396.19 225.239 396.667 222.007 397.196L222.653 401.143ZM239.974 398.797C243.189 398.446 246.414 398.138 249.649 397.868L249.316 393.882C246.05 394.155 242.791 394.466 239.54 394.821L239.974 398.797ZM257.409 397.293C260.64 397.082 263.879 396.906 267.125 396.761L266.945 392.765C263.674 392.912 260.408 393.089 257.149 393.301L257.409 397.293ZM274.909 396.467C278.15 396.367 281.396 396.293 284.648 396.241L284.585 392.242C281.315 392.294 278.048 392.368 274.785 392.469L274.909 396.467ZM292.445 396.158C295.692 396.139 298.943 396.139 302.197 396.153L302.215 392.153C298.949 392.139 295.684 392.139 292.422 392.158L292.445 396.158ZM310.002 396.212C313.254 396.246 316.508 396.292 319.763 396.343L319.826 392.344C316.566 392.292 313.305 392.247 310.044 392.212L310.002 396.212ZM327.574 396.478C330.831 396.538 334.087 396.601 337.343 396.663L337.419 392.663C334.165 392.601 330.907 392.538 327.648 392.479L327.574 396.478ZM345.162 396.807C348.424 396.865 351.683 396.918 354.94 396.963L354.995 392.963C351.745 392.919 348.491 392.866 345.233 392.808L345.162 396.807ZM362.767 397.051C366.035 397.079 369.299 397.095 372.558 397.094L372.556 393.094C369.311 393.095 366.059 393.079 362.801 393.051L362.767 397.051ZM380.393 397.057C383.666 397.026 386.933 396.974 390.193 396.898L390.099 392.899C386.86 392.975 383.611 393.026 380.355 393.057L380.393 397.057ZM398.033 396.662C401.309 396.542 404.577 396.392 407.835 396.208L407.61 392.215C404.38 392.397 401.138 392.545 397.886 392.665L398.033 396.662ZM415.671 395.698C417.304 395.577 418.934 395.446 420.561 395.305L420.216 391.32C418.606 391.459 416.992 391.589 415.375 391.709L415.671 395.698ZM420.561 395.305C422.176 395.165 423.772 394.98 425.351 394.75L424.773 390.792C423.273 391.011 421.754 391.187 420.216 391.32L420.561 395.305ZM432.919 393.266C436.086 392.48 439.158 391.501 442.12 390.336L440.656 386.614C437.861 387.713 434.956 388.639 431.956 389.384L432.919 393.266ZM449.154 387.107C452.029 385.586 454.77 383.869 457.362 381.963L454.992 378.741C452.562 380.528 449.987 382.14 447.283 383.572L449.154 387.107ZM463.322 376.996C465.669 374.782 467.849 372.386 469.844 369.814L466.684 367.362C464.816 369.77 462.775 372.013 460.578 374.085L463.322 376.996ZM474.214 363.404C475.844 360.667 477.29 357.775 478.537 354.735L474.836 353.218C473.663 356.077 472.306 358.792 470.778 361.357L474.214 363.404ZM481.065 347.419C481.926 344.393 482.606 341.247 483.094 337.986L479.138 337.394C478.675 340.489 478.031 343.467 477.218 346.323L481.065 347.419ZM483.87 330.319C483.956 328.738 484 327.132 484 325.504H480C480 327.061 479.958 328.593 479.876 330.101L483.87 330.319ZM484 325.504C484 323.722 483.905 321.964 483.721 320.236L479.744 320.66C479.913 322.247 480 323.864 480 325.504H484ZM482.113 311.962C481.127 308.515 479.781 305.246 478.13 302.207L474.615 304.116C476.127 306.9 477.362 309.898 478.267 313.062L482.113 311.962ZM473.451 295.175C471.202 292.382 468.659 289.896 465.893 287.78L463.463 290.958C465.968 292.873 468.281 295.134 470.336 297.684L473.451 295.175ZM458.637 283.346C455.394 281.815 451.963 280.752 448.427 280.236L447.85 284.194C450.974 284.65 454.025 285.592 456.929 286.963L458.637 283.346ZM439.846 280.086C436.401 280.47 432.939 281.398 429.533 282.925L431.17 286.575C434.201 285.216 437.26 284.399 440.289 284.062L439.846 280.086ZM422.207 287.238C420.827 288.258 419.468 289.389 418.134 290.635L420.866 293.558C422.091 292.413 423.332 291.38 424.585 290.454L422.207 287.238ZM418.134 290.635C416.764 291.916 415.614 293.435 414.684 295.089L418.172 297.048C418.925 295.708 419.83 294.526 420.866 293.558L418.134 290.635ZM411.934 303.411C411.42 307.102 411.722 310.951 412.99 314.329L416.734 312.923C415.736 310.262 415.459 307.099 415.896 303.963L411.934 303.411ZM418.561 321.599C420.121 322.641 421.934 323.376 423.988 323.736L424.679 319.796C423.153 319.529 421.864 318.996 420.782 318.273L418.561 321.599ZM423.988 323.736C425.793 324.053 427.559 324.277 429.287 324.413L429.6 320.425C428.003 320.3 426.363 320.092 424.679 319.796L423.988 323.736ZM437.78 324.349C441.471 323.984 444.949 323.173 448.212 321.96L446.818 318.211C443.882 319.302 440.742 320.037 437.386 320.368L437.78 324.349ZM455.888 318.136C458.872 316.237 461.615 313.963 464.124 311.374L461.251 308.59C458.942 310.974 456.44 313.044 453.741 314.761L455.888 318.136ZM469.518 304.842C471.497 302.048 473.285 299.023 474.891 295.81L471.313 294.022C469.789 297.071 468.103 299.919 466.254 302.531L469.518 304.842ZM478.251 288.143C479.469 284.965 480.539 281.652 481.468 278.235L477.608 277.186C476.711 280.484 475.681 283.669 474.516 286.713L478.251 288.143ZM483.366 270.147C484.036 266.797 484.584 263.373 485.012 259.9L481.042 259.41C480.625 262.79 480.093 266.115 479.444 269.363L483.366 270.147ZM485.801 251.657C486.037 248.234 486.164 244.782 486.184 241.323L482.185 241.299C482.165 244.677 482.041 248.045 481.811 251.382L485.801 251.657ZM486.031 233.05C485.884 229.597 485.632 226.153 485.278 222.74L481.299 223.153C481.645 226.485 481.891 229.848 482.035 233.221L486.031 233.05ZM484.221 214.529C483.688 211.078 483.048 207.678 482.305 204.353L478.401 205.225C479.125 208.461 479.748 211.773 480.268 215.139L484.221 214.529ZM480.264 196.324C479.287 192.916 478.193 189.614 476.984 186.45L473.248 187.877C474.413 190.928 475.471 194.12 476.418 197.425L480.264 196.324ZM473.7 178.791C472.133 175.53 470.421 172.466 468.568 169.645L465.225 171.841C466.97 174.498 468.596 177.404 470.095 180.524L473.7 178.791ZM463.476 162.938C462.274 161.579 461.025 160.31 459.728 159.141L457.05 162.113C458.227 163.173 459.37 164.333 460.479 165.587L463.476 162.938ZM459.728 159.141C458.483 158.019 457.216 156.942 455.928 155.909L453.425 159.029C454.653 160.015 455.862 161.042 457.05 162.113L459.728 159.141ZM449.477 151.206C446.683 149.36 443.81 147.692 440.867 146.192L439.05 149.755C441.863 151.189 444.606 152.782 447.271 154.543L449.477 151.206ZM433.622 142.885C430.55 141.637 427.417 140.551 424.235 139.615L423.106 143.452C426.167 144.353 429.174 145.396 432.117 146.591L433.622 142.885ZM416.54 137.657C413.323 136.96 410.065 136.4 406.778 135.966L406.255 139.931C409.439 140.352 412.589 140.893 415.693 141.566L416.54 137.657ZM398.906 135.165C395.634 134.928 392.342 134.804 389.037 134.782L389.01 138.782C392.233 138.803 395.438 138.924 398.616 139.155L398.906 135.165ZM381.147 134.918C377.873 135.05 374.594 135.274 371.319 135.579L371.69 139.562C374.899 139.263 378.108 139.044 381.308 138.915L381.147 134.918ZM363.496 136.46C360.243 136.888 357.001 137.389 353.778 137.954L354.469 141.894C357.638 141.339 360.824 140.846 364.017 140.426L363.496 136.46ZM346.06 139.432C342.837 140.1 339.642 140.825 336.484 141.597L337.434 145.483C340.549 144.721 343.698 144.007 346.872 143.349L346.06 139.432ZM328.884 143.562C325.693 144.43 322.548 145.34 319.461 146.28L320.627 150.107C323.678 149.177 326.784 148.279 329.934 147.421L328.884 143.562ZM311.992 148.647C310.426 149.162 308.878 149.683 307.35 150.208L308.65 153.991C310.162 153.471 311.693 152.956 313.242 152.447L311.992 148.647Z" fill="#E4E4E4"/>
</svg>
