<svg width="448" height="436" viewBox="0 0 448 436" fill="none" xmlns="http://www.w3.org/2000/svg">
<path d="M137.642 144.253L128.866 149.261L110.562 117.706L92.7597 127.974L111.063 159.529L102.288 164.538L79.4707 125.219L114.825 104.809L137.642 144.253Z" fill="black"/>
<path d="M126.86 97.7963L135.636 92.7875L137.642 96.2937C138.394 93.7893 139.522 91.7858 140.776 90.0327C142.029 88.2796 143.785 86.777 146.041 85.5248C148.549 84.0222 151.307 83.2708 154.065 83.0204C156.823 82.77 159.581 83.1456 162.088 84.0221C164.721 84.8987 167.228 86.4013 169.61 88.4048C171.992 90.4083 173.998 92.9127 175.753 95.918C177.509 98.9233 178.637 101.929 179.264 105.059C179.765 108.064 179.891 111.07 179.389 113.699C178.888 116.454 177.885 118.958 176.255 121.212C174.625 123.466 172.619 125.345 170.112 126.847C167.855 128.099 165.724 128.851 163.593 129.101C161.461 129.352 159.079 129.101 156.572 128.6L167.855 148.009L159.079 153.018L126.86 97.7963ZM152.435 121.713C154.19 122.214 155.945 122.339 157.951 122.089C159.957 121.838 161.712 121.212 163.217 120.336C166.476 118.457 168.482 115.703 169.234 112.197C169.986 108.69 169.234 104.934 166.978 101.177C164.721 97.4206 161.963 94.9162 158.453 93.664C154.942 92.5371 151.683 92.9127 148.298 94.791C146.793 95.6675 145.414 96.9197 144.161 98.4224C142.907 99.925 142.029 101.678 141.653 103.431L152.435 121.713Z" fill="black"/>
<path d="M224.271 68.1193C226.026 71.2498 227.154 74.2551 227.656 77.3855C228.157 80.516 228.032 83.3961 227.154 86.2761C226.402 89.1562 225.023 91.7858 223.017 94.2902C221.011 96.7946 218.504 98.9233 215.37 100.676C212.236 102.429 209.227 103.556 206.093 104.057C202.958 104.558 199.949 104.308 197.066 103.556C194.183 102.805 191.55 101.428 189.168 99.4242C186.786 97.4206 184.655 94.9163 182.899 91.911C181.144 88.9057 180.016 85.9005 179.514 82.77C179.013 79.6395 179.138 76.6342 179.891 73.7542C180.643 70.8741 182.022 68.1193 184.028 65.7401C186.034 63.2357 188.541 61.107 191.55 59.3539C194.684 57.6009 197.818 56.3487 200.952 55.973C204.087 55.4721 207.095 55.7226 209.979 56.4739C212.862 57.2252 215.495 58.7278 218.002 60.6061C220.384 62.6096 222.516 65.114 224.271 68.1193ZM215.495 73.1281C214.492 71.375 213.238 69.8724 211.734 68.495C210.23 67.2428 208.725 66.3662 206.97 65.7401C205.215 65.2393 203.46 64.9888 201.579 65.2393C199.699 65.4897 197.818 65.9906 196.063 67.1175C194.183 68.2445 192.678 69.4967 191.675 70.9993C190.547 72.502 189.92 74.1298 189.544 75.8829C189.168 77.636 189.168 79.3891 189.544 81.3926C189.92 83.2709 190.672 85.1491 191.675 86.9022C192.803 88.7805 194.057 90.2831 195.436 91.5353C196.815 92.7875 198.445 93.6641 200.075 94.1649C201.705 94.6658 203.46 94.9163 205.34 94.6658C207.221 94.4154 208.976 93.7893 210.857 92.7875C212.737 91.7858 214.116 90.4084 215.244 89.0309C216.373 87.5283 217.125 85.9005 217.501 84.1474C217.877 82.3943 217.877 80.6413 217.501 78.763C217.25 76.8847 216.498 75.0064 215.495 73.1281Z" fill="black"/>
<path d="M267.021 90.784L256.24 72.2515C256.49 73.7542 256.24 75.1316 255.613 76.2585C254.861 77.5107 253.983 78.3873 252.855 79.1386C251.35 80.0151 249.595 80.3908 247.715 80.2656C245.834 80.1403 243.954 79.5143 241.948 78.3873C239.942 77.2603 237.936 75.5072 235.805 73.2533C233.799 70.9993 231.668 68.1193 229.662 64.7384C227.656 61.3574 226.151 58.1017 225.274 55.2217C224.396 52.3416 223.895 49.712 224.02 47.4581C224.02 45.2041 224.522 43.2006 225.274 41.5728C226.151 39.9449 227.28 38.6927 228.91 37.8162C230.038 37.1901 231.292 36.8144 232.796 36.8144C234.175 36.8144 235.429 37.3153 236.682 38.1918L226.026 19.6594L234.802 14.6506L245.458 33.1831C245.207 31.6804 245.458 30.303 246.085 29.176C246.712 27.9238 247.715 27.0473 248.843 26.4212C250.473 25.5447 252.103 25.0438 253.983 25.169C255.864 25.2942 257.744 25.9203 259.75 27.0473C261.756 28.1743 263.762 29.8021 265.893 32.0561C267.899 34.31 270.03 37.1901 272.036 40.571C274.042 44.0771 275.546 47.2076 276.424 50.0877C277.302 52.9677 277.803 55.5973 277.803 57.9765C277.803 60.3557 277.427 62.234 276.549 63.987C275.672 65.6149 274.544 66.8671 272.914 67.8688C271.785 68.4949 270.532 68.8706 269.153 68.8706C267.774 68.8706 266.52 68.3697 265.266 67.4932L275.923 85.9004L267.021 90.784ZM240.318 44.7032C239.315 43.9519 238.312 43.451 237.56 43.451C236.808 43.451 236.055 43.5763 235.429 43.9519C234.802 44.3276 234.3 44.9537 233.924 45.705C233.548 46.4563 233.548 47.4581 233.673 48.7103C233.924 49.9625 234.3 51.4651 235.053 53.3434C235.805 55.2217 236.933 57.3504 238.312 59.8548C239.817 62.3592 241.07 64.4879 242.324 65.9906C243.578 67.4932 244.581 68.7454 245.583 69.4967C246.586 70.3732 247.464 70.7489 248.342 70.8741C249.219 70.9993 249.846 70.8741 250.598 70.4985C251.225 70.1228 251.727 69.6219 251.977 68.8706C252.353 68.2445 252.353 67.2427 252.228 65.8653L240.318 44.7032ZM261.254 60.7313C262.383 61.4827 263.26 61.8583 264.013 61.9835C264.765 61.9835 265.517 61.8583 266.144 61.4827C266.771 61.107 267.272 60.4809 267.648 59.7296C268.024 58.9783 268.024 57.9765 267.899 56.7243C267.648 55.4721 267.272 53.8443 266.52 52.0912C265.768 50.2129 264.639 48.0842 263.26 45.5798C261.881 43.0754 260.502 41.0719 259.249 39.444C257.995 37.8162 256.867 36.6892 255.989 35.9379C254.986 35.1866 254.109 34.6857 253.231 34.5605C252.353 34.4352 251.727 34.5605 250.974 34.9361C250.347 35.3118 249.846 35.8127 249.47 36.4388C249.094 37.0649 248.968 38.0666 249.094 39.444L261.254 60.7313Z" fill="black"/>
<path d="M287.859 35.1116C289.816 37.5691 292.337 39.2271 295.6 39.7788C298.741 40.363 302.197 39.6964 305.934 37.658C308.888 36.0886 311.107 34.1977 312.776 32.1946C314.414 30.0706 315.655 27.923 316.315 25.5424L324.313 29.2331C323.162 33.1713 321.332 36.5137 319 38.9533C316.701 41.5139 313.756 43.5995 310.382 45.5406C307.339 47.2633 304.102 48.2604 300.856 48.7412C297.611 49.2219 294.566 49.0006 291.634 48.2306C288.702 47.4605 286.004 46.1094 283.418 44.2095C280.954 42.2771 278.844 39.7312 277.089 36.5717C275.366 33.5331 274.402 30.4207 273.988 27.4205C273.541 24.2994 273.764 21.2579 274.69 18.417C275.463 15.4876 276.97 12.8798 278.906 10.4166C280.963 7.92089 283.513 5.81167 286.588 4.20986C289.873 2.42221 293.11 1.42517 296.267 1.09779C299.545 0.737964 302.622 1.08024 305.651 2.21313C308.648 3.22507 311.597 5.02762 314.191 7.44377C316.907 9.82747 319.3 12.9457 321.37 16.7985L287.859 35.1116ZM306.979 14.4323C305.055 12.0958 302.631 10.8006 299.554 10.4584C296.477 10.1161 293.538 10.7739 290.827 12.2783C287.994 13.8152 285.961 15.9156 284.518 18.7653C283.196 21.5826 282.908 24.3822 283.928 27.2202L306.979 14.4323Z" fill="black"/>
<path d="M336.637 80.8242C333.664 77.9508 331.717 74.8028 330.564 71.5344C329.52 68.3288 328.943 64.8147 328.834 60.9923C328.833 57.2325 329.375 53.7861 330.523 50.5447C331.608 47.4118 333.282 44.7634 335.265 42.5826C337.356 40.4645 339.819 38.7056 342.808 37.5397C345.798 36.3738 349.034 35.7839 352.687 35.7244C356.169 35.7106 359.339 36.239 362.303 37.3723C365.268 38.5057 367.811 40.1185 369.887 42.0398C371.962 43.9611 373.679 46.2534 374.865 48.9626C376.051 51.6718 376.724 54.5183 376.775 57.4394C376.809 60.64 376.145 63.2934 374.831 65.5707C373.516 67.848 371.675 69.5324 369.136 70.6694L375.713 70.5623L375.785 79.7135L354.549 79.8877L354.477 70.7365C358.518 70.7566 361.679 69.5449 364.05 67.4437C366.484 65.2341 367.552 62.3807 367.535 58.9005C367.51 57.44 367.205 55.9625 366.62 54.4681C366.035 52.9738 365.108 51.5709 363.838 50.2595C362.569 48.9482 361.111 47.9622 359.14 47.1134C357.278 46.3274 355.056 45.9124 352.476 45.8685C349.896 45.8246 347.733 46.3111 345.942 47.1567C344.151 48.0023 342.514 49.0817 341.483 50.3661C340.281 51.6962 339.404 53.2144 338.791 55.0291C338.177 56.8438 337.952 58.7382 337.898 60.5867C337.87 63.8958 338.434 66.6796 339.466 69.155C340.498 71.6304 341.951 73.6262 343.53 75.4052L336.637 80.8242Z" fill="black"/>
<path d="M337.228 135.309C334.344 132.429 332.338 129.299 331.21 126.043C330.082 122.788 329.58 119.281 329.58 115.525C329.58 111.768 330.207 108.262 331.335 105.132C332.464 102.001 334.093 99.3715 336.099 97.2428C338.23 95.1141 340.738 93.361 343.621 92.234C346.505 91.107 349.89 90.4809 353.525 90.4809C357.036 90.4809 360.17 91.107 363.179 92.234C366.188 93.361 368.695 94.9888 370.826 96.8671C372.957 98.8706 374.587 101.125 375.716 103.879C376.969 106.509 377.471 109.389 377.471 112.394C377.471 115.525 376.844 118.28 375.465 120.534C374.211 122.788 372.205 124.541 369.698 125.542H376.342V134.683H355.03V125.542C359.042 125.542 362.301 124.415 364.683 122.287C367.065 120.033 368.319 117.278 368.319 113.772C368.319 112.394 368.068 110.892 367.441 109.389C366.814 107.886 365.937 106.384 364.809 105.132C363.555 103.879 362.05 102.752 360.17 102.001C358.289 101.125 356.033 100.749 353.4 100.749C350.893 100.749 348.636 101.125 346.755 102.001C344.875 102.878 343.371 103.879 342.242 105.257C340.989 106.634 340.111 108.137 339.484 109.89C338.857 111.643 338.607 113.521 338.607 115.525C338.607 118.781 339.108 121.661 340.111 124.04C341.114 126.419 342.493 128.548 344.248 130.301L337.228 135.309Z" fill="black"/>
<path d="M376.468 158.726H345.126L376.468 176.632V189.404H330.834V179.261H364.056L330.708 160.228V148.458H376.468V158.726Z" fill="black"/>
<path d="M348.385 217.203C348.511 212.069 349.639 208.062 352.021 205.182C354.278 202.302 357.788 200.924 362.426 200.924C367.065 200.924 370.575 202.427 372.957 205.307C375.339 208.187 376.593 212.319 376.593 217.579V244H330.959V233.857H348.636V229.725L330.959 213.697V200.298L348.385 217.203ZM362.426 210.942C360.797 210.942 359.543 211.568 358.665 212.695C357.788 213.822 357.412 215.45 357.412 217.453V233.857H367.19V217.453C367.19 215.45 366.814 213.822 365.937 212.695C365.059 211.568 364.056 210.942 362.426 210.942Z" fill="black"/>
<path d="M276.285 86.0739C292.366 76.5981 312.634 88.2998 312.469 106.964L309.836 403.355C309.673 421.735 289.755 433.117 273.837 423.926L21.1041 278.011C5.186 268.821 5.08414 245.88 20.9199 236.549L276.285 86.0739Z" fill="#FF5F49"/>
</svg>
