<svg width="405" height="409" viewBox="0 0 405 409" fill="none" xmlns="http://www.w3.org/2000/svg">
<circle cx="244.002" cy="248.53" r="160" fill="#FBA22C"/>
<path d="M83.8818 188.723L81.5294 199.408L43.2832 191.093L38.5978 212.579L76.9621 220.875L74.6097 231.56L26.6887 221.215L35.9609 178.378L83.8818 188.723Z" fill="#242938"/>
<path d="M43.6577 154.576L49.136 145.19L52.9098 147.471C52.3424 144.78 52.1682 142.265 52.5052 139.908C52.7242 137.571 53.5528 135.253 54.9912 132.956C56.607 130.266 58.6551 127.989 61.0564 126.38C63.5563 124.633 66.1734 123.594 69.1242 123.104C72.075 122.615 75.104 122.598 78.4863 123.248C81.7506 123.918 85.1125 125.178 88.1985 126.967C91.422 128.855 94.0945 131.077 96.3339 133.612C98.4553 136.168 100.105 138.801 101.065 141.669C102.006 144.42 102.377 147.387 102.137 150.333C101.898 153.279 100.911 156.107 99.3151 158.915C97.8963 161.33 96.2617 163.176 94.4115 164.451C92.4432 165.747 90.1997 166.845 87.5631 167.767L108.34 179.704L102.861 189.09L43.6577 154.576ZM80.1334 163.185C82.0024 162.754 83.8128 161.969 85.5255 160.595C87.2382 159.221 88.5773 157.788 89.5232 156.178C91.6119 152.683 91.9701 148.99 90.7547 145.316C89.5393 141.642 86.8481 138.576 82.8187 136.216C78.7892 133.856 74.7582 132.95 70.8826 133.713C67.007 134.477 64.0741 136.537 62.0049 140.15C61.059 141.76 60.3883 143.567 60.0122 145.688C59.6361 147.81 59.7127 149.735 60.3989 151.68L80.1334 163.185Z" fill="#242938"/>
<path d="M132.482 83.1724C135.016 86.0224 136.842 88.9898 137.979 92.1924C139.097 95.2772 139.625 98.4598 139.424 101.642C139.224 104.824 138.414 107.986 136.838 110.912C135.28 113.956 133.074 116.744 130.22 119.276C127.365 121.808 124.275 123.652 121.068 124.789C117.86 125.926 114.673 126.455 111.487 126.256C108.301 126.058 105.254 125.23 102.207 123.677C99.2777 122.103 96.4872 119.901 93.9531 117.051C91.5566 114.299 89.6127 111.352 88.4755 108.149C87.2202 104.966 86.8107 101.764 86.8929 98.6011C87.0931 95.419 87.9031 92.257 89.4603 89.2133C91.0175 86.1696 93.2235 83.3817 96.0782 80.8496C99.051 78.2979 102.023 76.4731 105.211 75.2181C108.418 74.0809 111.605 73.5527 114.811 73.8691C117.997 74.0677 121.182 74.9931 124.111 76.5665C127.295 78.2187 130.066 80.3028 132.482 83.1724ZM124.45 90.3172C122.957 88.6269 121.286 87.3293 119.537 86.287C117.669 85.2643 115.861 84.5952 113.894 84.4367C112.045 84.2587 110.137 84.4538 108.17 85.0221C106.202 85.5905 104.431 86.6108 102.757 88.2204C101.064 89.7122 99.7642 91.381 98.9755 93.2073C98.1867 95.0336 97.7715 96.9191 97.7105 98.7459C97.669 100.691 98.0996 102.557 98.9039 104.483C99.7082 106.408 100.847 108.157 102.34 109.848C103.833 111.538 105.523 112.953 107.253 113.878C108.982 114.802 110.909 115.452 112.777 115.748C114.646 116.044 116.554 115.848 118.384 115.182C120.214 114.515 122.103 113.475 123.796 111.984C125.489 110.492 126.789 108.823 127.578 106.997C128.367 105.17 128.9 103.265 128.823 101.34C128.865 99.3955 128.434 97.5291 127.748 95.5839C127.101 93.8745 125.962 92.1254 124.45 90.3172Z" fill="#242938"/>
<path d="M151.903 75.9569C153.709 78.8064 156.342 80.7922 159.665 81.8159C162.988 82.8396 166.785 82.3314 170.858 80.5663C174.144 79.1738 176.762 77.4076 178.613 75.4052C180.582 73.3833 182.021 71.086 183.085 68.7295L191.282 73.5476C189.664 77.6913 187.419 80.9703 184.682 83.4828C181.926 85.8775 178.639 87.9967 174.782 89.6049C171.279 91.1544 167.777 91.9771 164.276 92.0729C160.775 92.1688 157.55 91.7345 154.443 90.5538C151.357 89.4909 148.507 87.6622 146.07 85.4015C143.614 83.023 141.572 80.2126 140.022 76.715C138.492 73.3353 137.807 69.9365 137.614 66.5774C137.421 63.2182 137.975 59.9774 139.178 56.9924C140.382 54.0074 142.115 51.2978 144.498 48.8439C146.881 46.3901 149.833 44.4474 153.336 42.8979C156.957 41.3288 160.577 40.4866 164.097 40.5086C167.598 40.4128 170.882 41.2007 174.028 42.6172C177.173 44.0336 180.082 46.216 182.734 49.0464C185.386 51.8769 187.683 55.4928 189.488 59.796L151.903 75.9569ZM174.505 55.7393C172.737 53.1256 170.261 51.356 166.997 50.6859C163.733 50.0158 160.507 50.3083 157.457 51.6617C154.288 53.0346 151.847 55.1348 150.133 57.9623C148.418 60.7898 147.825 63.7949 148.589 66.9383L174.505 55.7393Z" fill="#242938"/>
<path d="M248.481 71.8179L234.515 73.1639L216.341 54.9815L211.91 60.4394L213.251 75.114L202.373 76.0692L197.824 27.4092L208.702 26.454L210.666 47.081L228.294 24.66L243.106 23.2949L222.663 47.7569L248.481 71.8179Z" fill="#242938"/>
<path d="M306.342 57.9885L296.765 55.8213L300.145 41.0909L291.08 39.0812L284.558 67.7759L295.137 70.1403L292.963 79.7052L261.206 72.4943L263.38 62.9294L273.959 65.2937L280.482 36.599L271.397 34.4713L268.017 49.2017L258.559 47.0149L264.113 22.7196L311.876 33.5753L306.342 57.9885Z" fill="#242938"/>
<path d="M342.264 85.9462C339.703 90.2464 336.455 92.6014 332.422 93.1487C328.389 93.696 323.945 92.4948 319.11 89.6628L305.115 81.3246L330.298 39.3634L339.595 44.968L329.802 61.2459L334.637 64.0778C339.473 66.9097 342.577 70.2709 344.048 74.0238C345.361 77.5605 344.826 81.6459 342.264 85.9462ZM332.849 80.3611C333.815 78.8688 333.934 77.3956 333.208 75.9415C332.62 74.5857 331.323 73.3473 329.554 72.1872L324.719 69.3552L319.3 78.368L324.135 81.1999C326.022 82.3405 327.674 82.7934 329.109 82.6765C330.545 82.5596 331.884 81.8533 332.849 80.3611ZM364.735 59.8158L374.032 65.4204L348.849 107.382L339.552 101.777L364.735 59.8158Z" fill="#242938"/>
</svg>
