<svg width="295" height="260" viewBox="0 0 295 260" fill="none" xmlns="http://www.w3.org/2000/svg">
<path d="M137.137 219.102H69.8906V199.122H92.0195V99.0044H69.8906V78.9165H137.137V99.0044H114.256V199.122H137.137V219.102ZM273.133 130.049H253.26V99.0044H234.354V199.122H256.59V219.102H189.988V199.122H212.117V99.0044H192.996V130.049H173.23V78.9165H273.133V130.049Z" fill="#242938"/>
<path d="M43.8619 129.696L34.127 133.537L32.6615 129.929L42.1502 126.218C44.8103 125.205 45.6832 123.923 44.7559 121.75C43.8964 119.613 42.4971 119.116 39.5908 120.258L30.2746 123.976L28.8091 120.368L38.3347 116.589C42.6757 114.909 45.9063 116.402 47.6254 120.675C49.3503 124.775 48.0983 128.047 43.8619 129.696Z" fill="#242938"/>
<path d="M27.1599 113.059L26.7959 108.557L37.5175 101.124L26.2935 102.047L26.0297 98.6533L43.0751 97.2068L43.4258 101.087L31.8859 109.217L44.0462 108.188L44.31 111.581L27.1599 113.059Z" fill="#242938"/>
<path d="M37.878 94.6441L38.6243 91.0094C40.14 91.131 41.501 90.7292 42.0335 88.2958C42.3329 86.614 41.6842 85.3828 40.3468 85.0947C39.0094 84.8066 38.4004 85.4416 37.523 87.8631C36.1367 92.0282 34.4262 93.5575 31.2708 92.8955C28.4235 92.3133 26.756 89.5618 27.4714 85.8224C28.2236 82.0152 30.3588 80.1899 33.7663 80.5498L33.0938 84.0489C31.5411 83.9951 30.618 84.7228 30.3186 86.4046C30.0192 88.0864 30.606 89.1082 31.7399 89.2857C32.9416 89.5 33.6125 89.0744 34.5268 86.5851C35.8703 82.6602 37.3523 80.7432 40.8528 81.4171C43.8725 82.0053 45.7067 84.9352 44.9486 88.9149C43.8955 93.4369 41.3165 95.1087 37.878 94.6441Z" fill="#242938"/>
<path d="M38.3526 77.773L38.2169 77.6992C33.5989 75.3634 32.0391 70.4746 34.2939 66.167C36.1122 62.5003 39.3193 60.6431 43.3078 62.1973L41.5633 65.7283C39.5477 65.0714 38.1129 65.6087 37.1485 67.5437C35.926 69.9532 37.0509 72.4096 40.2077 74.0386L40.3434 74.1123C43.5002 75.7413 46.0747 75.209 47.371 72.6639C48.3354 70.7289 48.0495 68.9922 46.23 67.6514L47.9008 64.2559C51.4837 66.5558 52.0497 70.2015 50.1577 74.0037C47.4296 79.0202 43.0385 80.1457 38.3526 77.773Z" fill="#242938"/>
<path d="M41.7858 54.1673L44.4371 51.3929L49.4531 56.2289L54.2515 51.2843L49.2355 46.4483L51.8868 43.6739L64.2263 55.567L61.575 58.3414L56.4911 53.4685L51.6928 58.4132L56.7766 63.2861L54.1253 66.0605L41.7858 54.1673Z" fill="#242938"/>
<path d="M61.3791 46.9038L61.2803 46.7623C58.8771 42.2931 60.4286 37.3395 64.898 34.9389C69.472 32.5075 74.298 33.8144 76.7322 38.3883L76.831 38.5298C79.2342 42.999 77.8921 47.8908 73.1765 50.421C68.5287 52.988 63.7145 51.3361 61.3791 46.9038ZM73.3097 40.4798L73.2109 40.3382C71.654 37.3834 69.0339 36.222 66.393 37.6844C63.7889 39.0791 63.2446 41.8575 64.8325 44.917L64.9313 45.0586C66.587 48.155 69.3546 49.0452 71.8171 47.7492C74.4212 46.3546 74.9345 43.4715 73.3097 40.4798Z" fill="#242938"/>
<path d="M80.1136 37.5037L80.0517 37.2943C79.1879 32.2569 82.2684 28.047 87.27 27.2535C92.3085 26.3921 96.4959 29.1965 97.4275 34.2707L97.4894 34.4801C98.3532 39.5175 95.5131 43.7703 90.3021 44.6256C84.9865 45.5119 81.0143 42.4733 80.1136 37.5037ZM93.5289 35.137L93.467 34.9277C92.8891 31.6269 90.7792 29.6889 87.8597 30.2093C84.9401 30.7297 83.5451 33.1332 84.1539 36.5387L84.2158 36.748C84.7877 40.2213 87.1807 41.9619 89.8909 41.5033C92.6689 41.0816 94.1377 38.5425 93.5289 35.137Z" fill="#242938"/>
<path d="M102.468 26.2959L106.288 26.7046L104.843 40.6753L111.763 41.3642L111.453 44.3579L100.645 43.2234L102.468 26.2959Z" fill="#242938"/>
<path d="M118.656 28.6872L129.172 32.298L128.141 35.1632L121.243 32.8174L119.973 36.6067L125.503 38.5596L124.582 41.2214L119.053 39.2684L117.673 43.261L124.91 45.7912L123.879 48.6563L112.987 44.9289L118.656 28.6872Z" fill="#242938"/>
<path d="M134.912 35.1562L140.013 38.5448C143.392 40.734 144.61 43.5044 142.711 46.5121L142.674 46.5799C141.254 48.7063 139.239 49.0163 137.255 48.464L136.996 57.0195L133.549 54.7934L133.747 46.9956L132.329 46.0485L128.72 51.5524L125.476 49.437L134.912 35.1562ZM135.679 45.0596C137.301 46.1173 138.582 46.0236 139.461 44.5691L139.498 44.5013C140.481 43.0159 139.894 41.9941 138.34 40.9732L136.515 39.8048L133.785 43.8543L135.679 45.0596Z" fill="#242938"/>
<path d="M153.503 66.2594L162.88 61.7843L164.555 65.3303L155.32 69.7068C152.721 70.929 152.021 72.217 152.985 74.3225C153.986 76.3601 155.386 76.8576 158.23 75.5058L167.323 71.2281L168.998 74.7741L159.726 79.2183C155.478 81.2121 152.242 79.8912 150.209 75.7111C148.348 71.5371 149.36 68.2224 153.503 66.2594Z" fill="#242938"/>
<path d="M171.245 81.7941L171.923 86.2035L161.732 94.2764L172.844 92.5897L173.348 96.026L156.403 98.5811L155.843 94.7629L166.821 85.8884L154.773 87.6808L154.269 84.2445L171.245 81.7941Z" fill="#242938"/>
<path d="M161.748 100.873L161.242 104.55C159.69 104.497 158.36 105.003 158.031 107.547C157.799 109.266 158.62 110.503 159.964 110.619C161.27 110.802 161.879 110.167 162.584 107.74C163.699 103.427 165.237 101.892 168.54 102.283C171.43 102.624 173.27 105.382 172.832 109.096C172.32 112.946 170.351 114.95 166.938 114.763L167.37 111.221C168.96 111.207 169.784 110.338 169.979 108.687C170.173 107.036 169.482 106.045 168.416 105.904C167.177 105.758 166.574 106.22 165.863 108.82C164.828 112.825 163.414 114.779 159.938 114.382C156.913 113.966 154.795 111.234 155.313 107.211C155.855 102.499 158.372 100.618 161.748 100.873Z" fill="#242938"/>
<path d="M162.518 117.718L162.653 117.791C167.419 119.856 169.262 124.547 167.346 129.04C165.731 132.817 162.691 134.853 158.623 133.606L160.164 129.965C162.148 130.517 163.62 129.912 164.449 127.903C165.536 125.42 164.201 123.025 161.002 121.636L160.866 121.563C157.599 120.137 155.086 120.879 153.962 123.43C153.17 125.371 153.524 127.144 155.417 128.35L153.95 131.856C150.22 129.827 149.413 126.138 151.065 122.293C153.281 117.087 157.648 115.684 162.518 117.718Z" fill="#242938"/>
<path d="M160.563 141.513L158.079 144.465L152.706 139.962L148.278 145.196L153.651 149.699L151.166 152.652L138.07 141.665L140.555 138.712L145.995 143.252L150.423 138.018L144.983 133.478L147.467 130.526L160.563 141.513Z" fill="#242938"/>
<path d="M141.513 150.038L141.612 150.18C144.262 154.519 143.018 159.553 138.746 162.237C134.37 164.951 129.464 163.952 126.747 159.576L126.648 159.434C123.999 155.095 124.965 150.086 129.483 147.273C134.001 144.46 138.895 145.803 141.513 150.038ZM130.003 157.306L130.102 157.447C131.905 160.273 134.531 161.262 137.141 159.694C139.646 158.158 140.055 155.306 138.221 152.376L138.122 152.235C136.288 149.305 133.446 148.55 131.083 149.988C128.577 151.524 128.169 154.376 130.003 157.306Z" fill="#242938"/>
<path d="M123.429 160.67L123.491 160.879C124.669 165.824 121.927 170.218 116.982 171.393C111.932 172.6 107.597 170.066 106.419 165.122L106.357 164.912C105.179 159.968 107.68 155.53 112.903 154.33C118.095 153.025 122.282 155.83 123.429 160.67ZM110.225 163.941L110.286 164.151C111.074 167.39 113.325 169.229 116.183 168.499C119.108 167.806 120.3 165.292 119.482 161.949L119.42 161.739C118.638 158.328 116.172 156.723 113.456 157.354C110.672 157.948 109.443 160.53 110.225 163.941Z" fill="#242938"/>
<path d="M101.957 173.324L98.0934 173.155L98.6087 159.118L91.6402 158.841L91.7097 155.805L102.541 156.249L101.957 173.324Z" fill="#242938"/>
<path d="M85.5916 172.066L74.8116 169.102L75.6021 166.194L82.6531 168.096L83.6825 164.264L78.0367 162.687L78.8213 159.952L84.4671 161.529L85.5762 157.389L78.1492 155.37L78.9397 152.462L90.0278 155.505L85.5916 172.066Z" fill="#242938"/>
<path d="M68.9177 166.688L63.5964 163.706C60.1063 161.72 58.6791 159.011 60.4428 155.93L60.4797 155.862C61.7641 153.662 63.7164 153.143 65.8057 153.664L65.442 145.121L68.9999 147.144L69.3563 154.892L70.8484 155.704L74.0868 149.911L77.4412 151.823L68.9177 166.688ZM67.5602 156.902C65.8646 155.98 64.6142 156.178 63.84 157.602L63.8031 157.67C62.9552 159.229 63.542 160.251 65.1698 161.136L67.0689 162.169L69.4962 157.867L67.5602 156.902Z" fill="#242938"/>
</svg>
