<svg width="420" height="257" viewBox="0 0 420 257" fill="none" xmlns="http://www.w3.org/2000/svg">
<path d="M395.285 0.0307609C408.54 0.0307614 419.285 10.7759 419.285 24.0308L419.285 141.031C419.285 154.286 408.54 165.031 395.285 165.031L25.2851 165.031C12.0303 165.031 1.28515 154.286 1.28515 141.031L1.28516 24.0307C1.28516 10.7759 12.0303 0.030748 25.2852 0.0307485L395.285 0.0307609Z" fill="#FED230"/>
<path d="M0.677734 192.382H10.7852V196.483C12.7057 194.758 14.6426 193.472 16.5957 192.626C18.5814 191.747 20.8438 191.308 23.3828 191.308C26.3125 191.308 29.0306 191.91 31.5371 193.114C34.0436 194.286 36.1921 195.93 37.9824 198.046C39.7728 200.129 41.1888 202.652 42.2305 205.614C43.2721 208.544 43.793 211.734 43.793 215.185C43.793 218.668 43.2721 221.874 42.2305 224.804C41.1888 227.733 39.7728 230.256 37.9824 232.372C36.1921 234.455 34.0436 236.083 31.5371 237.255C29.0306 238.427 26.3125 239.013 23.3828 239.013C20.8437 239.013 18.5814 238.557 16.5957 237.646C14.6426 236.734 12.7057 235.416 10.7852 233.69L10.7852 256.103H0.677734L0.677734 192.382ZM10.7852 225.683C11.9896 227.017 13.5195 228.059 15.375 228.808C17.263 229.524 19.0697 229.882 20.7949 229.882C24.6035 229.882 27.696 228.531 30.0723 225.829C32.4811 223.127 33.6855 219.579 33.6855 215.185C33.6855 210.79 32.4811 207.226 30.0723 204.491C27.696 201.757 24.6035 200.39 20.7949 200.39C19.0697 200.39 17.263 200.748 15.375 201.464C13.5195 202.147 11.9896 203.157 10.7852 204.491L10.7852 225.683Z" fill="#242938"/>
<path d="M52.6797 224.804C52.6797 222.134 53.3958 219.807 54.8281 217.821C56.2604 215.803 58.1322 214.127 60.4434 212.792C62.7871 211.457 65.4564 210.465 68.4512 209.813C71.4785 209.13 74.5547 208.788 77.6797 208.788C79.4049 208.788 80.8861 208.821 82.123 208.886C83.36 208.951 84.6133 209.049 85.8828 209.179V207.372C85.8828 204.996 84.9551 203.222 83.0996 202.05C81.2767 200.878 78.8678 200.292 75.873 200.292C73.1387 200.292 70.3555 200.683 67.5234 201.464C64.6914 202.213 62.0059 203.319 59.4668 204.784L55.3652 196.874C58.36 195.149 61.5664 193.798 64.9844 192.821C68.4349 191.812 72.0645 191.308 75.873 191.308C78.347 191.308 80.7721 191.584 83.1484 192.138C85.5573 192.691 87.7057 193.603 89.5938 194.872C91.5143 196.142 93.0443 197.802 94.1836 199.853C95.3229 201.871 95.8926 204.377 95.8926 207.372V237.89H85.8828V231.2C84.2878 233.674 81.9277 235.595 78.8027 236.962C75.7103 238.329 72.3737 239.013 68.793 239.013C66.5794 239.013 64.4798 238.703 62.4941 238.085C60.541 237.499 58.8483 236.604 57.416 235.399C55.9837 234.195 54.8281 232.714 53.9492 230.956C53.1029 229.166 52.6797 227.115 52.6797 224.804ZM71.3809 229.979C73.3665 229.979 75.222 229.735 76.9473 229.247C78.7051 228.726 80.2513 228.026 81.5859 227.147C82.9206 226.236 83.9622 225.146 84.7109 223.876C85.4922 222.606 85.8828 221.207 85.8828 219.677V217.968C84.2878 217.707 82.7904 217.561 81.3906 217.528C79.9909 217.496 78.7539 217.479 77.6797 217.479C72.7318 217.479 68.9883 218.131 66.4492 219.433C63.9427 220.735 62.6895 222.346 62.6895 224.267C62.6895 228.075 65.5866 229.979 71.3809 229.979Z" fill="#242938"/>
<path d="M118.158 216.21C118.158 220.344 119.249 223.664 121.43 226.171C123.643 228.645 126.654 229.882 130.463 229.882C134.076 229.882 137.038 228.645 139.35 226.171C141.693 223.664 142.865 220.344 142.865 216.21C142.865 212.011 141.758 208.674 139.545 206.2C137.364 203.726 134.337 202.489 130.463 202.489C126.329 202.489 123.236 203.726 121.186 206.2C119.167 208.674 118.158 212.011 118.158 216.21ZM107.465 206.103C107.465 201.22 107.969 196.76 108.979 192.724C110.02 188.687 111.469 185.22 113.324 182.323C115.212 179.426 117.442 177.164 120.014 175.536C122.585 173.909 125.434 173.095 128.559 173.095C130.089 173.095 131.358 173.241 132.367 173.534C133.376 173.827 134.271 174.185 135.053 174.608C135.867 174.999 136.615 175.341 137.299 175.634C138.015 175.927 138.878 176.073 139.887 176.073C141.221 176.073 142.344 175.845 143.256 175.39C144.2 174.934 145.339 174.169 146.674 173.095L151.264 179.784C150.059 181.249 148.432 182.519 146.381 183.593C144.363 184.667 142.198 185.204 139.887 185.204C138.324 185.204 137.071 185.058 136.127 184.765C135.215 184.439 134.369 184.081 133.588 183.69C132.839 183.3 132.09 182.958 131.342 182.665C130.626 182.34 129.698 182.177 128.559 182.177C127.029 182.177 125.613 182.567 124.311 183.349C123.008 184.097 121.853 185.302 120.844 186.962C119.867 188.59 119.086 190.689 118.5 193.261C117.947 195.8 117.67 198.909 117.67 202.587C118.939 199.592 120.714 197.313 122.992 195.751C125.303 194.188 127.826 193.407 130.561 193.407C133.751 193.407 136.713 193.896 139.447 194.872C142.182 195.816 144.542 197.248 146.527 199.169C148.546 201.057 150.124 203.417 151.264 206.249C152.403 209.081 152.973 212.401 152.973 216.21C152.973 219.4 152.403 222.395 151.264 225.194C150.124 227.994 148.546 230.419 146.527 232.47C144.542 234.488 142.182 236.083 139.447 237.255C136.713 238.427 133.751 239.013 130.561 239.013C122.911 239.013 117.149 236.343 113.275 231.005C109.402 225.666 107.465 217.366 107.465 206.103Z" fill="#242938"/>
<path d="M208.734 215.185C208.734 218.733 208.165 221.955 207.025 224.853C205.919 227.75 204.307 230.256 202.191 232.372C200.108 234.455 197.602 236.083 194.672 237.255C191.742 238.427 188.471 239.013 184.857 239.013C181.309 239.013 178.07 238.427 175.141 237.255C172.211 236.083 169.688 234.455 167.572 232.372C165.489 230.256 163.878 227.75 162.738 224.853C161.632 221.955 161.078 218.733 161.078 215.185C161.078 211.734 161.632 208.544 162.738 205.614C163.878 202.652 165.489 200.113 167.572 197.997C169.688 195.849 172.211 194.205 175.141 193.065C178.07 191.894 181.309 191.308 184.857 191.308C188.471 191.308 191.742 191.894 194.672 193.065C197.602 194.205 200.108 195.849 202.191 197.997C204.307 200.113 205.919 202.652 207.025 205.614C208.165 208.544 208.734 211.734 208.734 215.185ZM198.676 215.185C198.676 213.134 198.35 211.197 197.699 209.374C197.081 207.519 196.169 205.94 194.965 204.638C193.76 203.336 192.296 202.31 190.57 201.562C188.878 200.78 186.973 200.39 184.857 200.39C182.709 200.39 180.788 200.78 179.096 201.562C177.403 202.31 175.971 203.336 174.799 204.638C173.627 205.94 172.715 207.519 172.064 209.374C171.446 211.197 171.137 213.134 171.137 215.185C171.137 217.333 171.446 219.286 172.064 221.044C172.715 222.802 173.627 224.348 174.799 225.683C175.971 227.017 177.403 228.059 179.096 228.808C180.788 229.524 182.709 229.882 184.857 229.882C186.973 229.882 188.878 229.524 190.57 228.808C192.296 228.059 193.76 227.017 194.965 225.683C196.169 224.348 197.081 222.802 197.699 221.044C198.35 219.286 198.676 217.333 198.676 215.185Z" fill="#242938"/>
<path d="M262.055 215.575H253.021V201.513H244.428V228.808H254.535V237.89H224.262V228.808H234.32V201.513H225.629V215.575H216.645V192.382H262.055V215.575Z" fill="#242938"/>
<path d="M271.039 224.804C271.039 222.134 271.755 219.807 273.188 217.821C274.62 215.803 276.492 214.127 278.803 212.792C281.146 211.457 283.816 210.465 286.811 209.813C289.838 209.13 292.914 208.788 296.039 208.788C297.764 208.788 299.245 208.821 300.482 208.886C301.719 208.951 302.973 209.049 304.242 209.179V207.372C304.242 204.996 303.314 203.222 301.459 202.05C299.636 200.878 297.227 200.292 294.232 200.292C291.498 200.292 288.715 200.683 285.883 201.464C283.051 202.213 280.365 203.319 277.826 204.784L273.725 196.874C276.719 195.149 279.926 193.798 283.344 192.821C286.794 191.812 290.424 191.308 294.232 191.308C296.706 191.308 299.132 191.584 301.508 192.138C303.917 192.691 306.065 193.603 307.953 194.872C309.874 196.142 311.404 197.802 312.543 199.853C313.682 201.871 314.252 204.377 314.252 207.372V237.89H304.242V231.2C302.647 233.674 300.287 235.595 297.162 236.962C294.07 238.329 290.733 239.013 287.152 239.013C284.939 239.013 282.839 238.703 280.854 238.085C278.9 237.499 277.208 236.604 275.775 235.399C274.343 234.195 273.188 232.714 272.309 230.956C271.462 229.166 271.039 227.115 271.039 224.804ZM289.74 229.979C291.726 229.979 293.581 229.735 295.307 229.247C297.064 228.726 298.611 228.026 299.945 227.147C301.28 226.236 302.322 225.146 303.07 223.876C303.852 222.606 304.242 221.207 304.242 219.677V217.968C302.647 217.707 301.15 217.561 299.75 217.528C298.35 217.496 297.113 217.479 296.039 217.479C291.091 217.479 287.348 218.131 284.809 219.433C282.302 220.735 281.049 222.346 281.049 224.267C281.049 228.075 283.946 229.979 289.74 229.979Z" fill="#242938"/>
</svg>
