<svg width="21" height="16" viewBox="0 0 21 16" fill="none" xmlns="http://www.w3.org/2000/svg">
<path fill-rule="evenodd" clip-rule="evenodd" d="M18.5184 0.469047C19.4084 0.721611 20.1101 1.46126 20.3497 2.39936C20.7947 4.11318 20.7776 7.68515 20.7776 7.68515C20.7776 7.68515 20.7776 11.2391 20.3497 12.9529C20.1101 13.891 19.4084 14.6307 18.5184 14.8832C16.8925 15.3342 10.3888 15.3342 10.3888 15.3342C10.3888 15.3342 3.90222 15.3342 2.25918 14.8652C1.3692 14.6126 0.667485 13.873 0.427875 12.9349C0 11.2391 0 7.66711 0 7.66711C0 7.66711 0 4.11318 0.427875 2.39936C0.667485 1.46126 1.38632 0.70357 2.25918 0.451007C3.88511 0 10.3888 0 10.3888 0C10.3888 0 16.8925 0 18.5184 0.469047ZM13.7261 7.66702L8.31771 4.38369V10.9503L13.7261 7.66702Z" fill="#DBDADA"/>
</svg>
