<svg width="510" height="374" viewBox="0 0 510 374" fill="none" xmlns="http://www.w3.org/2000/svg">
<path d="M509.758 315.954C510.285 314.983 509.924 313.769 508.954 313.242C507.983 312.715 506.769 313.076 506.242 314.047L509.758 315.954ZM265.444 342L264.33 343.661L265.444 342ZM182 208L180.877 209.655L182 208ZM182 160L183.643 161.14L182 160ZM9.21114 56.8945C9.70512 57.8825 10.9065 58.2829 11.8944 57.789L27.9941 49.7391C28.9821 49.2452 29.3825 48.0438 28.8886 47.0559C28.3946 46.0679 27.1932 45.6675 26.2053 46.1614L11.8944 53.3168L4.73905 39.006C4.24508 38.018 3.04373 37.6176 2.05577 38.1115C1.06781 38.6055 0.667362 39.8069 1.16134 40.7948L9.21114 56.8945ZM14.6412 51.8564C15.0499 50.8302 14.5494 49.667 13.5232 49.2583C12.497 48.8496 11.3338 49.3501 10.9251 50.3763L14.6412 51.8564ZM14.3691 42.801C13.8632 43.7829 14.249 44.989 15.2309 45.4949C16.2128 46.0008 17.4189 45.6149 17.9248 44.633L14.3691 42.801ZM23.0399 36.1205C23.6712 35.2141 23.4481 33.9676 22.5416 33.3363C21.6352 32.7051 20.3887 32.9282 19.7574 33.8347L23.0399 36.1205ZM24.9138 27.2474C24.1848 28.0773 24.2667 29.341 25.0965 30.0699C25.9264 30.7989 27.1901 30.717 27.9191 29.8872L24.9138 27.2474ZM34.989 22.9246C35.8301 22.2087 35.9316 20.9464 35.2157 20.1053C34.4997 19.2641 33.2375 19.1626 32.3963 19.8786L34.989 22.9246ZM39.0946 14.8137C38.1768 15.4283 37.9311 16.6706 38.5457 17.5884C39.1603 18.5061 40.4026 18.7519 41.3203 18.1373L39.0946 14.8137ZM49.9364 13.201C50.9301 12.7188 51.3447 11.5223 50.8625 10.5285C50.3802 9.53481 49.1837 9.12017 48.19 9.60243L49.9364 13.201ZM55.9067 6.34604C54.8683 6.72263 54.3318 7.86969 54.7083 8.90808C55.0849 9.94648 56.232 10.483 57.2704 10.1064L55.9067 6.34604ZM66.8345 7.28469C67.9105 7.03529 68.5807 5.9608 68.3312 4.88476C68.0818 3.80871 67.0074 3.13859 65.9313 3.38799L66.8345 7.28469ZM74.1295 1.86988C73.0357 2.02351 72.2735 3.03478 72.4271 4.12861C72.5807 5.22245 73.592 5.98463 74.6858 5.831L74.1295 1.86988ZM84.6566 4.95163C85.7604 4.90971 86.6212 3.98095 86.5793 2.87717C86.5373 1.7734 85.6086 0.912592 84.5048 0.954508L84.6566 4.95163ZM92.8178 0.954545C91.714 0.913494 90.7859 1.77503 90.7449 2.87883C90.7038 3.98264 91.5653 4.91073 92.6692 4.95178L92.8178 0.954545ZM102.673 5.77044C103.769 5.90829 104.769 5.1316 104.907 4.03567C105.045 2.93973 104.268 1.93956 103.172 1.80171L102.673 5.77044ZM111.37 3.11339C110.286 2.90291 109.236 3.61131 109.026 4.69564C108.815 5.77997 109.524 6.82962 110.608 7.0401L111.37 3.11339ZM120.393 9.35184C121.457 9.64835 122.56 9.02616 122.857 7.96213C123.153 6.89811 122.531 5.79517 121.467 5.49866L120.393 9.35184ZM129.387 7.97544C128.344 7.6131 127.204 8.16524 126.842 9.20869C126.479 10.2521 127.032 11.3918 128.075 11.7541L129.387 7.97544ZM137.444 15.4193C138.456 15.8611 139.635 15.3987 140.077 14.3864C140.519 13.374 140.056 12.1952 139.044 11.7533L137.444 15.4193ZM146.54 15.3063C145.557 14.8024 144.352 15.1906 143.848 16.1736C143.344 17.1565 143.732 18.3618 144.715 18.8658L146.54 15.3063ZM153.473 23.8023C154.413 24.3826 155.646 24.0912 156.226 23.1513C156.806 22.2115 156.515 20.9791 155.575 20.3988L153.473 23.8023ZM162.491 24.9874C161.591 24.3466 160.342 24.5566 159.701 25.4563C159.061 26.356 159.271 27.6048 160.17 28.2456L162.491 24.9874ZM168.092 34.4122C168.934 35.128 170.196 35.0261 170.912 34.1848C171.627 33.3435 171.525 32.0813 170.684 31.3656L168.092 34.4122ZM176.823 36.9831C176.036 36.2079 174.77 36.2175 173.995 37.0044C173.22 37.7913 173.229 39.0576 174.016 39.8328L176.823 36.9831ZM180.806 47.1953C181.514 48.0431 182.776 48.1565 183.623 47.4485C184.471 46.7405 184.585 45.4793 183.877 44.6315L180.806 47.1953ZM188.952 51.2454C188.317 50.3416 187.07 50.1237 186.166 50.7587C185.262 51.3937 185.044 52.6411 185.679 53.5449L188.952 51.2454ZM190.961 62.0166C191.491 62.9853 192.707 63.3405 193.675 62.8098C194.644 62.2792 194.999 61.0637 194.469 60.0949L190.961 62.0166ZM198.133 67.6005C197.697 66.586 196.52 66.1176 195.505 66.5543C194.491 66.991 194.022 68.1675 194.459 69.1821L198.133 67.6005ZM197.825 78.5479C198.132 79.6087 199.242 80.2191 200.303 79.9112C201.364 79.6033 201.974 78.4937 201.666 77.4329L197.825 78.5479ZM203.586 85.5756C203.388 84.4889 202.346 83.7687 201.26 83.9669C200.173 84.1651 199.453 85.2067 199.651 86.2933L203.586 85.5756ZM200.804 96.1674C200.862 97.2704 201.803 98.1178 202.906 98.0599C204.009 98.0021 204.857 97.061 204.799 95.9579L200.804 96.1674ZM204.815 104.346C204.868 103.242 204.016 102.305 202.913 102.252C201.81 102.199 200.872 103.05 200.819 104.153L204.815 104.346ZM199.738 114.076C199.553 115.165 200.287 116.197 201.376 116.381C202.465 116.566 203.497 115.832 203.682 114.743L199.738 114.076ZM201.932 122.856C202.212 121.787 201.573 120.694 200.504 120.415C199.435 120.135 198.342 120.774 198.063 121.843L201.932 122.856ZM195.042 131.348C194.655 132.383 195.181 133.535 196.215 133.921C197.25 134.308 198.402 133.782 198.789 132.748L195.042 131.348ZM195.589 140.427C196.05 139.423 195.611 138.236 194.607 137.774C193.604 137.313 192.416 137.752 191.955 138.756L195.589 140.427ZM187.344 147.757C186.801 148.719 187.14 149.939 188.102 150.482C189.064 151.025 190.284 150.685 190.827 149.724L187.344 147.757ZM186.595 156.728C187.193 155.799 186.925 154.562 185.996 153.964C185.067 153.366 183.83 153.634 183.232 154.563L186.595 156.728ZM177.288 163.124C176.627 164.009 176.808 165.263 177.693 165.924C178.578 166.585 179.832 166.403 180.493 165.518L177.288 163.124ZM175.23 172.132C175.945 171.291 175.843 170.029 175.002 169.313C174.16 168.597 172.898 168.699 172.182 169.541L175.23 172.132ZM165.243 176.96C164.448 177.727 164.425 178.993 165.192 179.788C165.959 180.584 167.225 180.607 168.02 179.84L165.243 176.96ZM161.61 185.44C162.479 184.759 162.631 183.501 161.95 182.632C161.268 181.763 160.011 181.611 159.142 182.293L161.61 185.44ZM150.74 187.851C149.768 188.375 149.404 189.588 149.928 190.56C150.452 191.533 151.665 191.896 152.638 191.372L150.74 187.851ZM144.622 194.809C145.674 194.475 146.257 193.351 145.923 192.298C145.589 191.245 144.464 190.663 143.412 190.997L144.622 194.809ZM133.819 192.503C132.714 192.483 131.803 193.362 131.783 194.466C131.763 195.571 132.642 196.482 133.747 196.502L133.819 192.503ZM124.893 194.735C125.91 195.166 127.083 194.69 127.514 193.673C127.945 192.656 127.47 191.482 126.452 191.052L124.893 194.735ZM121.535 185.97C121.858 184.913 121.264 183.795 120.207 183.472C119.151 183.15 118.033 183.744 117.71 184.8L121.535 185.97ZM126.81 180.307C125.706 180.291 124.797 181.174 124.782 182.278C124.766 183.383 125.649 184.291 126.753 184.306L126.81 180.307ZM136.4 186.068C137.458 186.385 138.573 185.785 138.89 184.727C139.208 183.669 138.608 182.554 137.55 182.236L136.4 186.068ZM145.564 185.119C144.543 184.699 143.374 185.185 142.953 186.207C142.532 187.228 143.019 188.397 144.04 188.818L145.564 185.119ZM153.333 193.108C154.319 193.607 155.522 193.212 156.021 192.227C156.519 191.241 156.125 190.038 155.139 189.539L153.333 193.108ZM162.555 193.508C161.592 192.966 160.373 193.308 159.832 194.27C159.29 195.233 159.632 196.453 160.594 196.994L162.555 193.508ZM169.5 202.263C170.439 202.845 171.672 202.555 172.253 201.615C172.835 200.676 172.545 199.444 171.606 198.862L169.5 202.263ZM178.633 203.348C177.71 202.741 176.47 202.998 175.864 203.922C175.257 204.845 175.514 206.085 176.438 206.691L178.633 203.348ZM184.899 212.517C185.784 213.179 187.037 212.997 187.698 212.112C188.359 211.228 188.178 209.974 187.293 209.313L184.899 212.517ZM193.617 214.434C192.787 213.705 191.523 213.786 190.794 214.616C190.065 215.446 190.146 216.709 190.976 217.439L193.617 214.434ZM197.962 224.28C198.708 225.095 199.973 225.152 200.788 224.407C201.603 223.662 201.66 222.397 200.915 221.581L197.962 224.28ZM206.152 227.868C205.485 226.988 204.231 226.815 203.35 227.482C202.47 228.149 202.297 229.403 202.964 230.284L206.152 227.868ZM208.406 238.386C208.97 239.336 210.197 239.649 211.147 239.085C212.097 238.522 212.41 237.295 211.846 236.345L208.406 238.386ZM215.71 243.524C215.226 242.531 214.029 242.119 213.036 242.603C212.043 243.086 211.63 244.284 212.114 245.277L215.71 243.524ZM216.02 254.289C216.418 255.319 217.576 255.832 218.607 255.434C219.637 255.036 220.15 253.878 219.752 252.848L216.02 254.289ZM222.47 260.476C222.124 259.427 220.992 258.858 219.944 259.204C218.895 259.551 218.325 260.682 218.672 261.73L222.47 260.476ZM221.59 271.215C221.898 272.275 223.008 272.885 224.069 272.577C225.13 272.268 225.739 271.158 225.431 270.098L221.59 271.215ZM227.629 277.802C227.328 276.739 226.222 276.122 225.159 276.423C224.097 276.724 223.479 277.83 223.781 278.892L227.629 277.802ZM226.587 288.527C226.909 289.584 228.027 290.179 229.083 289.857C230.14 289.535 230.735 288.418 230.413 287.361L226.587 288.527ZM232.855 294.894C232.493 293.85 231.353 293.299 230.309 293.661C229.266 294.024 228.714 295.164 229.077 296.207L232.855 294.894ZM232.748 305.664C233.189 306.677 234.368 307.14 235.381 306.699C236.393 306.258 236.857 305.079 236.415 304.067L232.748 305.664ZM239.822 311.119C239.3 310.146 238.088 309.779 237.115 310.301C236.141 310.822 235.774 312.034 236.296 313.008L239.822 311.119ZM241.639 321.724C242.273 322.629 243.52 322.849 244.425 322.216C245.33 321.582 245.55 320.335 244.917 319.43L241.639 321.724ZM249.704 325.582C248.982 324.746 247.719 324.654 246.883 325.376C246.047 326.098 245.955 327.361 246.676 328.197L249.704 325.582ZM253.832 335.503C254.652 336.244 255.917 336.179 256.657 335.359C257.397 334.54 257.333 333.275 256.513 332.535L253.832 335.503ZM262.549 337.496C261.665 336.834 260.412 337.013 259.749 337.897C259.087 338.781 259.266 340.035 260.15 340.697L262.549 337.496ZM268.555 346.345C269.501 346.915 270.73 346.611 271.3 345.664C271.87 344.718 271.566 343.489 270.62 342.919L268.555 346.345ZM277.432 346.715C276.45 346.208 275.244 346.593 274.737 347.574C274.23 348.555 274.615 349.762 275.596 350.269L277.432 346.715ZM284.614 354.542C285.626 354.983 286.805 354.52 287.246 353.507C287.687 352.494 287.223 351.316 286.211 350.875L284.614 354.542ZM293.445 353.83C292.414 353.434 291.257 353.95 290.862 354.982C290.467 356.013 290.982 357.17 292.014 357.565L293.445 353.83ZM301.423 360.902C302.473 361.246 303.603 360.675 303.947 359.625C304.291 358.575 303.719 357.446 302.669 357.101L301.423 360.902ZM310.156 359.409C309.095 359.102 307.986 359.713 307.68 360.774C307.373 361.835 307.984 362.944 309.045 363.251L310.156 359.409ZM318.681 365.823C319.754 366.086 320.837 365.43 321.1 364.357C321.363 363.285 320.707 362.202 319.635 361.938L318.681 365.823ZM327.276 363.688C326.196 363.458 325.133 364.148 324.903 365.228C324.673 366.308 325.362 367.371 326.443 367.601L327.276 363.688ZM336.223 369.494C337.311 369.684 338.347 368.956 338.537 367.868C338.727 366.78 337.999 365.744 336.911 365.554L336.223 369.494ZM344.655 366.791C343.561 366.632 342.547 367.39 342.388 368.483C342.23 369.576 342.987 370.591 344.081 370.749L344.655 366.791ZM353.957 372.001C355.055 372.121 356.042 371.327 356.162 370.229C356.281 369.131 355.487 368.144 354.389 368.025L353.957 372.001ZM362.199 368.76C361.098 368.673 360.134 369.494 360.046 370.595C359.959 371.696 360.78 372.66 361.881 372.748L362.199 368.76ZM371.817 373.358C372.921 373.406 373.854 372.55 373.901 371.446C373.949 370.343 373.093 369.41 371.989 369.362L371.817 373.358ZM379.831 369.583C378.726 369.568 377.819 370.452 377.804 371.557C377.79 372.661 378.673 373.568 379.778 373.583L379.831 369.583ZM389.736 373.522C390.84 373.493 391.712 372.575 391.684 371.471C391.656 370.367 390.738 369.494 389.633 369.523L389.736 373.522ZM397.467 369.195C396.365 369.259 395.523 370.205 395.587 371.308C395.651 372.411 396.598 373.252 397.7 373.188L397.467 369.195ZM407.634 372.396C408.733 372.285 409.534 371.303 409.422 370.204C409.31 369.105 408.329 368.305 407.23 368.417L407.634 372.396ZM415.008 367.484C413.913 367.635 413.15 368.646 413.302 369.74C413.454 370.834 414.464 371.597 415.558 371.446L415.008 367.484ZM425.403 369.834C426.489 369.628 427.202 368.582 426.996 367.496C426.79 366.411 425.744 365.698 424.659 365.904L425.403 369.834ZM432.311 364.286C431.235 364.538 430.568 365.614 430.819 366.689C431.071 367.765 432.147 368.432 433.223 368.181L432.311 364.286ZM442.883 365.626C443.942 365.312 444.546 364.199 444.232 363.14C443.918 362.081 442.805 361.477 441.746 361.791L442.883 365.626ZM449.171 359.386C448.129 359.754 447.582 360.896 447.95 361.938C448.317 362.979 449.459 363.526 450.501 363.159L449.171 359.386ZM459.823 359.507C460.837 359.067 461.302 357.89 460.863 356.876C460.424 355.863 459.246 355.397 458.233 355.836L459.823 359.507ZM465.275 352.527C464.291 353.027 463.899 354.232 464.4 355.216C464.9 356.201 466.105 356.593 467.089 356.092L465.275 352.527ZM475.841 351.171C476.78 350.589 477.069 349.356 476.487 348.417C475.904 347.479 474.671 347.19 473.733 347.772L475.841 351.171ZM480.168 343.447C479.275 344.097 479.078 345.348 479.728 346.241C480.379 347.134 481.629 347.331 482.522 346.681L480.168 343.447ZM490.368 340.354C491.192 339.618 491.263 338.353 490.526 337.53C489.79 336.706 488.526 336.635 487.702 337.371L490.368 340.354ZM493.242 331.982C492.484 332.785 492.521 334.051 493.325 334.809C494.128 335.567 495.394 335.529 496.152 334.726L493.242 331.982ZM502.658 327.012C503.322 326.129 503.144 324.875 502.261 324.211C501.378 323.548 500.124 323.725 499.461 324.608L502.658 327.012ZM503.812 318.238C503.231 319.178 503.522 320.41 504.461 320.991C505.401 321.572 506.633 321.281 507.214 320.342L503.812 318.238ZM12.8974 56.6326C13.4424 54.9973 14.0243 53.4055 14.6412 51.8564L10.9251 50.3763C10.2794 51.9975 9.67148 53.6611 9.10264 55.3676L12.8974 56.6326ZM17.9248 44.633C19.484 41.6068 21.194 38.7713 23.0399 36.1205L19.7574 33.8347C17.8088 36.6329 16.0079 39.6203 14.3691 42.801L17.9248 44.633ZM27.9191 29.8872C30.1363 27.3629 32.4987 25.0442 34.989 22.9246L32.3963 19.8786C29.76 22.1225 27.2596 24.5768 24.9138 27.2474L27.9191 29.8872ZM41.3203 18.1373C44.0766 16.2914 46.9547 14.6481 49.9364 13.201L48.19 9.60243C45.0474 11.1275 42.0088 12.8621 39.0946 14.8137L41.3203 18.1373ZM57.2704 10.1064C60.3766 8.97989 63.5706 8.0412 66.8345 7.28469L65.9313 3.38799C62.5176 4.17921 59.1695 5.16273 55.9067 6.34604L57.2704 10.1064ZM74.6858 5.831C77.9629 5.37074 81.2921 5.07939 84.6566 4.95163L84.5048 0.954508C81.0101 1.08722 77.5457 1.39008 74.1295 1.86988L74.6858 5.831ZM92.6692 4.95178C95.9893 5.07526 99.3293 5.34987 102.673 5.77044L103.172 1.80171C99.7153 1.3669 96.2584 1.0825 92.8178 0.954545L92.6692 4.95178ZM110.608 7.0401C113.884 7.67601 117.151 8.44829 120.393 9.35184L121.467 5.49866C118.123 4.56685 114.753 3.76993 111.37 3.11339L110.608 7.0401ZM128.075 11.7541C131.239 12.8529 134.367 14.0763 137.444 15.4193L139.044 11.7533C135.873 10.3691 132.649 9.10805 129.387 7.97544L128.075 11.7541ZM144.715 18.8658C147.703 20.3977 150.627 22.045 153.473 23.8023L155.575 20.3988C152.638 18.5851 149.621 16.8859 146.54 15.3063L144.715 18.8658ZM160.17 28.2456C162.908 30.1954 165.554 32.2528 168.092 34.4122L170.684 31.3656C168.056 29.1298 165.32 27.0021 162.491 24.9874L160.17 28.2456ZM174.016 39.8328C176.408 42.1886 178.677 44.6447 180.806 47.1953L183.877 44.6315C181.661 41.9781 179.304 39.4269 176.823 36.9831L174.016 39.8328ZM185.679 53.5449C187.6 56.2788 189.366 59.1046 190.961 62.0166L194.469 60.0949C192.8 57.0484 190.955 54.0966 188.952 51.2454L185.679 53.5449ZM194.459 69.1821C195.769 72.2241 196.896 75.3479 197.825 78.5479L201.666 77.4329C200.69 74.0701 199.507 70.7906 198.133 67.6005L194.459 69.1821ZM199.651 86.2933C200.239 89.5168 200.628 92.8098 200.804 96.1674L204.799 95.9579C204.614 92.4285 204.204 88.9658 203.586 85.5756L199.651 86.2933ZM200.819 104.153C200.662 107.406 200.306 110.715 199.738 114.076L203.682 114.743C204.277 111.227 204.65 107.76 204.815 104.346L200.819 104.153ZM198.063 121.843C197.244 124.971 196.24 128.14 195.042 131.348L198.789 132.748C200.033 129.417 201.078 126.118 201.932 122.856L198.063 121.843ZM191.955 138.756C190.588 141.727 189.054 144.728 187.344 147.757L190.827 149.724C192.589 146.602 194.174 143.502 195.589 140.427L191.955 138.756ZM183.232 154.563C182.313 155.99 181.355 157.422 180.357 158.86L183.643 161.14C184.667 159.665 185.651 158.195 186.595 156.728L183.232 154.563ZM180.357 158.86C179.329 160.341 178.306 161.762 177.288 163.124L180.493 165.518C181.539 164.117 182.589 162.659 183.643 161.14L180.357 158.86ZM172.182 169.541C169.826 172.311 167.51 174.775 165.243 176.96L168.02 179.84C170.387 177.557 172.794 174.997 175.23 172.132L172.182 169.541ZM159.142 182.293C156.224 184.581 153.415 186.41 150.74 187.851L152.638 191.372C155.527 189.816 158.526 187.859 161.61 185.44L159.142 182.293ZM143.412 190.997C139.846 192.128 136.624 192.553 133.819 192.503L133.747 196.502C137.013 196.561 140.667 196.065 144.622 194.809L143.412 190.997ZM126.452 191.052C124.444 190.201 123.053 189.107 122.265 188.093C121.457 187.053 121.428 186.321 121.535 185.97L117.71 184.8C117.088 186.837 117.832 188.907 119.106 190.547C120.401 192.213 122.4 193.679 124.893 194.735L126.452 191.052ZM126.753 184.306C129.134 184.34 132.316 184.842 136.4 186.068L137.55 182.236C133.232 180.94 129.669 180.347 126.81 180.307L126.753 184.306ZM144.04 188.818C146.857 189.979 149.95 191.397 153.333 193.108L155.139 189.539C151.675 187.786 148.487 186.324 145.564 185.119L144.04 188.818ZM160.594 196.994C163.398 198.571 166.365 200.322 169.5 202.263L171.606 198.862C168.426 196.894 165.411 195.114 162.555 193.508L160.594 196.994ZM176.438 206.691C177.886 207.642 179.366 208.63 180.877 209.655L183.123 206.345C181.595 205.309 180.099 204.31 178.633 203.348L176.438 206.691ZM180.877 209.655C182.269 210.599 183.608 211.553 184.899 212.517L187.293 209.313C185.953 208.312 184.564 207.323 183.123 206.345L180.877 209.655ZM190.976 217.439C193.522 219.676 195.841 221.958 197.962 224.28L200.915 221.581C198.695 219.151 196.271 216.767 193.617 214.434L190.976 217.439ZM202.964 230.284C204.979 232.942 206.78 235.645 208.406 238.386L211.846 236.345C210.147 233.481 208.262 230.652 206.152 227.868L202.964 230.284ZM212.114 245.277C213.561 248.246 214.848 251.253 216.02 254.289L219.752 252.848C218.545 249.723 217.213 246.61 215.71 243.524L212.114 245.277ZM218.672 261.73C219.71 264.875 220.666 268.038 221.59 271.215L225.431 270.098C224.5 266.897 223.529 263.683 222.47 260.476L218.672 261.73ZM223.781 278.892C224.691 282.105 225.611 285.325 226.587 288.527L230.413 287.361C229.449 284.2 228.539 281.013 227.629 277.802L223.781 278.892ZM229.077 296.207C230.182 299.385 231.388 302.543 232.748 305.664L236.415 304.067C235.104 301.056 233.934 297.996 232.855 294.894L229.077 296.207ZM236.296 313.008C237.879 315.963 239.644 318.873 241.639 321.724L244.917 319.43C243.019 316.719 241.336 313.946 239.822 311.119L236.296 313.008ZM246.676 328.197C248.834 330.695 251.208 333.133 253.832 335.503L256.513 332.535C254.011 330.276 251.753 327.956 249.704 325.582L246.676 328.197ZM260.15 340.697C261.488 341.7 262.881 342.688 264.33 343.661L266.559 340.339C265.166 339.405 263.831 338.457 262.549 337.496L260.15 340.697ZM264.33 343.661C265.686 344.571 267.096 345.466 268.555 346.345L270.62 342.919C269.212 342.071 267.858 341.211 266.559 340.339L264.33 343.661ZM275.596 350.269C278.46 351.748 281.471 353.174 284.614 354.542L286.211 350.875C283.143 349.539 280.212 348.15 277.432 346.715L275.596 350.269ZM292.014 357.565C295.054 358.73 298.195 359.844 301.423 360.902L302.669 357.101C299.501 356.062 296.422 354.97 293.445 353.83L292.014 357.565ZM309.045 363.251C312.191 364.161 315.406 365.019 318.681 365.823L319.635 361.938C316.411 361.147 313.249 360.303 310.156 359.409L309.045 363.251ZM326.443 367.601C329.658 368.286 332.921 368.918 336.223 369.494L336.911 365.554C333.657 364.986 330.443 364.363 327.276 363.688L326.443 367.601ZM344.081 370.749C347.345 371.223 350.64 371.641 353.957 372.001L354.389 368.025C351.119 367.67 347.872 367.257 344.655 366.791L344.081 370.749ZM361.881 372.748C365.18 373.011 368.494 373.215 371.817 373.358L371.989 369.362C368.716 369.221 365.45 369.019 362.199 368.76L361.881 372.748ZM379.778 373.583C383.097 373.626 386.419 373.607 389.736 373.522L389.633 369.523C386.37 369.607 383.099 369.626 379.831 369.583L379.778 373.583ZM397.7 373.188C401.025 372.994 404.339 372.731 407.634 372.396L407.23 368.417C403.994 368.746 400.737 369.004 397.467 369.195L397.7 373.188ZM415.558 371.446C418.868 370.986 422.153 370.45 425.403 369.834L424.659 365.904C421.475 366.507 418.255 367.033 415.008 367.484L415.558 371.446ZM433.223 368.181C436.487 367.416 439.71 366.566 442.883 365.626L441.746 361.791C438.651 362.708 435.503 363.539 432.311 364.286L433.223 368.181ZM450.501 363.159C453.672 362.04 456.783 360.824 459.823 359.507L458.233 355.836C455.282 357.115 452.258 358.298 449.171 359.386L450.501 363.159ZM467.089 356.092C470.093 354.564 473.014 352.925 475.841 351.171L473.733 347.772C471.005 349.464 468.183 351.047 465.275 352.527L467.089 356.092ZM482.522 346.681C485.248 344.696 487.867 342.589 490.368 340.354L487.702 337.371C485.305 339.514 482.79 341.538 480.168 343.447L482.522 346.681ZM496.152 334.726C498.452 332.286 500.625 329.716 502.658 327.012L499.461 324.608C497.519 327.191 495.442 329.648 493.242 331.982L496.152 334.726ZM507.214 320.342C508.098 318.912 508.947 317.449 509.758 315.954L506.242 314.047C505.467 315.475 504.657 316.873 503.812 318.238L507.214 320.342Z" fill="#E4E4E4"/>
</svg>
