<svg width="461" height="409" viewBox="0 0 461 409" fill="none" xmlns="http://www.w3.org/2000/svg">
<path d="M276 2.00049V0.500488V2.00049ZM459 170L460.49 170.177L459 170ZM369 297L370.335 297.683L369 297ZM389 408.5C389.829 408.5 390.5 407.829 390.5 407V393.5C390.5 392.672 389.829 392 389 392C388.172 392 387.5 392.672 387.5 393.5V405.5H375.5C374.672 405.5 374 406.172 374 407C374 407.829 374.672 408.5 375.5 408.5H389ZM0.762291 114.481C2.4866 114.758 4.19012 115.011 5.87338 115.24L6.27743 112.267C4.61848 112.041 2.93883 111.792 1.23795 111.519L0.762291 114.481ZM13.8333 116.161C17.298 116.49 20.6736 116.714 23.9652 116.838L24.0788 113.841C20.8455 113.718 17.5266 113.498 14.1169 113.174L13.8333 116.161ZM32.1245 116.945C35.5971 116.901 38.9728 116.743 42.2583 116.476L42.0158 113.486C38.7999 113.747 35.4926 113.902 32.087 113.945L32.1245 116.945ZM50.3233 115.585C53.7543 115.102 57.0835 114.497 60.3198 113.78L59.6712 110.851C56.5113 111.551 53.2589 112.142 49.905 112.614L50.3233 115.585ZM68.1873 111.771C71.4976 110.811 74.7084 109.732 77.8306 108.545L76.7649 105.741C73.7165 106.899 70.5824 107.953 67.3515 108.89L68.1873 111.771ZM85.3307 105.421C88.443 104.009 91.468 102.492 94.418 100.884L92.982 98.2496C90.0927 99.8249 87.1333 101.309 84.0914 102.689L85.3307 105.421ZM101.435 96.8094C104.321 95.0325 107.139 93.173 109.903 91.2456L108.187 88.7848C105.465 90.6828 102.695 92.5107 99.8624 94.2548L101.435 96.8094ZM116.452 86.4878C119.139 84.4594 121.784 82.3743 124.398 80.2475L122.504 77.9205C119.914 80.0281 117.298 82.0902 114.644 84.0933L116.452 86.4878ZM130.601 75.0857C133.158 72.9164 135.695 70.7165 138.225 68.5011L136.249 66.2439C133.726 68.4533 131.201 70.6424 128.66 72.7983L130.601 75.0857ZM144.265 63.185C146.771 60.9728 149.279 58.7572 151.805 56.5486L149.831 54.2901C147.298 56.5045 144.784 58.7253 142.28 60.936L144.265 63.185ZM157.872 51.3003C160.405 49.1371 162.963 46.9929 165.56 44.8801L163.667 42.5531C161.048 44.684 158.47 46.8439 155.924 49.0191L157.872 51.3003ZM171.827 39.9104C174.454 37.8849 177.128 35.9001 179.859 33.9682L178.126 31.519C175.358 33.4773 172.651 35.4869 169.996 37.5345L171.827 39.9104ZM186.457 29.4863C189.223 27.6872 192.053 25.9477 194.958 24.2792L193.464 21.6778C190.508 23.3757 187.631 25.1443 184.822 26.9715L186.457 29.4863ZM201.952 20.4824C204.871 18.989 207.868 17.5696 210.953 16.2346L209.761 13.4814C206.615 14.843 203.56 16.29 200.586 17.8116L201.952 20.4824ZM218.325 13.2729C221.38 12.139 224.521 11.0876 227.756 10.1275L226.903 7.25147C223.603 8.23091 220.398 9.30355 217.281 10.4604L218.325 13.2729ZM235.436 8.06737C238.593 7.30844 241.839 6.63467 245.179 6.05328L244.665 3.09772C241.262 3.68997 237.954 4.37661 234.735 5.15044L235.436 8.06737ZM253.1 4.87366C256.321 4.47306 259.626 4.1558 263.023 3.92761L262.822 0.934359C259.37 1.16629 256.007 1.4889 252.73 1.8966L253.1 4.87366ZM270.924 3.56424C272.595 3.52195 274.287 3.50049 276 3.50049V0.500488C274.261 0.500495 272.544 0.52226 270.848 0.5652L270.924 3.56424ZM276 3.50049C277.662 3.50048 279.326 3.53095 280.993 3.59126L281.101 0.59322C279.399 0.531624 277.698 0.500482 276 0.500488V3.50049ZM288.978 4.10459C292.286 4.40893 295.598 4.82609 298.909 5.35111L299.379 2.38813C296.005 1.85314 292.628 1.42772 289.253 1.11721L288.978 4.10459ZM306.788 6.80259C310.043 7.48512 313.292 8.26837 316.531 9.1476L317.317 6.2524C314.023 5.35828 310.717 4.56127 307.403 3.86645L306.788 6.80259ZM324.221 11.4207C327.394 12.4349 330.552 13.5386 333.691 14.7272L334.753 11.9217C331.567 10.7148 328.359 9.59369 325.134 8.56312L324.221 11.4207ZM341.137 17.7213C344.207 19.028 347.254 20.4141 350.273 21.8753L351.58 19.1749C348.519 17.6931 345.427 16.2868 342.311 14.9609L341.137 17.7213ZM357.434 25.5092C360.387 27.0774 363.308 28.7161 366.192 30.4208L367.718 27.8382C364.796 26.1106 361.835 24.4496 358.842 22.8597L357.434 25.5092ZM373.033 34.6321C375.854 36.4385 378.634 38.3072 381.368 40.2338L383.096 37.7814C380.326 35.8295 377.509 33.9362 374.651 32.1058L373.033 34.6321ZM387.855 44.9766C390.528 47.0044 393.152 49.087 395.72 51.2199L397.637 48.9119C395.034 46.7508 392.376 44.6408 389.668 42.5864L387.855 44.9766ZM401.81 56.4621C404.318 58.7001 406.765 60.9857 409.147 63.3142L411.244 61.1689C408.829 58.8083 406.349 56.4917 403.807 54.2238L401.81 56.4621ZM414.786 69.0352C417.104 71.4764 419.349 73.9581 421.517 76.4753L423.79 74.5176C421.59 71.9631 419.312 69.4455 416.962 66.9697L414.786 69.0352ZM426.632 82.663C428.726 85.3034 430.733 87.9767 432.648 90.6776L435.095 88.9424C433.148 86.1967 431.109 83.4805 428.983 80.7991L426.632 82.663ZM437.137 97.3233C438.961 100.162 440.681 103.025 442.29 105.906L444.909 104.443C443.269 101.506 441.517 98.5906 439.661 95.7019L437.137 97.3233ZM446.008 112.996C447.497 116.03 448.859 119.079 450.089 122.135L452.872 121.015C451.614 117.888 450.221 114.773 448.702 111.675L446.008 112.996ZM452.835 129.638C453.889 132.838 454.791 136.039 455.535 139.235L458.457 138.554C457.692 135.268 456.765 131.981 455.685 128.7L452.835 129.638ZM457.038 147.054C457.537 150.368 457.858 153.668 457.99 156.945L460.988 156.824C460.851 153.433 460.519 150.024 460.004 146.607L457.038 147.054ZM457.937 164.887C457.846 166.54 457.704 168.186 457.511 169.824L460.49 170.177C460.691 168.476 460.838 166.767 460.933 165.051L457.937 164.887ZM457.511 169.824C457.33 171.35 457.063 172.892 456.716 174.447L459.643 175.101C460.012 173.453 460.296 171.811 460.49 170.177L457.511 169.824ZM454.561 181.705C453.509 184.576 452.222 187.482 450.73 190.418L453.405 191.777C454.943 188.751 456.28 185.735 457.378 182.737L454.561 181.705ZM447.01 197.122C445.407 199.798 443.66 202.489 441.793 205.192L444.261 206.897C446.16 204.149 447.943 201.403 449.584 198.664L447.01 197.122ZM437.286 211.442C435.386 213.977 433.399 216.517 431.345 219.057L433.678 220.943C435.751 218.379 437.761 215.81 439.687 213.241L437.286 211.442ZM426.415 225.015C424.347 227.463 422.232 229.908 420.089 232.346L422.343 234.326C424.496 231.877 426.623 229.417 428.707 226.951L426.415 225.015ZM414.939 238.142C412.776 240.552 410.602 242.952 408.432 245.339L410.651 247.357C412.823 244.968 415.003 242.563 417.172 240.145L414.939 238.142ZM403.206 251.08C401.003 253.501 398.82 255.906 396.679 258.288L398.91 260.294C401.045 257.918 403.223 255.519 405.425 253.099L403.206 251.08ZM391.504 264.105C389.315 266.596 387.19 269.06 385.152 271.492L387.452 273.419C389.471 271.009 391.58 268.563 393.758 266.086L391.504 264.105ZM380.215 277.554C378.119 280.213 376.155 282.829 374.359 285.396L376.817 287.116C378.574 284.605 380.502 282.035 382.571 279.412L380.215 277.554ZM370.06 292.005C369.192 293.459 368.391 294.897 367.665 296.317L370.335 297.683C371.029 296.328 371.798 294.947 372.636 293.542L370.06 292.005ZM367.665 296.317C366.932 297.749 366.243 299.201 365.599 300.67L368.346 301.875C368.967 300.461 369.63 299.063 370.335 297.683L367.665 296.317ZM362.835 307.86C361.824 310.905 360.986 314.005 360.319 317.145L363.254 317.769C363.898 314.735 364.706 311.742 365.682 308.806L362.835 307.86ZM359.046 324.732C358.651 327.904 358.422 331.103 358.353 334.314L361.353 334.378C361.419 331.268 361.641 328.171 362.023 325.102L359.046 324.732ZM358.495 341.996C358.679 345.183 359.018 348.369 359.509 351.541L362.474 351.082C361.998 348.004 361.668 344.913 361.49 341.823L358.495 341.996ZM360.968 359.078C361.691 362.187 362.56 365.27 363.572 368.312L366.418 367.365C365.436 364.41 364.592 361.417 363.89 358.399L360.968 359.078ZM366.261 375.501C367.488 378.448 368.854 381.345 370.355 384.177L373.006 382.772C371.549 380.023 370.222 377.21 369.03 374.347L366.261 375.501ZM374.202 390.821C375.904 393.523 377.738 396.15 379.699 398.689L382.073 396.855C380.171 394.393 378.392 391.844 376.74 389.222L374.202 390.821ZM384.628 404.581C385.701 405.766 386.805 406.926 387.939 408.061L390.061 405.939C388.962 404.84 387.892 403.716 386.852 402.567L384.628 404.581Z" fill="#E4E4E4"/>
</svg>
