<svg width="260" height="182" viewBox="0 0 260 182" fill="none" xmlns="http://www.w3.org/2000/svg">
<path d="M76.9454 141.277L77.9708 140.182L76.9454 141.277ZM88.4454 176.527L87.5084 175.356L88.4454 176.527ZM84.4454 109.527L83.875 108.14L84.4454 109.527ZM256.98 73.3683C256.845 72.551 256.073 71.9979 255.256 72.133L241.936 74.3345C241.119 74.4696 240.566 75.2417 240.701 76.0591C240.836 76.8764 241.608 77.4295 242.425 77.2944L254.265 75.3374L256.222 87.1768C256.357 87.9941 257.129 88.5472 257.946 88.4121C258.764 88.277 259.317 87.5049 259.182 86.6876L256.98 73.3683ZM3.11665 0.39135C2.86481 2.17488 2.62793 3.91794 2.40646 5.62239L5.38145 6.00894C5.60138 4.31636 5.83676 2.5843 6.08719 0.810799L3.11665 0.39135ZM1.41674 13.9536C1.02621 17.6254 0.723066 21.1074 0.513379 24.4227L3.5074 24.6121C3.71397 21.346 4.01316 17.9072 4.39992 14.2709L1.41674 13.9536ZM0.17994 32.8862C0.132406 36.6109 0.233401 40.1197 0.494838 43.4551L3.48566 43.2206C3.2323 39.9883 3.13315 36.5714 3.1797 32.9245L0.17994 32.8862ZM1.56823 51.8995C2.22123 55.5127 3.11159 58.9339 4.25755 62.2336L7.09152 61.2494C5.99909 58.1038 5.14714 54.8339 4.52041 51.366L1.56823 51.8995ZM7.58396 70.1084C9.13495 73.2085 10.9433 76.2373 13.0216 79.2645L15.4948 77.5665C13.4858 74.6403 11.7497 71.73 10.2669 68.7661L7.58396 70.1084ZM18.1146 86.0479C20.2228 88.6445 22.5326 91.2781 25.0516 93.9905L27.2498 91.949C24.7669 89.2754 22.5022 86.6924 20.4436 84.157L18.1146 86.0479ZM30.9007 100.068C33.2487 102.434 35.747 104.877 38.4002 107.421L40.4766 105.256C37.8364 102.724 35.3564 100.298 33.03 97.9546L30.9007 100.068ZM44.4641 113.167C46.9055 115.458 49.462 117.835 52.1363 120.312L54.1751 118.112C51.503 115.636 48.9517 113.264 46.5169 110.979L44.4641 113.167ZM58.2941 126.007C60.7514 128.277 63.2982 130.63 65.9374 133.076L67.9766 130.876C65.3355 128.428 62.7871 126.074 60.33 123.803L58.2941 126.007ZM72.0617 138.767C73.3283 139.948 74.6143 141.149 75.9201 142.372L77.9708 140.182C76.6631 138.958 75.3754 137.755 74.1072 136.573L72.0617 138.767ZM75.9201 142.372C76.9967 143.38 78.274 144.75 79.6219 146.381L81.9343 144.469C80.5256 142.765 79.1613 141.297 77.9708 140.182L75.9201 142.372ZM84.7736 153.56C86.7553 156.762 88.4568 160.172 89.4476 163.405L92.3159 162.526C91.2255 158.968 89.3897 155.318 87.3245 151.981L84.7736 153.56ZM90.0397 171.484C89.6339 172.99 88.8326 174.296 87.5084 175.356L89.3825 177.698C91.2305 176.22 92.3732 174.354 92.9363 172.265L90.0397 171.484ZM87.5084 175.356C86.2598 176.355 85.0485 177.122 83.8819 177.687L85.1887 180.387C86.5814 179.713 87.9811 178.82 89.3825 177.698L87.5084 175.356ZM77.5657 178.893C75.0157 178.592 72.6055 177.286 70.4403 175.106L68.3117 177.22C70.8365 179.762 73.8415 181.474 77.2136 181.872L77.5657 178.893ZM66.4126 169.478C65.1218 167.04 64.0575 164.234 63.2742 161.181L60.3683 161.927C61.2028 165.179 62.3468 168.211 63.7614 170.882L66.4126 169.478ZM62.0265 154.121C61.7291 151.208 61.6771 148.192 61.9009 145.159L58.909 144.939C58.6721 148.149 58.7271 151.341 59.042 154.426L62.0265 154.121ZM62.9442 138.069C63.594 135.168 64.5217 132.322 65.752 129.605L63.0192 128.368C61.6981 131.285 60.7079 134.327 60.0167 137.413L62.9442 138.069ZM69.2582 123.43C70.9259 121.048 72.8958 118.841 75.1926 116.876L73.242 114.596C70.7447 116.734 68.6064 119.13 66.8007 121.709L69.2582 123.43ZM81.0042 112.842C82.2685 112.139 83.6049 111.495 85.0159 110.914L83.875 108.14C82.3568 108.764 80.9146 109.46 79.5465 110.22L81.0042 112.842ZM85.0159 110.914C86.5178 110.297 88.076 109.771 89.6883 109.329L88.8949 106.436C87.1734 106.908 85.4985 107.472 83.875 108.14L85.0159 110.914ZM97.5246 107.845C100.721 107.472 104.075 107.326 107.568 107.351L107.59 104.351C104.001 104.326 100.522 104.475 97.1773 104.865L97.5246 107.845ZM115.683 107.674C118.976 107.897 122.363 108.221 125.829 108.606L126.16 105.624C122.666 105.237 119.235 104.907 115.886 104.68L115.683 107.674ZM133.951 109.578C137.264 109.995 140.716 110.446 144.132 110.875L144.505 107.898C141.045 107.464 137.703 107.027 134.326 106.601L133.951 109.578ZM152.297 111.851C155.686 112.23 159.11 112.573 162.555 112.846L162.793 109.855C159.387 109.585 155.997 109.246 152.63 108.87L152.297 111.851ZM170.802 113.351C174.242 113.493 177.695 113.543 181.151 113.468L181.087 110.469C177.702 110.542 174.312 110.494 170.926 110.354L170.802 113.351ZM189.439 113.035C192.883 112.743 196.321 112.301 199.743 111.679L199.206 108.728C195.887 109.331 192.543 109.761 189.185 110.046L189.439 113.035ZM207.874 109.836C211.193 108.925 214.486 107.817 217.743 106.482L216.605 103.707C213.466 104.993 210.288 106.062 207.08 106.943L207.874 109.836ZM225.311 102.92C228.307 101.317 231.26 99.4954 234.164 97.4308L232.425 94.986C229.626 96.9764 226.781 98.7313 223.896 100.275L225.311 102.92ZM240.728 92.2602C243.263 90.0587 245.75 87.6477 248.184 85.0104L245.979 82.976C243.618 85.5341 241.21 87.8679 238.761 89.9952L240.728 92.2602ZM253.57 78.6832C254.632 77.3335 255.682 75.935 256.72 74.4864L254.281 72.7394C253.269 74.1521 252.246 75.5145 251.212 76.8281L253.57 78.6832Z" fill="#E4E4E4"/>
</svg>
