<svg width="670" height="490" viewBox="0 0 670 490" fill="none" xmlns="http://www.w3.org/2000/svg">
<path d="M7.00005 350L8.45066 350.382L7.00005 350ZM159 471L158.299 469.674L159 471ZM218.286 376.444L217.145 375.471L218.286 376.444ZM338.342 343.111L338.974 341.751L338.342 343.111ZM304.786 410.444L303.412 411.046L304.786 410.444ZM369.175 338.056L369.577 339.501L369.175 338.056ZM476.453 367.333L475.23 368.202L476.453 367.333ZM556.564 420.333L556.367 421.82L556.564 420.333ZM644.786 366.889L646.002 367.768L644.786 366.889ZM637.564 275.167L638.495 273.99L637.564 275.167ZM625.12 294.556L625.957 293.311L625.12 294.556ZM655.009 275.444L656.339 276.138L655.009 275.444ZM655.731 188.778L656.96 187.918L655.731 188.778ZM512.618 3.06245C512.653 2.23474 512.01 1.53579 511.182 1.5013L497.694 0.939288C496.866 0.9048 496.167 1.54783 496.133 2.37554C496.098 3.20325 496.741 3.9022 497.569 3.93669L509.559 4.43625L509.059 16.4259C509.025 17.2536 509.668 17.9525 510.495 17.987C511.323 18.0215 512.022 17.3785 512.056 16.5507L512.618 3.06245ZM140.537 240.329C140.908 241.983 141.069 243.556 141.042 245.059L144.041 245.113C144.073 243.356 143.884 241.543 143.464 239.671L140.537 240.329ZM139.313 252.296C138.037 254.971 136.073 257.502 133.492 259.937L135.551 262.119C138.327 259.499 140.547 256.677 142.021 253.587L139.313 252.296ZM127.298 264.851C124.714 266.619 121.829 268.332 118.694 270.016L120.113 272.659C123.316 270.939 126.298 269.171 128.992 267.327L127.298 264.851ZM111.474 273.653C108.52 275.061 105.421 276.455 102.213 277.854L103.412 280.604C106.64 279.197 109.771 277.788 112.764 276.361L111.474 273.653ZM94.7367 281.052C91.6554 282.351 88.5153 283.66 85.328 284.997L86.4885 287.763C89.6657 286.43 92.8188 285.117 95.9022 283.817L94.7367 281.052ZM77.7952 288.185C74.6805 289.52 71.55 290.887 68.4305 292.298L69.667 295.032C72.7633 293.631 75.8746 292.272 78.9768 290.943L77.7952 288.185ZM60.999 295.765C57.9079 297.256 54.847 298.8 51.843 300.41L53.2598 303.054C56.2206 301.468 59.2431 299.942 62.3023 298.467L60.999 295.765ZM44.6724 304.453C41.6943 306.224 38.797 308.076 36.0098 310.02L37.7259 312.48C40.4466 310.583 43.2822 308.77 46.2063 307.031L44.6724 304.453ZM29.3922 314.994C26.68 317.2 24.1129 319.52 21.7255 321.969L23.8739 324.063C26.1721 321.705 28.6524 319.462 31.2849 317.322L29.3922 314.994ZM16.2515 328.242C14.1149 330.998 12.1997 333.905 10.5442 336.978L13.1855 338.401C14.757 335.483 16.5801 332.714 18.6225 330.08L16.2515 328.242ZM7.11727 344.608C6.52415 346.236 6.00014 347.906 5.54944 349.618L8.45066 350.382C8.87781 348.759 9.37427 347.177 9.9361 345.634L7.11727 344.608ZM5.54944 349.618C5.10403 351.311 4.68851 352.994 4.30245 354.667L7.22567 355.342C7.60478 353.698 8.01296 352.045 8.45066 350.382L5.54944 349.618ZM2.65206 362.745C2.03881 366.197 1.55284 369.603 1.19011 372.961L4.17275 373.283C4.52802 369.995 5.00426 366.656 5.60581 363.27L2.65206 362.745ZM0.540553 381.191C0.36758 384.696 0.33201 388.142 0.428866 391.524L3.42764 391.439C3.33305 388.135 3.36771 384.768 3.53691 381.339L0.540553 381.191ZM0.937627 399.78C1.27055 403.271 1.74922 406.686 2.36758 410.02L5.31729 409.473C4.71529 406.227 4.24875 402.899 3.92408 399.495L0.937627 399.78ZM4.17887 418.103C5.07306 421.489 6.11815 424.78 7.3069 427.97L10.1181 426.923C8.96419 423.826 7.94881 420.629 7.07944 417.337L4.17887 418.103ZM10.5222 435.623C12.0106 438.79 13.6502 441.841 15.4326 444.769L17.9951 443.209C16.2692 440.374 14.6804 437.418 13.2373 434.347L10.5222 435.623ZM20.0589 451.663C22.126 454.466 24.3366 457.132 26.6814 459.654L28.8786 457.611C26.6114 455.172 24.4732 452.594 22.4732 449.883L20.0589 451.663ZM32.614 465.475C35.1972 467.786 37.9095 469.943 40.741 471.941L42.4703 469.489C39.7331 467.558 37.1113 465.473 34.6141 463.239L32.614 465.475ZM47.7448 476.413C50.7309 478.133 53.8258 479.689 57.02 481.074L58.2138 478.322C55.123 476.981 52.1293 475.476 49.2418 473.814L47.7448 476.413ZM64.7752 484.037C68.028 485.118 71.3671 486.033 74.7837 486.774L75.4202 483.843C72.1073 483.123 68.8716 482.237 65.7214 481.19L64.7752 484.037ZM82.9599 488.197C86.3401 488.644 89.7846 488.927 93.2858 489.043L93.3845 486.044C89.9805 485.932 86.6342 485.657 83.3528 485.223L82.9599 488.197ZM101.568 489.003C104.958 488.861 108.393 488.565 111.867 488.109L111.477 485.135C108.09 485.579 104.743 485.867 101.443 486.006L101.568 489.003ZM120.028 486.758C123.348 486.095 126.698 485.288 130.072 484.334L129.255 481.447C125.956 482.38 122.682 483.169 119.44 483.816L120.028 486.758ZM137.948 481.851C141.14 480.741 144.349 479.499 147.572 478.123L146.393 475.364C143.233 476.714 140.088 477.93 136.963 479.017L137.948 481.851ZM155.069 474.686C156.611 473.93 158.155 473.144 159.701 472.326L158.299 469.674C156.78 470.478 155.263 471.25 153.749 471.992L155.069 474.686ZM159.701 472.326C161.335 471.462 162.902 470.572 164.405 469.659L162.848 467.095C161.396 467.977 159.881 468.837 158.299 469.674L159.701 472.326ZM171.548 464.798C174.55 462.509 177.243 460.11 179.67 457.621L177.523 455.527C175.197 457.911 172.615 460.213 169.729 462.412L171.548 464.798ZM185.333 451.068C187.579 448.13 189.538 445.108 191.276 442.032L188.664 440.556C186.987 443.524 185.104 446.429 182.95 449.246L185.333 451.068ZM195.159 434.332C196.647 431.03 197.952 427.697 199.148 424.369L196.324 423.354C195.147 426.63 193.872 429.887 192.424 433.099L195.159 434.332ZM201.89 416.28C203.002 412.85 204.047 409.508 205.141 406.181L202.292 405.244C201.2 408.563 200.13 411.981 199.036 415.355L201.89 416.28ZM207.92 398.223C209.171 394.905 210.526 391.7 212.079 388.64L209.404 387.283C207.788 390.466 206.39 393.777 205.113 397.165L207.92 398.223ZM216.291 381.509C217.264 380.099 218.306 378.734 219.428 377.418L217.145 375.471C215.953 376.87 214.85 378.316 213.822 379.805L216.291 381.509ZM219.428 377.418C220.551 376.1 221.711 374.804 222.906 373.53L220.719 371.477C219.491 372.785 218.299 374.117 217.145 375.471L219.428 377.418ZM228.844 367.655C231.394 365.31 234.064 363.064 236.84 360.93L235.011 358.551C232.166 360.738 229.428 363.041 226.813 365.447L228.844 367.655ZM243.64 356.066C246.537 354.142 249.524 352.338 252.585 350.665L251.147 348.032C248.009 349.746 244.949 351.596 241.98 353.567L243.64 356.066ZM260.056 346.916C263.226 345.463 266.457 344.153 269.735 342.996L268.737 340.167C265.372 341.354 262.057 342.699 258.806 344.189L260.056 346.916ZM277.708 340.517C281.076 339.609 284.478 338.869 287.899 338.308L287.413 335.347C283.89 335.925 280.39 336.687 276.927 337.62L277.708 340.517ZM296.173 337.309C299.64 337.042 303.113 336.968 306.574 337.099L306.688 334.101C303.108 333.966 299.52 334.043 295.943 334.318L296.173 337.309ZM314.859 337.814C318.28 338.279 321.678 338.958 325.037 339.863L325.817 336.966C322.331 336.027 318.808 335.324 315.264 334.841L314.859 337.814ZM332.93 342.44C334.536 343.061 336.13 343.737 337.71 344.471L338.974 341.751C337.333 340.988 335.678 340.286 334.01 339.642L332.93 342.44ZM337.71 344.471C339.307 345.214 340.807 345.985 342.215 346.782L343.693 344.172C342.212 343.333 340.64 342.525 338.974 341.751L337.71 344.471ZM348.832 351.239C351.628 353.492 353.862 355.88 355.606 358.354L358.058 356.626C356.141 353.906 353.71 351.317 350.714 348.903L348.832 351.239ZM359.188 365.253C360.288 368.374 360.783 371.591 360.764 374.834L363.764 374.852C363.785 371.288 363.241 367.726 362.018 364.256L359.188 365.253ZM359.777 382.633C359.013 385.787 357.831 388.909 356.314 391.928L358.995 393.275C360.603 390.076 361.87 386.739 362.693 383.339L359.777 382.633ZM352.186 398.778C350.249 401.516 348.064 404.09 345.719 406.431L347.838 408.555C350.301 406.096 352.597 403.391 354.635 400.51L352.186 398.778ZM339.668 411.685C336.882 413.773 334.003 415.506 331.144 416.804L332.384 419.536C335.463 418.138 338.529 416.288 341.467 414.086L339.668 411.685ZM323.687 419.171C320.281 419.751 317.124 419.536 314.384 418.442L313.271 421.228C316.634 422.571 320.37 422.779 324.19 422.129L323.687 419.171ZM308.581 413.989C307.681 412.827 306.866 411.453 306.16 409.843L303.412 411.046C304.207 412.86 305.144 414.451 306.21 415.827L308.581 413.989ZM306.16 409.843C305.491 408.316 304.957 406.806 304.547 405.313L301.654 406.108C302.104 407.745 302.687 409.391 303.412 411.046L306.16 409.843ZM303.485 397.792C303.458 394.59 303.971 391.455 304.943 388.397L302.084 387.489C301.024 390.823 300.455 394.273 300.485 397.817L303.485 397.792ZM308.036 381.351C309.571 378.611 311.451 375.949 313.608 373.378L311.31 371.45C309.051 374.143 307.058 376.958 305.419 379.885L308.036 381.351ZM318.993 367.664C321.329 365.434 323.848 363.298 326.492 361.264L324.663 358.886C321.945 360.977 319.343 363.182 316.922 365.494L318.993 367.664ZM332.934 356.665C335.699 354.827 338.538 353.1 341.392 351.495L339.921 348.88C337.008 350.519 334.105 352.284 331.273 354.166L332.934 356.665ZM348.414 347.796C351.496 346.278 354.536 344.914 357.459 343.718L356.323 340.941C353.335 342.164 350.232 343.556 347.089 345.104L348.414 347.796ZM364.875 340.948C366.521 340.396 368.094 339.913 369.577 339.501L368.774 336.61C367.235 337.038 365.612 337.537 363.921 338.104L364.875 340.948ZM369.577 339.501C371.055 339.09 372.55 338.707 374.059 338.351L373.371 335.431C371.823 335.796 370.29 336.189 368.774 336.61L369.577 339.501ZM381.322 336.872C384.348 336.351 387.415 335.94 390.508 335.644L390.222 332.657C387.055 332.961 383.913 333.382 380.813 333.915L381.322 336.872ZM397.905 335.159C400.987 335.05 404.08 335.057 407.168 335.186L407.292 332.188C404.127 332.057 400.957 332.049 397.799 332.161L397.905 335.159ZM414.555 335.728C417.629 336.054 420.685 336.505 423.705 337.087L424.272 334.141C421.166 333.543 418.027 333.08 414.871 332.745L414.555 335.728ZM430.911 338.743C433.896 339.546 436.831 340.484 439.701 341.565L440.758 338.757C437.794 337.641 434.765 336.673 431.69 335.846L430.911 338.743ZM446.489 344.449C449.267 345.772 451.964 347.242 454.564 348.866L456.153 346.321C453.453 344.635 450.655 343.11 447.779 341.74L446.489 344.449ZM460.608 353.057C463.025 354.916 465.334 356.929 467.519 359.103L469.635 356.976C467.358 354.71 464.952 352.613 462.436 350.679L460.608 353.057ZM472.447 364.546C473.408 365.726 474.336 366.944 475.23 368.202L477.676 366.464C476.743 365.153 475.775 363.882 474.774 362.652L472.447 364.546ZM475.23 368.202C476.133 369.472 477.037 370.723 477.944 371.954L480.359 370.174C479.463 368.958 478.569 367.721 477.676 366.464L475.23 368.202ZM482.432 377.846C484.379 380.315 486.349 382.695 488.354 384.983L490.61 383.005C488.643 380.761 486.706 378.421 484.787 375.988L482.432 377.846ZM493.387 390.448C495.573 392.701 497.808 394.849 500.108 396.888L502.098 394.644C499.859 392.658 497.678 390.562 495.54 388.359L493.387 390.448ZM505.855 401.646C508.321 403.547 510.866 405.331 513.505 406.994L515.105 404.456C512.549 402.845 510.081 401.116 507.686 399.27L505.855 401.646ZM519.979 410.728C522.7 412.157 525.519 413.469 528.45 414.66L529.579 411.881C526.739 410.726 524.008 409.456 521.374 408.072L519.979 410.728ZM535.468 417.21C538.355 418.14 541.347 418.965 544.454 419.681L545.128 416.758C542.102 416.06 539.192 415.258 536.388 414.354L535.468 417.21ZM551.76 421.131C553.27 421.384 554.805 421.614 556.367 421.82L556.761 418.846C555.232 418.644 553.731 418.419 552.256 418.172L551.76 421.131ZM556.367 421.82C558.065 422.045 559.772 422.173 561.487 422.211L561.552 419.211C559.944 419.176 558.346 419.056 556.761 418.846L556.367 421.82ZM569.656 421.735C572.97 421.289 576.289 420.546 579.592 419.551L578.727 416.679C575.56 417.632 572.396 418.339 569.255 418.762L569.656 421.735ZM587.219 416.809C590.285 415.533 593.325 414.063 596.321 412.434L594.888 409.798C591.974 411.383 589.028 412.807 586.067 414.039L587.219 416.809ZM603.262 408.335C606.076 406.543 608.839 404.627 611.534 402.617L609.74 400.212C607.1 402.182 604.398 404.055 601.651 405.805L603.262 408.335ZM617.846 397.644C620.438 395.491 622.952 393.266 625.37 391L623.318 388.811C620.942 391.038 618.474 393.223 615.929 395.336L617.846 397.644ZM631.096 385.378C633.486 382.922 635.754 380.447 637.883 377.986L635.614 376.023C633.524 378.439 631.295 380.872 628.946 383.286L631.096 385.378ZM642.988 371.778C644.043 370.425 645.049 369.086 646.002 367.768L643.571 366.01C642.639 367.298 641.655 368.608 640.622 369.934L642.988 371.778ZM646.002 367.768C646.92 366.498 647.791 365.174 648.615 363.801L646.043 362.257C645.261 363.56 644.437 364.813 643.571 366.01L646.002 367.768ZM652.115 357.072C653.381 354.246 654.48 351.281 655.405 348.22L652.533 347.352C651.643 350.298 650.589 353.142 649.377 355.845L652.115 357.072ZM657.248 340.909C657.872 337.854 658.332 334.737 658.625 331.593L655.638 331.315C655.355 334.352 654.91 337.362 654.308 340.309L657.248 340.909ZM659 324.068C659.021 320.921 658.871 317.773 658.543 314.658L655.56 314.972C655.875 317.972 656.02 321.009 656 324.048L659 324.068ZM657.399 307.198C656.766 304.082 655.939 301.029 654.913 298.078L652.079 299.064C653.059 301.881 653.851 304.804 654.46 307.796L657.399 307.198ZM651.998 291.078C650.586 288.208 648.95 285.479 647.081 282.937L644.664 284.714C646.421 287.103 647.966 289.679 649.306 292.402L651.998 291.078ZM642.085 277.158C640.949 276.043 639.753 274.985 638.495 273.99L636.634 276.343C637.806 277.27 638.922 278.257 639.983 279.299L642.085 277.158ZM638.495 273.99C637.193 272.961 635.916 272.083 634.668 271.345L633.142 273.928C634.264 274.591 635.43 275.391 636.634 276.343L638.495 273.99ZM627.599 268.546C623.757 267.815 620.398 268.574 617.928 270.466L619.752 272.848C621.444 271.552 623.903 270.897 627.039 271.493L627.599 268.546ZM613.938 277.482C613.507 280.435 614.118 283.744 615.88 286.981L618.515 285.547C617.022 282.804 616.581 280.145 616.906 277.915L613.938 277.482ZM620.601 292.91C621.689 293.912 622.914 294.88 624.282 295.8L625.957 293.311C624.708 292.471 623.603 291.597 622.633 290.703L620.601 292.91ZM624.282 295.8C626.177 297.074 628.066 297.884 629.939 298.275L630.552 295.338C629.103 295.036 627.57 294.396 625.957 293.311L624.282 295.8ZM639.65 296.633C642.972 294.817 645.91 291.906 648.414 288.757L646.065 286.89C643.684 289.886 641.038 292.455 638.211 294.001L639.65 296.633ZM653.579 281.131C654.633 279.344 655.557 277.636 656.339 276.138L653.679 274.751C652.913 276.219 652.014 277.879 650.995 279.607L653.579 281.131ZM656.339 276.138C657.135 274.612 657.903 273.081 658.641 271.544L655.936 270.245C655.213 271.751 654.46 273.253 653.679 274.751L656.339 276.138ZM661.987 264.027C663.302 260.813 664.474 257.581 665.485 254.339L662.62 253.447C661.638 256.6 660.495 259.75 659.21 262.891L661.987 264.027ZM667.628 246.363C668.393 242.965 668.964 239.56 669.32 236.158L666.336 235.845C665.993 239.124 665.442 242.413 664.701 245.704L667.628 246.363ZM669.749 227.874C669.741 224.409 669.491 220.954 668.974 217.517L666.008 217.963C666.501 221.248 666.742 224.557 666.749 227.881L669.749 227.874ZM667.234 209.381C666.316 206.098 665.135 202.841 663.671 199.62L660.939 200.861C662.34 203.942 663.469 207.054 664.345 210.189L667.234 209.381ZM659.794 192.271C658.913 190.81 657.969 189.359 656.96 187.918L654.502 189.638C655.473 191.025 656.38 192.419 657.225 193.821L659.794 192.271ZM656.96 187.918C656.006 186.555 655.018 185.194 653.997 183.835L651.598 185.636C652.6 186.97 653.568 188.304 654.502 189.638L656.96 187.918ZM648.972 177.46C646.86 174.899 644.643 172.343 642.336 169.795L640.112 171.809C642.391 174.326 644.578 176.847 646.658 179.368L648.972 177.46ZM636.813 163.881C634.506 161.482 632.128 159.088 629.689 156.702L627.591 158.846C630.01 161.213 632.367 163.585 634.65 165.96L636.813 163.881ZM623.857 151.112C621.425 148.825 618.945 146.546 616.429 144.274L614.418 146.501C616.922 148.761 619.386 151.026 621.802 153.297L623.857 151.112ZM610.401 138.905C607.887 136.694 605.344 134.49 602.784 132.295L600.831 134.573C603.384 136.761 605.916 138.956 608.419 141.158L610.401 138.905ZM596.64 127.07C594.074 124.904 591.497 122.746 588.919 120.598L586.999 122.903C589.573 125.048 592.145 127.201 594.705 129.363L596.64 127.07ZM582.724 115.452C580.131 113.303 577.542 111.163 574.971 109.035L573.058 111.346C575.631 113.476 578.218 115.614 580.81 117.762L582.724 115.452ZM568.78 103.903C566.181 101.743 563.606 99.5951 561.066 97.4595L559.136 99.7557C561.681 101.896 564.26 104.048 566.863 106.21L568.78 103.903ZM554.925 92.258C552.346 90.0549 549.813 87.8663 547.339 85.693L545.359 87.9468C547.846 90.1309 550.389 92.3287 552.977 94.5392L554.925 92.258ZM541.34 80.3435C538.814 78.0531 536.365 75.7814 534.008 73.5294L531.935 75.6984C534.314 77.9712 536.782 80.2609 539.326 82.5663L541.34 80.3435ZM528.298 67.9234C525.868 65.4659 523.566 63.035 521.411 60.6319L519.178 62.6347C521.37 65.0792 523.706 67.5458 526.165 70.0327L528.298 67.9234ZM516.241 54.5592C514.07 51.8577 512.116 49.1986 510.406 46.5837L507.895 48.226C509.668 50.9355 511.681 53.6738 513.902 56.4383L516.241 54.5592ZM506.461 39.7615C504.916 36.6561 503.778 33.6345 503.084 30.6978L500.165 31.3879C500.921 34.588 502.148 37.8267 503.775 41.0975L506.461 39.7615ZM502.309 23.1073C502.442 19.9968 503.167 16.9664 504.562 14.0094L501.849 12.7296C500.282 16.051 499.461 19.4735 499.312 22.9795L502.309 23.1073ZM508.739 7.62267C509.741 6.44037 510.871 5.26714 512.135 4.1039L510.104 1.8961C508.756 3.13682 507.539 4.39896 506.45 5.68268L508.739 7.62267Z" fill="#E4E4E4"/>
</svg>
