<svg width="347" height="227" viewBox="0 0 347 227" fill="none" xmlns="http://www.w3.org/2000/svg">
<path d="M231.59 1.39928C230.919 0.521271 229.664 0.352806 228.786 1.02301C227.908 1.69321 227.74 2.94828 228.41 3.82629L231.59 1.39928ZM345.091 225.611C346.195 225.56 347.048 224.625 346.998 223.522L346.176 205.54C346.126 204.437 345.191 203.583 344.087 203.634C342.984 203.684 342.13 204.619 342.181 205.723L342.911 221.706L326.927 222.436C325.824 222.487 324.97 223.422 325.021 224.526C325.071 225.629 326.007 226.483 327.11 226.432L345.091 225.611ZM231.442 7.88485C232.094 8.77669 233.345 8.97138 234.237 8.3197C235.129 7.66802 235.323 6.41675 234.672 5.5249L231.442 7.88485ZM239.345 12.1603C238.725 11.246 237.482 11.0072 236.567 11.6269C235.653 12.2467 235.414 13.4903 236.034 14.4046L239.345 12.1603ZM241.43 22.7879C242.005 23.7311 243.235 24.0298 244.179 23.4549C245.122 22.8801 245.42 21.6494 244.845 20.7062L241.43 22.7879ZM248.934 27.7364C248.399 26.7701 247.181 26.4204 246.215 26.9555C245.249 27.4905 244.899 28.7076 245.434 29.6739L248.934 27.7364ZM250.011 38.501C250.492 39.4953 251.689 39.9114 252.683 39.4303C253.677 38.9492 254.093 37.7531 253.612 36.7588L250.011 38.501ZM256.99 44.1607C256.554 43.1457 255.378 42.676 254.363 43.1117C253.348 43.5474 252.878 44.7234 253.314 45.7385L256.99 44.1607ZM256.981 54.989C257.36 56.0266 258.508 56.5609 259.545 56.1823C260.583 55.8038 261.117 54.6557 260.739 53.618L256.981 54.989ZM263.368 61.324C263.032 60.2715 261.907 59.6901 260.855 60.0253C259.803 60.3605 259.221 61.4855 259.556 62.5379L263.368 61.324ZM262.362 72.1029C262.65 73.1692 263.748 73.7999 264.815 73.5117C265.881 73.2234 266.512 72.1253 266.223 71.059L262.362 72.1029ZM268.228 78.9136C267.968 77.84 266.887 77.18 265.814 77.4395C264.74 77.699 264.08 78.7797 264.34 79.8533L268.228 78.9136ZM266.586 89.6296C266.824 90.7082 267.892 91.3894 268.971 91.1512C270.049 90.9129 270.73 89.8454 270.492 88.7668L266.586 89.6296ZM272.21 96.6397C271.975 95.5604 270.91 94.8758 269.83 95.1105C268.751 95.3453 268.067 96.4106 268.301 97.4899L272.21 96.6397ZM270.492 107.339C270.74 108.415 271.813 109.087 272.89 108.839C273.966 108.591 274.638 107.517 274.39 106.441L270.492 107.339ZM276.269 114.228C275.997 113.158 274.908 112.511 273.838 112.782C272.767 113.054 272.12 114.143 272.392 115.213L276.269 114.228ZM275.08 124.991C275.396 126.05 276.51 126.652 277.568 126.336C278.627 126.021 279.229 124.907 278.913 123.848L275.08 124.991ZM281.343 131.437C280.984 130.393 279.846 129.837 278.802 130.195C277.757 130.554 277.201 131.692 277.56 132.737L281.343 131.437ZM281.145 142.284C281.564 143.306 282.731 143.796 283.754 143.378C284.776 142.959 285.266 141.791 284.847 140.769L281.145 142.284ZM288.031 148.048C287.564 147.047 286.374 146.614 285.373 147.081C284.372 147.548 283.939 148.738 284.406 149.739L288.031 148.048ZM288.976 158.818C289.502 159.79 290.716 160.151 291.687 159.625C292.659 159.1 293.02 157.886 292.495 156.915L288.976 158.818ZM296.441 163.825C295.872 162.878 294.643 162.572 293.697 163.142C292.75 163.711 292.444 164.94 293.014 165.887L296.441 163.825ZM298.493 174.463C299.112 175.378 300.356 175.618 301.27 174.999C302.185 174.381 302.425 173.137 301.807 172.222L298.493 174.463ZM306.398 178.73C305.744 177.84 304.492 177.648 303.602 178.302C302.712 178.956 302.52 180.208 303.174 181.098L306.398 178.73ZM309.367 189.145C310.06 190.006 311.319 190.142 312.179 189.45C313.04 188.757 313.176 187.498 312.484 186.638L309.367 189.145ZM317.585 192.774C316.866 191.936 315.604 191.839 314.765 192.559C313.927 193.278 313.83 194.541 314.55 195.379L317.585 192.774ZM321.288 202.952C322.037 203.764 323.302 203.816 324.115 203.067C324.927 202.319 324.979 201.053 324.23 200.241L321.288 202.952ZM329.763 206.092C328.994 205.299 327.728 205.279 326.935 206.048C326.142 206.817 326.123 208.084 326.892 208.876L329.763 206.092ZM334.065 216.06C334.856 216.83 336.123 216.813 336.893 216.022C337.664 215.231 337.647 213.964 336.856 213.194L334.065 216.06ZM342.593 218.666C341.786 217.912 340.52 217.955 339.766 218.761C339.011 219.568 339.054 220.834 339.861 221.588L342.593 218.666ZM228.41 3.82629C229.451 5.19035 230.462 6.54307 231.442 7.88485L234.672 5.5249C233.675 4.16033 232.648 2.78526 231.59 1.39928L228.41 3.82629ZM236.034 14.4046C237.96 17.246 239.755 20.0391 241.43 22.7879L244.845 20.7062C243.136 17.9016 241.307 15.0543 239.345 12.1603L236.034 14.4046ZM245.434 29.6739C247.09 32.6644 248.61 35.6048 250.011 38.501L253.612 36.7588C252.179 33.797 250.625 30.7915 248.934 27.7364L245.434 29.6739ZM253.314 45.7385C254.656 48.866 255.871 51.9469 256.981 54.989L260.739 53.618C259.605 50.5096 258.363 47.3597 256.99 44.1607L253.314 45.7385ZM259.556 62.5379C260.582 65.7587 261.508 68.9434 262.362 72.1029L266.223 71.059C265.356 67.8503 264.414 64.6082 263.368 61.324L259.556 62.5379ZM264.34 79.8533C265.131 83.1267 265.869 86.3805 266.586 89.6296L270.492 88.7668C269.771 85.5043 269.027 82.2224 268.228 78.9136L264.34 79.8533ZM268.301 97.4899C269.014 100.765 269.733 104.046 270.492 107.339L274.39 106.441C273.637 103.174 272.922 99.9127 272.21 96.6397L268.301 97.4899ZM272.392 115.213C273.214 118.448 274.099 121.704 275.08 124.991L278.913 123.848C277.951 120.622 277.079 117.419 276.269 114.228L272.392 115.213ZM277.56 132.737C278.64 135.882 279.827 139.062 281.145 142.284L284.847 140.769C283.56 137.623 282.4 134.515 281.343 131.437L277.56 132.737ZM284.406 149.739C285.799 152.724 287.315 155.748 288.976 158.818L292.495 156.915C290.872 153.915 289.391 150.962 288.031 148.048L284.406 149.739ZM293.014 165.887C294.708 168.704 296.53 171.561 298.493 174.463L301.807 172.222C299.883 169.378 298.099 166.581 296.441 163.825L293.014 165.887ZM303.174 181.098C305.116 183.741 307.177 186.423 309.367 189.145L312.484 186.638C310.329 183.96 308.304 181.325 306.398 178.73L303.174 181.098ZM314.55 195.379C316.685 197.867 318.929 200.391 321.288 202.952L324.23 200.241C321.901 197.714 319.689 195.226 317.585 192.774L314.55 195.379ZM326.892 208.876C329.183 211.238 331.572 213.632 334.065 216.06L336.856 213.194C334.389 210.792 332.027 208.425 329.763 206.092L326.892 208.876ZM339.861 221.588C341.101 222.748 342.364 223.915 343.652 225.09L346.348 222.136C345.072 220.971 343.821 219.815 342.593 218.666L339.861 221.588Z" fill="#E4E4E4"/>
<path d="M12.4478 169.874C13.1443 170.731 14.4039 170.862 15.2612 170.165L29.2311 158.814C30.0883 158.118 30.2186 156.858 29.5221 156.001C28.8255 155.143 27.5659 155.013 26.7086 155.71L14.291 165.799L4.20129 153.382C3.50474 152.524 2.24514 152.394 1.38787 153.091C0.530618 153.787 0.400338 155.047 1.09689 155.904L12.4478 169.874ZM227.995 4.10928C242.98 23.984 250.872 39.5411 253.408 51.7618C255.918 63.8505 253.189 72.6176 246.857 79.2867C240.399 86.0882 230 90.9142 216.774 94.5091C203.589 98.0931 187.864 100.385 171.001 102.302C137.414 106.121 99.255 108.439 68.9047 116.721C38.579 124.996 14.9987 139.517 12.0106 168.407L15.9894 168.819C18.7051 142.562 39.9767 128.761 69.9577 120.58C99.9142 112.406 137.516 110.135 171.453 106.277C188.351 104.356 204.328 102.037 217.824 98.3691C231.278 94.7119 242.539 89.6442 249.758 82.0409C257.102 74.3053 260.067 64.1566 257.325 50.9488C254.611 37.8732 246.307 21.7534 231.189 1.70126L227.995 4.10928Z" fill="#242938"/>
</svg>
