<svg width="1061" height="1118" viewBox="0 0 1061 1118" fill="none" xmlns="http://www.w3.org/2000/svg">
<path d="M554.946 441.277L556.313 439.817L554.946 441.277ZM566.446 476.527L565.196 474.965L566.446 476.527ZM562.446 409.527L561.685 407.677L562.446 409.527ZM735.474 373.287C735.294 372.197 734.264 371.46 733.174 371.64L715.415 374.575C714.326 374.755 713.588 375.785 713.768 376.874C713.948 377.964 714.978 378.702 716.068 378.522L731.853 375.912L734.463 391.698C734.643 392.788 735.672 393.525 736.762 393.345C737.852 393.165 738.589 392.136 738.409 391.046L735.474 373.287ZM480.622 300.321C480.37 302.107 480.133 303.852 479.911 305.558L483.878 306.073C484.097 304.383 484.332 302.653 484.583 300.881L480.622 300.321ZM478.92 313.901C478.529 317.578 478.225 321.068 478.015 324.391L482.007 324.644C482.213 321.386 482.511 317.954 482.897 314.324L478.92 313.901ZM477.68 332.88C477.633 336.617 477.734 340.142 477.997 343.494L481.985 343.182C481.732 339.966 481.634 336.565 481.68 332.931L477.68 332.88ZM479.077 351.988C479.734 355.626 480.631 359.072 481.786 362.398L485.564 361.085C484.481 357.965 483.635 354.721 483.013 351.277L479.077 351.988ZM485.137 370.332C486.7 373.455 488.52 376.504 490.61 379.548L493.907 377.284C491.91 374.374 490.186 371.484 488.714 368.542L485.137 370.332ZM495.727 386.363C497.843 388.97 500.161 391.612 502.686 394.331L505.617 391.609C503.14 388.942 500.882 386.367 498.832 383.842L495.727 386.363ZM508.546 400.42C510.898 402.789 513.399 405.236 516.055 407.782L518.823 404.895C516.185 402.365 513.708 399.943 511.385 397.602L508.546 400.42ZM522.122 413.532C524.565 415.824 527.122 418.201 529.797 420.679L532.515 417.745C529.844 415.27 527.293 412.898 524.859 410.615L522.122 413.532ZM535.955 426.374C538.412 428.644 540.959 430.997 543.598 433.443L546.317 430.509C543.675 428.061 541.127 425.706 538.67 423.436L535.955 426.374ZM549.721 439.133C550.987 440.313 552.273 441.514 553.579 442.737L556.313 439.817C555.005 438.592 553.717 437.389 552.449 436.207L549.721 439.133ZM553.579 442.737C554.636 443.727 555.899 445.081 557.237 446.699L560.32 444.151C558.901 442.434 557.522 440.95 556.313 439.817L553.579 442.737ZM562.349 453.823C564.317 457.002 565.996 460.373 566.97 463.552L570.794 462.38C569.687 458.768 567.829 455.077 565.75 451.718L562.349 453.823ZM567.557 471.354C567.178 472.762 566.433 473.976 565.196 474.965L567.695 478.089C569.631 476.541 570.83 474.582 571.419 472.395L567.557 471.354ZM565.196 474.965C563.973 475.944 562.793 476.69 561.664 477.237L563.407 480.837C564.837 480.145 566.268 479.23 567.695 478.089L565.196 474.965ZM555.625 478.396C553.212 478.111 550.901 476.873 548.795 474.753L545.957 477.572C548.542 480.175 551.646 481.954 555.155 482.369L555.625 478.396ZM544.855 469.244C543.585 466.845 542.534 464.076 541.759 461.057L537.884 462.051C538.727 465.337 539.885 468.406 541.32 471.116L544.855 469.244ZM540.524 454.07C540.23 451.186 540.178 448.199 540.4 445.196L536.411 444.902C536.172 448.142 536.227 451.363 536.545 454.476L540.524 454.07ZM541.432 438.178C542.075 435.308 542.993 432.495 544.208 429.812L540.564 428.161C539.228 431.112 538.227 434.187 537.529 437.303L541.432 438.178ZM547.668 423.717C549.313 421.368 551.255 419.193 553.518 417.255L550.917 414.216C548.387 416.382 546.22 418.811 544.391 421.423L547.668 423.717ZM559.248 413.279C560.495 412.586 561.813 411.95 563.206 411.377L561.685 407.677C560.149 408.309 558.689 409.013 557.304 409.783L559.248 413.279ZM563.206 411.377C564.688 410.768 566.227 410.249 567.821 409.811L566.763 405.954C565.023 406.431 563.329 407.001 561.685 407.677L563.206 411.377ZM575.583 408.341C578.755 407.972 582.087 407.826 585.565 407.851L585.594 403.851C581.99 403.825 578.489 403.976 575.12 404.368L575.583 408.341ZM593.649 408.172C596.934 408.395 600.312 408.719 603.775 409.103L604.216 405.127C600.717 404.739 597.278 404.409 593.92 404.182L593.649 408.172ZM611.889 410.074C615.191 410.49 618.661 410.943 622.07 411.371L622.568 407.402C619.1 406.967 615.776 406.532 612.389 406.105L611.889 410.074ZM630.241 412.348C633.635 412.728 637.064 413.071 640.516 413.344L640.833 409.357C637.434 409.087 634.049 408.749 630.686 408.373L630.241 412.348ZM648.782 413.851C652.231 413.993 655.695 414.043 659.162 413.968L659.076 409.969C655.704 410.042 652.324 409.994 648.947 409.854L648.782 413.851ZM667.481 413.533C670.94 413.24 674.394 412.796 677.833 412.171L677.117 408.236C673.815 408.836 670.487 409.264 667.143 409.548L667.481 413.533ZM686.006 410.318C689.344 409.402 692.656 408.288 695.933 406.945L694.416 403.244C691.297 404.522 688.138 405.585 684.948 406.46L686.006 410.318ZM703.547 403.361C706.562 401.748 709.533 399.915 712.454 397.838L710.135 394.579C707.354 396.557 704.527 398.3 701.661 399.834L703.547 403.361ZM719.056 392.638C721.605 390.424 724.106 388 726.551 385.35L723.612 382.637C721.263 385.182 718.868 387.503 716.433 389.618L719.056 392.638ZM731.963 378.992C733.03 377.637 734.084 376.232 735.126 374.778L731.875 372.448C730.867 373.855 729.848 375.211 728.819 376.519L731.963 378.992Z" fill="#E4E4E4"/>
<path d="M397 437L398.934 437.509L397 437ZM549 558L548.065 556.232L549 558ZM608.286 463.444L606.764 462.147L608.286 463.444ZM728.342 430.111L729.185 428.297L728.342 430.111ZM694.786 497.444L692.954 498.247L694.786 497.444ZM759.175 425.056L759.711 426.983L759.175 425.056ZM866.453 454.333L864.823 455.492L866.453 454.333ZM946.564 507.333L946.302 509.316L946.564 507.333ZM1034.79 453.889L1036.41 455.061L1034.79 453.889ZM1027.56 362.167L1028.8 360.598L1027.56 362.167ZM1015.12 381.556L1016.24 379.896L1015.12 381.556ZM1045.01 362.444L1046.78 363.37L1045.01 362.444ZM1045.73 275.778L1047.37 274.631L1045.73 275.778ZM903.118 90.0833C903.164 88.9796 902.307 88.0477 901.203 88.0017L883.219 87.2524C882.115 87.2064 881.183 88.0638 881.137 89.1674C881.091 90.271 881.948 91.2029 883.052 91.2489L899.038 91.915L898.372 107.901C898.326 109.005 899.184 109.937 900.287 109.983C901.391 110.029 902.323 109.171 902.369 108.068L903.118 90.0833ZM530.049 327.438C530.412 329.056 530.568 330.59 530.542 332.049L534.541 332.122C534.574 330.322 534.38 328.47 533.951 326.562L530.049 327.438ZM528.862 339.08C527.619 341.686 525.697 344.169 523.149 346.573L525.894 349.483C528.703 346.832 530.965 343.962 532.472 340.803L528.862 339.08ZM517.016 351.438C514.45 353.194 511.581 354.898 508.457 356.575L510.35 360.099C513.564 358.373 516.562 356.596 519.274 354.74L517.016 351.438ZM501.259 360.202C498.311 361.606 495.218 362.998 492.013 364.396L493.612 368.063C496.844 366.654 499.979 365.242 502.979 363.813L501.259 360.202ZM484.542 367.592C481.461 368.891 478.324 370.198 475.135 371.536L476.682 375.224C479.857 373.892 483.013 372.578 486.096 371.277L484.542 367.592ZM467.598 374.725C464.481 376.061 461.348 377.43 458.224 378.843L459.873 382.487C462.966 381.088 466.074 379.73 469.174 378.402L467.598 374.725ZM450.782 382.314C447.685 383.808 444.618 385.355 441.607 386.969L443.496 390.495C446.45 388.912 449.466 387.39 452.519 385.917L450.782 382.314ZM434.417 391.023C431.43 392.8 428.522 394.658 425.724 396.61L428.012 399.891C430.721 398.001 433.547 396.195 436.462 394.461L434.417 391.023ZM419.077 401.606C416.351 403.823 413.77 406.156 411.367 408.62L414.232 411.412C416.515 409.069 418.981 406.84 421.6 404.71L419.077 401.606ZM405.856 414.935C403.704 417.712 401.773 420.642 400.104 423.741L403.626 425.638C405.183 422.746 406.991 420.001 409.018 417.386L405.856 414.935ZM396.647 431.436C396.049 433.079 395.521 434.763 395.066 436.491L398.934 437.509C399.357 435.901 399.849 434.334 400.406 432.805L396.647 431.436ZM395.066 436.491C394.619 438.188 394.202 439.877 393.815 441.555L397.713 442.454C398.091 440.816 398.498 439.167 398.934 437.509L395.066 436.491ZM392.16 449.658C391.545 453.121 391.057 456.538 390.693 459.907L394.67 460.337C395.024 457.06 395.499 453.732 396.098 450.357L392.16 449.658ZM390.041 468.167C389.868 471.684 389.832 475.143 389.929 478.539L393.927 478.424C393.833 475.134 393.868 471.78 394.036 468.364L390.041 468.167ZM390.44 486.827C390.774 490.332 391.255 493.762 391.876 497.111L395.809 496.382C395.21 493.15 394.745 489.837 394.422 486.447L390.44 486.827ZM393.695 505.23C394.594 508.632 395.644 511.939 396.838 515.145L400.587 513.748C399.439 510.667 398.428 507.485 397.563 504.209L393.695 505.23ZM400.07 522.836C401.566 526.019 403.214 529.086 405.005 532.029L408.422 529.949C406.706 527.129 405.125 524.189 403.69 521.135L400.07 522.836ZM409.657 538.96C411.735 541.778 413.957 544.458 416.315 546.994L419.245 544.271C416.991 541.846 414.864 539.282 412.876 536.586L409.657 538.96ZM422.281 552.847C424.878 555.171 427.606 557.341 430.453 559.349L432.758 556.081C430.037 554.161 427.43 552.087 424.948 549.866L422.281 552.847ZM437.495 563.847C440.498 565.575 443.61 567.14 446.821 568.533L448.413 564.863C445.339 563.53 442.362 562.033 439.491 560.38L437.495 563.847ZM454.618 571.511C457.887 572.598 461.244 573.517 464.678 574.263L465.526 570.354C462.231 569.639 459.012 568.757 455.879 567.716L454.618 571.511ZM472.894 575.693C476.291 576.142 479.752 576.427 483.269 576.542L483.401 572.545C480.013 572.433 476.683 572.159 473.418 571.727L472.894 575.693ZM491.589 576.503C494.994 576.36 498.444 576.062 501.932 575.605L501.412 571.639C498.039 572.081 494.707 572.369 491.422 572.506L491.589 576.503ZM510.126 574.249C513.459 573.583 516.822 572.773 520.208 571.815L519.119 567.966C515.832 568.896 512.571 569.681 509.342 570.326L510.126 574.249ZM528.113 569.323C531.315 568.209 534.535 566.964 537.768 565.582L536.197 561.904C533.047 563.25 529.913 564.462 526.799 565.545L528.113 569.323ZM545.289 562.135C546.836 561.377 548.385 560.588 549.935 559.768L548.065 556.232C546.55 557.033 545.038 557.803 543.529 558.543L545.289 562.135ZM549.935 559.768C551.578 558.899 553.153 558.005 554.665 557.086L552.588 553.668C551.145 554.544 549.639 555.4 548.065 556.232L549.935 559.768ZM561.851 552.196C564.873 549.892 567.584 547.477 570.028 544.97L567.165 542.177C564.856 544.544 562.292 546.83 559.426 549.015L561.851 552.196ZM575.73 538.371C577.992 535.414 579.963 532.372 581.711 529.278L578.228 527.31C576.562 530.26 574.691 533.145 572.553 535.942L575.73 538.371ZM585.614 521.537C587.11 518.221 588.419 514.875 589.618 511.538L585.854 510.185C584.68 513.452 583.409 516.697 581.968 519.893L585.614 521.537ZM592.365 503.435C593.481 499.995 594.521 496.666 595.616 493.338L591.817 492.088C590.725 495.405 589.652 498.836 588.56 502.201L592.365 503.435ZM598.388 485.399C599.634 482.093 600.982 478.905 602.525 475.867L598.958 474.056C597.332 477.26 595.926 480.589 594.645 483.989L598.388 485.399ZM606.702 468.793C607.667 467.396 608.698 466.045 609.808 464.742L606.764 462.147C605.561 463.559 604.447 465.019 603.411 466.521L606.702 468.793ZM609.808 464.742C610.926 463.431 612.081 462.14 613.271 460.873L610.354 458.135C609.121 459.449 607.924 460.787 606.764 462.147L609.808 464.742ZM619.183 455.023C621.721 452.688 624.38 450.451 627.145 448.326L624.707 445.155C621.85 447.351 619.101 449.663 616.475 452.079L619.183 455.023ZM633.917 443.483C636.802 441.566 639.776 439.769 642.825 438.104L640.907 434.594C637.757 436.315 634.684 438.171 631.704 440.151L633.917 443.483ZM650.265 434.371C653.421 432.924 656.638 431.619 659.901 430.468L658.57 426.696C655.191 427.888 651.862 429.239 648.598 430.735L650.265 434.371ZM667.838 428C671.191 427.096 674.576 426.359 677.979 425.801L677.332 421.854C673.792 422.435 670.275 423.2 666.797 424.138L667.838 428ZM686.211 424.808C689.66 424.542 693.113 424.469 696.555 424.599L696.706 420.602C693.107 420.465 689.5 420.543 685.904 420.819L686.211 424.808ZM704.792 425.309C708.192 425.772 711.569 426.447 714.907 427.346L715.947 423.483C712.44 422.539 708.896 421.831 705.331 421.346L704.792 425.309ZM722.749 429.907C724.345 430.523 725.929 431.195 727.499 431.925L729.185 428.297C727.534 427.53 725.868 426.823 724.19 426.176L722.749 429.907ZM727.499 431.925C729.085 432.662 730.573 433.427 731.968 434.217L733.94 430.737C732.447 429.891 730.863 429.077 729.185 428.297L727.499 431.925ZM738.518 438.628C741.281 440.854 743.482 443.209 745.197 445.642L748.467 443.338C746.521 440.577 744.057 437.954 741.028 435.513L738.518 438.628ZM748.717 452.419C749.796 455.482 750.283 458.641 750.264 461.831L754.264 461.855C754.285 458.238 753.733 454.617 752.489 451.09L748.717 452.419ZM749.291 469.516C748.537 472.628 747.369 475.715 745.868 478.703L749.442 480.499C751.064 477.27 752.346 473.898 753.178 470.457L749.291 469.516ZM741.778 485.489C739.858 488.203 737.692 490.756 735.365 493.077L738.191 495.908C740.674 493.43 742.988 490.704 745.043 487.799L741.778 485.489ZM729.368 498.285C726.608 500.354 723.759 502.067 720.937 503.349L722.59 506.991C725.707 505.576 728.803 503.707 731.767 501.486L729.368 498.285ZM713.603 505.678C710.266 506.247 707.206 506.03 704.569 504.977L703.086 508.692C706.552 510.076 710.385 510.284 714.274 509.622L713.603 505.678ZM698.976 500.683C698.103 499.556 697.309 498.218 696.618 496.642L692.954 498.247C693.764 500.094 694.721 501.722 695.815 503.133L698.976 500.683ZM696.618 496.642C695.959 495.137 695.432 493.649 695.029 492.181L691.172 493.241C691.628 494.901 692.22 496.571 692.954 498.247L696.618 496.642ZM693.985 484.788C693.959 481.643 694.462 478.56 695.419 475.549L691.607 474.337C690.533 477.718 689.955 481.22 689.985 484.821L693.985 484.788ZM698.472 468.595C699.99 465.887 701.851 463.25 703.991 460.699L700.927 458.129C698.651 460.841 696.64 463.683 694.982 466.64L698.472 468.595ZM709.338 455.026C711.66 452.81 714.165 450.684 716.797 448.661L714.358 445.49C711.628 447.59 709.013 449.807 706.576 452.132L709.338 455.026ZM723.21 444.081C725.965 442.25 728.793 440.53 731.637 438.931L729.676 435.444C726.753 437.089 723.84 438.86 720.996 440.75L723.21 444.081ZM738.635 435.244C741.706 433.731 744.736 432.373 747.649 431.18L746.134 427.478C743.135 428.706 740.022 430.102 736.868 431.656L738.635 435.244ZM755.034 428.422C756.672 427.873 758.237 427.392 759.711 426.983L758.64 423.129C757.092 423.558 755.46 424.06 753.762 424.63L755.034 428.422ZM759.711 426.983C761.182 426.574 762.671 426.192 764.174 425.837L763.256 421.944C761.702 422.31 760.163 422.706 758.64 423.129L759.711 426.983ZM771.407 424.364C774.421 423.846 777.476 423.436 780.555 423.141L780.174 419.16C776.995 419.464 773.841 419.887 770.728 420.422L771.407 424.364ZM787.923 422.659C790.992 422.55 794.072 422.557 797.147 422.685L797.313 418.689C794.134 418.556 790.952 418.549 787.781 418.661L787.923 422.659ZM804.502 423.226C807.563 423.55 810.605 423.999 813.611 424.578L814.367 420.65C811.246 420.049 808.093 419.584 804.924 419.248L804.502 423.226ZM820.781 426.226C823.751 427.024 826.671 427.958 829.525 429.033L830.934 425.289C827.954 424.167 824.91 423.194 821.819 422.363L820.781 426.226ZM836.274 431.9C839.035 433.215 841.716 434.677 844.299 436.29L846.418 432.897C843.701 431.201 840.887 429.666 837.994 428.289L836.274 431.9ZM850.303 440.454C852.704 442.299 854.997 444.299 857.166 446.457L859.988 443.621C857.695 441.34 855.273 439.229 852.741 437.282L850.303 440.454ZM862.06 451.862C863.013 453.033 863.935 454.243 864.823 455.492L868.083 453.175C867.145 451.854 866.17 450.575 865.161 449.336L862.06 451.862ZM864.823 455.492C865.727 456.764 866.633 458.017 867.542 459.25L870.762 456.877C869.867 455.663 868.975 454.429 868.083 453.175L864.823 455.492ZM872.039 465.156C873.992 467.631 875.967 470.017 877.978 472.312L880.986 469.676C879.026 467.438 877.094 465.105 875.18 462.678L872.039 465.156ZM883.028 477.796C885.222 480.058 887.466 482.214 889.776 484.262L892.43 481.269C890.201 479.293 888.028 477.206 885.899 475.011L883.028 477.796ZM895.549 489.042C898.028 490.952 900.586 492.745 903.238 494.417L905.371 491.033C902.829 489.431 900.374 487.71 897.991 485.874L895.549 489.042ZM909.746 498.171C912.482 499.608 915.315 500.926 918.261 502.123L919.767 498.418C916.942 497.269 914.226 496.006 911.607 494.63L909.746 498.171ZM925.314 504.686C928.216 505.621 931.221 506.449 934.342 507.168L935.241 503.271C932.227 502.576 929.331 501.777 926.541 500.878L925.314 504.686ZM941.677 508.624C943.193 508.878 944.734 509.109 946.302 509.316L946.827 505.351C945.303 505.149 943.808 504.925 942.339 504.679L941.677 508.624ZM946.302 509.316C948.018 509.543 949.744 509.672 951.476 509.71L951.563 505.711C949.972 505.677 948.393 505.558 946.827 505.351L946.302 509.316ZM959.723 509.231C963.065 508.78 966.411 508.031 969.736 507.03L968.582 503.2C965.438 504.147 962.3 504.847 959.189 505.266L959.723 509.231ZM977.412 504.271C980.495 502.987 983.55 501.51 986.56 499.873L984.649 496.359C981.749 497.936 978.818 499.353 975.874 500.578L977.412 504.271ZM993.53 495.757C996.355 493.958 999.128 492.035 1001.83 490.018L999.442 486.811C996.81 488.774 994.118 490.641 991.382 492.383L993.53 495.757ZM1008.17 485.028C1010.77 482.869 1013.29 480.637 1015.71 478.364L1012.98 475.446C1010.61 477.667 1008.15 479.845 1005.61 481.951L1008.17 485.028ZM1021.45 472.727C1023.85 470.264 1026.13 467.781 1028.26 465.314L1025.24 462.696C1023.15 465.105 1020.93 467.531 1018.59 469.937L1021.45 472.727ZM1033.38 459.086C1034.44 457.728 1035.45 456.384 1036.41 455.061L1033.17 452.717C1032.24 454 1031.26 455.306 1030.23 456.626L1033.38 459.086ZM1036.41 455.061C1037.33 453.779 1038.21 452.443 1039.04 451.059L1035.61 449C1034.84 450.291 1034.02 451.532 1033.17 452.717L1036.41 455.061ZM1042.57 444.276C1043.85 441.43 1044.95 438.445 1045.88 435.365L1042.05 434.208C1041.17 437.134 1040.12 439.958 1038.92 442.64L1042.57 444.276ZM1047.74 428.009C1048.37 424.936 1048.83 421.801 1049.12 418.639L1045.14 418.268C1044.86 421.288 1044.42 424.28 1043.82 427.209L1047.74 428.009ZM1049.5 411.072C1049.52 407.906 1049.37 404.739 1049.04 401.606L1045.06 402.024C1045.38 405.006 1045.52 408.024 1045.5 411.045L1049.5 411.072ZM1047.89 394.098C1047.25 390.962 1046.42 387.887 1045.39 384.914L1041.61 386.228C1042.58 389.023 1043.37 391.924 1043.97 394.896L1047.89 394.098ZM1042.45 377.858C1041.02 374.962 1039.37 372.208 1037.48 369.641L1034.26 372.01C1036 374.374 1037.53 376.924 1038.86 379.623L1042.45 377.858ZM1032.44 363.802C1031.29 362.674 1030.08 361.604 1028.8 360.598L1026.32 363.736C1027.48 364.651 1028.58 365.626 1029.63 366.656L1032.44 363.802ZM1028.8 360.598C1027.49 359.556 1026.19 358.665 1024.92 357.915L1022.89 361.359C1023.99 362.009 1025.14 362.796 1026.32 363.736L1028.8 360.598ZM1017.69 355.054C1013.73 354.302 1010.22 355.078 1007.62 357.069L1010.06 360.245C1011.62 359.048 1013.93 358.41 1016.95 358.984L1017.69 355.054ZM1003.44 364.41C1003 367.483 1003.63 370.901 1005.44 374.22L1008.95 372.308C1007.51 369.648 1007.09 367.097 1007.4 364.987L1003.44 364.41ZM1010.26 380.278C1011.37 381.298 1012.61 382.281 1014 383.215L1016.24 379.896C1015.01 379.069 1013.92 378.211 1012.97 377.335L1010.26 380.278ZM1014 383.215C1015.94 384.521 1017.89 385.359 1019.84 385.764L1020.65 381.849C1019.28 381.561 1017.8 380.95 1016.24 379.896L1014 383.215ZM1029.89 384.072C1033.29 382.211 1036.28 379.242 1038.8 376.068L1035.67 373.579C1033.31 376.549 1030.72 379.062 1027.97 380.562L1029.89 384.072ZM1044.01 368.385C1045.07 366.589 1046 364.873 1046.78 363.37L1043.24 361.519C1042.47 362.983 1041.58 364.635 1040.56 366.353L1044.01 368.385ZM1046.78 363.37C1047.58 361.839 1048.35 360.302 1049.09 358.76L1045.49 357.029C1044.77 358.529 1044.01 360.026 1043.24 361.519L1046.78 363.37ZM1052.45 351.216C1053.77 347.99 1054.95 344.745 1055.96 341.488L1052.14 340.298C1051.17 343.437 1050.03 346.573 1048.75 349.701L1052.45 351.216ZM1058.12 333.473C1058.88 330.057 1059.46 326.633 1059.82 323.21L1055.84 322.793C1055.5 326.051 1054.95 329.321 1054.21 332.595L1058.12 333.473ZM1060.25 314.872C1060.24 311.385 1059.99 307.905 1059.47 304.443L1055.51 305.037C1056 308.297 1056.24 311.581 1056.25 314.882L1060.25 314.872ZM1057.72 296.246C1056.79 292.938 1055.6 289.658 1054.13 286.413L1050.48 288.068C1051.87 291.126 1052.99 294.213 1053.86 297.323L1057.72 296.246ZM1050.22 279.013C1049.34 277.542 1048.38 276.082 1047.37 274.631L1044.09 276.925C1045.06 278.302 1045.96 279.687 1046.8 281.079L1050.22 279.013ZM1047.37 274.631C1046.41 273.264 1045.42 271.898 1044.4 270.535L1041.2 272.936C1042.2 274.266 1043.16 275.596 1044.09 276.925L1047.37 274.631ZM1039.36 264.142C1037.24 261.574 1035.02 259.013 1032.71 256.459L1029.74 259.144C1032.02 261.657 1034.2 264.171 1036.27 266.687L1039.36 264.142ZM1027.17 250.534C1024.86 248.131 1022.48 245.734 1020.04 243.345L1017.24 246.204C1019.66 248.568 1022.01 250.935 1024.29 253.306L1027.17 250.534ZM1014.2 237.747C1011.76 235.459 1009.28 233.177 1006.76 230.903L1004.08 233.872C1006.58 236.13 1009.05 238.393 1011.46 240.662L1014.2 237.747ZM1000.73 225.529C998.215 223.317 995.671 221.112 993.109 218.916L990.506 221.952C993.057 224.139 995.588 226.333 998.089 228.533L1000.73 225.529ZM986.962 213.688C984.396 211.521 981.818 209.363 979.239 207.214L976.679 210.287C979.253 212.432 981.823 214.584 984.382 216.745L986.962 213.688ZM973.043 202.067C970.45 199.918 967.861 197.778 965.29 195.65L962.739 198.731C965.313 200.861 967.899 202.999 970.491 205.147L973.043 202.067ZM959.1 190.519C956.501 188.359 953.927 186.212 951.388 184.077L948.814 187.138C951.36 189.28 953.94 191.432 956.543 193.595L959.1 190.519ZM945.25 178.878C942.672 176.676 940.141 174.489 937.669 172.317L935.029 175.322C937.518 177.508 940.063 179.708 942.652 181.919L945.25 178.878ZM931.676 166.973C929.152 164.685 926.707 162.416 924.353 160.168L921.59 163.06C923.972 165.336 926.444 167.629 928.99 169.937L931.676 166.973ZM918.653 154.572C916.228 152.119 913.932 149.694 911.784 147.298L908.806 149.969C911.004 152.42 913.345 154.892 915.809 157.384L918.653 154.572ZM906.63 141.246C904.468 138.555 902.525 135.909 900.824 133.31L897.477 135.5C899.26 138.225 901.283 140.976 903.512 143.751L906.63 141.246ZM896.909 126.539C895.378 123.461 894.255 120.476 893.571 117.583L889.678 118.503C890.445 121.747 891.687 125.022 893.327 128.32L896.909 126.539ZM892.809 110.129C892.938 107.084 893.648 104.119 895.014 101.223L891.396 99.5162C889.801 102.898 888.964 106.386 888.812 109.958L892.809 110.129ZM899.12 94.946C900.108 93.7806 901.223 92.6222 902.474 91.4719L899.766 88.5281C898.403 89.7818 897.172 91.0587 896.069 92.3594L899.12 94.946Z" fill="#E4E4E4"/>
<path d="M509.758 315.954C510.285 314.983 509.924 313.769 508.954 313.242C507.983 312.715 506.769 313.076 506.242 314.047L509.758 315.954ZM265.444 342L264.33 343.661L265.444 342ZM182 208L180.877 209.655L182 208ZM182 160L183.643 161.14L182 160ZM9.21114 56.8945C9.70512 57.8825 10.9065 58.2829 11.8944 57.789L27.9941 49.7391C28.9821 49.2452 29.3825 48.0438 28.8886 47.0559C28.3946 46.0679 27.1932 45.6675 26.2053 46.1614L11.8944 53.3168L4.73905 39.006C4.24508 38.018 3.04373 37.6176 2.05577 38.1115C1.06781 38.6055 0.667362 39.8069 1.16134 40.7948L9.21114 56.8945ZM14.6412 51.8564C15.0499 50.8302 14.5494 49.667 13.5232 49.2583C12.497 48.8496 11.3338 49.3501 10.9251 50.3763L14.6412 51.8564ZM14.3691 42.801C13.8632 43.7829 14.249 44.989 15.2309 45.4949C16.2128 46.0008 17.4189 45.6149 17.9248 44.633L14.3691 42.801ZM23.0399 36.1205C23.6712 35.2141 23.4481 33.9676 22.5416 33.3363C21.6352 32.7051 20.3887 32.9282 19.7574 33.8347L23.0399 36.1205ZM24.9138 27.2474C24.1848 28.0773 24.2667 29.341 25.0965 30.0699C25.9264 30.7989 27.1901 30.717 27.9191 29.8872L24.9138 27.2474ZM34.989 22.9246C35.8301 22.2087 35.9316 20.9464 35.2157 20.1053C34.4997 19.2641 33.2375 19.1626 32.3963 19.8786L34.989 22.9246ZM39.0946 14.8137C38.1768 15.4283 37.9311 16.6706 38.5457 17.5884C39.1603 18.5061 40.4026 18.7519 41.3203 18.1373L39.0946 14.8137ZM49.9364 13.201C50.9301 12.7188 51.3447 11.5223 50.8625 10.5285C50.3802 9.53481 49.1837 9.12017 48.19 9.60243L49.9364 13.201ZM55.9067 6.34604C54.8683 6.72263 54.3318 7.86969 54.7083 8.90808C55.0849 9.94648 56.232 10.483 57.2704 10.1064L55.9067 6.34604ZM66.8345 7.28469C67.9105 7.03529 68.5807 5.9608 68.3312 4.88476C68.0818 3.80871 67.0074 3.13859 65.9313 3.38799L66.8345 7.28469ZM74.1295 1.86988C73.0357 2.02351 72.2735 3.03478 72.4271 4.12861C72.5807 5.22245 73.592 5.98463 74.6858 5.831L74.1295 1.86988ZM84.6566 4.95163C85.7604 4.90971 86.6212 3.98095 86.5793 2.87717C86.5373 1.7734 85.6086 0.912592 84.5048 0.954508L84.6566 4.95163ZM92.8178 0.954545C91.714 0.913494 90.7859 1.77503 90.7449 2.87883C90.7038 3.98264 91.5653 4.91073 92.6692 4.95178L92.8178 0.954545ZM102.673 5.77044C103.769 5.90829 104.769 5.1316 104.907 4.03567C105.045 2.93973 104.268 1.93956 103.172 1.80171L102.673 5.77044ZM111.37 3.11339C110.286 2.90291 109.236 3.61131 109.026 4.69564C108.815 5.77997 109.524 6.82962 110.608 7.0401L111.37 3.11339ZM120.393 9.35184C121.457 9.64835 122.56 9.02616 122.857 7.96213C123.153 6.89811 122.531 5.79517 121.467 5.49866L120.393 9.35184ZM129.387 7.97544C128.344 7.6131 127.204 8.16524 126.842 9.20869C126.479 10.2521 127.032 11.3918 128.075 11.7541L129.387 7.97544ZM137.444 15.4193C138.456 15.8611 139.635 15.3987 140.077 14.3864C140.519 13.374 140.056 12.1952 139.044 11.7533L137.444 15.4193ZM146.54 15.3063C145.557 14.8024 144.352 15.1906 143.848 16.1736C143.344 17.1565 143.732 18.3618 144.715 18.8658L146.54 15.3063ZM153.473 23.8023C154.413 24.3826 155.646 24.0912 156.226 23.1513C156.806 22.2115 156.515 20.9791 155.575 20.3988L153.473 23.8023ZM162.491 24.9874C161.591 24.3466 160.342 24.5566 159.701 25.4563C159.061 26.356 159.271 27.6048 160.17 28.2456L162.491 24.9874ZM168.092 34.4122C168.934 35.128 170.196 35.0261 170.912 34.1848C171.627 33.3435 171.525 32.0813 170.684 31.3656L168.092 34.4122ZM176.823 36.9831C176.036 36.2079 174.77 36.2175 173.995 37.0044C173.22 37.7913 173.229 39.0576 174.016 39.8328L176.823 36.9831ZM180.806 47.1953C181.514 48.0431 182.776 48.1565 183.623 47.4485C184.471 46.7405 184.585 45.4793 183.877 44.6315L180.806 47.1953ZM188.952 51.2454C188.317 50.3416 187.07 50.1237 186.166 50.7587C185.262 51.3937 185.044 52.6411 185.679 53.5449L188.952 51.2454ZM190.961 62.0166C191.491 62.9853 192.707 63.3405 193.675 62.8098C194.644 62.2792 194.999 61.0637 194.469 60.0949L190.961 62.0166ZM198.133 67.6005C197.697 66.586 196.52 66.1176 195.505 66.5543C194.491 66.991 194.022 68.1675 194.459 69.1821L198.133 67.6005ZM197.825 78.5479C198.132 79.6087 199.242 80.2191 200.303 79.9112C201.364 79.6033 201.974 78.4937 201.666 77.4329L197.825 78.5479ZM203.586 85.5756C203.388 84.4889 202.346 83.7687 201.26 83.9669C200.173 84.1651 199.453 85.2067 199.651 86.2933L203.586 85.5756ZM200.804 96.1674C200.862 97.2704 201.803 98.1178 202.906 98.0599C204.009 98.0021 204.857 97.061 204.799 95.9579L200.804 96.1674ZM204.815 104.346C204.868 103.242 204.016 102.305 202.913 102.252C201.81 102.199 200.872 103.05 200.819 104.153L204.815 104.346ZM199.738 114.076C199.553 115.165 200.287 116.197 201.376 116.381C202.465 116.566 203.497 115.832 203.682 114.743L199.738 114.076ZM201.932 122.856C202.212 121.787 201.573 120.694 200.504 120.415C199.435 120.135 198.342 120.774 198.063 121.843L201.932 122.856ZM195.042 131.348C194.655 132.383 195.181 133.535 196.215 133.921C197.25 134.308 198.402 133.782 198.789 132.748L195.042 131.348ZM195.589 140.427C196.05 139.423 195.611 138.236 194.607 137.774C193.604 137.313 192.416 137.752 191.955 138.756L195.589 140.427ZM187.344 147.757C186.801 148.719 187.14 149.939 188.102 150.482C189.064 151.025 190.284 150.685 190.827 149.724L187.344 147.757ZM186.595 156.728C187.193 155.799 186.925 154.562 185.996 153.964C185.067 153.366 183.83 153.634 183.232 154.563L186.595 156.728ZM177.288 163.124C176.627 164.009 176.808 165.263 177.693 165.924C178.578 166.585 179.832 166.403 180.493 165.518L177.288 163.124ZM175.23 172.132C175.945 171.291 175.843 170.029 175.002 169.313C174.16 168.597 172.898 168.699 172.182 169.541L175.23 172.132ZM165.243 176.96C164.448 177.727 164.425 178.993 165.192 179.788C165.959 180.584 167.225 180.607 168.02 179.84L165.243 176.96ZM161.61 185.44C162.479 184.759 162.631 183.501 161.95 182.632C161.268 181.763 160.011 181.611 159.142 182.293L161.61 185.44ZM150.74 187.851C149.768 188.375 149.404 189.588 149.928 190.56C150.452 191.533 151.665 191.896 152.638 191.372L150.74 187.851ZM144.622 194.809C145.674 194.475 146.257 193.351 145.923 192.298C145.589 191.245 144.464 190.663 143.412 190.997L144.622 194.809ZM133.819 192.503C132.714 192.483 131.803 193.362 131.783 194.466C131.763 195.571 132.642 196.482 133.747 196.502L133.819 192.503ZM124.893 194.735C125.91 195.166 127.083 194.69 127.514 193.673C127.945 192.656 127.47 191.482 126.452 191.052L124.893 194.735ZM121.535 185.97C121.858 184.913 121.264 183.795 120.207 183.472C119.151 183.15 118.033 183.744 117.71 184.8L121.535 185.97ZM126.81 180.307C125.706 180.291 124.797 181.174 124.782 182.278C124.766 183.383 125.649 184.291 126.753 184.306L126.81 180.307ZM136.4 186.068C137.458 186.385 138.573 185.785 138.89 184.727C139.208 183.669 138.608 182.554 137.55 182.236L136.4 186.068ZM145.564 185.119C144.543 184.699 143.374 185.185 142.953 186.207C142.532 187.228 143.019 188.397 144.04 188.818L145.564 185.119ZM153.333 193.108C154.319 193.607 155.522 193.212 156.021 192.227C156.519 191.241 156.125 190.038 155.139 189.539L153.333 193.108ZM162.555 193.508C161.592 192.966 160.373 193.308 159.832 194.27C159.29 195.233 159.632 196.453 160.594 196.994L162.555 193.508ZM169.5 202.263C170.439 202.845 171.672 202.555 172.253 201.615C172.835 200.676 172.545 199.444 171.606 198.862L169.5 202.263ZM178.633 203.348C177.71 202.741 176.47 202.998 175.864 203.922C175.257 204.845 175.514 206.085 176.438 206.691L178.633 203.348ZM184.899 212.517C185.784 213.179 187.037 212.997 187.698 212.112C188.359 211.228 188.178 209.974 187.293 209.313L184.899 212.517ZM193.617 214.434C192.787 213.705 191.523 213.786 190.794 214.616C190.065 215.446 190.146 216.709 190.976 217.439L193.617 214.434ZM197.962 224.28C198.708 225.095 199.973 225.152 200.788 224.407C201.603 223.662 201.66 222.397 200.915 221.581L197.962 224.28ZM206.152 227.868C205.485 226.988 204.231 226.815 203.35 227.482C202.47 228.149 202.297 229.403 202.964 230.284L206.152 227.868ZM208.406 238.386C208.97 239.336 210.197 239.649 211.147 239.085C212.097 238.522 212.41 237.295 211.846 236.345L208.406 238.386ZM215.71 243.524C215.226 242.531 214.029 242.119 213.036 242.603C212.043 243.086 211.63 244.284 212.114 245.277L215.71 243.524ZM216.02 254.289C216.418 255.319 217.576 255.832 218.607 255.434C219.637 255.036 220.15 253.878 219.752 252.848L216.02 254.289ZM222.47 260.476C222.124 259.427 220.992 258.858 219.944 259.204C218.895 259.551 218.325 260.682 218.672 261.73L222.47 260.476ZM221.59 271.215C221.898 272.275 223.008 272.885 224.069 272.577C225.13 272.268 225.739 271.158 225.431 270.098L221.59 271.215ZM227.629 277.802C227.328 276.739 226.222 276.122 225.159 276.423C224.097 276.724 223.479 277.83 223.781 278.892L227.629 277.802ZM226.587 288.527C226.909 289.584 228.027 290.179 229.083 289.857C230.14 289.535 230.735 288.418 230.413 287.361L226.587 288.527ZM232.855 294.894C232.493 293.85 231.353 293.299 230.309 293.661C229.266 294.024 228.714 295.164 229.077 296.207L232.855 294.894ZM232.748 305.664C233.189 306.677 234.368 307.14 235.381 306.699C236.393 306.258 236.857 305.079 236.415 304.067L232.748 305.664ZM239.822 311.119C239.3 310.146 238.088 309.779 237.115 310.301C236.141 310.822 235.774 312.034 236.296 313.008L239.822 311.119ZM241.639 321.724C242.273 322.629 243.52 322.849 244.425 322.216C245.33 321.582 245.55 320.335 244.917 319.43L241.639 321.724ZM249.704 325.582C248.982 324.746 247.719 324.654 246.883 325.376C246.047 326.098 245.955 327.361 246.676 328.197L249.704 325.582ZM253.832 335.503C254.652 336.244 255.917 336.179 256.657 335.359C257.397 334.54 257.333 333.275 256.513 332.535L253.832 335.503ZM262.549 337.496C261.665 336.834 260.412 337.013 259.749 337.897C259.087 338.781 259.266 340.035 260.15 340.697L262.549 337.496ZM268.555 346.345C269.501 346.915 270.73 346.611 271.3 345.664C271.87 344.718 271.566 343.489 270.62 342.919L268.555 346.345ZM277.432 346.715C276.45 346.208 275.244 346.593 274.737 347.574C274.23 348.555 274.615 349.762 275.596 350.269L277.432 346.715ZM284.614 354.542C285.626 354.983 286.805 354.52 287.246 353.507C287.687 352.494 287.223 351.316 286.211 350.875L284.614 354.542ZM293.445 353.83C292.414 353.434 291.257 353.95 290.862 354.982C290.467 356.013 290.982 357.17 292.014 357.565L293.445 353.83ZM301.423 360.902C302.473 361.246 303.603 360.675 303.947 359.625C304.291 358.575 303.719 357.446 302.669 357.101L301.423 360.902ZM310.156 359.409C309.095 359.102 307.986 359.713 307.68 360.774C307.373 361.835 307.984 362.944 309.045 363.251L310.156 359.409ZM318.681 365.823C319.754 366.086 320.837 365.43 321.1 364.357C321.363 363.285 320.707 362.202 319.635 361.938L318.681 365.823ZM327.276 363.688C326.196 363.458 325.133 364.148 324.903 365.228C324.673 366.308 325.362 367.371 326.443 367.601L327.276 363.688ZM336.223 369.494C337.311 369.684 338.347 368.956 338.537 367.868C338.727 366.78 337.999 365.744 336.911 365.554L336.223 369.494ZM344.655 366.791C343.561 366.632 342.547 367.39 342.388 368.483C342.23 369.576 342.987 370.591 344.081 370.749L344.655 366.791ZM353.957 372.001C355.055 372.121 356.042 371.327 356.162 370.229C356.281 369.131 355.487 368.144 354.389 368.025L353.957 372.001ZM362.199 368.76C361.098 368.673 360.134 369.494 360.046 370.595C359.959 371.696 360.78 372.66 361.881 372.748L362.199 368.76ZM371.817 373.358C372.921 373.406 373.854 372.55 373.901 371.446C373.949 370.343 373.093 369.41 371.989 369.362L371.817 373.358ZM379.831 369.583C378.726 369.568 377.819 370.452 377.804 371.557C377.79 372.661 378.673 373.568 379.778 373.583L379.831 369.583ZM389.736 373.522C390.84 373.493 391.712 372.575 391.684 371.471C391.656 370.367 390.738 369.494 389.633 369.523L389.736 373.522ZM397.467 369.195C396.365 369.259 395.523 370.205 395.587 371.308C395.651 372.411 396.598 373.252 397.7 373.188L397.467 369.195ZM407.634 372.396C408.733 372.285 409.534 371.303 409.422 370.204C409.31 369.105 408.329 368.305 407.23 368.417L407.634 372.396ZM415.008 367.484C413.913 367.635 413.15 368.646 413.302 369.74C413.454 370.834 414.464 371.597 415.558 371.446L415.008 367.484ZM425.403 369.834C426.489 369.628 427.202 368.582 426.996 367.496C426.79 366.411 425.744 365.698 424.659 365.904L425.403 369.834ZM432.311 364.286C431.235 364.538 430.568 365.614 430.819 366.689C431.071 367.765 432.147 368.432 433.223 368.181L432.311 364.286ZM442.883 365.626C443.942 365.312 444.546 364.199 444.232 363.14C443.918 362.081 442.805 361.477 441.746 361.791L442.883 365.626ZM449.171 359.386C448.129 359.754 447.582 360.896 447.95 361.938C448.317 362.979 449.459 363.526 450.501 363.159L449.171 359.386ZM459.823 359.507C460.837 359.067 461.302 357.89 460.863 356.876C460.424 355.863 459.246 355.397 458.233 355.836L459.823 359.507ZM465.275 352.527C464.291 353.027 463.899 354.232 464.4 355.216C464.9 356.201 466.105 356.593 467.089 356.092L465.275 352.527ZM475.841 351.171C476.78 350.589 477.069 349.356 476.487 348.417C475.904 347.479 474.671 347.19 473.733 347.772L475.841 351.171ZM480.168 343.447C479.275 344.097 479.078 345.348 479.728 346.241C480.379 347.134 481.629 347.331 482.522 346.681L480.168 343.447ZM490.368 340.354C491.192 339.618 491.263 338.353 490.526 337.53C489.79 336.706 488.526 336.635 487.702 337.371L490.368 340.354ZM493.242 331.982C492.484 332.785 492.521 334.051 493.325 334.809C494.128 335.567 495.394 335.529 496.152 334.726L493.242 331.982ZM502.658 327.012C503.322 326.129 503.144 324.875 502.261 324.211C501.378 323.548 500.124 323.725 499.461 324.608L502.658 327.012ZM503.812 318.238C503.231 319.178 503.522 320.41 504.461 320.991C505.401 321.572 506.633 321.281 507.214 320.342L503.812 318.238ZM12.8974 56.6326C13.4424 54.9973 14.0243 53.4055 14.6412 51.8564L10.9251 50.3763C10.2794 51.9975 9.67148 53.6611 9.10264 55.3676L12.8974 56.6326ZM17.9248 44.633C19.484 41.6068 21.194 38.7713 23.0399 36.1205L19.7574 33.8347C17.8088 36.6329 16.0079 39.6203 14.3691 42.801L17.9248 44.633ZM27.9191 29.8872C30.1363 27.3629 32.4987 25.0442 34.989 22.9246L32.3963 19.8786C29.76 22.1225 27.2596 24.5768 24.9138 27.2474L27.9191 29.8872ZM41.3203 18.1373C44.0766 16.2914 46.9547 14.6481 49.9364 13.201L48.19 9.60243C45.0474 11.1275 42.0088 12.8621 39.0946 14.8137L41.3203 18.1373ZM57.2704 10.1064C60.3766 8.97989 63.5706 8.0412 66.8345 7.28469L65.9313 3.38799C62.5176 4.17921 59.1695 5.16273 55.9067 6.34604L57.2704 10.1064ZM74.6858 5.831C77.9629 5.37074 81.2921 5.07939 84.6566 4.95163L84.5048 0.954508C81.0101 1.08722 77.5457 1.39008 74.1295 1.86988L74.6858 5.831ZM92.6692 4.95178C95.9893 5.07526 99.3293 5.34987 102.673 5.77044L103.172 1.80171C99.7153 1.3669 96.2584 1.0825 92.8178 0.954545L92.6692 4.95178ZM110.608 7.0401C113.884 7.67601 117.151 8.44829 120.393 9.35184L121.467 5.49866C118.123 4.56685 114.753 3.76993 111.37 3.11339L110.608 7.0401ZM128.075 11.7541C131.239 12.8529 134.367 14.0763 137.444 15.4193L139.044 11.7533C135.873 10.3691 132.649 9.10805 129.387 7.97544L128.075 11.7541ZM144.715 18.8658C147.703 20.3977 150.627 22.045 153.473 23.8023L155.575 20.3988C152.638 18.5851 149.621 16.8859 146.54 15.3063L144.715 18.8658ZM160.17 28.2456C162.908 30.1954 165.554 32.2528 168.092 34.4122L170.684 31.3656C168.056 29.1298 165.32 27.0021 162.491 24.9874L160.17 28.2456ZM174.016 39.8328C176.408 42.1886 178.677 44.6447 180.806 47.1953L183.877 44.6315C181.661 41.9781 179.304 39.4269 176.823 36.9831L174.016 39.8328ZM185.679 53.5449C187.6 56.2788 189.366 59.1046 190.961 62.0166L194.469 60.0949C192.8 57.0484 190.955 54.0966 188.952 51.2454L185.679 53.5449ZM194.459 69.1821C195.769 72.2241 196.896 75.3479 197.825 78.5479L201.666 77.4329C200.69 74.0701 199.507 70.7906 198.133 67.6005L194.459 69.1821ZM199.651 86.2933C200.239 89.5168 200.628 92.8098 200.804 96.1674L204.799 95.9579C204.614 92.4285 204.204 88.9658 203.586 85.5756L199.651 86.2933ZM200.819 104.153C200.662 107.406 200.306 110.715 199.738 114.076L203.682 114.743C204.277 111.227 204.65 107.76 204.815 104.346L200.819 104.153ZM198.063 121.843C197.244 124.971 196.24 128.14 195.042 131.348L198.789 132.748C200.033 129.417 201.078 126.118 201.932 122.856L198.063 121.843ZM191.955 138.756C190.588 141.727 189.054 144.728 187.344 147.757L190.827 149.724C192.589 146.602 194.174 143.502 195.589 140.427L191.955 138.756ZM183.232 154.563C182.313 155.99 181.355 157.422 180.357 158.86L183.643 161.14C184.667 159.665 185.651 158.195 186.595 156.728L183.232 154.563ZM180.357 158.86C179.329 160.341 178.306 161.762 177.288 163.124L180.493 165.518C181.539 164.117 182.589 162.659 183.643 161.14L180.357 158.86ZM172.182 169.541C169.826 172.311 167.51 174.775 165.243 176.96L168.02 179.84C170.387 177.557 172.794 174.997 175.23 172.132L172.182 169.541ZM159.142 182.293C156.224 184.581 153.415 186.41 150.74 187.851L152.638 191.372C155.527 189.816 158.526 187.859 161.61 185.44L159.142 182.293ZM143.412 190.997C139.846 192.128 136.624 192.553 133.819 192.503L133.747 196.502C137.013 196.561 140.667 196.065 144.622 194.809L143.412 190.997ZM126.452 191.052C124.444 190.201 123.053 189.107 122.265 188.093C121.457 187.053 121.428 186.321 121.535 185.97L117.71 184.8C117.088 186.837 117.832 188.907 119.106 190.547C120.401 192.213 122.4 193.679 124.893 194.735L126.452 191.052ZM126.753 184.306C129.134 184.34 132.316 184.842 136.4 186.068L137.55 182.236C133.232 180.94 129.669 180.347 126.81 180.307L126.753 184.306ZM144.04 188.818C146.857 189.979 149.95 191.397 153.333 193.108L155.139 189.539C151.675 187.786 148.487 186.324 145.564 185.119L144.04 188.818ZM160.594 196.994C163.398 198.571 166.365 200.322 169.5 202.263L171.606 198.862C168.426 196.894 165.411 195.114 162.555 193.508L160.594 196.994ZM176.438 206.691C177.886 207.642 179.366 208.63 180.877 209.655L183.123 206.345C181.595 205.309 180.099 204.31 178.633 203.348L176.438 206.691ZM180.877 209.655C182.269 210.599 183.608 211.553 184.899 212.517L187.293 209.313C185.953 208.312 184.564 207.323 183.123 206.345L180.877 209.655ZM190.976 217.439C193.522 219.676 195.841 221.958 197.962 224.28L200.915 221.581C198.695 219.151 196.271 216.767 193.617 214.434L190.976 217.439ZM202.964 230.284C204.979 232.942 206.78 235.645 208.406 238.386L211.846 236.345C210.147 233.481 208.262 230.652 206.152 227.868L202.964 230.284ZM212.114 245.277C213.561 248.246 214.848 251.253 216.02 254.289L219.752 252.848C218.545 249.723 217.213 246.61 215.71 243.524L212.114 245.277ZM218.672 261.73C219.71 264.875 220.666 268.038 221.59 271.215L225.431 270.098C224.5 266.897 223.529 263.683 222.47 260.476L218.672 261.73ZM223.781 278.892C224.691 282.105 225.611 285.325 226.587 288.527L230.413 287.361C229.449 284.2 228.539 281.013 227.629 277.802L223.781 278.892ZM229.077 296.207C230.182 299.385 231.388 302.543 232.748 305.664L236.415 304.067C235.104 301.056 233.934 297.996 232.855 294.894L229.077 296.207ZM236.296 313.008C237.879 315.963 239.644 318.873 241.639 321.724L244.917 319.43C243.019 316.719 241.336 313.946 239.822 311.119L236.296 313.008ZM246.676 328.197C248.834 330.695 251.208 333.133 253.832 335.503L256.513 332.535C254.011 330.276 251.753 327.956 249.704 325.582L246.676 328.197ZM260.15 340.697C261.488 341.7 262.881 342.688 264.33 343.661L266.559 340.339C265.166 339.405 263.831 338.457 262.549 337.496L260.15 340.697ZM264.33 343.661C265.686 344.571 267.096 345.466 268.555 346.345L270.62 342.919C269.212 342.071 267.858 341.211 266.559 340.339L264.33 343.661ZM275.596 350.269C278.46 351.748 281.471 353.174 284.614 354.542L286.211 350.875C283.143 349.539 280.212 348.15 277.432 346.715L275.596 350.269ZM292.014 357.565C295.054 358.73 298.195 359.844 301.423 360.902L302.669 357.101C299.501 356.062 296.422 354.97 293.445 353.83L292.014 357.565ZM309.045 363.251C312.191 364.161 315.406 365.019 318.681 365.823L319.635 361.938C316.411 361.147 313.249 360.303 310.156 359.409L309.045 363.251ZM326.443 367.601C329.658 368.286 332.921 368.918 336.223 369.494L336.911 365.554C333.657 364.986 330.443 364.363 327.276 363.688L326.443 367.601ZM344.081 370.749C347.345 371.223 350.64 371.641 353.957 372.001L354.389 368.025C351.119 367.67 347.872 367.257 344.655 366.791L344.081 370.749ZM361.881 372.748C365.18 373.011 368.494 373.215 371.817 373.358L371.989 369.362C368.716 369.221 365.45 369.019 362.199 368.76L361.881 372.748ZM379.778 373.583C383.097 373.626 386.419 373.607 389.736 373.522L389.633 369.523C386.37 369.607 383.099 369.626 379.831 369.583L379.778 373.583ZM397.7 373.188C401.025 372.994 404.339 372.731 407.634 372.396L407.23 368.417C403.994 368.746 400.737 369.004 397.467 369.195L397.7 373.188ZM415.558 371.446C418.868 370.986 422.153 370.45 425.403 369.834L424.659 365.904C421.475 366.507 418.255 367.033 415.008 367.484L415.558 371.446ZM433.223 368.181C436.487 367.416 439.71 366.566 442.883 365.626L441.746 361.791C438.651 362.708 435.503 363.539 432.311 364.286L433.223 368.181ZM450.501 363.159C453.672 362.04 456.783 360.824 459.823 359.507L458.233 355.836C455.282 357.115 452.258 358.298 449.171 359.386L450.501 363.159ZM467.089 356.092C470.093 354.564 473.014 352.925 475.841 351.171L473.733 347.772C471.005 349.464 468.183 351.047 465.275 352.527L467.089 356.092ZM482.522 346.681C485.248 344.696 487.867 342.589 490.368 340.354L487.702 337.371C485.305 339.514 482.79 341.538 480.168 343.447L482.522 346.681ZM496.152 334.726C498.452 332.286 500.625 329.716 502.658 327.012L499.461 324.608C497.519 327.191 495.442 329.648 493.242 331.982L496.152 334.726ZM507.214 320.342C508.098 318.912 508.947 317.449 509.758 315.954L506.242 314.047C505.467 315.475 504.657 316.873 503.812 318.238L507.214 320.342Z" fill="#E4E4E4"/>
<path d="M320.35 691.208C319.305 691.567 318.75 692.705 319.109 693.75C319.468 694.794 320.605 695.35 321.65 694.991L320.35 691.208ZM471.389 701.627L472.728 700.141L471.389 701.627ZM437.333 862.766L437.679 860.796L437.333 862.766ZM432.5 833.097L431.134 831.635L432.5 833.097ZM433.389 934.313L433.561 936.305L433.389 934.313ZM172.833 958.96L171.981 957.15L172.833 958.96ZM21.6325 1002.1C20.5846 1001.75 19.4519 1002.32 19.1026 1003.37L13.4105 1020.44C13.0612 1021.49 13.6276 1022.62 14.6754 1022.97C15.7233 1023.32 16.856 1022.76 17.2053 1021.71L22.2649 1006.53L37.4438 1011.59C38.4917 1011.94 39.6244 1011.37 39.9737 1010.32C40.323 1009.28 39.7566 1008.14 38.7088 1007.79L21.6325 1002.1ZM21.8687 1009.65C22.4548 1010.58 23.6889 1010.87 24.6252 1010.28C25.5614 1009.69 25.8452 1008.46 25.2591 1007.52L21.8687 1009.65ZM30.0989 1013.86C29.342 1013.05 28.0762 1013.01 27.2718 1013.77C26.4673 1014.53 26.4288 1015.79 27.1857 1016.6L30.0989 1013.86ZM35.8079 1023.44C36.7645 1023.99 37.9877 1023.67 38.5399 1022.71C39.0921 1021.75 38.7643 1020.53 37.8077 1019.98L35.8079 1023.44ZM45.077 1023.18C44.0271 1022.84 42.8977 1023.41 42.5544 1024.46C42.2111 1025.51 42.7838 1026.64 43.8337 1026.98L45.077 1023.18ZM54.3607 1029.37C55.4532 1029.53 56.4705 1028.78 56.6329 1027.69C56.7952 1026.6 56.0411 1025.58 54.9485 1025.42L54.3607 1029.37ZM63.135 1026.31C62.0339 1026.23 61.0702 1027.05 60.9824 1028.15C60.8947 1029.25 61.7162 1030.21 62.8172 1030.3L63.135 1026.31ZM73.3233 1030.95C74.4263 1031.01 75.3684 1030.17 75.4276 1029.06C75.4868 1027.96 74.6406 1027.02 73.5376 1026.96L73.3233 1030.95ZM81.9228 1027.45C80.8206 1027.37 79.8678 1028.21 79.7945 1029.31C79.7212 1030.41 80.5553 1031.36 81.6574 1031.44L81.9228 1027.45ZM92.0047 1032.34C93.1023 1032.46 94.0925 1031.67 94.2163 1030.58C94.3402 1029.48 93.5508 1028.49 92.4532 1028.36L92.0047 1032.34ZM100.846 1029.53C99.757 1029.35 98.7253 1030.08 98.542 1031.17C98.3586 1032.26 99.093 1033.29 100.182 1033.48L100.846 1029.53ZM110.262 1035.6C111.332 1035.87 112.421 1035.23 112.695 1034.15C112.968 1033.08 112.322 1032 111.252 1031.72L110.262 1035.6ZM119.428 1034.13C118.38 1033.78 117.247 1034.34 116.895 1035.39C116.543 1036.44 117.107 1037.57 118.154 1037.92L119.428 1034.13ZM127.738 1041.66C128.747 1042.11 129.929 1041.66 130.379 1040.65C130.829 1039.64 130.376 1038.46 129.367 1038.01L127.738 1041.66ZM136.994 1041.76C136.022 1041.23 134.809 1041.6 134.285 1042.57C133.761 1043.54 134.124 1044.76 135.096 1045.28L136.994 1041.76ZM143.945 1050.58C144.867 1051.19 146.107 1050.93 146.716 1050.01C147.324 1049.09 147.07 1047.85 146.148 1047.24L143.945 1050.58ZM153.068 1052.14C152.187 1051.47 150.933 1051.65 150.266 1052.53C149.599 1053.41 149.772 1054.66 150.652 1055.33L153.068 1052.14ZM158.545 1061.84C159.361 1062.58 160.626 1062.53 161.371 1061.71C162.115 1060.89 162.057 1059.63 161.241 1058.88L158.545 1061.84ZM167.057 1064.74C166.322 1063.92 165.058 1063.84 164.233 1064.58C163.408 1065.31 163.334 1066.58 164.069 1067.4L167.057 1064.74ZM169.907 1075.25C170.473 1076.2 171.701 1076.51 172.649 1075.94C173.598 1075.37 173.907 1074.15 173.341 1073.2L169.907 1075.25ZM176.928 1080.96C176.586 1079.91 175.458 1079.34 174.407 1079.68C173.357 1080.02 172.783 1081.15 173.125 1082.2L176.928 1080.96ZM174.312 1091.4C174.225 1092.5 175.046 1093.46 176.147 1093.55C177.248 1093.64 178.212 1092.81 178.3 1091.71L174.312 1091.4ZM176.02 1100.2C176.495 1099.21 176.072 1098.01 175.074 1097.54C174.077 1097.06 172.884 1097.49 172.409 1098.48L176.02 1100.2ZM166.771 1105.85C165.945 1106.58 165.87 1107.85 166.603 1108.67C167.336 1109.5 168.6 1109.58 169.426 1108.84L166.771 1105.85ZM162.283 1113.66C163.269 1113.16 163.666 1111.96 163.168 1110.97C162.671 1109.98 161.469 1109.59 160.482 1110.09L162.283 1113.66ZM151.436 1113.1C150.349 1113.29 149.626 1114.33 149.822 1115.42C150.018 1116.51 151.058 1117.23 152.145 1117.03L151.436 1113.1ZM143.585 1117.55C144.687 1117.62 145.636 1116.78 145.703 1115.68C145.771 1114.57 144.932 1113.63 143.829 1113.56L143.585 1117.55ZM134.68 1111.42C133.667 1110.98 132.489 1111.44 132.047 1112.45C131.606 1113.47 132.069 1114.64 133.081 1115.09L134.68 1111.42ZM125.749 1110.37C126.567 1111.11 127.832 1111.05 128.574 1110.23C129.315 1109.41 129.253 1108.15 128.435 1107.4L125.749 1110.37ZM122.947 1099.9C122.476 1098.9 121.285 1098.47 120.285 1098.94C119.286 1099.41 118.857 1100.6 119.328 1101.6L122.947 1099.9ZM116.698 1093.42C116.91 1094.5 117.96 1095.21 119.044 1095C120.128 1094.78 120.836 1093.73 120.624 1092.65L116.698 1093.42ZM119.709 1082.81C119.665 1081.71 118.734 1080.85 117.63 1080.89C116.526 1080.94 115.668 1081.87 115.713 1082.97L119.709 1082.81ZM115.584 1074.69C115.574 1075.79 116.461 1076.7 117.566 1076.71C118.67 1076.72 119.574 1075.83 119.584 1074.73L115.584 1074.69ZM119.981 1064.62C120.057 1063.52 119.225 1062.57 118.124 1062.49C117.022 1062.41 116.067 1063.25 115.99 1064.35L119.981 1064.62ZM116.755 1056.1C116.627 1057.2 117.413 1058.19 118.51 1058.32C119.607 1058.45 120.6 1057.66 120.728 1056.57L116.755 1056.1ZM122.185 1046.56C122.375 1045.47 121.647 1044.43 120.559 1044.24C119.471 1044.05 118.435 1044.78 118.245 1045.87L122.185 1046.56ZM119.859 1037.75C119.618 1038.83 120.298 1039.89 121.376 1040.13C122.454 1040.37 123.523 1039.7 123.763 1038.62L119.859 1037.75ZM126.248 1028.81C126.551 1027.75 125.935 1026.64 124.873 1026.34C123.81 1026.04 122.704 1026.65 122.401 1027.72L126.248 1028.81ZM124.861 1019.81C124.507 1020.85 125.069 1021.99 126.116 1022.34C127.162 1022.69 128.297 1022.13 128.65 1021.09L124.861 1019.81ZM132.18 1011.62C132.598 1010.6 132.109 1009.43 131.087 1009.01C130.065 1008.59 128.897 1009.08 128.478 1010.1L132.18 1011.62ZM131.824 1002.51C131.351 1003.51 131.776 1004.71 132.775 1005.18C133.773 1005.65 134.965 1005.23 135.438 1004.23L131.824 1002.51ZM140.085 995.277C140.63 994.317 140.294 993.096 139.333 992.551C138.373 992.005 137.152 992.342 136.607 993.302L140.085 995.277ZM140.946 986.208C140.338 987.13 140.593 988.371 141.515 988.978C142.438 989.586 143.678 989.331 144.286 988.409L140.946 986.208ZM150.189 980.29C150.881 979.429 150.745 978.17 149.884 977.478C149.024 976.785 147.765 976.922 147.072 977.782L150.189 980.29ZM152.594 971.502C151.827 972.297 151.85 973.563 152.645 974.33C153.441 975.096 154.707 975.073 155.473 974.278L152.594 971.502ZM162.834 967.575C163.701 966.89 163.848 965.632 163.164 964.766C162.479 963.899 161.221 963.751 160.354 964.436L162.834 967.575ZM167.304 959.638C166.354 960.202 166.042 961.43 166.606 962.379C167.17 963.329 168.397 963.642 169.347 963.077L167.304 959.638ZM178.094 958.757C179.104 958.311 179.561 957.13 179.115 956.119C178.668 955.109 177.487 954.652 176.477 955.098L178.094 958.757ZM183.754 952.046C182.728 952.454 182.226 953.617 182.634 954.643C183.042 955.67 184.205 956.171 185.232 955.763L183.754 952.046ZM194.304 952.395C195.348 952.034 195.902 950.895 195.541 949.851C195.18 948.807 194.041 948.254 192.997 948.615L194.304 952.395ZM200.495 946.169C199.439 946.493 198.846 947.612 199.17 948.668C199.494 949.724 200.613 950.317 201.669 949.993L200.495 946.169ZM210.986 947.343C212.055 947.063 212.694 945.969 212.413 944.901C212.133 943.832 211.04 943.194 209.971 943.474L210.986 947.343ZM217.623 941.594C216.546 941.841 215.874 942.914 216.121 943.991C216.368 945.067 217.441 945.74 218.517 945.493L217.623 941.594ZM228.008 943.499C229.093 943.291 229.804 942.244 229.597 941.159C229.389 940.074 228.341 939.363 227.256 939.57L228.008 943.499ZM235.007 938.196C233.917 938.374 233.178 939.403 233.356 940.493C233.534 941.583 234.563 942.322 235.653 942.143L235.007 938.196ZM245.257 940.726C246.352 940.582 247.123 939.577 246.978 938.482C246.834 937.387 245.829 936.616 244.734 936.761L245.257 940.726ZM252.54 935.821C251.442 935.941 250.649 936.928 250.769 938.026C250.888 939.124 251.876 939.917 252.974 939.797L252.54 935.821ZM262.649 938.868C263.75 938.776 264.567 937.809 264.476 936.709C264.384 935.608 263.417 934.79 262.316 934.882L262.649 938.868ZM270.149 934.301C269.046 934.373 268.211 935.325 268.283 936.427C268.355 937.529 269.306 938.365 270.409 938.293L270.149 934.301ZM280.125 937.761C281.228 937.711 282.083 936.776 282.033 935.673C281.984 934.569 281.049 933.715 279.945 933.765L280.125 937.761ZM287.785 933.469C286.681 933.503 285.814 934.425 285.848 935.529C285.882 936.633 286.805 937.501 287.909 937.467L287.785 933.469ZM297.648 937.241C298.753 937.224 299.634 936.314 299.616 935.21C299.599 934.106 298.689 933.224 297.585 933.242L297.648 937.241ZM305.422 933.158C304.317 933.165 303.427 934.065 303.434 935.17C303.44 936.274 304.341 937.165 305.445 937.158L305.422 933.158ZM315.197 937.153C316.302 937.158 317.201 936.266 317.206 935.162C317.211 934.057 316.319 933.158 315.215 933.153L315.197 937.153ZM323.044 933.212C321.94 933.201 321.035 934.087 321.023 935.191C321.012 936.296 321.898 937.201 323.002 937.212L323.044 933.212ZM332.763 937.343C333.867 937.361 334.777 936.48 334.794 935.375C334.812 934.271 333.931 933.361 332.826 933.344L332.763 937.343ZM340.648 933.479C339.543 933.459 338.632 934.337 338.611 935.442C338.591 936.546 339.47 937.458 340.574 937.478L340.648 933.479ZM350.343 937.663C351.447 937.684 352.36 936.805 352.381 935.701C352.402 934.597 351.523 933.684 350.419 933.663L350.343 937.663ZM358.233 933.808C357.129 933.788 356.217 934.668 356.198 935.772C356.178 936.877 357.058 937.788 358.162 937.807L358.233 933.808ZM367.94 937.963C369.044 937.978 369.952 937.095 369.967 935.991C369.982 934.886 369.099 933.979 367.995 933.963L367.94 937.963ZM375.801 934.051C374.697 934.042 373.794 934.93 373.784 936.034C373.775 937.139 374.663 938.042 375.767 938.051L375.801 934.051ZM385.558 938.094C386.662 938.093 387.557 937.198 387.557 936.093C387.557 934.988 386.661 934.093 385.556 934.094L385.558 938.094ZM393.355 934.057C392.25 934.067 391.364 934.971 391.374 936.076C391.384 937.18 392.288 938.067 393.393 938.057L393.355 934.057ZM403.193 937.898C404.297 937.872 405.172 936.955 405.146 935.851C405.12 934.747 404.204 933.873 403.099 933.899L403.193 937.898ZM410.886 933.665C409.782 933.706 408.921 934.634 408.961 935.737C409.002 936.841 409.93 937.703 411.033 937.662L410.886 933.665ZM420.835 937.208C421.938 937.146 422.781 936.202 422.719 935.099C422.657 933.996 421.713 933.153 420.61 933.215L420.835 937.208ZM428.375 932.709C427.273 932.791 426.447 933.75 426.529 934.852C426.61 935.953 427.57 936.78 428.671 936.698L428.375 932.709ZM438.351 935.75C439.444 935.59 440.2 934.575 440.041 933.482C439.881 932.389 438.866 931.632 437.773 931.792L438.351 935.75ZM444.956 930.384C443.884 930.65 443.23 931.735 443.496 932.807C443.762 933.879 444.847 934.532 445.919 934.266L444.956 930.384ZM455.12 931.336C456.148 930.932 456.653 929.771 456.249 928.743C455.845 927.715 454.684 927.209 453.656 927.614L455.12 931.336ZM460.283 924.572C459.307 925.088 458.934 926.299 459.451 927.275C459.968 928.251 461.178 928.624 462.154 928.107L460.283 924.572ZM470.362 922.963C471.252 922.309 471.443 921.057 470.788 920.167C470.134 919.277 468.882 919.087 467.992 919.741L470.362 922.963ZM473.578 915.085C472.774 915.843 472.737 917.109 473.495 917.913C474.253 918.716 475.519 918.753 476.322 917.996L473.578 915.085ZM482.844 910.814C483.521 909.942 483.363 908.685 482.49 908.008C481.618 907.331 480.361 907.49 479.684 908.362L482.844 910.814ZM483.778 902.357C483.212 903.306 483.524 904.533 484.473 905.099C485.422 905.664 486.649 905.353 487.214 904.404L483.778 902.357ZM491.537 895.735C491.956 894.713 491.467 893.545 490.445 893.126C489.423 892.707 488.255 893.196 487.836 894.218L491.537 895.735ZM490.218 887.323C489.915 888.386 490.531 889.492 491.594 889.794C492.656 890.097 493.762 889.481 494.065 888.419L490.218 887.323ZM496.094 878.986C496.258 877.894 495.504 876.876 494.412 876.712C493.32 876.549 492.302 877.302 492.138 878.394L496.094 878.986ZM492.876 871.101C492.816 872.204 493.661 873.147 494.764 873.207C495.867 873.268 496.81 872.422 496.87 871.319L492.876 871.101ZM496.721 861.236C496.604 860.138 495.619 859.342 494.521 859.459C493.422 859.576 492.627 860.561 492.744 861.66L496.721 861.236ZM491.267 854.062C491.57 855.124 492.677 855.739 493.739 855.435C494.801 855.132 495.416 854.025 495.113 852.962L491.267 854.062ZM491.13 843.207C490.603 842.236 489.389 841.877 488.418 842.404C487.448 842.931 487.088 844.145 487.615 845.116L491.13 843.207ZM483.336 838.684C484.028 839.545 485.288 839.68 486.148 838.988C487.008 838.295 487.144 837.036 486.451 836.175L483.336 838.684ZM478.893 828.78C478.015 828.109 476.76 828.277 476.089 829.154C475.418 830.032 475.586 831.287 476.463 831.958L478.893 828.78ZM469.929 827.963C470.928 828.435 472.12 828.007 472.592 827.008C473.063 826.009 472.636 824.817 471.637 824.346L469.929 827.963ZM461.427 821.236C460.334 821.077 459.319 821.834 459.16 822.927C459 824.02 459.757 825.035 460.85 825.194L461.427 821.236ZM453.289 825.062C454.386 824.939 455.177 823.95 455.055 822.852C454.932 821.755 453.943 820.964 452.846 821.086L453.289 825.062ZM442.533 823.925C441.526 824.377 441.075 825.561 441.527 826.569C441.979 827.576 443.162 828.027 444.17 827.575L442.533 823.925ZM437.585 831.454C438.473 830.798 438.661 829.545 438.005 828.657C437.348 827.769 436.096 827.581 435.207 828.238L437.585 831.454ZM427.684 836.089C427.143 837.052 427.485 838.271 428.448 838.812C429.411 839.353 430.63 839.011 431.172 838.048L427.684 836.089ZM428.896 844.963C429.048 843.869 428.284 842.859 427.19 842.706C426.096 842.554 425.086 843.317 424.934 844.411L428.896 844.963ZM425.99 855.329C426.378 856.363 427.531 856.886 428.565 856.498C429.599 856.11 430.123 854.957 429.734 853.923L425.99 855.329ZM433.782 859.273C432.863 858.659 431.621 858.907 431.008 859.826C430.395 860.744 430.642 861.986 431.561 862.599L433.782 859.273ZM442.287 865.413C443.388 865.499 444.351 864.677 444.437 863.576C444.524 862.474 443.701 861.512 442.6 861.425L442.287 865.413ZM450.386 861.368C449.287 861.477 448.484 862.456 448.593 863.555C448.701 864.655 449.681 865.458 450.78 865.349L450.386 861.368ZM461.212 862.96C462.247 862.575 462.774 861.423 462.389 860.388C462.004 859.353 460.853 858.826 459.818 859.211L461.212 862.96ZM466.741 855.761C465.809 856.354 465.534 857.591 466.127 858.522C466.72 859.454 467.957 859.729 468.888 859.136L466.741 855.761ZM477.124 852.374C477.893 851.58 477.873 850.314 477.079 849.545C476.286 848.777 475.02 848.797 474.251 849.59L477.124 852.374ZM479.254 843.531C478.615 844.433 478.829 845.681 479.73 846.319C480.632 846.957 481.88 846.744 482.518 845.842L479.254 843.531ZM487.891 836.81C488.384 835.822 487.984 834.621 486.996 834.127C486.008 833.633 484.806 834.034 484.313 835.022L487.891 836.81ZM487.516 827.713C487.121 828.744 487.637 829.901 488.668 830.296C489.7 830.691 490.856 830.175 491.251 829.143L487.516 827.713ZM494.468 819.235C494.757 818.169 494.128 817.07 493.062 816.78C491.996 816.491 490.897 817.12 490.608 818.186L494.468 819.235ZM492.444 810.363C492.227 811.446 492.93 812.5 494.013 812.716C495.096 812.933 496.15 812.23 496.366 811.147L492.444 810.363ZM498.012 800.9C498.147 799.803 497.368 798.805 496.272 798.67C495.176 798.535 494.177 799.314 494.042 800.41L498.012 800.9ZM494.811 792.382C494.735 793.484 495.566 794.438 496.668 794.514C497.77 794.59 498.725 793.759 498.801 792.657L494.811 792.382ZM499.184 782.323C499.191 781.218 498.301 780.318 497.196 780.311C496.092 780.305 495.191 781.195 495.185 782.299L499.184 782.323ZM495.035 774.221C495.082 775.325 496.015 776.181 497.119 776.134C498.222 776.087 499.079 775.154 499.031 774.05L495.035 774.221ZM498.278 763.74C498.164 762.642 497.181 761.843 496.083 761.957C494.984 762.071 494.186 763.054 494.299 764.153L498.278 763.74ZM493.268 756.139C493.436 757.231 494.458 757.979 495.549 757.811C496.641 757.642 497.389 756.621 497.221 755.529L493.268 756.139ZM495.305 745.353C495.064 744.275 493.995 743.596 492.917 743.837C491.839 744.078 491.16 745.147 491.401 746.225L495.305 745.353ZM489.418 738.425C489.723 739.487 490.83 740.101 491.892 739.797C492.954 739.493 493.568 738.385 493.264 737.324L489.418 738.425ZM489.984 727.45C489.59 726.418 488.434 725.901 487.402 726.295C486.371 726.689 485.854 727.845 486.248 728.877L489.984 727.45ZM483.095 721.524C483.573 722.519 484.768 722.938 485.764 722.46C486.759 721.981 487.178 720.787 486.7 719.791L483.095 721.524ZM481.568 710.645C480.961 709.722 479.721 709.465 478.798 710.072C477.875 710.678 477.618 711.918 478.225 712.841L481.568 710.645ZM473.479 706.587C474.21 707.414 475.474 707.492 476.302 706.761C477.129 706.029 477.207 704.765 476.476 703.938L473.479 706.587ZM468.928 696.909C468.066 696.218 466.807 696.356 466.116 697.218C465.425 698.079 465.563 699.338 466.425 700.029L468.928 696.909ZM460.271 695.543C461.193 696.152 462.434 695.899 463.043 694.977C463.652 694.056 463.398 692.815 462.477 692.206L460.271 695.543ZM453.867 687.192C452.883 686.69 451.679 687.081 451.177 688.065C450.675 689.049 451.066 690.254 452.05 690.755L453.867 687.192ZM445.117 687.591C446.141 688.006 447.307 687.514 447.723 686.49C448.138 685.467 447.646 684.3 446.622 683.885L445.117 687.591ZM437.235 680.615C436.175 680.303 435.063 680.909 434.751 681.969C434.44 683.029 435.046 684.141 436.106 684.452L437.235 680.615ZM428.693 682.566C429.772 682.8 430.837 682.114 431.071 681.035C431.305 679.955 430.619 678.89 429.54 678.657L428.693 682.566ZM419.778 676.966C418.683 676.821 417.678 677.592 417.533 678.687C417.389 679.782 418.159 680.787 419.255 680.931L419.778 676.966ZM411.616 680.155C412.718 680.235 413.676 679.406 413.756 678.305C413.836 677.203 413.007 676.245 411.906 676.165L411.616 680.155ZM402.037 675.782C400.932 675.775 400.031 676.664 400.024 677.769C400.016 678.873 400.906 679.774 402.01 679.782L402.037 675.782ZM394.308 679.915C395.412 679.87 396.271 678.939 396.226 677.836C396.182 676.732 395.251 675.873 394.147 675.918L394.308 679.915ZM384.319 676.579C383.219 676.682 382.411 677.656 382.513 678.756C382.616 679.856 383.59 680.664 384.69 680.562L384.319 676.579ZM377.017 681.426C378.113 681.282 378.884 680.278 378.739 679.182C378.595 678.087 377.591 677.316 376.496 677.46L377.017 681.426ZM366.778 678.954C365.69 679.145 364.963 680.181 365.154 681.269C365.344 682.357 366.381 683.085 367.469 682.894L366.778 678.954ZM359.872 684.349C360.953 684.124 361.648 683.066 361.424 681.984C361.2 680.903 360.141 680.208 359.06 680.432L359.872 684.349ZM349.484 682.597C348.411 682.86 347.754 683.942 348.016 685.015C348.278 686.088 349.361 686.745 350.434 686.483L349.484 682.597ZM342.934 688.421C344 688.131 344.629 687.032 344.339 685.966C344.049 684.9 342.95 684.272 341.884 684.562L342.934 688.421ZM332.461 687.28C331.405 687.602 330.809 688.72 331.131 689.776C331.452 690.833 332.57 691.429 333.627 691.107L332.461 687.28ZM326.242 693.447C327.291 693.102 327.862 691.971 327.516 690.922C327.171 689.873 326.041 689.302 324.992 689.647L326.242 693.447ZM19.2111 1004.89C20.0573 1006.59 20.9432 1008.17 21.8687 1009.65L25.2591 1007.52C24.4054 1006.16 23.5814 1004.69 22.7889 1003.11L19.2111 1004.89ZM27.1857 1016.6C29.8413 1019.42 32.7219 1021.66 35.8079 1023.44L37.8077 1019.98C35.0534 1018.39 32.4819 1016.39 30.0989 1013.86L27.1857 1016.6ZM43.8337 1026.98C47.1898 1028.08 50.7088 1028.83 54.3607 1029.37L54.9485 1025.42C51.4528 1024.9 48.1639 1024.19 45.077 1023.18L43.8337 1026.98ZM62.8172 1030.3C66.2108 1030.57 69.7247 1030.76 73.3233 1030.95L73.5376 1026.96C69.9293 1026.77 66.4679 1026.58 63.135 1026.31L62.8172 1030.3ZM81.6574 1031.44C85.0313 1031.66 88.4806 1031.94 92.0047 1032.34L92.4532 1028.36C88.8493 1027.96 85.3353 1027.67 81.9228 1027.45L81.6574 1031.44ZM100.182 1033.48C103.485 1034.03 106.846 1034.73 110.262 1035.6L111.252 1031.72C107.717 1030.82 104.247 1030.11 100.846 1029.53L100.182 1033.48ZM118.154 1037.92C121.306 1038.98 124.501 1040.22 127.738 1041.66L129.367 1038.01C126.01 1036.51 122.695 1035.23 119.428 1034.13L118.154 1037.92ZM135.096 1045.28C138.014 1046.85 140.964 1048.61 143.945 1050.58L146.148 1047.24C143.069 1045.21 140.017 1043.39 136.994 1041.76L135.096 1045.28ZM150.652 1055.33C152.006 1056.36 153.366 1057.43 154.732 1058.55L157.268 1055.45C155.863 1054.3 154.463 1053.2 153.068 1052.14L150.652 1055.33ZM154.732 1058.55C156.082 1059.65 157.352 1060.75 158.545 1061.84L161.241 1058.88C159.993 1057.75 158.67 1056.6 157.268 1055.45L154.732 1058.55ZM164.069 1067.4C166.474 1070.1 168.4 1072.72 169.907 1075.25L173.341 1073.2C171.691 1070.43 169.609 1067.61 167.057 1064.74L164.069 1067.4ZM173.125 1082.2C174.196 1085.49 174.538 1088.57 174.312 1091.4L178.3 1091.71C178.571 1088.33 178.152 1084.72 176.928 1080.96L173.125 1082.2ZM172.409 1098.48C171.088 1101.26 169.153 1103.74 166.771 1105.85L169.426 1108.84C172.163 1106.41 174.444 1103.51 176.02 1100.2L172.409 1098.48ZM160.482 1110.09C157.664 1111.51 154.59 1112.53 151.436 1113.1L152.145 1117.03C155.672 1116.4 159.114 1115.25 162.283 1113.66L160.482 1110.09ZM143.829 1113.56C140.639 1113.36 137.533 1112.66 134.68 1111.42L133.081 1115.09C136.404 1116.53 139.974 1117.33 143.585 1117.55L143.829 1113.56ZM128.435 1107.4C126.263 1105.44 124.386 1102.95 122.947 1099.9L119.328 1101.6C120.987 1105.13 123.178 1108.04 125.749 1110.37L128.435 1107.4ZM120.624 1092.65C120.331 1091.15 120.118 1089.55 119.995 1087.86L116.005 1088.15C116.14 1089.99 116.373 1091.75 116.698 1093.42L120.624 1092.65ZM119.995 1087.86C119.873 1086.18 119.778 1084.5 119.709 1082.81L115.713 1082.97C115.783 1084.7 115.88 1086.42 116.005 1088.15L119.995 1087.86ZM119.584 1074.73C119.615 1071.35 119.748 1067.98 119.981 1064.62L115.99 1064.35C115.753 1067.78 115.616 1071.24 115.584 1074.69L119.584 1074.73ZM120.728 1056.57C121.119 1053.2 121.606 1049.86 122.185 1046.56L118.245 1045.87C117.652 1049.25 117.154 1052.67 116.755 1056.1L120.728 1056.57ZM123.763 1038.62C124.502 1035.3 125.332 1032.03 126.248 1028.81L122.401 1027.72C121.463 1031.01 120.614 1034.36 119.859 1037.75L123.763 1038.62ZM128.65 1021.09C129.741 1017.86 130.919 1014.7 132.18 1011.62L128.478 1010.1C127.185 1013.26 125.977 1016.5 124.861 1019.81L128.65 1021.09ZM135.438 1004.23C136.904 1001.14 138.455 998.147 140.085 995.277L136.607 993.302C134.926 996.261 133.33 999.337 131.824 1002.51L135.438 1004.23ZM144.286 988.409C146.173 985.544 148.144 982.832 150.189 980.29L147.072 977.782C144.943 980.429 142.898 983.244 140.946 986.208L144.286 988.409ZM155.473 974.278C157.852 971.81 160.309 969.569 162.834 967.575L160.354 964.436C157.677 966.55 155.087 968.915 152.594 971.502L155.473 974.278ZM169.347 963.077C170.777 962.228 172.224 961.457 173.686 960.769L171.981 957.15C170.399 957.895 168.84 958.726 167.304 959.638L169.347 963.077ZM173.686 960.769C175.15 960.079 176.62 959.408 178.094 958.757L176.477 955.098C174.974 955.763 173.475 956.446 171.981 957.15L173.686 960.769ZM185.232 955.763C188.238 954.568 191.263 953.447 194.304 952.395L192.997 948.615C189.9 949.685 186.819 950.828 183.754 952.046L185.232 955.763ZM201.669 949.993C204.759 949.044 207.865 948.162 210.986 947.343L209.971 943.474C206.798 944.307 203.639 945.203 200.495 946.169L201.669 949.993ZM218.517 945.493C221.667 944.77 224.831 944.107 228.008 943.499L227.256 939.57C224.033 940.187 220.822 940.86 217.623 941.594L218.517 945.493ZM235.653 942.143C238.842 941.622 242.044 941.151 245.257 940.726L244.734 936.761C241.482 937.19 238.239 937.667 235.007 938.196L235.653 942.143ZM252.974 939.797C256.189 939.446 259.414 939.138 262.649 938.868L262.316 934.882C259.05 935.155 255.791 935.466 252.54 935.821L252.974 939.797ZM270.409 938.293C273.64 938.082 276.879 937.906 280.125 937.761L279.945 933.765C276.674 933.912 273.408 934.089 270.149 934.301L270.409 938.293ZM287.909 937.467C291.15 937.367 294.396 937.293 297.648 937.241L297.585 933.242C294.315 933.294 291.048 933.368 287.785 933.469L287.909 937.467ZM305.445 937.158C308.692 937.139 311.943 937.139 315.197 937.153L315.215 933.153C311.949 933.139 308.684 933.139 305.422 933.158L305.445 937.158ZM323.002 937.212C326.254 937.246 329.508 937.292 332.763 937.343L332.826 933.344C329.566 933.292 326.305 933.247 323.044 933.212L323.002 937.212ZM340.574 937.478C343.831 937.538 347.087 937.601 350.343 937.663L350.419 933.663C347.165 933.601 343.907 933.538 340.648 933.479L340.574 937.478ZM358.162 937.807C361.424 937.865 364.683 937.918 367.94 937.963L367.995 933.963C364.745 933.919 361.491 933.866 358.233 933.808L358.162 937.807ZM375.767 938.051C379.035 938.079 382.299 938.095 385.558 938.094L385.556 934.094C382.311 934.095 379.059 934.079 375.801 934.051L375.767 938.051ZM393.393 938.057C396.666 938.026 399.933 937.974 403.193 937.898L403.099 933.899C399.86 933.975 396.611 934.026 393.355 934.057L393.393 938.057ZM411.033 937.662C414.309 937.542 417.577 937.392 420.835 937.208L420.61 933.215C417.38 933.397 414.138 933.545 410.886 933.665L411.033 937.662ZM428.671 936.698C430.304 936.577 431.934 936.446 433.561 936.305L433.216 932.32C431.606 932.459 429.992 932.589 428.375 932.709L428.671 936.698ZM433.561 936.305C435.176 936.165 436.772 935.98 438.351 935.75L437.773 931.792C436.273 932.011 434.754 932.187 433.216 932.32L433.561 936.305ZM445.919 934.266C449.086 933.48 452.158 932.501 455.12 931.336L453.656 927.614C450.861 928.713 447.956 929.639 444.956 930.384L445.919 934.266ZM462.154 928.107C465.029 926.586 467.77 924.869 470.362 922.963L467.992 919.741C465.562 921.528 462.987 923.14 460.283 924.572L462.154 928.107ZM476.322 917.996C478.669 915.782 480.849 913.386 482.844 910.814L479.684 908.362C477.816 910.77 475.775 913.013 473.578 915.085L476.322 917.996ZM487.214 904.404C488.844 901.667 490.29 898.775 491.537 895.735L487.836 894.218C486.663 897.077 485.306 899.792 483.778 902.357L487.214 904.404ZM494.065 888.419C494.926 885.393 495.606 882.247 496.094 878.986L492.138 878.394C491.675 881.489 491.031 884.467 490.218 887.323L494.065 888.419ZM496.87 871.319C496.956 869.738 497 868.132 497 866.504H493C493 868.061 492.958 869.593 492.876 871.101L496.87 871.319ZM497 866.504C497 864.722 496.905 862.964 496.721 861.236L492.744 861.66C492.913 863.247 493 864.864 493 866.504H497ZM495.113 852.962C494.127 849.515 492.781 846.246 491.13 843.207L487.615 845.116C489.127 847.9 490.362 850.898 491.267 854.062L495.113 852.962ZM486.451 836.175C484.202 833.382 481.659 830.896 478.893 828.78L476.463 831.958C478.968 833.873 481.281 836.134 483.336 838.684L486.451 836.175ZM471.637 824.346C468.394 822.815 464.963 821.752 461.427 821.236L460.85 825.194C463.974 825.65 467.025 826.592 469.929 827.963L471.637 824.346ZM452.846 821.086C449.401 821.47 445.939 822.398 442.533 823.925L444.17 827.575C447.201 826.216 450.26 825.399 453.289 825.062L452.846 821.086ZM435.207 828.238C433.827 829.258 432.468 830.389 431.134 831.635L433.866 834.558C435.091 833.413 436.332 832.38 437.585 831.454L435.207 828.238ZM431.134 831.635C429.764 832.916 428.614 834.435 427.684 836.089L431.172 838.048C431.925 836.708 432.83 835.526 433.866 834.558L431.134 831.635ZM424.934 844.411C424.42 848.102 424.722 851.951 425.99 855.329L429.734 853.923C428.736 851.262 428.459 848.099 428.896 844.963L424.934 844.411ZM431.561 862.599C433.121 863.641 434.934 864.376 436.988 864.736L437.679 860.796C436.153 860.529 434.864 859.996 433.782 859.273L431.561 862.599ZM436.988 864.736C438.793 865.053 440.559 865.277 442.287 865.413L442.6 861.425C441.003 861.3 439.363 861.092 437.679 860.796L436.988 864.736ZM450.78 865.349C454.471 864.984 457.949 864.173 461.212 862.96L459.818 859.211C456.882 860.302 453.742 861.037 450.386 861.368L450.78 865.349ZM468.888 859.136C471.872 857.237 474.615 854.963 477.124 852.374L474.251 849.59C471.942 851.974 469.44 854.044 466.741 855.761L468.888 859.136ZM482.518 845.842C484.497 843.048 486.285 840.023 487.891 836.81L484.313 835.022C482.789 838.071 481.103 840.919 479.254 843.531L482.518 845.842ZM491.251 829.143C492.469 825.965 493.539 822.652 494.468 819.235L490.608 818.186C489.711 821.484 488.681 824.669 487.516 827.713L491.251 829.143ZM496.366 811.147C497.036 807.797 497.584 804.373 498.012 800.9L494.042 800.41C493.625 803.79 493.093 807.115 492.444 810.363L496.366 811.147ZM498.801 792.657C499.037 789.234 499.164 785.782 499.184 782.323L495.185 782.299C495.165 785.677 495.041 789.045 494.811 792.382L498.801 792.657ZM499.031 774.05C498.884 770.597 498.632 767.153 498.278 763.74L494.299 764.153C494.645 767.485 494.891 770.848 495.035 774.221L499.031 774.05ZM497.221 755.529C496.688 752.078 496.048 748.678 495.305 745.353L491.401 746.225C492.125 749.461 492.748 752.773 493.268 756.139L497.221 755.529ZM493.264 737.324C492.287 733.916 491.193 730.614 489.984 727.45L486.248 728.877C487.413 731.928 488.471 735.12 489.418 738.425L493.264 737.324ZM486.7 719.791C485.133 716.53 483.421 713.466 481.568 710.645L478.225 712.841C479.97 715.498 481.596 718.404 483.095 721.524L486.7 719.791ZM476.476 703.938C475.274 702.579 474.025 701.31 472.728 700.141L470.05 703.113C471.227 704.173 472.37 705.333 473.479 706.587L476.476 703.938ZM472.728 700.141C471.483 699.019 470.216 697.942 468.928 696.909L466.425 700.029C467.653 701.015 468.862 702.042 470.05 703.113L472.728 700.141ZM462.477 692.206C459.683 690.36 456.81 688.692 453.867 687.192L452.05 690.755C454.863 692.189 457.606 693.782 460.271 695.543L462.477 692.206ZM446.622 683.885C443.55 682.637 440.417 681.551 437.235 680.615L436.106 684.452C439.167 685.353 442.174 686.396 445.117 687.591L446.622 683.885ZM429.54 678.657C426.323 677.96 423.065 677.4 419.778 676.966L419.255 680.931C422.439 681.352 425.589 681.893 428.693 682.566L429.54 678.657ZM411.906 676.165C408.634 675.928 405.342 675.804 402.037 675.782L402.01 679.782C405.233 679.803 408.438 679.924 411.616 680.155L411.906 676.165ZM394.147 675.918C390.873 676.05 387.594 676.274 384.319 676.579L384.69 680.562C387.899 680.263 391.108 680.044 394.308 679.915L394.147 675.918ZM376.496 677.46C373.243 677.888 370.001 678.389 366.778 678.954L367.469 682.894C370.638 682.339 373.824 681.846 377.017 681.426L376.496 677.46ZM359.06 680.432C355.837 681.1 352.642 681.825 349.484 682.597L350.434 686.483C353.549 685.721 356.698 685.007 359.872 684.349L359.06 680.432ZM341.884 684.562C338.693 685.43 335.548 686.34 332.461 687.28L333.627 691.107C336.678 690.177 339.784 689.279 342.934 688.421L341.884 684.562ZM324.992 689.647C323.426 690.162 321.878 690.683 320.35 691.208L321.65 694.991C323.162 694.471 324.693 693.956 326.242 693.447L324.992 689.647Z" fill="#E4E4E4"/>
<path d="M873 205V203V205ZM1056 373L1057.99 373.235L1056 373ZM966 500L967.78 500.911L966 500ZM986 612C987.105 612 988 611.105 988 610V592C988 590.896 987.105 590 986 590C984.895 590 984 590.896 984 592V608H968C966.895 608 966 608.896 966 610C966 611.105 966.895 612 968 612H986ZM597.683 317.975C599.411 318.252 601.119 318.506 602.806 318.735L603.345 314.771C601.69 314.546 600.014 314.298 598.317 314.026L597.683 317.975ZM610.786 319.658C614.26 319.988 617.645 320.213 620.946 320.338L621.098 316.341C617.874 316.219 614.565 315.999 611.164 315.676L610.786 319.658ZM629.131 320.445C632.614 320.401 636.002 320.242 639.299 319.975L638.975 315.988C635.771 316.248 632.475 316.403 629.081 316.445L629.131 320.445ZM647.393 319.08C650.837 318.595 654.179 317.988 657.428 317.269L656.563 313.363C653.416 314.06 650.176 314.649 646.835 315.119L647.393 319.08ZM665.326 315.251C668.65 314.287 671.874 313.204 675.008 312.012L673.587 308.273C670.551 309.427 667.43 310.476 664.212 311.41L665.326 315.251ZM682.537 308.876C685.661 307.459 688.697 305.936 691.657 304.323L689.743 300.811C686.863 302.38 683.915 303.859 680.885 305.233L682.537 308.876ZM698.697 300.235C701.592 298.453 704.418 296.588 707.189 294.656L704.901 291.375C702.186 293.268 699.424 295.09 696.6 296.829L698.697 300.235ZM713.753 289.887C716.446 287.854 719.095 285.765 721.713 283.635L719.189 280.533C716.602 282.637 713.992 284.695 711.343 286.694L713.753 289.887ZM727.925 278.467C730.484 276.295 733.023 274.094 735.555 271.877L732.92 268.868C730.397 271.076 727.874 273.263 725.337 275.417L727.925 278.467ZM741.596 266.56C744.102 264.347 746.609 262.133 749.134 259.925L746.501 256.914C743.967 259.129 741.452 261.351 738.949 263.561L741.596 266.56ZM755.196 254.681C757.727 252.519 760.282 250.378 762.875 248.268L760.351 245.165C757.728 247.299 755.148 249.462 752.599 251.639L755.196 254.681ZM769.133 243.306C771.755 241.285 774.422 239.304 777.147 237.376L774.837 234.111C772.063 236.074 769.351 238.087 766.69 240.139L769.133 243.306ZM783.73 232.905C786.489 231.111 789.311 229.376 792.207 227.713L790.215 224.244C787.25 225.947 784.365 227.72 781.549 229.552L783.73 232.905ZM799.18 223.927C802.09 222.439 805.077 221.024 808.151 219.693L806.562 216.023C803.406 217.389 800.341 218.84 797.358 220.366L799.18 223.927ZM815.499 216.742C818.544 215.612 821.674 214.564 824.898 213.607L823.76 209.772C820.449 210.755 817.234 211.831 814.107 212.992L815.499 216.742ZM832.552 211.554C835.7 210.797 838.935 210.125 842.265 209.546L841.579 205.605C838.166 206.199 834.848 206.888 831.618 207.664L832.552 211.554ZM850.162 208.37C853.373 207.97 856.669 207.654 860.056 207.426L859.788 203.435C856.327 203.668 852.955 203.992 849.668 204.4L850.162 208.37ZM867.936 207.064C869.603 207.022 871.291 207 873 207V203C871.257 203 869.536 203.022 867.835 203.065L867.936 207.064ZM873 207C874.655 207 876.314 207.031 877.975 207.091L878.119 203.094C876.411 203.032 874.704 203 873 203V207ZM885.932 207.602C889.229 207.906 892.53 208.322 895.831 208.845L896.457 204.894C893.073 204.358 889.685 203.931 886.299 203.619L885.932 207.602ZM903.685 210.292C906.93 210.972 910.17 211.753 913.4 212.63L914.448 208.77C911.145 207.873 907.829 207.074 904.506 206.377L903.685 210.292ZM921.069 214.897C924.233 215.908 927.383 217.009 930.513 218.195L931.93 214.454C928.736 213.244 925.519 212.12 922.286 211.087L921.069 214.897ZM937.941 221.181C941.004 222.485 944.044 223.868 947.055 225.325L948.798 221.725C945.729 220.24 942.631 218.83 939.507 217.501L937.941 221.181ZM954.2 228.951C957.146 230.515 960.06 232.15 962.937 233.851L964.973 230.408C962.043 228.676 959.076 227.012 956.076 225.418L954.2 228.951ZM969.763 238.053C972.578 239.856 975.352 241.72 978.08 243.643L980.384 240.373C977.608 238.417 974.785 236.519 971.921 234.685L969.763 238.053ZM984.552 248.375C987.22 250.398 989.838 252.476 992.401 254.605L994.956 251.527C992.348 249.361 989.684 247.247 986.97 245.188L984.552 248.375ZM998.477 259.835C1000.98 262.068 1003.42 264.349 1005.8 266.672L1008.59 263.811C1006.17 261.445 1003.69 259.124 1001.14 256.851L998.477 259.835ZM1011.42 272.379C1013.74 274.815 1015.98 277.291 1018.14 279.802L1021.17 277.191C1018.96 274.631 1016.68 272.107 1014.32 269.625L1011.42 272.379ZM1023.24 285.974C1025.33 288.607 1027.33 291.273 1029.24 293.967L1032.5 291.653C1030.55 288.9 1028.51 286.177 1026.37 283.489L1023.24 285.974ZM1033.72 300.594C1035.53 303.424 1037.25 306.278 1038.85 309.15L1042.35 307.2C1040.7 304.253 1038.94 301.329 1037.08 298.432L1033.72 300.594ZM1042.56 316.216C1044.04 319.24 1045.4 322.278 1046.63 325.322L1050.34 323.829C1049.07 320.69 1047.68 317.563 1046.15 314.455L1042.56 316.216ZM1049.36 332.794C1050.41 335.981 1051.31 339.168 1052.05 342.348L1055.94 341.441C1055.18 338.14 1054.24 334.838 1053.16 331.543L1049.36 332.794ZM1053.54 350.129C1054.04 353.425 1054.36 356.707 1054.49 359.966L1058.49 359.804C1058.35 356.393 1058.02 352.967 1057.5 349.533L1053.54 350.129ZM1054.44 367.859C1054.35 369.502 1054.21 371.138 1054.01 372.765L1057.99 373.235C1058.19 371.524 1058.34 369.805 1058.43 368.079L1054.44 367.859ZM1054.01 372.765C1053.84 374.274 1053.57 375.798 1053.23 377.338L1057.13 378.21C1057.5 376.546 1057.79 374.888 1057.99 373.235L1054.01 372.765ZM1051.09 384.534C1050.05 387.383 1048.77 390.271 1047.28 393.191L1050.85 395.003C1052.4 391.963 1053.74 388.928 1054.85 385.909L1051.09 384.534ZM1043.58 399.865C1041.98 402.53 1040.24 405.213 1038.38 407.907L1041.67 410.181C1043.58 407.425 1045.37 404.67 1047.01 401.921L1043.58 399.865ZM1033.89 414.142C1031.99 416.671 1030.01 419.206 1027.96 421.743L1031.07 424.257C1033.14 421.689 1035.16 419.115 1037.09 416.541L1033.89 414.142ZM1023.03 427.693C1020.97 430.138 1018.85 432.58 1016.71 435.016L1019.72 437.657C1021.87 435.205 1024 432.743 1026.09 430.274L1023.03 427.693ZM1011.57 440.808C1009.41 443.217 1007.23 445.616 1005.06 448.002L1008.02 450.693C1010.19 448.304 1012.37 445.898 1014.54 443.479L1011.57 440.808ZM999.836 453.743C997.633 456.165 995.449 458.57 993.307 460.954L996.282 463.628C998.416 461.253 1000.59 458.855 1002.79 456.435L999.836 453.743ZM988.129 466.775C985.938 469.268 983.81 471.736 981.769 474.171L984.835 476.74C986.851 474.334 988.958 471.891 991.133 469.416L988.129 466.775ZM976.823 480.244C974.721 482.909 972.752 485.533 970.949 488.11L974.226 490.403C975.977 487.901 977.899 485.339 979.963 482.721L976.823 480.244ZM966.63 494.749C965.758 496.211 964.951 497.659 964.22 499.089L967.78 500.911C968.468 499.567 969.232 498.195 970.065 496.798L966.63 494.749ZM964.22 499.089C963.482 500.531 962.789 501.991 962.141 503.469L965.803 505.076C966.42 503.671 967.079 502.282 967.78 500.911L964.22 499.089ZM959.361 510.702C958.343 513.765 957.501 516.884 956.83 520.042L960.743 520.873C961.383 517.857 962.187 514.882 963.157 511.963L959.361 510.702ZM955.55 527.67C955.153 530.86 954.922 534.076 954.853 537.303L958.852 537.388C958.918 534.295 959.139 531.215 959.519 528.164L955.55 527.67ZM954.996 545.025C955.181 548.228 955.522 551.43 956.015 554.617L959.968 554.005C959.494 550.943 959.167 547.868 958.989 544.794L954.996 545.025ZM957.481 562.192C958.207 565.315 959.081 568.413 960.097 571.47L963.893 570.207C962.915 567.267 962.075 564.289 961.377 561.285L957.481 562.192ZM962.799 578.693C964.033 581.655 965.405 584.566 966.913 587.411L970.448 585.538C968.998 582.802 967.678 580.003 966.491 577.155L962.799 578.693ZM970.779 594.088C972.49 596.803 974.332 599.443 976.303 601.995L979.469 599.549C977.577 597.1 975.807 594.564 974.163 591.955L970.779 594.088ZM981.257 607.916C982.336 609.107 983.445 610.274 984.586 611.414L987.414 608.586C986.321 607.493 985.257 606.374 984.222 605.231L981.257 607.916Z" fill="#E4E4E4"/>

</svg>
