<svg width="52" height="139" viewBox="0 0 52 139" fill="none" xmlns="http://www.w3.org/2000/svg">
<path d="M22.5403 136.501C22.2257 137.56 21.1123 138.163 20.0535 137.849L2.79909 132.722C1.74028 132.407 1.13698 131.294 1.4516 130.235C1.76622 129.176 2.87961 128.573 3.93842 128.888L19.2757 133.445L23.833 118.108C24.1476 117.049 25.261 116.446 26.3198 116.76C27.3786 117.075 27.9819 118.188 27.6673 119.247L22.5403 136.501ZM49.8923 1.99999C50.8749 3.74194 50.8756 3.74156 50.876 3.74134C50.8757 3.7415 50.8758 3.74145 50.8753 3.74175C50.8742 3.74235 50.872 3.74362 50.8686 3.74556C50.8618 3.74944 50.8503 3.75598 50.8343 3.7652C50.8023 3.78363 50.7522 3.81273 50.6846 3.85252C50.5494 3.9321 50.3446 4.05438 50.0764 4.21942C49.5399 4.54954 48.7502 5.0505 47.7568 5.72268C45.7695 7.06742 42.9706 9.0951 39.7565 11.8084C33.3222 17.2401 25.2587 25.3896 18.6969 36.274C5.64723 57.9202 -1.63918 90.648 22.3816 134.979L18.8647 136.885C-5.84429 91.2836 1.50386 57.0455 15.2712 34.2088C22.118 22.8518 30.5085 14.3806 37.1762 8.75189C40.5131 5.93503 43.4272 3.82263 45.5151 2.40984C46.5593 1.70325 47.3978 1.17107 47.9801 0.812745C48.2712 0.633565 48.4985 0.497802 48.6555 0.405387C48.734 0.359177 48.7949 0.323799 48.8375 0.299245C48.8589 0.286968 48.8756 0.277396 48.8876 0.270528C48.8937 0.267094 48.8985 0.264336 48.9022 0.262254C48.904 0.261214 48.9059 0.260158 48.9068 0.259638C48.9084 0.258752 48.9096 0.258035 49.8923 1.99999Z" fill="#242938"/>
</svg>
