<svg width="341" height="251" viewBox="0 0 341 251" fill="none" xmlns="http://www.w3.org/2000/svg">
<path d="M129.613 59.6759C129.157 59.0615 128.29 58.9323 127.676 59.3875C127.061 59.8426 126.932 60.7097 127.387 61.3241L129.613 59.6759ZM87.8863 127.462L87.2912 126.212L87.8863 127.462ZM71.8177 125.714L70.7468 126.592L70.8215 126.683L70.9105 126.76L71.8177 125.714ZM14.2135 159.354C14.9615 159.513 15.6963 159.035 15.8548 158.287L18.4365 146.097C18.595 145.349 18.117 144.614 17.369 144.455C16.6209 144.297 15.8861 144.775 15.7276 145.523L13.4327 156.359L2.59709 154.064C1.84904 153.905 1.1142 154.383 0.955769 155.131C0.797339 155.879 1.27532 156.614 2.02336 156.773L14.2135 159.354ZM14.0456 154.498C13.6886 153.822 12.8511 153.563 12.1749 153.92C11.4986 154.277 11.2399 155.115 11.5968 155.791L14.0456 154.498ZM9.4034 150.736C9.65232 151.459 10.4402 151.843 11.1632 151.594C11.8862 151.345 12.2705 150.557 12.0216 149.834L9.4034 150.736ZM10.5698 143.677C10.4703 142.919 9.77503 142.385 9.01689 142.484C8.25876 142.584 7.72483 143.279 7.82433 144.037L10.5698 143.677ZM7.55364 138.534C7.52908 139.298 8.12871 139.937 8.89296 139.962C9.6572 139.986 10.2967 139.387 10.3212 138.622L7.55364 138.534ZM11.1602 132.349C11.3368 131.605 10.8769 130.858 10.133 130.682C9.38902 130.505 8.64274 130.965 8.46611 131.709L11.1602 132.349ZM10.1582 126.469C9.86659 127.176 10.2032 127.985 10.9101 128.277C11.6169 128.568 12.4263 128.232 12.7179 127.525L10.1582 126.469ZM15.6982 121.933C16.1226 121.297 15.951 120.437 15.3149 120.013C14.6788 119.589 13.8192 119.76 13.3948 120.396L15.6982 121.933ZM16.8092 116.071C16.2887 116.631 16.3207 117.507 16.8808 118.028C17.4409 118.548 18.3169 118.516 18.8375 117.956L16.8092 116.071ZM23.5936 113.798C24.2191 113.358 24.3695 112.495 23.9297 111.869C23.4898 111.244 22.6262 111.093 22.0007 111.533L23.5936 113.798ZM26.7854 108.759C26.0925 109.082 25.7931 109.906 26.1165 110.599C26.44 111.292 27.2639 111.591 27.9567 111.268L26.7854 108.759ZM33.9162 109.275C34.6645 109.117 35.1435 108.383 34.986 107.635C34.8286 106.887 34.0944 106.408 33.3461 106.565L33.9162 109.275ZM38.8539 105.931C38.0894 105.948 37.4836 106.582 37.5008 107.346C37.518 108.111 38.1516 108.716 38.9161 108.699L38.8539 105.931ZM45.1883 109.259C45.9381 109.409 46.6674 108.923 46.8172 108.173C46.9671 107.423 46.4807 106.694 45.7309 106.544L45.1883 109.259ZM51.0233 108.054C50.3064 107.787 49.5096 108.153 49.2434 108.87C48.9772 109.586 49.3425 110.383 50.0594 110.649L51.0233 108.054ZM55.8074 113.379C56.4687 113.763 57.3159 113.538 57.6998 112.877C58.0836 112.216 57.8587 111.369 57.1974 110.985L55.8074 113.379ZM61.7485 113.998C61.1356 113.541 60.2681 113.667 59.811 114.28C59.3538 114.893 59.4801 115.761 60.0931 116.218L61.7485 113.998ZM65.0073 120.379C65.5614 120.906 66.4378 120.884 66.9647 120.33C67.4916 119.775 67.4695 118.899 66.9154 118.372L65.0073 120.379ZM70.6697 122.246C70.1593 121.677 69.284 121.629 68.7146 122.14C68.1453 122.65 68.0975 123.525 68.608 124.095L70.6697 122.246ZM73.3838 129.001C73.9382 129.527 74.8146 129.505 75.3411 128.95C75.8676 128.396 75.845 127.52 75.2905 126.993L73.3838 129.001ZM79.0429 130.898C78.5432 130.32 77.6689 130.256 77.0902 130.755C76.5115 131.255 76.4475 132.129 76.9473 132.708L79.0429 130.898ZM80.5896 137.914C80.9388 138.594 81.7733 138.863 82.4536 138.513C83.1338 138.164 83.4022 137.33 83.053 136.65L80.5896 137.914ZM84.6628 142.335C84.6494 141.571 84.0188 140.962 83.2542 140.975C82.4897 140.989 81.8808 141.619 81.8942 142.384L84.6628 142.335ZM79.5187 146.828C78.8831 147.253 78.7124 148.113 79.1375 148.748C79.5626 149.384 80.4224 149.554 81.058 149.129L79.5187 146.828ZM75.3995 151.03C76.1607 150.959 76.7198 150.284 76.6482 149.522C76.5767 148.761 75.9015 148.202 75.1402 148.274L75.3995 151.03ZM69.5512 147.225C68.9031 146.819 68.0488 147.016 67.643 147.664C67.2372 148.312 67.4336 149.166 68.0816 149.572L69.5512 147.225ZM65.4146 143.597C65.2572 144.345 65.7363 145.079 66.4846 145.237C67.2328 145.394 67.967 144.915 68.1243 144.167L65.4146 143.597ZM71.3562 139.381C71.9071 138.851 71.9237 137.974 71.3934 137.423C70.8631 136.872 69.9867 136.856 69.4358 137.386L71.3562 139.381ZM73.7029 133.91C73.0795 134.353 72.933 135.217 73.3757 135.84C73.8184 136.464 74.6827 136.61 75.3062 136.167L73.7029 133.91ZM80.8069 132.692C81.4708 132.313 81.7015 131.467 81.3222 130.803C80.9428 130.139 80.0971 129.909 79.4332 130.288L80.8069 132.692ZM84.1855 127.737C83.5035 128.082 83.2309 128.915 83.5766 129.597C83.9223 130.279 84.7554 130.552 85.4374 130.206L84.1855 127.737ZM91.2107 127.481C91.9143 127.182 92.2422 126.369 91.9429 125.665C91.6437 124.961 90.8306 124.634 90.127 124.933L91.2107 127.481ZM94.7577 123.17C94.0326 123.412 93.6416 124.197 93.8844 124.922C94.1271 125.647 94.9117 126.038 95.6368 125.795L94.7577 123.17ZM101.346 124.24C102.094 124.083 102.574 123.348 102.416 122.6C102.259 121.852 101.525 121.373 100.777 121.53L101.346 124.24ZM105.688 120.724C104.929 120.818 104.39 121.509 104.483 122.268C104.577 123.027 105.268 123.566 106.027 123.472L105.688 120.724ZM112.051 122.847C112.811 122.762 113.358 122.076 113.273 121.317C113.188 120.557 112.503 120.01 111.743 120.095L112.051 122.847ZM116.336 119.309C115.596 119.5 115.15 120.254 115.34 120.995C115.531 121.736 116.285 122.182 117.026 121.991L116.336 119.309ZM122.975 119.543C123.635 119.158 123.858 118.31 123.473 117.65C123.088 116.989 122.24 116.766 121.58 117.151L122.975 119.543ZM125.35 114.473C124.763 114.962 124.683 115.835 125.173 116.422C125.663 117.01 126.536 117.089 127.123 116.599L125.35 114.473ZM131.717 112.026C132.196 111.43 132.101 110.558 131.505 110.08C130.908 109.601 130.037 109.696 129.558 110.292L131.717 112.026ZM132.19 106.273C131.832 106.949 132.09 107.787 132.766 108.145C133.442 108.503 134.28 108.245 134.637 107.569L132.19 106.273ZM137.107 101.438C137.322 100.704 136.902 99.9346 136.168 99.7194C135.435 99.5042 134.665 99.9246 134.45 100.658L137.107 101.438ZM135.498 95.8867C135.383 96.6427 135.903 97.3487 136.659 97.4636C137.415 97.5786 138.121 97.059 138.236 96.303L135.498 95.8867ZM138.744 89.7882C138.75 89.0236 138.135 88.3985 137.371 88.3921C136.606 88.3857 135.981 89.0003 135.975 89.7649L138.744 89.7882ZM135.764 84.8357C135.835 85.5971 136.509 86.1572 137.271 86.0869C138.032 86.0165 138.592 85.3423 138.522 84.5809L135.764 84.8357ZM137.542 78.1526C137.383 77.4047 136.648 76.9274 135.9 77.0865C135.152 77.2456 134.674 77.9808 134.833 78.7288L137.542 78.1526ZM133.581 73.9459C133.809 74.6757 134.586 75.0822 135.316 74.8539C136.045 74.6257 136.452 73.849 136.224 73.1193L133.581 73.9459ZM133.9 67.0364C133.582 66.3412 132.76 66.0356 132.065 66.3539C131.369 66.6722 131.064 67.4939 131.382 68.1891L133.9 67.0364ZM129.087 63.8526C129.485 64.5052 130.337 64.711 130.99 64.3125C131.642 63.9139 131.848 63.0618 131.45 62.4092L129.087 63.8526ZM15.6609 157.245C15.0703 156.337 14.5325 155.421 14.0456 154.498L11.5968 155.791C12.1233 156.788 12.7037 157.777 13.3397 158.755L15.6609 157.245ZM12.0216 149.834C11.3166 147.787 10.8387 145.726 10.5698 143.677L7.82433 144.037C8.11725 146.269 8.63749 148.511 9.4034 150.736L12.0216 149.834ZM10.3212 138.622C10.3898 136.488 10.6763 134.387 11.1602 132.349L8.46611 131.709C7.9401 133.925 7.6283 136.21 7.55364 138.534L10.3212 138.622ZM12.7179 127.525C13.5291 125.558 14.53 123.684 15.6982 121.933L13.3948 120.396C12.1258 122.298 11.0389 124.334 10.1582 126.469L12.7179 127.525ZM18.8375 117.956C20.2792 116.405 21.8726 115.008 23.5936 113.798L22.0007 111.533C20.1178 112.857 18.3791 114.382 16.8092 116.071L18.8375 117.956ZM27.9567 111.268C29.844 110.387 31.8379 109.712 33.9162 109.275L33.3461 106.565C31.0549 107.047 28.8597 107.79 26.7854 108.759L27.9567 111.268ZM38.9161 108.699C40.9498 108.653 43.0461 108.831 45.1883 109.259L45.7309 106.544C43.3917 106.076 41.0926 105.881 38.8539 105.931L38.9161 108.699ZM50.0594 110.649C51.952 111.352 53.8718 112.256 55.8074 113.379L57.1974 110.985C55.1317 109.786 53.0697 108.813 51.0233 108.054L50.0594 110.649ZM60.0931 116.218C61.7283 117.437 63.3688 118.821 65.0073 120.379L66.9154 118.372C65.2012 116.742 63.4767 115.287 61.7485 113.998L60.0931 116.218ZM68.608 124.095C69.3225 124.892 70.0357 125.724 70.7468 126.592L72.8886 124.837C72.1522 123.938 71.4124 123.075 70.6697 122.246L68.608 124.095ZM70.9105 126.76C71.7968 127.529 72.6201 128.276 73.3838 129.001L75.2905 126.993C74.4947 126.237 73.6404 125.462 72.7249 124.668L70.9105 126.76ZM76.9473 132.708C78.6242 134.65 79.8038 136.383 80.5896 137.914L83.053 136.65C82.1445 134.88 80.8278 132.965 79.0429 130.898L76.9473 132.708ZM81.8942 142.384C81.9295 144.402 80.9913 145.843 79.5187 146.828L81.058 149.129C83.1987 147.698 84.7169 145.425 84.6628 142.335L81.8942 142.384ZM75.1402 148.274C72.9718 148.478 70.8871 148.062 69.5512 147.225L68.0816 149.572C70.0705 150.818 72.8095 151.274 75.3995 151.03L75.1402 148.274ZM68.1243 144.167C68.369 143.003 69.2607 141.398 71.3562 139.381L69.4358 137.386C67.1478 139.589 65.8211 141.663 65.4146 143.597L68.1243 144.167ZM75.3062 136.167C76.8478 135.073 78.6698 133.913 80.8069 132.692L79.4332 130.288C77.2307 131.546 75.3302 132.754 73.7029 133.91L75.3062 136.167ZM85.4374 130.206C86.4041 129.716 87.4182 129.218 88.4815 128.712L87.2912 126.212C86.2083 126.727 85.1737 127.236 84.1855 127.737L85.4374 130.206ZM88.4815 128.712C89.4224 128.264 90.3315 127.855 91.2107 127.481L90.127 124.933C89.211 125.322 88.2665 125.747 87.2912 126.212L88.4815 128.712ZM95.6368 125.795C97.7039 125.103 99.5936 124.608 101.346 124.24L100.777 121.53C98.9248 121.919 96.9314 122.442 94.7577 123.17L95.6368 125.795ZM106.027 123.472C108.229 123.2 110.059 123.07 112.051 122.847L111.743 120.095C109.961 120.295 107.834 120.459 105.688 120.724L106.027 123.472ZM117.026 121.991C118.971 121.491 120.92 120.742 122.975 119.543L121.58 117.151C119.762 118.211 118.053 118.868 116.336 119.309L117.026 121.991ZM127.123 116.599C127.882 115.966 128.66 115.268 129.46 114.497L127.54 112.503C126.783 113.232 126.054 113.885 125.35 114.473L127.123 116.599ZM129.46 114.497C130.271 113.717 131.022 112.891 131.717 112.026L129.558 110.292C128.935 111.068 128.263 111.806 127.54 112.503L129.46 114.497ZM134.637 107.569C135.664 105.631 136.481 103.573 137.107 101.438L134.45 100.658C133.872 102.631 133.122 104.514 132.19 106.273L134.637 107.569ZM138.236 96.303C138.561 94.1656 138.725 91.9826 138.744 89.7882L135.975 89.7649C135.957 91.8374 135.802 93.8886 135.498 95.8867L138.236 96.303ZM138.522 84.5809C138.322 82.4162 137.991 80.2627 137.542 78.1526L134.833 78.7288C135.26 80.7354 135.575 82.7815 135.764 84.8357L138.522 84.5809ZM136.224 73.1193C135.563 71.0073 134.784 68.9674 133.9 67.0364L131.382 68.1891C132.216 70.0096 132.954 71.9403 133.581 73.9459L136.224 73.1193ZM131.45 62.4092C130.866 61.4542 130.253 60.5409 129.613 59.6759L127.387 61.3241C127.976 62.1189 128.544 62.9636 129.087 63.8526L131.45 62.4092Z" fill="#E4E4E4"/>
<path d="M165.456 75.6053C165.956 75.0193 166.828 74.9448 167.404 75.4389C167.981 75.933 168.043 76.8087 167.543 77.3947L165.456 75.6053ZM159.846 248.295C159.673 249.044 158.931 249.519 158.188 249.356L146.08 246.7C145.337 246.537 144.875 245.798 145.047 245.049C145.22 244.3 145.962 243.825 146.705 243.988L157.467 246.349L159.964 235.499C160.136 234.75 160.879 234.275 161.622 234.438C162.365 234.601 162.827 235.34 162.655 236.089L159.846 248.295ZM166.5 76.5C167.543 77.3947 167.543 77.3945 167.543 77.3945C167.543 77.3949 167.543 77.3953 167.542 77.3961C167.541 77.3977 167.538 77.4006 167.535 77.4046C167.528 77.4126 167.517 77.4254 167.503 77.4428C167.473 77.4777 167.429 77.5313 167.369 77.6035C167.25 77.7477 167.072 77.9661 166.841 78.2566C166.379 78.8375 165.704 79.707 164.863 80.8496C163.181 83.1351 160.836 86.5121 158.2 90.8588C152.927 99.5547 146.499 112.116 141.885 127.57C132.666 158.444 130.668 200.893 159.672 247.25L157.328 248.75C127.832 201.607 129.834 158.306 139.24 126.805C143.938 111.071 150.479 98.289 155.847 89.438C158.531 85.0113 160.924 81.5641 162.65 79.2187C163.513 78.0459 164.21 77.1483 164.693 76.541C164.935 76.2374 165.123 76.0063 165.252 75.8497C165.317 75.7715 165.366 75.7118 165.401 75.671C165.418 75.6505 165.431 75.6348 165.44 75.6239C165.445 75.6184 165.449 75.6141 165.451 75.611C165.453 75.6095 165.454 75.608 165.454 75.6073C165.455 75.6061 165.456 75.6053 166.5 76.5Z" fill="#242938"/>
<path d="M290.372 40.4259L289.721 41.6478L290.372 40.4259ZM310.005 40.1639L308.702 39.6943L310.005 40.1639ZM275.742 49.6121L274.36 49.5271L275.742 49.6121ZM287.209 142.847C286.455 142.973 285.742 142.463 285.616 141.709L283.571 129.417C283.445 128.663 283.955 127.95 284.709 127.824C285.464 127.699 286.177 128.209 286.302 128.963L288.12 139.889L299.046 138.071C299.8 137.945 300.514 138.455 300.639 139.209C300.765 139.963 300.255 140.676 299.501 140.802L287.209 142.847ZM194.874 38.9289C195.932 38.3925 196.975 37.867 198.003 37.3531L199.241 39.8297C198.219 40.3411 197.18 40.8643 196.125 41.3989L194.874 38.9289ZM203.049 34.8701C205.228 33.8182 207.346 32.8265 209.416 31.9011L210.546 34.4291C208.506 35.341 206.413 36.3208 204.252 37.3638L203.049 34.8701ZM214.607 29.6859C216.856 28.7767 219.062 27.9568 221.243 27.235L222.113 29.8639C219.997 30.5641 217.848 31.3627 215.645 32.253L214.607 29.6859ZM226.699 25.63C229.031 25.0342 231.354 24.5621 233.693 24.2247L234.089 26.9654C231.855 27.2876 229.629 27.7395 227.385 28.3128L226.699 25.63ZM239.39 23.6776C241.733 23.5664 244.107 23.5945 246.536 23.7713L246.335 26.533C244.016 26.3642 241.753 26.3375 239.521 26.4435L239.39 23.6776ZM252.207 24.4403C254.468 24.8065 256.786 25.2971 259.178 25.9179L258.482 28.5981C256.169 27.9975 253.935 27.5253 251.764 27.1737L252.207 24.4403ZM264.613 27.5117C266.763 28.2116 268.977 29.0103 271.265 29.9115L270.25 32.4878C268.01 31.6053 265.848 30.8259 263.756 30.1448L264.613 27.5117ZM276.477 32.0851C278.546 32.9938 280.677 33.9808 282.877 35.0485L281.668 37.5395C279.497 36.4858 277.398 35.5138 275.363 34.6205L276.477 32.0851ZM287.895 37.5633C288.923 38.0936 289.965 38.6404 291.023 39.2039L289.721 41.6478C288.674 41.0898 287.642 40.5486 286.625 40.0241L287.895 37.5633ZM291.023 39.2039C291.685 39.5567 292.566 39.9528 293.597 40.3429L292.616 42.9324C291.503 42.5111 290.511 42.0683 289.721 41.6478L291.023 39.2039ZM297.998 41.6744C299.911 42.1133 301.858 42.3733 303.581 42.3193L303.668 45.0869C301.631 45.1507 299.435 44.8449 297.379 44.3733L297.998 41.6744ZM307.421 41.3352C308.007 40.9408 308.443 40.4149 308.702 39.6943L311.307 40.6335C310.837 41.9366 310.015 42.9273 308.966 43.633L307.421 41.3352ZM308.702 39.6943C309.131 38.5043 309.295 37.4755 309.27 36.5968L312.038 36.5181C312.075 37.8034 311.832 39.1792 311.307 40.6335L308.702 39.6943ZM307.195 32.6627C305.767 31.5906 303.633 30.9043 301.037 30.7343L301.218 27.9712C304.145 28.1629 306.86 28.9486 308.858 30.4485L307.195 32.6627ZM295.531 31.0918C293.323 31.4983 291.064 32.2153 288.919 33.2438L287.722 30.747C290.094 29.6097 292.587 28.8182 295.03 28.3686L295.531 31.0918ZM284.226 36.1856C282.451 37.6176 280.903 39.3219 279.707 41.2962L277.339 39.8615C278.718 37.5837 280.49 35.6422 282.487 34.0307L284.226 36.1856ZM277.633 46.3095C277.371 47.3786 277.197 48.5074 277.123 49.6971L274.36 49.5271C274.443 48.1749 274.642 46.8824 274.943 45.6505L277.633 46.3095ZM277.123 49.6971C277.06 50.7338 277.08 51.7925 277.175 52.8745L274.417 53.1185C274.31 51.9124 274.287 50.7147 274.36 49.5271L277.123 49.6971ZM278.109 57.979C278.646 60.0014 279.373 62.0865 280.238 64.239L277.669 65.2712C276.775 63.0468 276.007 60.8511 275.433 58.69L278.109 57.979ZM282.375 69.1575C283.292 71.1456 284.278 73.1747 285.296 75.2527L282.81 76.4711C281.791 74.3912 280.792 72.337 279.86 70.317L282.375 69.1575ZM287.685 80.1377C288.665 82.1614 289.643 84.2256 290.582 86.3267L288.053 87.4562C287.131 85.3912 286.166 83.355 285.193 81.3444L287.685 80.1377ZM292.719 91.385C293.561 93.5143 294.339 95.6823 295.016 97.8877L292.369 98.7007C291.717 96.5765 290.965 94.4777 290.144 92.4035L292.719 91.385ZM296.431 103.248C296.923 105.504 297.289 107.797 297.491 110.127L294.733 110.367C294.541 108.167 294.195 105.991 293.726 103.839L296.431 103.248ZM297.649 115.715C297.575 118.003 297.326 120.321 296.872 122.669L294.153 122.143C294.579 119.945 294.812 117.773 294.881 115.626L297.649 115.715ZM295.457 128.1C294.757 130.23 293.876 132.378 292.796 134.546L290.318 133.31C291.34 131.26 292.169 129.235 292.826 127.235L295.457 128.1ZM290.058 139.391C289.45 140.353 288.8 141.318 288.108 142.287L285.855 140.677C286.518 139.75 287.138 138.828 287.718 137.911L290.058 139.391Z" fill="#E4E4E4"/>
</svg>
