<svg width="291" height="322" viewBox="0 0 291 322" fill="none" xmlns="http://www.w3.org/2000/svg">
<path d="M189.053 316.384C188.289 316.413 187.646 315.818 187.616 315.054L187.134 302.603C187.105 301.838 187.7 301.195 188.464 301.166C189.228 301.136 189.872 301.731 189.901 302.495L190.33 313.563L201.397 313.135C202.161 313.105 202.805 313.701 202.834 314.465C202.864 315.229 202.268 315.872 201.504 315.902L189.053 316.384ZM174.185 81.3833C164.449 86.9333 158.649 93.3825 155.674 100.514C152.693 107.657 152.478 115.649 154.217 124.4C157.713 141.995 168.983 162.163 180.594 183.742C192.141 205.202 203.971 227.974 208.188 250.467C212.425 273.061 208.991 295.437 190.016 315.941L187.984 314.06C206.258 294.314 209.574 272.877 205.467 250.977C201.341 228.975 189.733 206.571 178.155 185.054C166.641 163.655 155.098 143.044 151.501 124.94C149.693 115.842 149.861 107.253 153.118 99.4472C156.381 91.6283 162.675 84.7577 172.814 78.9777L174.185 81.3833Z" fill="#242938"/>
<path d="M54.3438 176.795C53.6337 177.078 52.8282 176.732 52.5446 176.022L47.9243 164.45C47.6408 163.74 47.9866 162.934 48.6968 162.651C49.4069 162.367 50.2124 162.713 50.4959 163.423L54.6029 173.71L64.8893 169.603C65.5994 169.319 66.405 169.665 66.6885 170.375C66.972 171.085 66.6262 171.891 65.916 172.174L54.3438 176.795ZM37.9996 52.9999L39.2361 52.377L37.9996 52.9999ZM68.2635 1.8275C68.911 1.42079 69.7656 1.61599 70.1723 2.26347C70.579 2.91098 70.3838 3.76559 69.7363 4.1723L68.2635 1.8275ZM53.9787 171.537C54.262 170.827 55.0675 170.481 55.7777 170.764C56.4879 171.048 56.834 171.853 56.5507 172.563L53.9787 171.537ZM58.6384 166.886C58.397 167.611 57.6132 168.004 56.8876 167.762C56.1621 167.521 55.7696 166.737 56.011 166.012L58.6384 166.886ZM57.9429 158.981C58.0989 158.232 58.8322 157.752 59.5808 157.908C60.3293 158.064 60.8097 158.797 60.6537 159.546L57.9429 158.981ZM61.5115 153.455C61.4599 154.217 60.7996 154.794 60.0367 154.743C59.2738 154.691 58.6972 154.031 58.7488 153.268L61.5115 153.455ZM58.4726 146.133C58.3587 145.377 58.8793 144.672 59.6354 144.558C60.3915 144.444 61.0968 144.965 61.2107 145.721L58.4726 146.133ZM59.7651 139.702C60.0038 140.429 59.6083 141.211 58.8819 141.45C58.1554 141.689 57.3731 141.293 57.1344 140.567L59.7651 139.702ZM54.3101 133.903C53.9621 133.222 54.2319 132.388 54.9127 132.04C55.5935 131.692 56.4276 131.961 56.7756 132.642L54.3101 133.903ZM53.787 127.359C54.1875 128.01 53.9843 128.863 53.333 129.264C52.6817 129.664 51.8289 129.461 51.4284 128.81L53.787 127.359ZM47.358 122.651C46.9195 122.024 47.0718 121.161 47.6982 120.722C48.3247 120.284 49.1879 120.436 49.6264 121.063L47.358 122.651ZM46.1102 116.194C46.5656 116.809 46.4369 117.676 45.8227 118.131C45.2085 118.587 44.3414 118.458 43.886 117.844L46.1102 116.194ZM39.4017 111.929C38.9346 111.324 39.0468 110.454 39.6522 109.987C40.2576 109.52 41.127 109.632 41.5941 110.238L39.4017 111.929ZM37.9117 105.506C38.3834 106.108 38.2778 106.978 37.676 107.45C37.0742 107.922 36.204 107.816 35.7323 107.214L37.9117 105.506ZM31.0559 101.485C30.5388 100.922 30.5763 100.046 31.1396 99.5293C31.7029 99.0122 32.5787 99.0497 33.0958 99.613L31.0559 101.485ZM28.5023 95.34C29.1071 95.8079 29.2182 96.6774 28.7504 97.2822C28.2826 97.8871 27.413 97.9982 26.8082 97.5304L28.5023 95.34ZM20.6562 94.1989C19.9245 93.977 19.5112 93.204 19.733 92.4723C19.9549 91.7405 20.7279 91.3272 21.4597 91.549L20.6562 94.1989ZM14.8654 91.0696C15.6192 90.9409 16.3345 91.4476 16.4632 92.2013C16.5919 92.9551 16.0852 93.6704 15.3315 93.7991L14.8654 91.0696ZM9.47155 96.8625C8.92142 97.3936 8.04494 97.3781 7.51387 96.828C6.9828 96.2779 6.99825 95.4014 7.54837 94.8703L9.47155 96.8625ZM3.7991 100.183C4.12403 99.4909 4.94855 99.1932 5.64071 99.5181C6.33288 99.843 6.63058 100.668 6.30565 101.36L3.7991 100.183ZM4.67635 108.102C4.65131 108.866 4.01149 109.465 3.24726 109.44C2.48303 109.415 1.88379 108.775 1.90883 108.011L4.67635 108.102ZM2.88367 114.457C2.62446 113.737 2.99748 112.944 3.71683 112.685C4.43619 112.426 5.22948 112.799 5.4887 113.518L2.88367 114.457ZM9.3931 118.911C9.99878 119.378 10.1114 120.247 9.64471 120.853C9.17799 121.458 8.30865 121.571 7.70297 121.104L9.3931 118.911ZM13.5627 123.953C12.8254 123.75 12.3921 122.988 12.5949 122.251C12.7977 121.514 13.5598 121.081 14.297 121.283L13.5627 123.953ZM21.1695 122.156C21.9329 122.199 22.5165 122.854 22.473 123.617C22.4295 124.38 21.7754 124.964 21.012 124.92L21.1695 122.156ZM26.5859 125.081C25.8212 125.081 25.2018 124.46 25.2022 123.696C25.2027 122.931 25.8229 122.312 26.5875 122.312L26.5859 125.081ZM33.3548 122.073C34.1174 122.018 34.7802 122.592 34.835 123.355C34.8898 124.117 34.316 124.78 33.5534 124.835L33.3548 122.073ZM39.1066 124.265C38.3487 124.367 37.652 123.835 37.5504 123.077C37.4488 122.319 37.9808 121.623 38.7387 121.521L39.1066 124.265ZM45.3925 120.347C46.1391 120.181 46.8783 120.652 47.0436 121.399C47.209 122.145 46.7378 122.885 45.9913 123.05L45.3925 120.347ZM51.4125 121.632C50.6809 121.855 49.9075 121.442 49.685 120.711C49.4625 119.979 49.8751 119.206 50.6066 118.983L51.4125 121.632ZM56.9092 116.677C57.6103 116.372 58.426 116.693 58.7312 117.394C59.0364 118.095 58.7154 118.911 58.0143 119.216L56.9092 116.677ZM63.0618 116.68C62.3999 117.063 61.5529 116.837 61.1701 116.175C60.7872 115.513 61.0134 114.666 61.6752 114.283L63.0618 116.68ZM67.0914 110.487C67.6727 109.99 68.5466 110.059 69.0434 110.64C69.5403 111.221 69.4718 112.095 68.8906 112.592L67.0914 110.487ZM72.9025 108.476C72.4245 109.073 71.5532 109.169 70.9564 108.691C70.3596 108.213 70.2634 107.342 70.7414 106.745L72.9025 108.476ZM74.037 101.197C74.3265 100.489 75.1349 100.15 75.8426 100.439C76.5503 100.729 76.8893 101.537 76.5998 102.245L74.037 101.197ZM78.1266 96.6291C78.0172 97.3859 77.315 97.9106 76.5582 97.8012C75.8015 97.6918 75.2767 96.9896 75.3861 96.2328L78.1266 96.6291ZM75.4132 89.9377C75.3081 89.1803 75.837 88.4812 76.5944 88.3762C77.3518 88.2712 78.0509 88.8 78.1559 89.5574L75.4132 89.9377ZM76.6442 84.2014C76.9579 84.8987 76.6469 85.7183 75.9496 86.032C75.2523 86.3457 74.4327 86.0347 74.119 85.3374L76.6442 84.2014ZM70.6966 80.4664C70.1558 79.9259 70.1555 79.0493 70.696 78.5084C71.2365 77.9676 72.1132 77.9673 72.654 78.5078L70.6966 80.4664ZM68.4276 75.0704C69.0596 75.5007 69.2232 76.3619 68.7929 76.994C68.3626 77.626 67.5014 77.7896 66.8693 77.3593L68.4276 75.0704ZM61.4113 74.1164C60.7386 73.7528 60.4881 72.9128 60.8517 72.2401C61.2153 71.5675 62.0553 71.3169 62.728 71.6805L61.4113 74.1164ZM58.1302 69.2413C58.8051 69.6008 59.0608 70.4392 58.7014 71.1141C58.3419 71.789 57.5034 72.0448 56.8286 71.6853L58.1302 69.2413ZM51.0993 68.4395C50.4489 68.0374 50.2476 67.1842 50.6497 66.5338C51.0518 65.8834 51.905 65.6821 52.5554 66.0842L51.0993 68.4395ZM48.39 63.2276C48.996 63.6939 49.1093 64.5631 48.6431 65.1691C48.1768 65.7752 47.3075 65.8885 46.7015 65.4222L48.39 63.2276ZM41.7351 60.8718C41.222 60.3048 41.2657 59.4293 41.8326 58.9162C42.3996 58.4032 43.2751 58.4468 43.7882 59.0138L41.7351 60.8718ZM40.7767 55.0804C41.1894 55.7242 41.002 56.5805 40.3583 56.9932C39.7145 57.4058 38.8581 57.2184 38.4455 56.5747L40.7767 55.0804ZM35.3711 50.0884C35.1588 49.3538 35.5823 48.5862 36.3169 48.374C37.0515 48.1618 37.819 48.5852 38.0313 49.3198L35.3711 50.0884ZM37.3632 44.1472C37.3476 44.9117 36.7153 45.5188 35.9508 45.5032C35.1863 45.4876 34.5792 44.8553 34.5948 44.0908L37.3632 44.1472ZM35.9377 36.7478C36.1814 36.023 36.9664 35.633 37.6912 35.8766C38.416 36.1202 38.8061 36.9053 38.5624 37.6301L35.9377 36.7478ZM40.741 32.6703C40.3788 33.3437 39.5392 33.596 38.8658 33.2338C38.1924 32.8716 37.9401 32.0321 38.3023 31.3586L40.741 32.6703ZM42.236 25.2408C42.6928 24.6276 43.5602 24.5007 44.1734 24.9575C44.7866 25.4142 44.9135 26.2816 44.4567 26.8948L42.236 25.2408ZM47.9611 22.6001C47.4541 23.1725 46.5791 23.2255 46.0067 22.7186C45.4343 22.2116 45.3812 21.3366 45.8882 20.7642L47.9611 22.6001ZM50.8782 15.5889C51.4299 15.0595 52.3063 15.0775 52.8358 15.6292C53.3652 16.1809 53.3472 17.0573 52.7955 17.5867L50.8782 15.5889ZM56.9252 13.8318C56.3465 14.3316 55.4722 14.2676 54.9724 13.689C54.4726 13.1103 54.5366 12.236 55.1153 11.7362L56.9252 13.8318ZM60.672 7.21249C61.2783 6.7466 62.1475 6.86045 62.6134 7.46677C63.0792 8.07308 62.9654 8.94228 62.3591 9.40816L60.672 7.21249ZM66.8689 6.09958C66.2421 6.53756 65.3789 6.3845 64.941 5.75771C64.503 5.13094 64.656 4.26778 65.2828 3.82982L66.8689 6.09958ZM52.5582 174.963C53.0622 173.789 53.5357 172.648 53.9787 171.537L56.5507 172.563C56.0979 173.698 55.6152 174.861 55.1026 176.055L52.5582 174.963ZM56.011 166.012C56.8384 163.525 57.4814 161.196 57.9429 158.981L60.6537 159.546C60.1666 161.883 59.4932 164.317 58.6384 166.886L56.011 166.012ZM58.7488 153.268C58.915 150.81 58.8227 148.457 58.4726 146.133L61.2107 145.721C61.5918 148.251 61.6906 150.805 61.5115 153.455L58.7488 153.268ZM57.1344 140.567C56.4235 138.403 55.4847 136.2 54.3101 133.903L56.7756 132.642C58.0042 135.046 59.0024 137.381 59.7651 139.702L57.1344 140.567ZM51.4284 128.81C50.2228 126.849 48.8669 124.806 47.358 122.651L49.6264 121.063C51.1592 123.252 52.5465 125.342 53.787 127.359L51.4284 128.81ZM43.886 117.844C42.4905 115.962 40.9962 113.996 39.4017 111.929L41.5941 110.238C43.1959 112.314 44.7014 114.295 46.1102 116.194L43.886 117.844ZM35.7323 107.214C34.9826 106.258 34.2146 105.281 33.4279 104.282L35.6032 102.569C36.3908 103.569 37.1603 104.548 37.9117 105.506L35.7323 107.214ZM33.4279 104.282C32.6285 103.267 31.8373 102.337 31.0559 101.485L33.0958 99.613C33.9274 100.519 34.7635 101.503 35.6032 102.569L33.4279 104.282ZM26.8082 97.5304C24.6218 95.8393 22.559 94.7758 20.6562 94.1989L21.4597 91.549C23.7362 92.2393 26.0954 93.4785 28.5023 95.34L26.8082 97.5304ZM15.3315 93.7991C13.0993 94.1802 11.116 95.275 9.47155 96.8625L7.54837 94.8703C9.53854 92.9491 12.0139 91.5565 14.8654 91.0696L15.3315 93.7991ZM6.30565 101.36C5.32184 103.455 4.75219 105.786 4.67635 108.102L1.90883 108.011C1.99724 105.312 2.65861 102.613 3.7991 100.183L6.30565 101.36ZM5.4887 113.518C6.23725 115.595 7.51284 117.462 9.3931 118.911L7.70297 121.104C5.37333 119.309 3.79754 116.993 2.88367 114.457L5.4887 113.518ZM14.297 121.283C15.3549 121.574 16.5173 121.786 17.7907 121.904L17.5362 124.661C16.1128 124.53 14.789 124.291 13.5627 123.953L14.297 121.283ZM17.7907 121.904C18.916 122.008 20.0429 122.092 21.1695 122.156L21.012 124.92C19.8532 124.854 18.6939 124.768 17.5362 124.661L17.7907 121.904ZM26.5875 122.312C28.8627 122.313 31.1236 122.233 33.3548 122.073L33.5534 124.835C31.2545 125 28.9268 125.082 26.5859 125.081L26.5875 122.312ZM38.7387 121.521C41.0102 121.216 43.234 120.825 45.3925 120.347L45.9913 123.05C43.7529 123.546 41.452 123.951 39.1066 124.265L38.7387 121.521ZM50.6066 118.983C52.8105 118.313 54.9185 117.544 56.9092 116.677L58.0143 119.216C55.9183 120.128 53.7097 120.934 51.4125 121.632L50.6066 118.983ZM61.6752 114.283C63.6632 113.133 65.4775 111.867 67.0914 110.487L68.8906 112.592C67.1346 114.093 65.1794 115.455 63.0618 116.68L61.6752 114.283ZM70.7414 106.745C72.1172 105.028 73.2265 103.178 74.037 101.197L76.5998 102.245C75.6817 104.489 74.432 106.567 72.9025 108.476L70.7414 106.745ZM75.3861 96.2328C75.537 95.1891 75.615 94.1116 75.6151 92.9999L78.3841 93C78.384 94.2415 78.2969 95.4515 78.1266 96.6291L75.3861 96.2328ZM75.6151 92.9999C75.6151 91.9079 75.5452 90.8899 75.4132 89.9377L78.1559 89.5574C78.3066 90.6441 78.3841 91.7896 78.3841 93L75.6151 92.9999ZM74.119 85.3374C73.2825 83.4779 72.12 81.8889 70.6966 80.4664L72.654 78.5078C74.2792 80.132 75.6506 81.9925 76.6442 84.2014L74.119 85.3374ZM66.8693 77.3593C65.1992 76.2223 63.363 75.1715 61.4113 74.1164L62.728 71.6805C64.7085 72.7511 66.6413 73.8543 68.4276 75.0704L66.8693 77.3593ZM56.8286 71.6853C54.9379 70.6784 53.0038 69.6169 51.0993 68.4395L52.5554 66.0842C54.3839 67.2147 56.2565 68.2434 58.1302 69.2413L56.8286 71.6853ZM46.7015 65.4222C44.9609 64.083 43.2863 62.5859 41.7351 60.8718L43.7882 59.0138C45.2118 60.5869 46.7598 61.9733 48.39 63.2276L46.7015 65.4222ZM38.4455 56.5747C37.8486 55.6434 37.2863 54.6612 36.7632 53.6228L39.2361 52.377C39.716 53.3296 40.231 54.229 40.7767 55.0804L38.4455 56.5747ZM36.7632 53.6228C36.1752 52.4557 35.7142 51.2762 35.3711 50.0884L38.0313 49.3198C38.3263 50.341 38.7242 51.3608 39.2361 52.377L36.7632 53.6228ZM34.5948 44.0908C34.6454 41.6069 35.1311 39.1474 35.9377 36.7478L38.5624 37.6301C37.8304 39.8078 37.4072 41.9876 37.3632 44.1472L34.5948 44.0908ZM38.3023 31.3586C39.4337 29.2551 40.7706 27.2083 42.236 25.2408L44.4567 26.8948C43.0574 28.7736 41.7975 30.706 40.741 32.6703L38.3023 31.3586ZM45.8882 20.7642C47.4995 18.9448 49.1863 17.2126 50.8782 15.5889L52.7955 17.5867C51.1493 19.1666 49.5157 20.8448 47.9611 22.6001L45.8882 20.7642ZM55.1153 11.7362C57.0757 10.0429 58.9662 8.52315 60.672 7.21249L62.3591 9.40816C60.689 10.6914 58.8402 12.1778 56.9252 13.8318L55.1153 11.7362ZM65.2828 3.82982C66.2006 3.18853 66.9418 2.69042 67.4554 2.35148C67.7123 2.182 67.9123 2.05226 68.0491 1.96428C68.1175 1.92028 68.1701 1.88672 68.2061 1.86384C68.2241 1.85241 68.2379 1.84364 68.2475 1.83757C68.2523 1.83454 68.2561 1.83218 68.2587 1.83049C68.2601 1.82965 68.2611 1.82898 68.2619 1.82848C68.2623 1.82824 68.2627 1.82804 68.2629 1.82786C68.263 1.82778 68.2632 1.82771 68.2633 1.82765C68.2633 1.82762 68.2634 1.82758 68.2634 1.82756C68.2634 1.82753 68.2635 1.8275 68.9999 2.9999C69.7363 4.1723 69.7364 4.17227 69.7364 4.17225C69.7364 4.17225 69.7365 4.17222 69.7365 4.17221C69.7365 4.17219 69.7365 4.17219 69.7365 4.17219C69.7365 4.17219 69.7364 4.17224 69.7363 4.17234C69.736 4.17252 69.7354 4.17286 69.7346 4.17338C69.733 4.17441 69.7303 4.17613 69.7265 4.17851C69.7189 4.18328 69.7072 4.19074 69.6913 4.20084C69.6594 4.22106 69.6111 4.25189 69.5471 4.29309C69.419 4.37549 69.228 4.49933 68.9805 4.66265C68.4855 4.98927 67.7647 5.47358 66.8689 6.09958L65.2828 3.82982Z" fill="#E4E4E4"/>
</svg>
