<svg width="50" height="138" viewBox="0 0 50 138" fill="none" xmlns="http://www.w3.org/2000/svg">
<path d="M28.463 136.338C28.7776 137.397 29.891 138 30.9498 137.685L48.2042 132.558C49.263 132.244 49.8663 131.13 49.5517 130.071C49.2371 129.013 48.1237 128.409 47.0649 128.724L31.7276 133.281L27.1703 117.944C26.8557 116.885 25.7423 116.282 24.6835 116.596C23.6247 116.911 23.0214 118.024 23.336 119.083L28.463 136.338ZM1.11101 1.83629C0.12836 3.57824 0.127684 3.57786 0.127308 3.57765C0.127574 3.5778 0.127487 3.57775 0.128022 3.57805C0.129086 3.57866 0.131323 3.57993 0.134726 3.58187C0.141524 3.58574 0.152971 3.59229 0.168963 3.6015C0.200951 3.61993 0.251133 3.64904 0.318722 3.68882C0.453911 3.7684 0.658715 3.89068 0.92692 4.05572C1.46338 4.38584 2.25314 4.8868 3.24651 5.55898C5.23384 6.90372 8.03265 8.93141 11.2468 11.6447C17.6811 17.0764 25.7446 25.2259 32.3064 36.1103C45.3561 57.7565 52.6425 90.4843 28.6217 134.815L32.1386 136.721C56.8476 91.1199 49.4994 56.8818 35.7321 34.0451C28.8853 22.6881 20.4948 14.2169 13.8271 8.58819C10.4902 5.77133 7.57608 3.65893 5.48819 2.24614C4.44396 1.53955 3.60554 1.00737 3.02324 0.649049C2.73206 0.469869 2.50483 0.334106 2.34783 0.24169C2.26933 0.195481 2.20838 0.160103 2.16575 0.135549C2.14445 0.123272 2.12772 0.1137 2.11567 0.106832C2.10965 0.103398 2.10479 0.10064 2.10112 0.098558C2.09928 0.0975176 2.09742 0.0964613 2.0965 0.0959418C2.09493 0.0950562 2.09366 0.0943391 1.11101 1.83629Z" fill="black"/>
</svg>
