<svg width="12" height="22" viewBox="0 0 12 22" fill="none" xmlns="http://www.w3.org/2000/svg">
<path d="M8.76508 4.30479C10.2705 4.28571 10.7211 4.30441 10.7253 4.30441C10.7901 4.30975 10.8584 4.28112 10.9077 4.23113C10.9574 4.18115 10.9859 4.11169 10.988 4.03842L11.08 0.319514C11.08 0.0481799 11.08 0.0481802 10.1543 0.0340652L10.0638 0.032541C9.85279 0.029868 9.64004 0.0237638 9.42623 0.0172768C8.44103 -0.0117269 7.42342 -0.0418717 6.45548 0.265329C5.4509 0.584362 4.63865 1.19878 4.10642 2.04254C3.53122 2.95462 3.21455 4.18649 3.21455 5.5111V8.13971H0.342074C0.205056 8.13971 0.0930475 8.2584 0.08952 8.40685L5.48293e-05 12.4219C-0.00135186 12.4952 0.0243575 12.5661 0.0715573 12.6188C0.118757 12.6715 0.183567 12.7016 0.251196 12.702L3.18215 12.7196L3.27726 20.7515C3.27902 20.9011 3.39173 21.0217 3.52981 21.0217H7.15502C7.29345 21.0217 7.40616 20.9008 7.40758 20.7508L7.48507 12.702H10.2265C10.3526 12.702 10.459 12.6012 10.4766 12.4662L10.9856 8.51904C10.9954 8.44158 10.9743 8.36296 10.9275 8.30343C10.8806 8.24389 10.8123 8.20916 10.7401 8.20764L7.47133 8.14467L7.48788 5.32754C7.48787 5.2245 7.5245 4.32043 8.76508 4.30479Z" fill="#DBDADA"/>
</svg>
