<svg width="21" height="18" viewBox="0 0 21 18" fill="none" xmlns="http://www.w3.org/2000/svg">
<path d="M6.53447 17.7993C14.3757 17.7993 18.6634 10.952 18.6634 5.01456C18.6634 4.82007 18.6597 4.62646 18.6514 4.43373C19.4838 3.79946 20.2073 3.00794 20.7778 2.10692C20.014 2.46479 19.1921 2.70571 18.3298 2.81434C19.2099 2.25804 19.8856 1.37804 20.2044 0.328956C19.3807 0.84364 18.4686 1.21772 17.4974 1.41965C16.7195 0.54622 15.612 0 14.3857 0C12.0315 0 10.1224 2.01231 10.1224 4.49287C10.1224 4.84548 10.1598 5.18845 10.233 5.51741C6.68991 5.3295 3.54827 3.54147 1.44595 0.822619C1.07984 1.48667 0.868736 2.25804 0.868736 3.0811C0.868736 4.64004 1.62131 6.01633 2.76577 6.82143C2.06638 6.79865 1.40938 6.59628 0.835074 6.25944C0.834446 6.27829 0.834448 6.29667 0.834448 6.31682C0.834448 8.49295 2.30387 10.3099 4.25451 10.7216C3.8963 10.8246 3.51939 10.8798 3.13042 10.8798C2.85615 10.8798 2.58894 10.8513 2.32922 10.7987C2.87194 12.5841 4.44567 13.8833 6.31154 13.9197C4.8525 15.1251 3.01448 15.8431 1.01688 15.8431C0.673209 15.8431 0.333695 15.8225 0 15.7809C1.88665 17.0555 4.12693 17.7993 6.53469 17.7993" fill="#DBDADA"/>
</svg>
